<svg xmlns="http://www.w3.org/2000/svg" style="enable-background:new 0 0 481.89 481.89" xml:space="preserve" viewBox="0 0 481.89 481.89"><path style="fill:none;enable-background:new" d="M184.142 275.178c-1.797.246-3.6.551-5.402.917-1.643-3.687-2.764-7.227-3.308-10.641l-.002-.033a21.74 21.74 0 0 1-.379-3.12c-.251-3.079-.021-6.049.495-8.959 2.728 7.662 5.433 15.059 8.596 21.836zm-9.419-70.011c2.379-3.204 4.884-5.92 7.559-8.094l.021-.02a25.38 25.38 0 0 1 2.545-1.918c2.157-1.495 4.427-2.62 6.743-3.584-4.973 5.843-9.728 11.561-13.798 17.344a76.418 76.418 0 0 0-3.07-3.728zm129.524 62.229c-2.441 3.298-5.013 6.065-7.755 8.282l-.03.018a26.463 26.463 0 0 1-2.548 1.913c-2.78 1.901-5.701 3.302-8.736 4.355 5.565-6.355 10.938-12.547 15.538-18.801a79.218 79.218 0 0 0 3.531 4.233zm-69.583-103.411c4.119.413 7.842 1.211 11.146 2.444l.022.009c1.02.351 2.009.757 2.935 1.212 3.426 1.596 6.4 3.672 9.046 6.094-8.827-1.519-17.379-2.945-25.552-3.521a81.164 81.164 0 0 0 2.403-6.238zm44.168 51.79c.295.932.591 1.864.926 2.781.188.64.403 1.285.627 1.927 2.642 8.063 5.509 16.306 9.231 24.243-.312.376-.598.756-.919 1.129-3.602 4.262-7.561 8.569-11.634 12.955-.684.726-1.367 1.447-2.015 2.19-.459.478-.921.996-1.383 1.498-6.009 6.535-12.044 13.401-17.349 20.88-.924-.132-1.831-.241-2.756-.394-5.525-.877-11.239-2.028-17.084-3.238a58.276 58.276 0 0 0-2.904-.584c-.655-.152-1.333-.278-2-.404-8.302-1.677-16.878-3.247-25.615-3.966-.338-.856-.688-1.693-1.015-2.573-1.94-5.167-3.747-10.657-5.556-16.28-.291-.936-.581-1.873-.907-2.791a63.948 63.948 0 0 0-.632-1.919c-2.584-7.906-5.397-15.997-9.021-23.794.636-.802 1.253-1.601 1.919-2.4 3.558-4.313 7.462-8.656 11.49-13.086.665-.733 1.348-1.456 1.982-2.209.461-.484.919-1.001 1.369-1.516 5.436-6.045 10.918-12.352 15.812-19.159 1.259.164 2.508.322 3.784.521 5.514.845 11.24 1.982 17.098 3.165a78.27 78.27 0 0 0 2.907.585c.655.133 1.323.27 2.001.395 8.211 1.625 16.696 3.147 25.335 3.842.246.642.51 1.264.755 1.915 1.951 5.17 3.754 10.655 5.554 16.287zm25.628-10.171.006.021c.182 1.052.307 2.108.344 3.13.292 4.151-.241 8.099-1.291 11.938-2.938-8.255-5.782-16.253-9.14-23.545a79.111 79.111 0 0 0 7.263-1.339c1.389 3.382 2.351 6.639 2.818 9.795zm-60.81 102.132c-4.156-.408-7.901-1.209-11.23-2.457l-.025-.007a23.934 23.934 0 0 1-2.924-1.221c-3.038-1.402-5.703-3.203-8.113-5.264 8.384 1.475 16.516 2.852 24.311 3.483a80.902 80.902 0 0 0-2.019 5.466z"/><g style="enable-background:new"><path style="fill:#5c94be" d="M302.831 83.974c6.573-.154 13.242.026 19.854.237l2.214 88.54c-6.875 1.875-13.697 2.817-20.496 3.092l-1.572-91.869z"/></g><g style="enable-background:new"><path style="fill:#5c94be" d="M331.879 84.496c11.3.305 22.205.333 32.166-1.409 12.214 72.407-26.413 83.714-26.413 83.714 21.906-39.199 1.189-72.843-5.753-82.305z"/></g><g style="enable-background:new"><path style="fill:#5f9bc8" d="M302.978 195.492c-1.459-2.214-3.016-4.462-4.799-6.781a57.666 57.666 0 0 1 3.463 7.098 78.441 78.441 0 0 1-7.263 1.339c-2.094-4.553-4.387-8.841-7.03-12.73a59.716 59.716 0 0 0-2.765-3.722l-.022-.009c-.873-1.076-1.727-2.116-2.658-3.13-.052-.048-.103-.09-.153-.146 21.748 2.504 44.547 1.712 67.105-12.445-15.026 17.796-30.502 26.683-45.878 30.526z"/></g><g style="enable-background:new"><path style="fill:#5f9bc8" d="M184.847 195.135a25.38 25.38 0 0 0-2.545 1.918l-.021.02c-2.675 2.174-5.18 4.89-7.559 8.094-.273-.313-.535-.632-.812-.941 2.384-4.86 4.889-9.121 7.531-12.784a79.812 79.812 0 0 1 2.35-3.044l.026-.018c3.567-4.336 7.354-7.698 11.331-10.341l3.282 1.492a407.972 407.972 0 0 0 4.738-5.769c1.476-.6 2.991-1.094 4.512-1.542-5.241 6.734-10.786 13.107-16.092 19.331-2.314.964-4.584 2.09-6.741 3.584z"/></g><g style="enable-background:new"><path style="fill:#5f9bc8" d="M245.189 193.335a76.273 76.273 0 0 1-2.907-.585c-5.858-1.183-11.584-2.32-17.098-3.165-1.276-.199-2.525-.357-3.784-.521 4.206-5.848 7.927-12.098 10.861-18.842 8.173.577 16.725 2.002 25.552 3.521a43.045 43.045 0 0 1 6.346 7.308c3.333 4.815 6.005 10.435 8.366 16.519-8.639-.694-17.124-2.216-25.335-3.842-.677-.124-1.345-.26-2.001-.393z"/></g><g style="enable-background:new"><path style="fill:#5c94be" d="M261.81 93.401c5.414-3.116 11.195-5.213 17.271-6.672l4.647 88.313c-1.749-.194-3.476-.493-5.217-.722a44.023 44.023 0 0 0-10.19-6.682l-6.511-74.237z"/></g><g style="enable-background:new"><path style="fill:#5c94be" d="M238.072 114.321c10.965-95.328 114.38-36.598 153.309-47.652-35.379 37.9-117.831-14.55-153.309 47.652z"/></g><g style="enable-background:new"><path style="fill:#458eab" d="M403.817 212.804c3.326 5.557 6.425 11.367 9.459 17.159l-76.626 46.649c-4.996-4.933-9.14-10.334-12.694-16.031l79.861-47.777z"/></g><g style="enable-background:new"><path style="fill:#458eab" d="M348.081 284.556c45.076-1.014 64.509-35.822 69.439-46.549 5.232 9.857 10.516 19.222 16.902 26.909-57.593 47.076-86.341 19.64-86.341 19.64z"/></g><g style="enable-background:new"><path style="fill:#458eab" d="M303.519 220.694c-.753 2.733-1.731 5.422-3.034 8.048-2.694 5.447-6.486 10.729-10.868 15.984-3.723-7.938-6.59-16.18-9.231-24.243a42.312 42.312 0 0 1-.627-1.927 67.092 67.092 0 0 1-.926-2.781c-1.8-5.632-3.603-11.117-5.552-16.289-.245-.651-.509-1.273-.755-1.915 7.194.575 14.5.58 21.854-.423 3.356 7.292 6.201 15.291 9.139 23.546z"/></g><g style="enable-background:new"><path style="fill:#458eab" d="M304.247 267.396a79.596 79.596 0 0 1-3.531-4.232c3.09-4.196 5.84-8.436 8.043-12.781a60.525 60.525 0 0 0 1.933-4.24l-.009-.03a77.034 77.034 0 0 0 1.246-3.284c8.374 19.612 20.179 38.389 43.241 50.423-23.638-4.021-39.211-13.246-50.121-24.997a124.913 124.913 0 0 0 3.028-6.642c-1.23 2.125-2.518 4.013-3.83 5.783z"/></g><g style="enable-background:new"><path style="fill:#458eab" d="M248.768 167.65a25.483 25.483 0 0 0-2.935-1.212l-.022-.009c-3.305-1.233-7.028-2.032-11.146-2.444.124-.366.245-.735.365-1.107 5.6-.444 10.693-.444 15.313-.012 1.312.124 2.598.296 3.819.483l.028.007c5.343.838 9.99 2.317 14.132 4.281l.467 5.336c3.216.521 6.471.919 9.724 1.346a47.54 47.54 0 0 1 3.238 3.092c-8.147-.933-16.146-2.326-23.937-3.667-2.646-2.421-5.621-4.497-9.046-6.094z"/></g><g style="enable-background:new"><path style="fill:#2e7b9f" d="m284.562 180.688.022.009a59.421 59.421 0 0 1 2.765 3.722c2.644 3.889 4.937 8.177 7.03 12.73-7.354 1.002-14.659.998-21.854.423-2.361-6.084-5.033-11.704-8.366-16.519a42.962 42.962 0 0 0-6.346-7.308c7.79 1.341 15.789 2.734 23.937 3.667.051.056.102.098.153.146.932 1.014 1.785 2.053 2.659 3.13z"/></g><g style="enable-background:new"><path style="fill:#107ba0" d="M268.321 167.637a44.055 44.055 0 0 1 10.19 6.682c-3.253-.427-6.508-.825-9.724-1.346l-.466-5.336z"/></g><g style="enable-background:new"><path style="fill:#458eab" d="M375.551 182.337c5.379 3.072 10.021 6.967 14.265 11.452l-75.237 48.62c-.51-1.21-.944-2.446-1.437-3.657a44.121 44.121 0 0 0 1.118-13.791l61.291-42.624z"/></g><g style="enable-background:new"><path style="fill:#458eab" d="M345.614 172.519c89.003-38.783 87.86 79.73 116.545 107.56-50.512-11.21-44.661-108.533-116.545-107.56z"/></g><g style="enable-background:new"><path style="fill:#526ea6" d="m259.506 320.146 80.698 44.713c-3.28 5.669-6.897 11.25-10.506 16.771l-78.14-42.499c1.933-6.784 4.661-13.066 7.948-18.985z"/></g><g style="enable-background:new"><path style="fill:#526ea6" d="M250.112 352.952c22.71 38.282 62.721 37.521 74.557 36.366-6.139 9.456-11.813 18.715-15.482 28.076-69.278-25.911-59.075-64.442-59.075-64.442z"/></g><g style="enable-background:new"><path style="fill:#526ea6" d="M303.519 220.694c1.05-3.839 1.583-7.787 1.291-11.938a23.47 23.47 0 0 0-.344-3.13l-.006-.021c-.467-3.156-1.429-6.413-2.818-9.795.447-.099.896-.204 1.336-.317 2.804 4.242 5.086 8.317 6.811 12.215.535 1.193.987 2.378 1.438 3.532l.004.03c1.755 4.789 2.7 9.331 3.029 13.692l-5.142 3.574c1.264 3.429 2.642 6.824 4.023 10.217a53.649 53.649 0 0 1-.993 3.507c-.067.186-.148.376-.22.567-3.142-7.368-5.818-14.842-8.409-22.133z"/></g><g style="enable-background:new"><path style="fill:#526ea6" d="M243.65 307.736a79.937 79.937 0 0 1 2.018-5.465c4.77.388 9.421.499 13.925.16a58.53 58.53 0 0 0 4.665-.54l.023-.023a62.718 62.718 0 0 0 4.086-.732c.312-.074.62-.171.934-.251-13.19 17.058-23.993 36.647-23.408 62.542-7.718-21.843-7.342-39.535-2.617-54.597 2.301-.184 4.666-.428 7.151-.774-2.405.028-4.626-.113-6.777-.32z"/></g><g style="enable-background:new"><path style="fill:#526ea6" d="M275.049 261.001c.647-.743 1.331-1.465 2.015-2.19 4.073-4.386 8.032-8.693 11.634-12.955.321-.373.607-.753.919-1.129 3.023 6.44 6.611 12.672 11.1 18.437-4.601 6.254-9.973 12.445-15.538 18.801-3.463 1.202-7.071 1.941-10.827 2.25-5.701.484-11.757.056-18.033-.835 5.305-7.479 11.34-14.345 17.349-20.88.46-.503.922-1.021 1.381-1.499z"/></g><g style="enable-background:new"><path style="fill:#2e509a" d="M298.179 188.711c1.783 2.318 3.34 4.567 4.799 6.781-.44.113-.889.219-1.336.317a57.666 57.666 0 0 0-3.463-7.098z"/></g><g style="enable-background:new"><path style="fill:#2e509a" d="M310.691 246.142a60.525 60.525 0 0 1-1.933 4.24c-2.203 4.346-4.953 8.585-8.043 12.781-4.488-5.765-8.076-11.996-11.1-18.437 4.382-5.255 8.174-10.538 10.868-15.984 1.303-2.626 2.281-5.315 3.034-8.048 2.592 7.291 5.268 14.766 8.41 22.133-.392 1.1-.795 2.18-1.246 3.284l.01.031z"/></g><g style="enable-background:new"><path style="fill:#2e509a" d="M314.26 224.961a44.151 44.151 0 0 1-1.118 13.791c-1.382-3.394-2.76-6.788-4.023-10.217l5.141-3.574z"/></g><g style="enable-background:new"><path style="fill:#526ea6" d="m285.254 293.498 68.06 31.739c-.112 6.16-1.285 12.142-3.174 18.03l-79.191-40.309c.907-1.173 1.885-2.287 2.807-3.438a45.342 45.342 0 0 0 11.498-6.022z"/></g><g style="enable-background:new"><path style="fill:#526ea6" d="M347.441 294.545c77.191 57.106-27.566 115.666-38.172 154.331-14.581-49.104 73.833-92.964 38.172-154.331z"/></g><g style="enable-background:new"><path style="fill:#6e7ba8" d="m174.282 296.406 1.182 91.876c-6.563.119-13.226-.083-19.849-.314l-1.843-88.558c6.876-1.855 13.709-2.754 20.51-3.004z"/></g><g style="enable-background:new"><path style="fill:#6e7ba8" d="M146.421 387.648c-11.304-.36-22.194-.422-32.171 1.266-11.895-72.452 26.769-83.613 26.769-83.613-22.071 39.108-1.492 72.85 5.402 82.347z"/></g><g style="enable-background:new"><path style="fill:#6e7ba8" d="M178.74 276.095a85.212 85.212 0 0 1 5.402-.917c2.017 4.327 4.219 8.396 6.743 12.114a59.77 59.77 0 0 0 2.761 3.718l.026.019a72.257 72.257 0 0 0 2.653 3.117c.262.282.546.531.814.806-21.79-2.621-44.659-1.955-67.353 12.145 15.68-18.418 31.806-27.226 47.771-30.751a117.263 117.263 0 0 0 4.342 5.921c-1.255-2.12-2.262-4.16-3.159-6.172z"/></g><g style="enable-background:new"><path style="fill:#6e7ba8" d="M293.914 277.608a26.463 26.463 0 0 0 2.548-1.913l.03-.018c2.742-2.217 5.313-4.984 7.755-8.282.259.293.538.571.802.857-2.451 4.986-5.034 9.334-7.749 13.055a63.519 63.519 0 0 1-2.37 3.038l-.012.013c-3.072 3.703-6.299 6.702-9.664 9.14l-4.758-2.217c-2.296 2.693-4.515 5.472-6.741 8.24-1.465.522-2.95.979-4.454 1.363 5.108-6.616 10.571-12.853 15.877-18.921 3.035-1.053 5.956-2.453 8.736-4.355z"/></g><g style="enable-background:new"><path style="fill:#6e7ba8" d="M233.573 279.163c.967.161 1.938.372 2.904.584 5.845 1.21 11.559 2.361 17.084 3.238.925.152 1.832.262 2.756.394-4.156 5.854-7.827 12.102-10.649 18.893-7.795-.632-15.927-2.009-24.311-3.483-2.755-2.362-5.172-5.074-7.285-8.132-3.218-4.64-5.812-10.033-8.113-15.863 8.737.719 17.313 2.289 25.615 3.966.666.125 1.344.251 1.999.403z"/></g><g style="enable-background:new"><path style="fill:#4f5f9c" d="M308.077 261.611c-.983 2.348-2 4.538-3.028 6.642-.264-.286-.543-.564-.802-.857 1.312-1.77 2.6-3.658 3.83-5.785z"/></g><g style="enable-background:new"><path style="fill:#4d5f98" d="m264.281 301.868-.023.023a58.53 58.53 0 0 1-4.665.54c-4.504.339-9.155.228-13.925-.16 2.822-6.791 6.493-13.038 10.649-18.893 6.276.891 12.332 1.319 18.033.835 3.756-.309 7.364-1.048 10.827-2.25-5.306 6.068-10.769 12.305-15.877 18.921-.313.08-.622.177-.934.251-1.347.298-2.691.522-4.085.733z"/></g><g style="enable-background:new"><path style="fill:#4f5f9c" d="M285.254 293.498a45.368 45.368 0 0 1-11.499 6.023c2.227-2.769 4.445-5.547 6.741-8.24l4.758 2.217z"/></g><g style="enable-background:new"><path style="fill:#6e7ba8" d="M216.519 379.026c-5.434 3.097-11.207 5.175-17.286 6.595l-4.275-88.326c1.877.22 3.733.548 5.599.8a43.953 43.953 0 0 0 9.737 6.154l6.225 74.777z"/></g><g style="enable-background:new"><path style="fill:#6e7ba8" d="M240.352 358.193c-11.361 95.301-114.529 36.142-153.496 47.043 35.533-37.778 117.762 15.016 153.496-47.043z"/></g><g style="enable-background:new"><path style="fill:#91c4e0" d="M74.418 258.914c-3.332-5.566-6.429-11.373-9.471-17.16l76.631-46.661c4.995 4.948 9.144 10.347 12.695 16.038l-79.855 47.783z"/></g><g style="enable-background:new"><path style="fill:#91c4e0" d="M43.805 206.786c57.594-47.069 86.347-19.629 86.347-19.629-45.08 1.009-64.513 35.811-69.437 46.552-5.235-9.863-10.532-19.233-16.91-26.923z"/></g><g style="enable-background:new"><path style="fill:#91c4e0" d="M229.47 304.052c.911.46 1.908.868 2.924 1.221l.025.007c3.329 1.248 7.074 2.049 11.23 2.457-.118.366-.26.717-.375 1.094-5.628.449-10.749.453-15.386.014a74.963 74.963 0 0 1-3.826-.478l-.024-.013c-5.18-.814-9.702-2.229-13.747-4.104l-.402-4.824c-3.086-.512-6.212-.899-9.334-1.33a47.26 47.26 0 0 1-3.417-3.144c8.254.994 16.347 2.445 24.218 3.837 2.412 2.06 5.076 3.86 8.114 5.263z"/></g><g style="enable-background:new"><path style="fill:#91c4e0" d="M174.723 205.167a75.82 75.82 0 0 1 3.069 3.728c-2.739 3.893-5.178 7.814-7.154 11.825a62.286 62.286 0 0 0-1.888 4.276l-.005.024c-.503 1.299-.984 2.563-1.409 3.871-.152.481-.265.978-.399 1.469-8.414-20.142-20.229-39.567-43.87-51.904 24.154 4.116 39.895 13.645 50.845 25.77a116.843 116.843 0 0 0-3.164 6.961 60.922 60.922 0 0 1 3.975-6.02z"/></g><g style="enable-background:new"><path style="fill:#91c4e0" d="M197.849 251.229c.221.648.439 1.288.632 1.919.326.918.616 1.855.907 2.791 1.809 5.623 3.616 11.113 5.556 16.28.326.88.677 1.717 1.015 2.573-7.182-.594-14.472-.605-21.816.385-3.163-6.776-5.868-14.174-8.597-21.836.668-3.8 1.873-7.48 3.603-11.063 2.426-5.055 5.796-9.959 9.681-14.843 3.622 7.797 6.435 15.888 9.019 23.794z"/></g><g style="enable-background:new"><path style="fill:#4da9dc" d="M170.748 211.187a116.554 116.554 0 0 1 3.164-6.961c.277.31.539.629.812.941a60.747 60.747 0 0 0-3.976 6.02z"/></g><g style="enable-background:new"><path style="fill:#3b65a0" d="M250.427 308.056c-2.485.347-4.851.591-7.151.774.115-.377.257-.728.375-1.094 2.15.207 4.371.348 6.776.32z"/></g><g style="enable-background:new"><path style="fill:#3d699f" d="m193.672 291.028-.026-.019a60.173 60.173 0 0 1-2.761-3.718c-2.523-3.718-4.726-7.787-6.743-12.114 7.344-.99 14.634-.979 21.816-.385 2.301 5.83 4.896 11.224 8.113 15.863 2.113 3.058 4.53 5.77 7.285 8.132-7.871-1.392-15.964-2.843-24.218-3.837-.268-.274-.552-.523-.814-.806a71.12 71.12 0 0 1-2.652-3.116z"/></g><g style="enable-background:new"><path style="fill:#3d699f" d="M210.293 304.249a44.012 44.012 0 0 1-9.737-6.154c3.122.431 6.249.818 9.334 1.33l.403 4.824z"/></g><g style="enable-background:new"><path style="fill:#91c4e0" d="M102.682 289.381c-5.377-3.08-10.036-6.979-14.268-11.454l75.239-48.629c.795 1.876 1.482 3.788 2.234 5.681a43.456 43.456 0 0 0-.504 10.795l-62.701 43.607z"/></g><g style="enable-background:new"><path style="fill:#91c4e0" d="M132.609 299.193c-89 38.777-87.859-79.726-116.535-107.572 50.511 11.225 44.656 108.544 116.535 107.572z"/></g><g style="enable-background:new"><path style="fill:#6db1d7" d="M226.848 131.366c-1.853 6.803-4.519 13.112-7.741 19.065l-81.186-43.819c3.202-5.707 6.762-11.326 10.31-16.884l78.617 41.638z"/></g><g style="enable-background:new"><path style="fill:#6db1d7" d="M228.14 117.531c-23.15-38.024-63.153-36.825-74.968-35.551 6.031-9.511 11.6-18.837 15.174-28.231 69.567 25.144 59.794 63.782 59.794 63.782z"/></g><g style="enable-background:new"><path style="fill:#4da9dc" d="M175.545 253.342c-.516 2.91-.746 5.88-.495 8.959.042 1.016.181 2.069.379 3.12l.002.033c.544 3.414 1.665 6.954 3.308 10.641-.392.079-.787.165-1.182.25-3.106-4.503-5.599-8.815-7.477-12.945a58.019 58.019 0 0 1-1.464-3.513l-.012-.03c-1.881-4.928-2.882-9.599-3.223-14.082l3.731-2.596c-1.009-2.755-2.139-5.468-3.227-8.2.271-1.56.623-3.099 1.049-4.62 3.209 7.677 5.924 15.451 8.611 22.983z"/></g><g style="enable-background:new"><path style="fill:#6db1d7" d="M234.664 163.985a81.006 81.006 0 0 1-2.403 6.238c-4.515-.322-8.928-.391-13.195-.055a66.115 66.115 0 0 0-4.667.554l-.017.027c-1.387.22-2.73.455-4.084.756-.881.203-1.746.463-2.617.715 13.828-17.772 25.47-38.102 24.558-65.2 8.189 22.386 7.735 40.459 2.79 55.858-2.321.185-4.708.426-7.218.777 2.433-.027 4.682.115 6.853.33z"/></g><g style="enable-background:new"><path style="fill:#6db1d7" d="M204.22 209.739c-.634.754-1.317 1.477-1.982 2.209-4.028 4.43-7.932 8.772-11.49 13.086-.666.799-1.283 1.598-1.919 2.4-3.002-6.467-6.565-12.735-11.037-18.54 4.07-5.783 8.825-11.501 13.798-17.344 4.061-1.688 8.325-2.713 12.803-3.107 5.386-.479 11.089-.148 17.007.621-4.894 6.808-10.376 13.114-15.812 19.159a46.838 46.838 0 0 1-1.368 1.516z"/></g><g style="enable-background:new"><path style="fill:#4f9dca" d="m214.383 170.749.017-.027a66.71 66.71 0 0 1 4.667-.554c4.268-.336 8.68-.267 13.195.055-2.934 6.744-6.655 12.994-10.861 18.842-5.918-.769-11.622-1.1-17.007-.621-4.478.394-8.743 1.419-12.803 3.107 5.306-6.224 10.851-12.597 16.092-19.331.872-.252 1.736-.512 2.617-.715a66.077 66.077 0 0 1 4.083-.756z"/></g><g style="enable-background:new"><path style="fill:#4da9dc" d="M227.811 163.655c2.51-.351 4.897-.592 7.218-.777-.12.372-.241.741-.365 1.107-2.171-.215-4.42-.357-6.853-.33z"/></g><g style="enable-background:new"><path style="fill:#5595c2" d="M181.9 282.266a117.263 117.263 0 0 1-4.342-5.921c.395-.085.79-.171 1.182-.25.897 2.012 1.904 4.052 3.16 6.171z"/></g><g style="enable-background:new"><path style="fill:#58a7d1" d="m168.745 225.02.005-.024a62.286 62.286 0 0 1 1.888-4.276c1.976-4.011 4.415-7.932 7.154-11.825 4.472 5.805 8.035 12.073 11.037 18.54-3.885 4.884-7.255 9.789-9.681 14.843-1.73 3.583-2.935 7.264-3.603 11.063-2.687-7.532-5.402-15.306-8.609-22.982.135-.491.248-.987.399-1.469.425-1.307.906-2.571 1.41-3.87z"/></g><g style="enable-background:new"><path style="fill:#4da9dc" d="M165.383 245.774a43.502 43.502 0 0 1 .504-10.795c1.088 2.731 2.218 5.445 3.227 8.2l-3.731 2.595z"/></g><g style="enable-background:new"><path style="fill:#6db1d7" d="m195.149 178.038-69.9-31.666c.032-6.164 1.144-12.145 2.958-18.06l79.65 39.436a256.973 256.973 0 0 1-4.688 6.014c-2.755 1.117-5.424 2.556-8.02 4.276z"/></g><g style="enable-background:new"><path style="fill:#4f9dca" d="M195.149 178.038c2.596-1.72 5.265-3.159 8.021-4.277a407.972 407.972 0 0 1-4.738 5.769l-3.283-1.492z"/></g><g style="enable-background:new"><path style="fill:#6db1d7" d="M131.456 176.995c-77.838-56.256 26.28-115.956 36.433-154.716 15.145 48.929-72.774 93.747-36.433 154.716z"/></g></svg>