<svg xmlns="http://www.w3.org/2000/svg" style="enable-background:new 0 0 481.89 481.89" xml:space="preserve" viewBox="0 0 481.89 481.89"><path style="fill:#fff;enable-background:new" d="M183.18 266.385c-1.101-2.805-1.862-5.51-2.253-8.135l-.013-.033a20.927 20.927 0 0 1-.33-2.863c-.236-2.826-.032-5.545.417-8.213 1.556 4.557 3.102 8.996 4.755 13.26.904 2.35 1.848 4.627 2.844 6.836a73.535 73.535 0 0 0-4.752.803 35.377 35.377 0 0 1-.668-1.655m-1.142.469c.218.559.45 1.117.692 1.695.226.525.788.834 1.354.719a68.702 68.702 0 0 1 4.657-.777c.391-.061.727-.293.913-.646.181-.324.206-.73.071-1.064-.01-.025-.021-.041-.031-.074a150.135 150.135 0 0 1-2.807-6.77c-1.717-4.408-3.35-9.137-4.753-13.201.011-.025-.004-.039-.009-.061-.2-.506-.706-.832-1.228-.775a1.223 1.223 0 0 0-1.101 1.035c-.504 3.029-.649 5.814-.437 8.471.042.938.164 1.957.354 3.045.419 2.647 1.196 5.487 2.325 8.403zm-1.839-63.907c2.087-2.919 4.283-5.391 6.633-7.36l.016-.034a24.104 24.104 0 0 1 2.232-1.735c1.902-1.357 3.899-2.368 5.936-3.229-4.381 5.32-8.544 10.522-12.115 15.796a81.188 81.188 0 0 0-2.702-3.438m-1.127.47c.048.123.116.245.205.354a65.222 65.222 0 0 1 2.66 3.377c.227.32.601.498.989.494a1.24 1.24 0 0 0 .978-.538c3.7-5.473 8.164-10.974 12.043-15.703.282-.363.358-.856.191-1.279-.042-.09-.084-.196-.154-.273a1.208 1.208 0 0 0-1.43-.434c-2.444 1.057-4.4 2.121-6.134 3.366a20.773 20.773 0 0 0-2.4 1.868c-2.382 2.001-4.604 4.478-6.804 7.564a1.26 1.26 0 0 0-.144 1.204zm98.412 70.835c4.88-5.789 9.597-11.432 13.636-17.127a70.618 70.618 0 0 0 3.115 3.914c-2.143 3.002-4.408 5.516-6.813 7.529l-.024.021a23.105 23.105 0 0 1-2.24 1.732c-2.434 1.716-5.005 2.984-7.674 3.931m-1.124.457a.726.726 0 0 0 .117.24c.301.475.881.668 1.393.49 2.96-1.045 5.57-2.383 7.962-4.061a26.063 26.063 0 0 0 2.288-1.775c.026-.018.044-.031.074-.049 2.439-2.039 4.793-4.646 7.023-7.775a1.28 1.28 0 0 0 .141-1.203.997.997 0 0 0-.215-.361 79.466 79.466 0 0 1-3.057-3.846 1.216 1.216 0 0 0-.985-.492c-.38 0-.732.191-.958.514-3.883 5.49-8.264 10.74-13.576 17.035a1.267 1.267 0 0 0-.207 1.283zm-45.606-103.368a73.672 73.672 0 0 0 2.095-5.702c3.629.404 6.913 1.176 9.818 2.328l.021.007c.883.324 1.766.71 2.577 1.132 3.018 1.494 5.646 3.415 7.977 5.661-7.776-1.456-15.304-2.838-22.488-3.426m-1.138.459c.029.066.052.134.095.185.208.349.557.572.954.605 6.946.575 14.231 1.888 22.359 3.408.521.108 1.045-.171 1.292-.671.16-.325.173-.705.046-1.015a1.382 1.382 0 0 0-.293-.469c-2.574-2.466-5.28-4.393-8.263-5.853a23.207 23.207 0 0 0-2.702-1.197c-2.955-1.176-6.361-1.979-10.118-2.402a1.21 1.21 0 0 0-1.285.839 79.672 79.672 0 0 1-2.065 5.621c-.132.307-.13.637-.02.949zm-21.827 95.253c-.302-.783-.613-1.559-.895-2.363-1.722-4.758-3.315-9.795-4.915-14.979a83.389 83.389 0 0 0-.813-2.564c-.16-.572-.359-1.172-.551-1.771-1.621-5.174-3.363-10.428-5.375-15.619a146.176 146.176 0 0 0-2.598-6.28c.558-.726 1.086-1.446 1.679-2.181 3.131-3.934 6.555-7.886 10.094-11.913.58-.668 1.173-1.33 1.731-2.012.414-.441.807-.918 1.2-1.38 4.775-5.502 9.587-11.237 13.879-17.444 1.114.159 2.206.312 3.336.504 4.852.814 9.892 1.905 15.035 3.034.86.207 1.698.39 2.564.564.578.121 1.166.248 1.763.378 7.226 1.545 14.688 3.009 22.29 3.712.223.589.453 1.154.663 1.755 1.724 4.765 3.323 9.807 4.916 14.987.259.854.518 1.72.825 2.563.159.59.358 1.178.547 1.773 1.629 5.172 3.354 10.428 5.363 15.613.875 2.251 1.81 4.483 2.793 6.708-.275.34-.522.673-.798 1.024-3.161 3.882-6.636 7.796-10.223 11.787-.594.66-1.195 1.318-1.765 1.996-.398.434-.81.896-1.211 1.365-5.273 5.938-10.574 12.201-15.227 19.02-.809-.133-1.6-.242-2.429-.389-4.848-.852-9.881-1.949-15.032-3.1a42.996 42.996 0 0 0-2.553-.559c-.573-.152-1.17-.273-1.755-.395-7.308-1.592-14.853-3.108-22.538-3.834m-1.131.468c.159.439.558.74 1.021.789 7.72.727 15.328 2.264 22.403 3.816l.232.047c.495.096.988.199 1.557.334.824.156 1.659.357 2.51.551 4.857 1.096 10.026 2.238 15.081 3.121.569.1 1.113.178 1.675.266l.773.125a1.23 1.23 0 0 0 1.186-.525c4.773-7 10.32-13.477 15.137-18.895l.17-.203c.338-.375.671-.766 1.063-1.184a42.59 42.59 0 0 1 1.738-1.955c3.408-3.811 6.991-7.857 10.247-11.854.152-.188.316-.383.47-.585l.339-.433c.282-.359.357-.844.198-1.268a.12.12 0 0 0-.025-.074 128.622 128.622 0 0 1-2.766-6.629c-2.108-5.427-3.884-10.893-5.351-15.555-.188-.584-.374-1.14-.563-1.793-.263-.74-.489-1.497-.72-2.246l-.083-.257c-1.495-4.883-3.128-10.101-4.924-15.045-.13-.356-.274-.701-.401-1.055l-.272-.727a.096.096 0 0 0-.017-.014 1.19 1.19 0 0 0-1.017-.785c-7.642-.706-15.169-2.199-22.165-3.699-.584-.121-1.163-.25-1.775-.379a62.86 62.86 0 0 1-2.533-.556c-5.187-1.135-10.245-2.228-15.085-3.041a99.909 99.909 0 0 0-2.85-.445l-.514-.074a1.198 1.198 0 0 0-1.16.515c-4.332 6.25-9.183 12.033-13.813 17.36a31.27 31.27 0 0 1-1.204 1.39c-.388.485-.805.953-1.219 1.427l-.488.549c-3.177 3.631-6.857 7.852-10.125 11.953a58.013 58.013 0 0 0-1.24 1.617l-.458.593c-.274.352-.34.831-.176 1.25.016.027.019.035.019.054a124.537 124.537 0 0 1 2.584 6.224c2.098 5.421 3.885 10.897 5.349 15.549l.052.184c.175.523.349 1.039.518 1.59.277.83.527 1.676.785 2.539 1.767 5.723 3.284 10.463 4.933 15.035.189.545.39 1.064.601 1.598l.303.783c-.006-.006-.002.008 0 .017zm86.856-49.327c-1.813-5.311-3.585-10.486-5.496-15.414a137.396 137.396 0 0 0-2.581-6.259 66.005 66.005 0 0 0 6.387-1.172c.042.099.083.189.114.293 1.167 3.014 1.985 5.903 2.373 8.714l.009.013c.168.972.276 1.944.315 2.88.258 3.806-.192 7.431-1.121 10.945m-1.132.456c.198.5.666.808 1.179.794.526-.021.989-.39 1.131-.918 1.026-3.949 1.411-7.665 1.158-11.326a25.662 25.662 0 0 0-.321-3.034c-.018-.028-.01-.055-.021-.078-.409-2.822-1.213-5.742-2.439-8.913l-.118-.297c-.22-.568-.813-.892-1.39-.751a69.701 69.701 0 0 1-6.285 1.157 1.18 1.18 0 0 0-.9.624 1.295 1.295 0 0 0-.066 1.078c.006.021.015.038.026.059a148.452 148.452 0 0 1 2.554 6.191c1.922 4.947 3.73 10.252 5.479 15.37.007.016.015.036.013.044zm-71.008 70.534c7.375 1.422 14.533 2.746 21.387 3.383a92.98 92.98 0 0 0-1.767 4.996c-3.648-.402-6.946-1.164-9.883-2.334l-.023-.008c-.885-.33-1.769-.705-2.571-1.143-2.675-1.312-5.025-2.974-7.143-4.894m-1.135.472c.08.184.182.336.336.475 2.353 2.113 4.77 3.781 7.372 5.068.815.43 1.736.834 2.736 1.205 2.985 1.189 6.327 1.982 10.182 2.41a1.219 1.219 0 0 0 1.283-.857 73.222 73.222 0 0 1 1.743-4.914 1.365 1.365 0 0 0 0-.939.717.717 0 0 0-.097-.188 1.219 1.219 0 0 0-.923-.596c-6.72-.625-13.616-1.895-21.285-3.359a1.18 1.18 0 0 0-1.305.68 1.335 1.335 0 0 0-.042 1.015z"/><g style="enable-background:new"><path style="fill:#5c94be" d="M292.69 92.777c5.782-.095 11.643.129 17.465.367l2.092 81.232c-6.043 1.672-12.045 2.491-18.024 2.683l-1.533-84.282z"/><path style="fill:#fff" d="m294.223 177.06-1.532-84.283c5.782-.095 11.643.129 17.465.367l2.092 81.232c-6.044 1.673-12.046 2.492-18.025 2.684m-1.127.461c.063.171.162.308.283.445.241.226.562.353.881.34 6.453-.208 12.435-1.102 18.308-2.715.535-.157.911-.655.897-1.246l-2.102-81.233a1.16 1.16 0 0 0-.078-.434 1.256 1.256 0 0 0-1.086-.783c-5.907-.253-11.691-.47-17.528-.368-.329 0-.636.131-.855.382-.23.23-.349.555-.341.888l1.534 84.282c.003.151.029.302.087.442z"/></g><g style="enable-background:new"><path style="fill:#5c94be" d="M318.244 93.484c9.933.361 19.526.478 28.294-1.048 10.858 66.51-23.107 76.591-23.107 76.591 19.211-35.79.926-66.821-5.187-75.543z"/><path style="fill:#fff" d="M323.431 169.027c12.533-23.35 9.111-44.681 3.512-59.11-2.975-7.676-6.575-13.407-8.698-16.433 9.933.361 19.526.478 28.294-1.048 10.857 66.51-23.108 76.591-23.108 76.591m-1.123.46c.04.109.104.207.175.324.313.392.812.563 1.281.412.361-.111 8.997-2.777 16.297-13.848 6.637-10.073 13.346-29.379 7.678-64.146-.022-.09-.044-.183-.084-.253a1.2 1.2 0 0 0-1.319-.775c-9.043 1.563-19.228 1.35-28.042 1.026a1.262 1.262 0 0 0-1.131.664 1.359 1.359 0 0 0-.051 1.061c.034.091.085.181.142.262 1.911 2.722 5.56 8.457 8.563 16.162 5.3 13.669 9.013 34.839-3.439 58.038a1.231 1.231 0 0 0-.07 1.073z"/></g><g style="enable-background:new"><path style="fill:#5f9bc8" d="M292.992 195.066a98.679 98.679 0 0 0-4.226-6.261 53.976 53.976 0 0 1 3.057 6.544 66.005 66.005 0 0 1-6.387 1.172c-1.848-4.194-3.879-8.136-6.205-11.732a57.507 57.507 0 0 0-2.438-3.43l-.022-.009c-.768-1.002-1.518-1.959-2.341-2.902a.698.698 0 0 1-.131-.122c19.129 2.462 39.198 1.911 59-10.905-13.177 16.207-26.783 24.252-40.307 27.645z"/><path style="fill:#fff" d="M274.299 178.327c19.129 2.462 39.198 1.911 59-10.905-13.177 16.207-26.783 24.251-40.307 27.644a98.679 98.679 0 0 0-4.226-6.261 53.976 53.976 0 0 1 3.057 6.544 66.005 66.005 0 0 1-6.387 1.172c-1.848-4.194-3.879-8.136-6.205-11.732a57.507 57.507 0 0 0-2.438-3.43l-.022-.009c-.768-1.002-1.518-1.959-2.341-2.902a.694.694 0 0 1-.131-.121m-1.125.46c.05.127.117.242.213.361.041.059.105.107.14.149.817.929 1.578 1.905 2.298 2.833.028.041.068.077.107.121a53.616 53.616 0 0 1 2.302 3.236c2.112 3.264 4.108 7.043 6.102 11.557.22.494.729.787 1.263.714a66.153 66.153 0 0 0 6.489-1.187 1.13 1.13 0 0 0 .567-.307c.196.068.418.073.636.034 15.332-3.882 28.727-13.043 40.951-28.066.288-.366.364-.858.189-1.274a1.603 1.603 0 0 0-.208-.366c-.39-.45-1.057-.563-1.558-.23-20.838 13.456-42.048 12.806-58.217 10.716a1.2 1.2 0 0 0-1.227.655 1.278 1.278 0 0 0-.047 1.054z"/></g><g style="enable-background:new"><path style="fill:#5f9bc8" d="M189.081 193.818a23.673 23.673 0 0 0-2.232 1.735l-.016.034c-2.35 1.97-4.546 4.441-6.633 7.36-.247-.297-.478-.591-.719-.876 2.091-4.435 4.28-8.321 6.607-11.661.668-.97 1.381-1.892 2.06-2.779l.012-.015c3.131-3.955 6.469-7.005 9.953-9.399l2.896 1.402a380.228 380.228 0 0 0 4.149-5.253c1.31-.545 2.642-.985 3.971-1.389-4.593 6.139-9.456 11.944-14.11 17.612-2.04.862-4.037 1.872-5.938 3.229z"/><path style="fill:#fff" d="M179.48 202.071c2.091-4.435 4.28-8.321 6.607-11.661.668-.97 1.381-1.892 2.06-2.779l.012-.015c3.131-3.955 6.469-7.005 9.953-9.399l2.896 1.402a380.228 380.228 0 0 0 4.149-5.253c1.31-.545 2.642-.985 3.971-1.389-4.593 6.139-9.456 11.944-14.11 17.612-2.037.862-4.034 1.872-5.936 3.229a23.673 23.673 0 0 0-2.232 1.735l-.016.034c-2.35 1.97-4.546 4.441-6.633 7.36-.249-.297-.48-.591-.721-.876m-1.128.469c.051.122.117.261.215.369.145.171.289.355.432.526l.271.327c.231.28.602.452.969.444.372-.02.71-.202.934-.518 2.063-2.893 4.229-5.29 6.418-7.129.038-.028.053-.053.089-.08a20.01 20.01 0 0 1 2.095-1.624c1.605-1.147 3.414-2.135 5.696-3.111.178-.076.338-.197.475-.342l2.166-2.648c3.963-4.821 8.08-9.792 11.981-14.997.271-.369.329-.833.172-1.245a1.33 1.33 0 0 0-.129-.237 1.183 1.183 0 0 0-1.343-.498c-1.604.479-2.908.931-4.082 1.418a1.39 1.39 0 0 0-.504.378 270.793 270.793 0 0 1-3.535 4.492l-2.046-.98a1.178 1.178 0 0 0-1.181.092c-3.764 2.581-7.089 5.711-10.154 9.563-.03.037-.068.072-.103.113a71.335 71.335 0 0 0-2.095 2.834c-2.337 3.359-4.596 7.346-6.703 11.842a1.255 1.255 0 0 0-.038 1.011z"/></g><g style="enable-background:new"><path style="fill:#5f9bc8" d="M242.161 192.649a68.111 68.111 0 0 1-2.564-.564c-5.143-1.129-10.184-2.22-15.035-3.034-1.13-.193-2.222-.345-3.336-.504 3.695-5.342 6.96-11.041 9.529-17.205 7.184.587 14.711 1.97 22.487 3.427 2.083 2.007 3.938 4.261 5.583 6.749 2.94 4.45 5.295 9.631 7.39 15.223-7.603-.703-15.064-2.167-22.29-3.712-.598-.133-1.186-.259-1.764-.38z"/><path style="fill:#fff" d="M221.226 188.546c3.695-5.342 6.96-11.041 9.529-17.205 7.184.587 14.711 1.97 22.487 3.427 2.083 2.007 3.938 4.261 5.583 6.749 2.683 4.039 4.863 8.677 6.801 13.703.208.496.382 1.009.589 1.52-7.603-.703-15.064-2.167-22.29-3.712-.597-.131-1.185-.257-1.763-.378a68.111 68.111 0 0 1-2.564-.564c-5.143-1.129-10.184-2.22-15.035-3.034-1.131-.194-2.223-.346-3.337-.506m-1.126.463c.001.002.008.01.019.016.154.4.519.694.949.746l.503.088c.918.125 1.844.271 2.789.425 4.79.817 9.827 1.895 14.971 3.026.869.204 1.74.394 2.581.566.572.12 1.17.259 1.764.375 7.055 1.517 14.657 3.016 22.427 3.74.423.038.836-.151 1.085-.493.249-.348.325-.802.166-1.21-.195-.518-.387-1.034-.59-1.539-2.18-5.623-4.447-10.173-6.935-13.94a41.9 41.9 0 0 0-5.759-6.965 1.23 1.23 0 0 0-.62-.304c-8.16-1.548-15.517-2.867-22.604-3.445a1.19 1.19 0 0 0-1.209.759c-2.394 5.741-5.469 11.281-9.398 16.957a1.288 1.288 0 0 0-.139 1.198z"/></g><g style="enable-background:new"><path style="fill:#5c94be" d="M256.614 101.103c4.768-2.822 9.846-4.699 15.183-5.987l4.232 81.042c-1.543-.19-3.061-.471-4.586-.706a38.95 38.95 0 0 0-8.99-6.195l-5.839-68.154z"/><path style="fill:#fff" d="m262.453 169.256-5.839-68.154c4.768-2.822 9.846-4.699 15.183-5.987l4.232 81.042c-1.543-.19-3.061-.471-4.586-.706a38.96 38.96 0 0 0-8.99-6.195m-1.115.456c.112.289.329.527.598.663a37.972 37.972 0 0 1 8.698 6.017c.183.164.398.273.634.31.627.089 1.238.178 1.859.292.922.136 1.839.287 2.765.406.353.045.706-.069.969-.318.264-.259.409-.624.381-.995l-4.225-81.035a1.022 1.022 0 0 0-.104-.4 1.234 1.234 0 0 0-.392-.544 1.17 1.17 0 0 0-.996-.202c-5.889 1.41-10.971 3.421-15.511 6.099a1.28 1.28 0 0 0-.614 1.206l5.858 68.159c.009.111.032.236.08.342z"/></g><g style="enable-background:new"><path style="fill:#5c94be" d="M235.768 120.11c9.489-87.365 100.562-32.685 134.77-42.511-31.042 34.481-103.657-14.279-134.77 42.511z"/><path style="fill:#fff" d="M235.768 120.11c9.489-87.365 100.562-32.685 134.77-42.511-31.042 34.481-103.657-14.279-134.77 42.511m-1.128.465c.133.333.396.604.752.726a1.209 1.209 0 0 0 1.438-.58c17.051-31.137 46.841-29.859 75.641-28.614 23.103.994 44.929 1.931 58.978-13.668.308-.353.396-.868.229-1.304a.5.5 0 0 0-.096-.193c-.277-.483-.833-.719-1.357-.556-9.947 2.86-25.332.024-41.622-2.97-26.01-4.792-55.477-10.213-74.65 4.57-10.898 8.378-17.232 22.119-19.395 41.991-.019.197.011.407.082.598z"/></g><g style="enable-background:new"><path style="fill:#458eab" d="M381.734 211.746c2.929 5.116 5.664 10.47 8.354 15.801l-67.342 42.199c-4.403-4.559-8.052-9.549-11.19-14.809l70.178-43.191z"/><path style="fill:#fff" d="m311.557 254.938 70.178-43.192c2.929 5.116 5.664 10.47 8.354 15.801l-67.342 42.199c-4.403-4.558-8.052-9.549-11.19-14.808m-1.119.464c.021.059.055.131.084.199 3.42 5.717 7.129 10.639 11.384 15.031a1.18 1.18 0 0 0 1.477.186l67.336-42.196c.514-.329.712-.975.486-1.536-.001-.04-.021-.074-.037-.124-2.596-5.135-5.362-10.593-8.38-15.854a1.234 1.234 0 0 0-.759-.585 1.177 1.177 0 0 0-.914.142l-70.179 43.194a1.29 1.29 0 0 0-.558.777c-.069.247-.038.532.06.766z"/></g><g style="enable-background:new"><path style="fill:#458eab" d="M332.816 277.121c39.66-.586 56.686-32.357 61.014-42.163 4.615 9.083 9.28 17.719 14.911 24.817-50.58 42.737-75.925 17.346-75.925 17.346z"/><path style="fill:#fff" d="M332.816 277.121c39.66-.586 56.686-32.357 61.014-42.163 4.615 9.083 9.28 17.719 14.911 24.817-50.58 42.737-75.925 17.346-75.925 17.346m-1.115.467c.055.164.151.303.27.424.269.275 6.802 6.684 19.741 7.715 11.78.93 31.361-2.643 57.8-24.982.41-.35.555-.943.363-1.418a1.444 1.444 0 0 0-.192-.344c-5.83-7.344-10.677-16.553-14.775-24.6a1.24 1.24 0 0 0-1.1-.683c-.479.031-.896.299-1.084.744-4.219 9.575-21.019 40.854-59.919 41.428a1.237 1.237 0 0 0-1.104 1.716z"/></g><g style="enable-background:new"><path style="fill:#458eab" d="M293.514 218.194a42.306 42.306 0 0 1-2.651 7.358c-2.358 4.976-5.684 9.779-9.541 14.586-3.276-7.319-5.813-14.898-8.156-22.321-.188-.595-.388-1.183-.547-1.773-.308-.842-.566-1.708-.825-2.563-1.593-5.181-3.192-10.223-4.916-14.987-.21-.601-.44-1.166-.663-1.755 6.329.577 12.755.646 19.223-.219 2.967 6.715 5.483 14.085 8.076 21.674z"/><path style="fill:#fff" d="M278.528 233.43c-2.009-5.185-3.734-10.44-5.363-15.613-.188-.595-.388-1.183-.547-1.773-.308-.842-.566-1.708-.825-2.563-1.593-5.181-3.192-10.223-4.916-14.987-.21-.601-.44-1.166-.663-1.755 6.329.577 12.755.646 19.223-.219a139.306 139.306 0 0 1 2.581 6.259c1.911 4.928 3.684 10.103 5.496 15.414a42.306 42.306 0 0 1-2.651 7.358c-2.358 4.976-5.684 9.779-9.541 14.586a156.918 156.918 0 0 1-2.794-6.707m-1.119.463a125.71 125.71 0 0 0 2.815 6.761c.171.393.54.664.951.723.42.046.824-.11 1.084-.439 4.439-5.529 7.526-10.246 9.69-14.841a41.44 41.44 0 0 0 2.737-7.577c.07-.25.055-.504-.028-.739-1.759-5.152-3.576-10.476-5.512-15.473a134.1 134.1 0 0 0-2.61-6.31 1.171 1.171 0 0 0-1.253-.713c-5.851.785-12.053.839-18.965.204a1.198 1.198 0 0 0-1.065.499c-.264.341-.313.795-.175 1.201l.285.756c.124.333.254.657.376.998 1.779 4.896 3.404 10.059 4.891 14.922l.078.264c.245.789.487 1.584.734 2.268.169.608.373 1.222.569 1.803 1.471 4.686 3.272 10.211 5.398 15.693z"/></g><g style="enable-background:new"><path style="fill:#458eab" d="M294.235 261.039a70.154 70.154 0 0 1-3.115-3.914c2.715-3.82 5.133-7.691 7.063-11.66a66.631 66.631 0 0 0 1.682-3.875l-.012-.021c.397-1.013.749-2.007 1.11-3.011 7.386 18.059 17.803 35.366 38.113 46.592-20.801-3.873-34.519-12.447-44.131-23.318a115.898 115.898 0 0 0 2.645-6.072 56.94 56.94 0 0 1-3.355 5.279z"/><path style="fill:#fff" d="M291.12 257.125c2.715-3.82 5.133-7.691 7.063-11.66a66.631 66.631 0 0 0 1.682-3.875l-.012-.021c.397-1.013.749-2.007 1.11-3.011 7.386 18.059 17.803 35.366 38.113 46.592-20.801-3.873-34.519-12.447-44.131-23.318a115.898 115.898 0 0 0 2.645-6.072 57.361 57.361 0 0 1-3.355 5.279 70.618 70.618 0 0 1-3.115-3.914m-1.126.467c.044.104.095.199.162.301a72.313 72.313 0 0 0 3.169 3.977c.131.141.283.26.453.34a.254.254 0 0 1 .03.09c.052.133.137.262.229.369 10.964 12.383 25.62 20.135 44.827 23.717.599.111 1.162-.242 1.362-.824a1.19 1.19 0 0 0-.033-.877 1.27 1.27 0 0 0-.54-.641c-21.47-11.852-31.364-30.793-37.579-45.971a1.216 1.216 0 0 0-1.16-.766 1.225 1.225 0 0 0-1.106.85 68.629 68.629 0 0 1-1.073 2.929c-.025.077-.05.124-.046.187a68.762 68.762 0 0 1-1.592 3.635c-1.763 3.609-4.034 7.348-6.953 11.484a1.253 1.253 0 0 0-.15 1.2z"/></g><g style="enable-background:new"><path style="fill:#458eab" d="M245.265 169.107a22.176 22.176 0 0 0-2.577-1.132l-.021-.007c-2.905-1.152-6.188-1.924-9.818-2.328.113-.333.224-.672.318-1.018 4.935-.365 9.412-.331 13.475.114 1.157.114 2.288.288 3.367.466l.015.014c4.707.811 8.792 2.199 12.43 4.041l.441 4.889c2.818.507 5.69.898 8.549 1.306a44.76 44.76 0 0 1 2.855 2.875c-7.183-.927-14.199-2.273-21.058-3.559-2.331-2.246-4.959-4.166-7.976-5.661z"/><path style="fill:#fff" d="M232.849 165.64c.113-.333.224-.672.318-1.018 4.935-.365 9.412-.331 13.475.114 1.157.114 2.288.288 3.367.466l.015.014c4.707.811 8.792 2.199 12.43 4.041l.441 4.889c2.818.507 5.69.898 8.549 1.306a44.76 44.76 0 0 1 2.855 2.875c-7.183-.927-14.199-2.273-21.058-3.559-2.331-2.246-4.959-4.167-7.977-5.661a22.176 22.176 0 0 0-2.577-1.132l-.021-.007c-2.904-1.153-6.187-1.924-9.817-2.328m-1.124.457a.582.582 0 0 0 .105.206c.193.328.53.541.888.584 3.561.393 6.759 1.161 9.453 2.219.031.021.07.034.099.05.898.32 1.714.675 2.473 1.081 2.771 1.363 5.278 3.149 7.667 5.448.174.173.385.276.616.313l.69.135c6.611 1.248 13.461 2.537 20.439 3.439.504.054.989-.208 1.226-.677.168-.329.176-.715.05-1.038a1.287 1.287 0 0 0-.239-.387 42.734 42.734 0 0 0-2.945-2.944c-.17-.176-.4-.271-.639-.314l-1.548-.223a231.056 231.056 0 0 1-6.046-.921l-.331-3.928a1.493 1.493 0 0 0-.089-.354 1.208 1.208 0 0 0-.596-.665c-3.939-1.977-8.089-3.337-12.695-4.131-.037-.007-.054-.025-.098-.027a62.92 62.92 0 0 0-3.432-.477c-4.144-.438-8.748-.482-13.691-.116a1.214 1.214 0 0 0-1.064.862c-.105.335-.212.674-.31.996-.095.283-.083.598.017.869z"/></g><g style="enable-background:new"><path style="fill:#2e7b9f" d="m276.771 181.35.022.009a57.376 57.376 0 0 1 2.438 3.43c2.326 3.596 4.357 7.538 6.205 11.732-6.468.864-12.894.795-19.223.219-2.095-5.592-4.449-10.772-7.39-15.223-1.645-2.488-3.5-4.742-5.583-6.749 6.858 1.285 13.875 2.631 21.058 3.559a.698.698 0 0 0 .131.122c.824.942 1.574 1.899 2.342 2.901z"/><path style="fill:#fff" d="M253.241 174.768c6.858 1.285 13.875 2.631 21.058 3.559a.698.698 0 0 0 .131.122c.823.943 1.573 1.9 2.341 2.902l.022.009a57.376 57.376 0 0 1 2.438 3.43c2.326 3.596 4.357 7.538 6.205 11.732-6.468.864-12.894.795-19.223.219-.207-.51-.381-1.023-.589-1.52-1.938-5.026-4.118-9.665-6.801-13.703a39.691 39.691 0 0 0-5.582-6.75m-1.135.464c.063.176.156.327.302.455 1.989 1.91 3.807 4.117 5.419 6.546 2.378 3.591 4.568 7.998 6.686 13.443.187.501.386 1.007.566 1.511.012.008 0 .012.005.012.17.45.564.752 1.018.792 7.088.641 13.466.583 19.496-.231.381-.046.726-.287.89-.631.182-.332.204-.722.078-1.076-.011-.019-.019-.024-.028-.055-2.041-4.642-4.101-8.53-6.3-11.903a48.965 48.965 0 0 0-2.496-3.515c-.024-.053-.064-.084-.124-.141a57.345 57.345 0 0 0-2.306-2.854l-.098-.08a1.165 1.165 0 0 0-.766-.426c-6.9-.894-13.716-2.185-20.304-3.415l-.695-.125c-.52-.107-1.06.172-1.306.674a1.279 1.279 0 0 0-.037 1.019z"/></g><g style="enable-background:new"><path style="fill:#107ba0" d="M262.453 169.256a38.96 38.96 0 0 1 8.99 6.195c-2.858-.408-5.73-.799-8.549-1.306l-.441-4.889z"/><path style="fill:#fff" d="m262.895 174.146-.441-4.889a38.96 38.96 0 0 1 8.99 6.195c-2.859-.408-5.731-.8-8.549-1.306m-1.13.47c.146.394.496.691.919.768 2.336.418 4.724.755 7.038 1.093l1.553.226a1.213 1.213 0 0 0 1.272-.716 1.36 1.36 0 0 0 .029-.998 1.146 1.146 0 0 0-.331-.461 40.3 40.3 0 0 0-9.25-6.407 1.156 1.156 0 0 0-1.226.096 1.258 1.258 0 0 0-.511 1.151l.416 4.886c.013.125.035.25.091.362z"/></g><g style="enable-background:new"><path style="fill:#458eab" d="M356.829 183.568c4.721 2.851 8.812 6.472 12.56 10.614l-66.107 44.011c-.446-1.104-.832-2.238-1.27-3.367a41.825 41.825 0 0 0 .958-12.642l53.859-38.616z"/><path style="fill:#fff" d="M303.077 237.704c-.354-.932-.678-1.874-1.031-2.808-.012-.023-.016-.041-.034-.07a41.825 41.825 0 0 0 .958-12.642l53.859-38.616c4.721 2.851 8.812 6.472 12.56 10.614l-66.107 44.011c-.067-.162-.131-.326-.205-.489m-1.119.463.203.51c.134.348.419.61.756.711.354.117.719.063 1.025-.137l66.095-44.01a1.22 1.22 0 0 0 .545-.896 1.172 1.172 0 0 0-.067-.63 1.024 1.024 0 0 0-.238-.375c-4.105-4.559-8.306-8.118-12.837-10.855a1.21 1.21 0 0 0-1.304.049l-53.858 38.623a1.285 1.285 0 0 0-.519 1.125c.3 4.159-.009 8.279-.933 12.251-.055.262-.012.592.084.842.17.455.349.906.512 1.373.178.465.353.947.536 1.419z"/></g><g style="enable-background:new"><path style="fill:#458eab" d="M330.472 174.329c78.221-34.885 77.404 73.817 102.697 99.573-44.457-10.67-39.472-99.896-102.697-99.573z"/><path style="fill:#fff" d="M330.472 174.329c46.059-20.545 64.726 8.714 77.44 41.484 4.713 12.17 8.62 24.825 12.801 35.601 3.689 9.496 7.583 17.533 12.456 22.488-44.457-10.67-39.472-99.896-102.697-99.573m-1.135.47c.184.475.629.788 1.128.792 34.686-.189 48.382 27.114 61.646 53.513 10.626 21.183 20.682 41.197 40.787 46.015a1.183 1.183 0 0 0 1.33-.619c.182-.326.196-.725.068-1.053a1.334 1.334 0 0 0-.276-.434c-4.135-4.213-7.894-11.023-12.173-22.063-2.025-5.209-3.961-10.781-5.993-16.703-2.166-6.202-4.386-12.617-6.823-18.912-6.744-17.372-16.783-38.301-34.767-45.956-12.326-5.228-26.804-3.994-44.282 3.795-.531.242-.815.82-.7 1.416.01.068.033.148.055.209z"/></g><g style="enable-background:new"><path style="fill:#526ea6" d="m254.971 309.074 71.055 41.643c-2.876 5.178-6.051 10.258-9.214 15.299l-68.805-39.586c1.683-6.209 4.08-11.951 6.964-17.356z"/><path style="fill:#fff" d="M248.007 326.43c1.684-6.209 4.08-11.951 6.964-17.355l71.055 41.643c-2.876 5.178-6.051 10.258-9.214 15.299l-68.805-39.587m-1.124.468c.093.26.279.48.537.633l68.805 39.598a1.192 1.192 0 0 0 1.596-.424c3.245-5.162 6.404-10.211 9.252-15.365a1.274 1.274 0 0 0 .075-1.09 1.225 1.225 0 0 0-.526-.617l-71.053-41.645a1.185 1.185 0 0 0-1.664.486c-3.128 5.863-5.44 11.631-7.076 17.607-.062.282-.042.575.054.817z"/></g><g style="enable-background:new"><path style="fill:#526ea6" d="M246.754 339.096c20.041 35.291 55.238 34.904 65.642 33.938-5.366 8.627-10.349 17.076-13.573 25.627-60.971-24.302-52.069-59.565-52.069-59.565z"/><path style="fill:#fff" d="M248.953 357.473c-4.143-10.684-2.199-18.377-2.199-18.377 20.041 35.291 55.238 34.904 65.642 33.938-5.366 8.627-10.349 17.076-13.573 25.627-32.5-12.95-45.141-29.015-49.87-41.188m-1.126.453c4.551 11.752 17.021 28.545 50.559 41.916a1.219 1.219 0 0 0 1.577-.719c3.005-8.008 7.547-15.949 13.453-25.408a1.258 1.258 0 0 0 .018-1.325 1.187 1.187 0 0 0-1.148-.605c-10.144.945-44.804 1.324-64.485-33.322a1.197 1.197 0 0 0-1.208-.615 1.252 1.252 0 0 0-1.018.926c-.085.339-1.991 8.222 2.252 19.152z"/></g><g style="enable-background:new"><path style="fill:#526ea6" d="M293.514 218.194c.93-3.514 1.379-7.139 1.121-10.944a22.505 22.505 0 0 0-.315-2.88l-.009-.013c-.403-2.894-1.263-5.891-2.487-9.007.398-.079.782-.177 1.169-.283 2.476 3.916 4.487 7.67 6.015 11.264.477 1.102.876 2.195 1.263 3.244l.02.032c1.553 4.414 2.388 8.576 2.681 12.578l-4.517 3.244c1.11 3.16 2.332 6.283 3.559 9.398a48.691 48.691 0 0 1-.871 3.213c-.052.171-.137.345-.177.52-2.791-6.779-5.157-13.662-7.452-20.366z"/><path style="fill:#fff" d="M299.501 234.907c-2.169-5.591-4.1-11.208-5.987-16.713.93-3.514 1.379-7.139 1.121-10.944a22.505 22.505 0 0 0-.315-2.88l-.009-.013c-.388-2.812-1.193-5.708-2.373-8.714-.031-.104-.072-.194-.114-.293.398-.079.782-.177 1.169-.283 2.476 3.916 4.487 7.67 6.015 11.264.216.502.416 1.001.604 1.484.234.594.459 1.187.659 1.759l.02.032c1.553 4.414 2.388 8.576 2.681 12.578l-4.517 3.244c.801 2.285 1.666 4.546 2.545 6.806.338.87.673 1.735 1.014 2.592a48.691 48.691 0 0 1-.871 3.213c-.052.171-.137.345-.177.52-.513-1.22-.998-2.436-1.465-3.652m-1.132.468c.476 1.237.967 2.457 1.465 3.675.188.472.651.774 1.156.759a1.247 1.247 0 0 0 1.116-.828l.069-.226.123-.341c.333-1.126.649-2.215.898-3.287a1.249 1.249 0 0 0-.056-.762l.004-.006-1.014-2.582a206.689 206.689 0 0 1-2.202-5.87l3.741-2.684c.35-.25.545-.69.514-1.129-.317-4.325-1.212-8.525-2.738-12.851-.001-.044-.021-.073-.036-.115-.211-.57-.431-1.171-.666-1.774a60.155 60.155 0 0 0-.619-1.526c-1.531-3.585-3.574-7.436-6.102-11.441a1.22 1.22 0 0 0-1.318-.537c-.376.096-.749.191-1.134.283a1.188 1.188 0 0 0-.825.638 1.314 1.314 0 0 0-.048 1.046c.002 0 0 .01 0 .01l.118.283c1.167 3.021 1.925 5.776 2.302 8.428.002.043.016.082.023.113.154.967.246 1.861.279 2.691.241 3.412-.119 6.858-1.084 10.525-.056.245-.05.5.031.738 1.769 5.177 3.78 11.036 6.003 16.77z"/></g><g style="enable-background:new"><path style="fill:#526ea6" d="M240.994 297.563a92.98 92.98 0 0 1 1.767-4.996c4.199.385 8.287.527 12.254.262 1.381-.088 2.764-.262 4.103-.453l.013-.031a48.618 48.618 0 0 0 3.603-.641c.271-.063.534-.141.823-.229-11.582 15.557-21.061 33.438-20.49 57.191-6.829-20.088-6.526-36.322-2.394-50.104 2.024-.15 4.104-.346 6.289-.645a53.089 53.089 0 0 1-5.968-.354z"/><path style="fill:#fff" d="M243.065 348.666c-6.829-20.088-6.526-36.322-2.394-50.104 2.024-.15 4.104-.346 6.289-.645a53.31 53.31 0 0 1-5.966-.355 92.98 92.98 0 0 1 1.767-4.996c4.199.385 8.287.527 12.254.262 1.381-.088 2.764-.262 4.103-.453l.013-.031a48.618 48.618 0 0 0 3.603-.641c.271-.063.534-.141.823-.229-11.583 15.557-21.062 33.438-20.492 57.192m-1.129.475c.213.545.775.869 1.348.758.584-.1 1.014-.637.996-1.266-.595-25.104 10.506-43.314 20.231-56.389a1.29 1.29 0 0 0 .166-1.223.993.993 0 0 0-.117-.227 1.218 1.218 0 0 0-1.303-.539l-.382.113c-.135.035-.27.074-.395.105a44.509 44.509 0 0 1-3.523.631 1 1 0 0 0-.184.043 52.46 52.46 0 0 1-3.843.43c-3.605.244-7.559.158-12.058-.258a1.22 1.22 0 0 0-1.229.77 77.173 77.173 0 0 0-1.809 5.088 1.516 1.516 0 0 0-.051.514 1.395 1.395 0 0 0-.279.5c-4.695 15.672-3.899 32.311 2.41 50.891.01.016.022.041.022.059z"/></g><g style="enable-background:new"><path style="fill:#526ea6" d="M268.536 254.945c.569-.678 1.171-1.336 1.765-1.996 3.587-3.99 7.062-7.904 10.223-11.787.275-.352.522-.685.798-1.024 2.677 5.922 5.826 11.667 9.799 16.987-4.039 5.695-8.756 11.338-13.636 17.127-3.046 1.08-6.223 1.729-9.52 1.971-5.017.402-10.335-.027-15.866-.893 4.652-6.818 9.953-13.082 15.227-19.02a54.61 54.61 0 0 1 1.21-1.365z"/><path style="fill:#fff" d="M252.099 275.33c4.652-6.818 9.953-13.082 15.227-19.02a51.27 51.27 0 0 1 1.211-1.365c.569-.678 1.171-1.336 1.765-1.996 3.587-3.99 7.062-7.904 10.223-11.787.275-.352.522-.685.798-1.024 2.677 5.922 5.826 11.667 9.799 16.987-4.039 5.695-8.756 11.338-13.636 17.127-3.046 1.08-6.223 1.729-9.52 1.971-5.018.402-10.336-.028-15.867-.893m-1.138.459c.018.02.018.02.012.025.178.398.529.689.938.756 6.355.984 11.474 1.283 16.137.91 3.435-.266 6.751-.951 9.822-2.041.204-.072.388-.201.528-.373 5.359-6.338 9.77-11.629 13.7-17.201.262-.35.303-.809.152-1.199-.054-.111-.094-.215-.164-.297-3.6-4.842-6.756-10.328-9.654-16.774a1.215 1.215 0 0 0-.953-.71c-.41-.046-.82.11-1.09.444-.123.148-.248.322-.374.475a10.07 10.07 0 0 1-.425.541c-3.212 3.95-6.789 7.987-10.175 11.756-.604.664-1.217 1.33-1.752 1.969-.357.4-.715.799-1.072 1.201l-.166.189c-4.855 5.48-10.466 12.023-15.319 19.146-.24.343-.294.796-.145 1.183z"/></g><g style="enable-background:new"><path style="fill:#2e509a" d="M288.767 188.805a99.245 99.245 0 0 1 4.226 6.261c-.387.106-.771.204-1.169.283a54.199 54.199 0 0 0-3.057-6.544z"/><path style="fill:#fff" d="M288.767 188.805a99.245 99.245 0 0 1 4.226 6.261c-.387.106-.771.204-1.169.283a54.199 54.199 0 0 0-3.057-6.544m-1.125.465c.012.061.046.11.077.16a55.252 55.252 0 0 1 2.979 6.398c.223.553.804.889 1.393.752.403-.095.808-.194 1.197-.292.388-.097.713-.384.844-.761a1.289 1.289 0 0 0-.002-.931c-.032-.065-.061-.137-.106-.208-1.534-2.416-2.888-4.419-4.291-6.332-.385-.525-1.105-.66-1.631-.284a1.24 1.24 0 0 0-.46 1.498z"/></g><g style="enable-background:new"><path style="fill:#2e509a" d="M299.865 241.589a66.336 66.336 0 0 1-1.682 3.875c-1.931 3.969-4.349 7.84-7.063 11.66-3.973-5.32-7.122-11.064-9.799-16.987 3.857-4.807 7.183-9.61 9.541-14.586 1.134-2.402 2-4.87 2.651-7.358 2.295 6.704 4.661 13.587 7.45 20.364-.361 1.004-.713 1.998-1.11 3.011l.012.021z"/><path style="fill:#fff" d="M281.321 240.138c3.857-4.807 7.183-9.61 9.541-14.586 1.134-2.402 2-4.87 2.651-7.358 1.888 5.505 3.818 11.122 5.987 16.713.467 1.216.952 2.433 1.463 3.651-.361 1.004-.713 1.998-1.11 3.011l.012.021a66.336 66.336 0 0 1-1.682 3.875c-1.931 3.969-4.349 7.84-7.063 11.66-3.973-5.32-7.122-11.064-9.799-16.987m-1.122.449c.01.024.027.047.025.066 2.972 6.612 6.228 12.252 9.936 17.237.229.313.592.496.983.494.378-.012.73-.199.955-.52 3.006-4.234 5.346-8.113 7.166-11.842a64.103 64.103 0 0 0 1.731-3.967.91.91 0 0 0 .05-.188c.389-.976.722-1.924 1.061-2.896a1.348 1.348 0 0 0-.025-.875c-.007-.02-.007-.02-.007-.025a171.936 171.936 0 0 1-1.45-3.623c-2.204-5.685-4.202-11.517-5.965-16.668.001-.028-.011-.044-.015-.052a1.228 1.228 0 0 0-1.173-.79c-.533.019-.989.398-1.135.93-.683 2.59-1.51 4.912-2.574 7.132-2.085 4.416-5.055 8.965-9.373 14.329a1.298 1.298 0 0 0-.19 1.258z"/></g><g style="enable-background:new"><path style="fill:#2e509a" d="M302.97 222.184a41.825 41.825 0 0 1-.958 12.642c-1.227-3.116-2.448-6.238-3.559-9.398l4.517-3.244z"/><path style="fill:#fff" d="M300.998 232.233c-.869-2.26-1.744-4.521-2.545-6.806l4.517-3.244a41.825 41.825 0 0 1-.958 12.642c-.341-.857-.676-1.722-1.014-2.592m-1.12.48 1.008 2.593c.205.505.69.805 1.213.775.529-.035.965-.428 1.099-.955a43.77 43.77 0 0 0 .987-13.032 1.744 1.744 0 0 0-.081-.373 1.26 1.26 0 0 0-.616-.664 1.152 1.152 0 0 0-1.21.098l-4.511 3.236a1.281 1.281 0 0 0-.457 1.46 237.4 237.4 0 0 0 2.568 6.862z"/></g><g style="enable-background:new"><path style="fill:#526ea6" d="m277.57 284.834 59.917 29.645c-.086 5.646-1.103 11.127-2.751 16.51l-69.737-37.592c.8-1.061 1.659-2.076 2.471-3.125a38.551 38.551 0 0 0 10.1-5.438z"/><path style="fill:#fff" d="M264.999 293.396c.8-1.061 1.659-2.076 2.471-3.125a38.543 38.543 0 0 0 10.101-5.438l59.917 29.645c-.086 5.646-1.103 11.127-2.751 16.51l-69.738-37.592m-1.121.458c.104.287.305.516.56.652l69.738 37.594c.313.18.685.189 1.008.047.339-.135.591-.428.711-.775 1.806-5.922 2.731-11.428 2.804-16.875a1.06 1.06 0 0 0-.085-.49 1.202 1.202 0 0 0-.605-.668l-59.91-29.629a1.165 1.165 0 0 0-1.244.113 36.988 36.988 0 0 1-9.792 5.26 1.319 1.319 0 0 0-.548.404c-.338.428-.66.85-1.008 1.279a76.55 76.55 0 0 0-1.472 1.867c-.201.299-.297.67-.214 1.035a.442.442 0 0 0 .057.186z"/></g><g style="enable-background:new"><path style="fill:#526ea6" d="M332.279 286.281c67.991 52.992-24.07 105.879-33.323 141.266-12.915-45.166 64.787-84.701 33.323-141.266z"/><path style="fill:#fff" d="M298.956 427.547c-12.274-42.961 57.44-80.854 37.157-133.139-1.032-2.674-2.307-5.377-3.834-8.127 11.617 9.061 18.577 18.121 22.051 27.088 16.883 43.483-47.698 84.848-55.374 114.178m-1.134.463c.188.475.635.801 1.134.789a1.214 1.214 0 0 0 1.164-.928c2.695-10.283 12.913-22.494 23.72-35.416 20.012-23.916 42.697-51.025 31.624-79.547-3.737-9.641-11.301-18.934-22.464-27.633-.45-.365-1.099-.334-1.538.057-.381.352-.5.928-.318 1.408.019.059.056.111.084.164a64.068 64.068 0 0 1 3.761 7.973c10.671 27.516-4.159 51.008-18.502 73.734-12.619 19.996-24.54 38.879-18.704 59.285.02.045.032.075.039.114z"/></g><g style="enable-background:new"><path style="fill:#6e7ba8" d="m179.959 286.631 1.2 84.287c-5.788.063-11.641-.178-17.473-.438l-1.765-81.252c6.044-1.648 12.052-2.419 18.038-2.597z"/><path style="fill:#fff" d="m163.687 370.48-1.765-81.252c6.043-1.648 12.051-2.42 18.038-2.598l1.2 84.287c-5.789.063-11.641-.177-17.473-.437m-1.121.463c.164.449.585.762 1.072.791 5.635.244 11.641.492 17.518.439.324 0 .634-.141.86-.373.225-.238.354-.564.355-.906l-1.204-84.285a1.144 1.144 0 0 0-.075-.439 1.453 1.453 0 0 0-.294-.438 1.212 1.212 0 0 0-.869-.348c-6.534.189-12.522 1.053-18.315 2.637-.551.148-.913.65-.913 1.236l1.776 81.252c-.003.141.037.302.089.434z"/></g><g style="enable-background:new"><path style="fill:#6e7ba8" d="M155.595 370.119c-9.944-.418-19.516-.557-28.284.906-10.583-66.549 23.401-76.488 23.401-76.488-19.345 35.709-1.192 66.813 4.883 75.582z"/><path style="fill:#fff" d="M127.311 371.025c-10.583-66.549 23.401-76.488 23.401-76.488-12.72 23.465-9.227 44.951-3.619 59.4 2.928 7.547 6.42 13.168 8.502 16.182-9.944-.418-19.516-.556-28.284.906m-1.132.469c.207.535.749.863 1.326.77 8.204-1.381 17.144-1.359 28.039-.895a1.22 1.22 0 0 0 1.127-.662c.174-.326.185-.715.052-1.068a.987.987 0 0 0-.13-.254c-1.867-2.684-5.428-8.322-8.375-15.902-5.339-13.766-9.054-35.057 3.56-58.332.181-.34.197-.732.062-1.074a1.42 1.42 0 0 0-.175-.32 1.188 1.188 0 0 0-1.283-.426c-.365.098-9.003 2.734-16.353 13.787-6.664 10.041-13.445 29.32-7.921 64.111.008.091.04.177.071.265z"/></g><g style="enable-background:new"><path style="fill:#6e7ba8" d="M183.847 268.039a73.535 73.535 0 0 1 4.752-.803c1.777 3.982 3.727 7.727 5.947 11.168a57.725 57.725 0 0 0 2.436 3.43l.027.02a65.593 65.593 0 0 0 2.333 2.883c.232.246.488.496.718.748-19.168-2.576-39.285-2.148-59.228 10.619 13.761-16.775 27.939-24.723 41.971-27.844a107.952 107.952 0 0 0 3.834 5.457 56.88 56.88 0 0 1-2.79-5.678z"/><path style="fill:#fff" d="M140.833 296.104c13.761-16.775 27.939-24.723 41.971-27.844a107.952 107.952 0 0 0 3.834 5.457 56.679 56.679 0 0 1-2.791-5.678 73.535 73.535 0 0 1 4.752-.803c1.777 3.982 3.727 7.727 5.947 11.168a57.725 57.725 0 0 0 2.436 3.43l.027.02a65.593 65.593 0 0 0 2.333 2.883c.232.246.488.496.718.748-19.167-2.577-39.285-2.149-59.227 10.619m-1.126.455c.054.135.12.25.215.355.388.471 1.059.57 1.553.242 20.928-13.395 42.213-12.611 58.421-10.438a1.2 1.2 0 0 0 1.251-.678 1.34 1.34 0 0 0 .047-1.025 1.233 1.233 0 0 0-.259-.402c-.116-.125-.22-.238-.334-.35-.125-.123-.25-.256-.36-.365a87.718 87.718 0 0 1-2.292-2.824c-.025-.045-.055-.072-.086-.121a48.505 48.505 0 0 1-2.303-3.254c-2.044-3.145-3.958-6.732-5.867-10.994a1.188 1.188 0 0 0-1.264-.705 69.122 69.122 0 0 0-4.822.814c-.182.025-.351.121-.499.225a1.26 1.26 0 0 0-.553-.004c-16.009 3.551-29.96 12.785-42.644 28.25-.304.36-.361.861-.204 1.274z"/></g><g style="enable-background:new"><path style="fill:#6e7ba8" d="M285.157 270.322a23.263 23.263 0 0 0 2.24-1.732l.024-.021c2.405-2.014 4.671-4.527 6.813-7.529.226.279.471.525.711.793-2.149 4.547-4.413 8.521-6.806 11.91a60.818 60.818 0 0 1-2.077 2.777l-.012.002c-2.69 3.377-5.516 6.096-8.481 8.313l-4.199-2.078c-2.015 2.455-3.959 4.99-5.901 7.516a40.393 40.393 0 0 1-3.914 1.203c4.475-6.025 9.27-11.693 13.929-17.223 2.669-.948 5.24-2.216 7.673-3.931z"/><path style="fill:#fff" d="M263.556 291.475c4.475-6.025 9.27-11.693 13.929-17.223 2.669-.947 5.239-2.215 7.673-3.93a23.263 23.263 0 0 0 2.24-1.732l.024-.021c2.405-2.014 4.671-4.527 6.813-7.529.226.279.471.525.711.793-2.149 4.547-4.413 8.521-6.806 11.91a60.818 60.818 0 0 1-2.077 2.777l-.012.002c-2.69 3.377-5.516 6.096-8.481 8.313l-4.199-2.078c-2.015 2.455-3.959 4.99-5.901 7.516a40.95 40.95 0 0 1-3.914 1.202m-1.13.472c.029.078.064.15.101.219.282.445.813.662 1.315.531a47.143 47.143 0 0 0 4.021-1.24c.225-.08.418-.219.555-.404l.469-.6c1.574-2.031 3.183-4.129 4.818-6.135l3.335 1.643c.407.207.886.158 1.243-.109 3.126-2.354 6.059-5.217 8.717-8.543a52.217 52.217 0 0 0 2.129-2.83c2.429-3.455 4.75-7.518 6.901-12.1.148-.322.16-.699.04-1.018a1.511 1.511 0 0 0-.237-.379l-.261-.301c-.146-.162-.291-.314-.428-.467a1.174 1.174 0 0 0-.966-.43c-.367.02-.708.201-.92.51-2.075 2.922-4.275 5.359-6.53 7.25-.032.031-.073.053-.119.084a20.59 20.59 0 0 1-2.129 1.664 30.462 30.462 0 0 1-7.388 3.773 1.274 1.274 0 0 0-.534.363l-.137.174c-4.614 5.463-9.376 11.119-13.842 17.117a1.283 1.283 0 0 0-.153 1.228z"/></g><g style="enable-background:new"><path style="fill:#6e7ba8" d="M232.085 271.283c.851.156 1.703.348 2.553.559 5.15 1.15 10.184 2.248 15.032 3.1.829.146 1.62.256 2.429.389-3.646 5.33-6.869 11.029-9.338 17.236-6.854-.637-14.012-1.961-21.387-3.383-2.436-2.184-4.557-4.691-6.418-7.514-2.842-4.289-5.134-9.25-7.167-14.617 7.685.727 15.229 2.242 22.541 3.836.585.121 1.182.242 1.755.394z"/><path style="fill:#fff" d="M208.155 267.986a16.44 16.44 0 0 1-.366-.934c7.685.727 15.229 2.242 22.541 3.836.585.121 1.182.242 1.755.395.851.156 1.703.348 2.553.559 5.15 1.15 10.184 2.248 15.032 3.1.829.146 1.62.256 2.429.389-3.646 5.33-6.869 11.029-9.338 17.236-6.854-.637-14.012-1.961-21.387-3.383-2.436-2.184-4.557-4.691-6.418-7.514-2.674-4.043-4.863-8.664-6.801-13.684m-1.139.475c2.175 5.621 4.445 10.17 6.93 13.92 1.933 2.92 4.166 5.527 6.629 7.75.151.141.364.25.576.279 7.725 1.494 14.679 2.775 21.502 3.412a1.238 1.238 0 0 0 1.238-.779c2.253-5.676 5.267-11.248 9.205-16.998a1.26 1.26 0 0 0 .125-1.174c-.001-.021-.005-.039-.014-.039a1.205 1.205 0 0 0-.929-.75l-.788-.119a51.811 51.811 0 0 1-1.619-.254c-5.003-.885-10.138-1.996-14.952-3.094-.875-.207-1.746-.414-2.535-.549a28.417 28.417 0 0 0-1.591-.35l-.216-.049c-7.136-1.566-14.829-3.109-22.68-3.871-.415-.035-.83.16-1.082.506-.257.34-.308.803-.163 1.195l.364.964z"/></g><g style="enable-background:new"><path style="fill:#4f5f9c" d="M297.591 255.76a114.238 114.238 0 0 1-2.645 6.072c-.24-.268-.485-.514-.711-.793a57.151 57.151 0 0 0 3.356-5.279z"/><path style="fill:#fff" d="M294.235 261.039a57.361 57.361 0 0 0 3.355-5.279 114.238 114.238 0 0 1-2.645 6.072c-.239-.268-.484-.514-.71-.793m-1.125.467c.049.141.126.256.219.361.146.189.3.354.46.518l.252.295c.283.299.678.447 1.077.395.393-.061.733-.328.911-.695a93.586 93.586 0 0 0 2.69-6.152c.127-.303.118-.652.009-.938a1.24 1.24 0 0 0-.598-.658c-.583-.293-1.275-.061-1.596.512a53.473 53.473 0 0 1-3.277 5.152 1.3 1.3 0 0 0-.147 1.21z"/></g><g style="enable-background:new"><path style="fill:#4d5f98" d="m259.13 292.344-.013.031c-1.339.191-2.722.365-4.103.453-3.967.266-8.055.123-12.254-.262 2.469-6.207 5.691-11.906 9.338-17.236 5.531.865 10.85 1.295 15.866.893 3.297-.242 6.474-.891 9.52-1.971-4.659 5.529-9.454 11.197-13.929 17.223-.289.088-.553.166-.823.229a49.022 49.022 0 0 1-3.602.64z"/><path style="fill:#fff" d="M242.761 292.566c2.469-6.207 5.691-11.906 9.338-17.236 5.531.865 10.85 1.295 15.866.893 3.297-.242 6.474-.891 9.52-1.971-4.659 5.529-9.454 11.197-13.929 17.223-.289.088-.553.166-.823.229a48.433 48.433 0 0 1-3.603.641l-.013.031c-1.339.191-2.722.365-4.103.453-3.966.265-8.054.122-12.253-.263m-1.14.469c.035.063.074.125.102.182.201.346.539.563.931.605 4.632.434 8.697.516 12.439.254a48.87 48.87 0 0 0 4.201-.479.375.375 0 0 0 .173-.045 46.15 46.15 0 0 0 3.53-.631c.174-.039.354-.078.524-.135l.323-.084a1.29 1.29 0 0 0 .666-.457c4.418-5.939 9.156-11.555 13.75-16.998l.138-.182c.311-.352.387-.852.221-1.273-.042-.094-.071-.168-.125-.244a1.192 1.192 0 0 0-1.402-.482c-2.898 1.018-6 1.67-9.215 1.918-4.49.352-9.443.07-15.598-.902a1.193 1.193 0 0 0-1.168.518c-4.046 5.92-7.136 11.629-9.477 17.5-.12.291-.113.629-.013.935z"/></g><g style="enable-background:new"><path style="fill:#4f5f9c" d="M277.57 284.834a38.572 38.572 0 0 1-10.101 5.438c1.942-2.525 3.887-5.061 5.901-7.516l4.2 2.078z"/><path style="fill:#fff" d="M267.47 290.271c1.942-2.525 3.887-5.061 5.901-7.516l4.199 2.078a38.492 38.492 0 0 1-10.1 5.438m-1.134.463c.034.096.093.178.138.26.313.465.886.643 1.396.449a39.544 39.544 0 0 0 10.413-5.592c.344-.268.541-.695.506-1.133-.024-.121-.043-.227-.091-.352a1.205 1.205 0 0 0-.6-.658l-4.189-2.082c-.5-.24-1.1-.105-1.45.324-1.869 2.273-3.708 4.637-5.48 6.936l-.456.6c-.282.35-.347.842-.187 1.248z"/></g><g style="enable-background:new"><path style="fill:#6e7ba8" d="M217.249 362.75c-4.767 2.803-9.852 4.658-15.195 5.912l-3.907-81.055c1.651.219 3.281.525 4.931.781a38.75 38.75 0 0 0 8.567 5.727l5.604 68.635z"/><path style="fill:#fff" d="m202.054 368.662-3.907-81.055c1.651.219 3.281.525 4.931.781a38.75 38.75 0 0 0 8.567 5.727l5.604 68.635c-4.768 2.803-9.853 4.658-15.195 5.912m-1.135.469c.086.207.221.389.396.527.287.229.656.318 1.008.229 5.848-1.365 10.933-3.346 15.516-6.043a1.27 1.27 0 0 0 .621-1.197l-5.603-68.648a1.503 1.503 0 0 0-.078-.359 1.322 1.322 0 0 0-.619-.66 37.979 37.979 0 0 1-8.306-5.545 1.193 1.193 0 0 0-.601-.287 78.442 78.442 0 0 1-1.923-.307 74.718 74.718 0 0 0-3.039-.473 1.172 1.172 0 0 0-.97.33 1.227 1.227 0 0 0-.388.982l3.9 81.049c.011.14.04.269.086.402z"/></g><g style="enable-background:new"><path style="fill:#6e7ba8" d="M238.178 343.826c-9.836 87.326-100.687 32.26-134.946 41.953 31.193-34.373 103.616 14.688 134.946-41.953z"/><path style="fill:#fff" d="M103.231 385.779c31.194-34.373 103.616 14.688 134.946-41.953-9.836 87.326-100.686 32.26-134.946 41.953m-1.126.463a.96.96 0 0 0 .084.184c.291.492.844.713 1.362.563 9.959-2.818 25.342.074 41.618 3.15 25.97 4.881 55.421 10.436 74.674-4.254 10.913-8.34 17.31-22.047 19.54-41.902a1.254 1.254 0 0 0-.078-.623 1.247 1.247 0 0 0-.754-.73 1.217 1.217 0 0 0-1.43.574c-17.173 31.066-46.956 29.656-75.737 28.297-23.121-1.09-44.938-2.113-59.044 13.418-.319.36-.41.874-.235 1.323z"/></g><g style="enable-background:new"><path style="fill:#91c4e0" d="M92.043 251.463c-2.944-5.127-5.675-10.481-8.358-15.812l67.34-42.208c4.399 4.581 8.048 9.555 11.191 14.817l-70.173 43.203z"/><path style="fill:#fff" d="m83.685 235.651 67.34-42.208c4.399 4.581 8.048 9.555 11.191 14.817l-70.172 43.203c-2.945-5.127-5.675-10.481-8.359-15.812m-1.121.46c.012.035.03.088.046.121 2.607 5.155 5.391 10.627 8.4 15.872.155.287.428.49.739.584.316.068.646.029.923-.158l70.171-43.198c.276-.168.468-.458.546-.771a1.268 1.268 0 0 0-.051-.774.588.588 0 0 0-.089-.184c-3.402-5.709-7.119-10.622-11.361-15.036a1.178 1.178 0 0 0-1.497-.193l-67.334 42.202a1.27 1.27 0 0 0-.493 1.535z"/></g><g style="enable-background:new"><path style="fill:#91c4e0" d="M65.036 203.41c50.587-42.716 75.924-17.332 75.924-17.332-39.657.577-56.688 32.356-61.006 42.152-4.617-9.07-9.294-17.716-14.918-24.82z"/><path style="fill:#fff" d="M65.036 203.41c50.587-42.716 75.924-17.332 75.924-17.332-39.657.577-56.688 32.356-61.006 42.152-4.617-9.07-9.294-17.716-14.918-24.82m-1.133.465c.046.117.115.23.191.331 5.259 6.642 9.712 14.645 14.786 24.617.217.421.649.677 1.111.672a1.225 1.225 0 0 0 1.07-.747c4.202-9.563 20.965-40.85 59.911-41.423.493.006.933-.322 1.115-.788a1.342 1.342 0 0 0-.004-.931 1.27 1.27 0 0 0-.281-.425c-.266-.274-6.798-6.674-19.744-7.713-11.764-.936-31.357 2.64-57.783 24.978-.43.344-.56.936-.372 1.429z"/></g><g style="enable-background:new"><path style="fill:#91c4e0" d="M228.517 294.078c.802.438 1.686.813 2.571 1.143l.023.008c2.937 1.17 6.235 1.932 9.883 2.334-.107.336-.225.654-.323 1-4.95.373-9.458.338-13.534-.098a54.862 54.862 0 0 1-3.373-.479h-.016c-4.55-.787-8.54-2.129-12.104-3.871l-.357-4.434c-2.722-.492-5.47-.871-8.21-1.293a43.592 43.592 0 0 1-3.017-2.904c7.27.965 14.382 2.367 21.313 3.699 2.119 1.921 4.469 3.583 7.144 4.895z"/><path style="fill:#fff" d="M200.061 285.484c7.27.965 14.382 2.367 21.313 3.699 2.118 1.92 4.468 3.582 7.143 4.895.802.438 1.686.813 2.571 1.143l.023.008c2.937 1.17 6.235 1.932 9.883 2.334-.107.336-.225.654-.323 1-4.95.373-9.458.338-13.534-.098a54.862 54.862 0 0 1-3.373-.479h-.016c-4.55-.787-8.54-2.129-12.104-3.871l-.357-4.434c-2.722-.492-5.47-.871-8.21-1.293a42.895 42.895 0 0 1-3.016-2.904m-1.125.457c.054.148.137.291.258.416a45.779 45.779 0 0 0 3.092 2.98c.17.162.377.25.612.291l2.018.303c1.726.258 3.506.521 5.249.824l.267 3.455c.02.127.051.25.082.367.12.289.327.531.612.664 3.837 1.893 7.876 3.182 12.348 3.965l.104.027c.934.145 2.169.342 3.439.477 4.149.432 8.768.479 13.744.104.492-.039.917-.391 1.075-.895.042-.156.105-.318.16-.488.055-.162.111-.314.16-.49.086-.275.083-.58-.031-.842a.755.755 0 0 0-.109-.223 1.25 1.25 0 0 0-.875-.564c-3.604-.396-6.829-1.152-9.643-2.264a22.903 22.903 0 0 1-2.463-1.102c-2.426-1.195-4.674-2.738-6.854-4.711a1.153 1.153 0 0 0-.592-.275l-1.274-.252c-6.508-1.252-13.237-2.551-20.092-3.477a1.21 1.21 0 0 0-1.246.688 1.29 1.29 0 0 0-.041 1.022z"/></g><g style="enable-background:new"><path style="fill:#91c4e0" d="M180.199 202.947a81.213 81.213 0 0 1 2.703 3.438c-2.403 3.556-4.543 7.136-6.274 10.788a59.044 59.044 0 0 0-1.646 3.91l-.013.027c-.44 1.196-.858 2.338-1.234 3.534-.13.448-.239.909-.349 1.35-7.431-18.535-17.855-36.459-38.681-47.953 21.262 3.965 35.118 12.826 44.776 24.03a107.92 107.92 0 0 0-2.772 6.364 55.027 55.027 0 0 1 3.49-5.488z"/><path style="fill:#fff" d="M134.704 178.041c21.262 3.965 35.118 12.826 44.776 24.03a107.92 107.92 0 0 0-2.772 6.364 55.191 55.191 0 0 1 3.491-5.487 81.213 81.213 0 0 1 2.703 3.438c-2.403 3.556-4.543 7.136-6.274 10.788a59.044 59.044 0 0 0-1.646 3.91l-.013.027c-.44 1.196-.858 2.338-1.234 3.534-.13.448-.239.909-.349 1.35-7.432-18.536-17.857-36.461-38.682-47.954m-1.126.467c.106.264.29.5.561.635 21.803 12.051 31.829 31.624 38.127 47.329.192.493.676.803 1.2.783a1.245 1.245 0 0 0 1.094-.937l.125-.522c.078-.263.142-.526.211-.762.337-1.128.728-2.193 1.208-3.477.015-.026.019-.048.036-.089a51.61 51.61 0 0 1 1.585-3.74c1.579-3.346 3.593-6.813 6.178-10.625.23-.347.278-.79.125-1.179a2.423 2.423 0 0 0-.153-.299 73.234 73.234 0 0 0-2.759-3.489 1.144 1.144 0 0 0-.456-.344c-.011-.069-.033-.124-.054-.179a1.231 1.231 0 0 0-.219-.365c-11.009-12.793-25.884-20.787-45.453-24.45a1.229 1.229 0 0 0-1.369.831c-.107.282-.089.606.013.879z"/></g><g style="enable-background:new"><path style="fill:#91c4e0" d="M200.615 245.375c.192.6.392 1.199.551 1.771.288.844.551 1.701.813 2.564 1.6 5.184 3.192 10.221 4.915 14.979.282.805.593 1.58.895 2.363-6.32-.6-12.734-.666-19.19.184-2.788-6.24-5.188-13.051-7.599-20.096a39.616 39.616 0 0 1 3.146-10.126c2.132-4.603 5.091-9.083 8.497-13.539 3.19 7.185 5.689 14.631 7.972 21.9z"/><path style="fill:#fff" d="M185.755 260.4c-1.653-4.264-3.199-8.703-4.755-13.26a39.616 39.616 0 0 1 3.146-10.126c2.132-4.603 5.091-9.083 8.497-13.539a142.934 142.934 0 0 1 2.598 6.28c2.012 5.191 3.754 10.445 5.375 15.619.192.6.392 1.199.551 1.771.288.844.551 1.701.813 2.564 1.6 5.184 3.192 10.221 4.915 14.979.282.805.593 1.58.895 2.363-6.32-.6-12.734-.666-19.19.184a130.12 130.12 0 0 1-2.845-6.835m-1.12.461a157.02 157.02 0 0 0 2.853 6.912c.228.475.733.777 1.263.707 5.869-.77 12.057-.832 18.929-.17.412.037.823-.158 1.082-.502.237-.346.315-.805.163-1.211l-.326-.809c-.18-.51-.381-1.01-.566-1.543-1.631-4.521-3.142-9.232-4.9-14.91a61.628 61.628 0 0 0-.798-2.559c-.146-.523-.331-1.066-.506-1.609l-.06-.184c-1.476-4.676-3.261-10.202-5.394-15.697a128.863 128.863 0 0 0-2.636-6.335 1.22 1.22 0 0 0-.953-.718 1.203 1.203 0 0 0-1.096.464c-3.918 5.122-6.662 9.488-8.643 13.783a41.216 41.216 0 0 0-3.25 10.452 1.13 1.13 0 0 0 .057.627c1.406 4.111 3.047 8.861 4.781 13.302z"/></g><g style="enable-background:new"><path style="fill:#4da9dc" d="M176.708 208.435a108.21 108.21 0 0 1 2.772-6.364c.241.286.472.579.719.876a55.21 55.21 0 0 0-3.491 5.488z"/><path style="fill:#fff" d="M176.708 208.435a108.21 108.21 0 0 1 2.772-6.364c.241.286.472.579.719.876a55.21 55.21 0 0 0-3.491 5.488m-1.133.464c.117.276.328.52.602.664.573.295 1.266.069 1.586-.506.99-1.8 2.078-3.497 3.409-5.369.255-.349.309-.817.151-1.206a1.135 1.135 0 0 0-.207-.35l-.251-.317c-.154-.18-.312-.382-.478-.565a1.213 1.213 0 0 0-1.078-.42 1.244 1.244 0 0 0-.917.699c-1.112 2.355-2.005 4.385-2.815 6.425-.122.32-.113.649-.002.945z"/></g><g style="enable-background:new"><path style="fill:#3b65a0" d="M246.96 297.918c-2.185.299-4.265.494-6.289.645.098-.346.215-.664.323-1a53.31 53.31 0 0 0 5.966.355z"/><path style="fill:#fff" d="M240.671 298.563c.098-.346.215-.664.323-1 1.882.215 3.853.352 5.966.355-2.185.299-4.265.494-6.289.645m-1.125.468a.995.995 0 0 0 .171.316c.248.318.637.494 1.041.467 2.289-.164 4.357-.391 6.354-.658a1.242 1.242 0 0 0 1.06-1.316 1.975 1.975 0 0 0-.083-.389c-.188-.463-.62-.799-1.13-.799-1.855.012-3.7-.094-5.829-.328a1.21 1.21 0 0 0-1.295.854l-.137.424c-.069.191-.135.398-.193.59a1.28 1.28 0 0 0 .041.839z"/></g><g style="enable-background:new"><path style="fill:#3d699f" d="m197.009 281.854-.027-.02a57.725 57.725 0 0 1-2.436-3.43c-2.221-3.441-4.17-7.186-5.947-11.168 6.457-.85 12.871-.783 19.19-.184 2.033 5.367 4.324 10.328 7.167 14.617 1.861 2.822 3.982 5.33 6.418 7.514-6.932-1.332-14.044-2.734-21.313-3.699-.23-.252-.486-.502-.718-.748a64.289 64.289 0 0 1-2.334-2.882z"/><path style="fill:#fff" d="M188.599 267.236c6.457-.85 12.871-.783 19.19-.184.117.32.231.623.366.934 1.938 5.02 4.126 9.641 6.8 13.684 1.861 2.822 3.982 5.33 6.418 7.514-6.932-1.332-14.044-2.734-21.313-3.699-.23-.252-.486-.502-.718-.748a64.872 64.872 0 0 1-2.333-2.883l-.027-.02a57.725 57.725 0 0 1-2.436-3.43c-2.221-3.441-4.17-7.185-5.947-11.168m-1.135.467c.009.025.012.043.023.07 1.965 4.363 3.938 8.07 6.048 11.324a70.937 70.937 0 0 0 2.489 3.529c.039.033.066.061.118.1a65.358 65.358 0 0 0 2.307 2.861c.141.156.301.311.459.467l.285.303c.177.193.433.326.703.361 6.786.908 13.496 2.209 19.972 3.453l1.284.238a1.19 1.19 0 0 0 1.313-.676c.15-.34.165-.691.032-1.016a1.233 1.233 0 0 0-.317-.482c-2.319-2.078-4.41-4.521-6.219-7.275-2.372-3.582-4.566-7.986-6.691-13.436l-.345-.928c-.013-.002-.008-.01-.008-.01a1.249 1.249 0 0 0-1.019-.791c-7.045-.658-13.416-.6-19.464.191a1.226 1.226 0 0 0-.895.641 1.269 1.269 0 0 0-.075 1.076z"/></g><g style="enable-background:new"><path style="fill:#3d699f" d="M211.645 294.115a38.681 38.681 0 0 1-8.567-5.727c2.74.422 5.488.801 8.21 1.293l.357 4.434z"/><path style="fill:#fff" d="M203.077 288.389c2.74.422 5.488.801 8.21 1.293l.357 4.434a38.774 38.774 0 0 1-8.567-5.727m-1.135.459c.07.191.191.367.343.49a40.229 40.229 0 0 0 8.842 5.904c.394.199.859.146 1.208-.1.363-.26.561-.697.523-1.145l-.356-4.416a1.933 1.933 0 0 0-.084-.367 1.219 1.219 0 0 0-.921-.764c-2.074-.379-4.186-.689-6.234-1.008l-2.008-.297a1.209 1.209 0 0 0-1.288.721 1.307 1.307 0 0 0-.025.982z"/></g><g style="enable-background:new"><path style="fill:#91c4e0" d="M116.964 279.631c-4.733-2.863-8.843-6.479-12.57-10.621l66.105-44.019c.705 1.733 1.307 3.491 1.971 5.228a40.745 40.745 0 0 0-.417 9.904l-55.089 39.508z"/><path style="fill:#fff" d="m104.395 269.01 66.105-44.019c.123.316.242.62.367.924.556 1.442 1.05 2.878 1.604 4.303a40.745 40.745 0 0 0-.417 9.904l-55.09 39.508c-4.733-2.862-8.843-6.478-12.569-10.62m-1.136.472c.06.146.136.268.247.389 4.093 4.545 8.298 8.088 12.846 10.844.403.254.911.23 1.303-.053l55.087-39.508c.353-.266.556-.684.516-1.125a40.27 40.27 0 0 1 .414-9.598 1.294 1.294 0 0 0-.071-.662c-.244-.651-.48-1.292-.713-1.931-.291-.784-.589-1.591-.893-2.381-.118-.323-.247-.634-.372-.945a1.265 1.265 0 0 0-.769-.719c-.345-.102-.717-.063-1.011.148l-66.112 44.02a1.253 1.253 0 0 0-.539.9c-.029.217.005.426.067.621z"/></g><g style="enable-background:new"><path style="fill:#91c4e0" d="M143.304 288.877c-78.223 34.865-77.415-73.833-102.687-99.594 44.44 10.69 39.46 99.916 102.687 99.594z"/><path style="fill:#fff" d="M40.617 189.283c44.44 10.689 39.46 99.916 102.687 99.594-46.048 20.518-64.715-8.709-77.429-41.477-4.729-12.178-8.64-24.863-12.823-35.649-3.673-9.481-7.576-17.505-12.435-22.468m-1.125.473c.059.151.15.295.273.422 4.126 4.213 7.884 11.013 12.155 22.044 2.028 5.198 3.955 10.782 6.009 16.705 2.152 6.213 4.374 12.643 6.82 18.942 6.733 17.371 16.774 38.297 34.773 45.943 12.31 5.236 26.795 4.006 44.27-3.783.523-.242.811-.838.693-1.42-.007-.064-.028-.135-.047-.213a1.252 1.252 0 0 0-1.14-.783c-34.678.186-48.386-27.115-61.636-53.522-10.633-21.178-20.669-41.201-40.765-46.021a1.209 1.209 0 0 0-1.35.613c-.187.336-.189.721-.055 1.073z"/></g><g style="enable-background:new"><path style="fill:#6db1d7" d="M225.931 135.645c-1.625 6.237-3.965 11.996-6.781 17.437l-71.494-40.824c2.81-5.216 5.928-10.34 9.047-15.402l69.228 38.789z"/><path style="fill:#fff" d="M147.655 112.258c2.81-5.216 5.928-10.34 9.047-15.402l69.228 38.789c-1.625 6.237-3.965 11.996-6.781 17.437l-71.494-40.824m-1.117.463c.093.267.283.493.529.625l71.491 40.832c.287.165.615.207.926.115a1.22 1.22 0 0 0 .732-.618c3.069-5.906 5.321-11.698 6.889-17.697.06-.256.04-.542-.044-.797a1.308 1.308 0 0 0-.552-.626l-69.231-38.801c-.549-.341-1.272-.14-1.604.421-3.337 5.446-6.332 10.367-9.077 15.471a1.27 1.27 0 0 0-.114.949c.016.046.027.085.055.126z"/></g><g style="enable-background:new"><path style="fill:#6db1d7" d="M227.039 122.978c-20.43-35.066-55.624-34.281-66.002-33.197 5.289-8.677 10.165-17.18 13.301-25.77 61.234 23.6 52.701 58.967 52.701 58.967z"/><path style="fill:#fff" d="M161.037 89.78c5.289-8.677 10.165-17.18 13.301-25.77 33.008 12.717 45.738 28.866 50.482 41.042 4.027 10.409 2.219 17.926 2.219 17.926-20.43-35.066-55.624-34.281-66.002-33.198m-1.127.463a1.222 1.222 0 0 0 1.252.79c10.137-1.061 44.793-1.804 64.833 32.591.25.425.734.662 1.216.599.492-.086.89-.455 1.005-.947.079-.31 1.859-8.028-2.278-18.686-4.587-11.822-17.185-28.659-51.176-41.753-.632-.25-1.331.076-1.571.725-2.93 8.054-7.385 16.044-13.181 25.55-.2.347-.25.755-.1 1.131z"/></g><g style="enable-background:new"><path style="fill:#4da9dc" d="M181 247.141c-.448 2.668-.653 5.387-.417 8.213.036.932.157 1.9.33 2.863l.013.033c.472 3.143 1.47 6.393 2.92 9.789-.349.07-.698.146-1.043.221-2.732-4.154-4.928-8.139-6.593-11.928a58.846 58.846 0 0 1-1.301-3.238l-.008-.025c-1.656-4.537-2.545-8.832-2.848-12.946l3.275-2.352c-.897-2.531-1.889-5.029-2.858-7.552.234-1.425.542-2.833.914-4.225 2.844 7.063 5.242 14.214 7.616 21.147z"/><path style="fill:#fff" d="M175.342 254.219c-.148-.381-.283-.758-.432-1.125l-.008-.025c-1.656-4.537-2.545-8.832-2.848-12.946l3.275-2.352c-.897-2.531-1.889-5.029-2.858-7.552.234-1.425.542-2.833.914-4.225.299.736.588 1.48.887 2.224 2.46 6.342 4.602 12.725 6.729 18.923-.448 2.668-.653 5.387-.417 8.213.036.932.157 1.9.33 2.863l.013.033c.391 2.625 1.161 5.33 2.253 8.135.208.555.424 1.1.667 1.654-.349.07-.698.146-1.043.221-2.732-4.154-4.928-8.139-6.593-11.928a54.38 54.38 0 0 1-.869-2.113m-1.131.465c.28.721.569 1.447.885 2.15 1.68 3.842 3.933 7.928 6.704 12.129.274.414.779.627 1.252.52l.225-.047.807-.168c.351-.08.665-.313.835-.65.164-.314.184-.707.053-1.049-.011-.014-.012-.021-.015-.043-.234-.531-.451-1.07-.666-1.6-1.058-2.754-1.797-5.4-2.175-7.805.009-.047-.004-.092-.004-.135a18.508 18.508 0 0 1-.326-2.736c-.2-2.494-.066-5.074.401-7.893a1.189 1.189 0 0 0-.055-.623l-.682-2.039c-1.894-5.538-3.852-11.265-6.052-16.94-.296-.751-.595-1.499-.894-2.246a1.184 1.184 0 0 0-1.196-.759c-.521.023-.953.389-1.098.904a50.33 50.33 0 0 0-.937 4.349c-.041.239-.019.465.063.673l.784 2.001c.566 1.521 1.174 3.074 1.739 4.607l-2.511 1.809a1.28 1.28 0 0 0-.508 1.127c.325 4.461 1.284 8.813 2.94 13.315.147.385.276.77.431 1.149z"/></g><g style="enable-background:new"><path style="fill:#6db1d7" d="M232.849 165.64a73.672 73.672 0 0 1-2.095 5.702c-3.982-.333-7.87-.436-11.612-.163a64.718 64.718 0 0 0-4.1.48l-.014.033c-1.22.173-2.409.375-3.597.647-.77.183-1.533.42-2.304.637 12.139-16.183 22.352-34.754 21.494-59.613 7.246 20.598 6.873 37.166 2.546 51.259a98.43 98.43 0 0 0-6.351.667c2.147-.014 4.115.135 6.033.351z"/><path style="fill:#fff" d="M209.127 172.977c12.139-16.183 22.352-34.754 21.494-59.613 7.246 20.598 6.873 37.166 2.546 51.259a98.43 98.43 0 0 0-6.351.667c2.147-.014 4.115.136 6.033.351a73.672 73.672 0 0 1-2.095 5.702c-3.982-.333-7.87-.436-11.612-.163a64.718 64.718 0 0 0-4.1.48l-.014.033c-1.22.173-2.409.375-3.597.647-.77.182-1.534.42-2.304.637m-1.122.464c.034.095.07.164.119.236a1.2 1.2 0 0 0 1.344.505l.24-.062c.664-.2 1.314-.386 1.978-.55a44.454 44.454 0 0 1 3.518-.642c.064-.018.146-.035.21-.055a53.965 53.965 0 0 1 3.808-.434c3.435-.252 7.18-.199 11.444.151.506.041.988-.267 1.203-.757a77.612 77.612 0 0 0 2.135-5.795c.055-.18.078-.376.062-.55.109-.137.209-.305.264-.488 4.932-16.088 4.103-33.111-2.562-52.069-.006-.01-.016-.018-.014-.034-.218-.557-.791-.879-1.357-.764a1.252 1.252 0 0 0-.988 1.269c.88 25.679-10.246 44.14-21.243 58.818a1.29 1.29 0 0 0-.161 1.221z"/></g><g style="enable-background:new"><path style="fill:#6db1d7" d="M206.146 207.37c-.559.682-1.152 1.344-1.731 2.012-3.539 4.027-6.963 7.979-10.094 11.913-.593.735-1.121 1.455-1.679 2.181-2.647-5.945-5.796-11.729-9.741-17.091 3.571-5.273 7.734-10.476 12.115-15.796 3.562-1.523 7.305-2.416 11.25-2.755 4.737-.396 9.76-.044 14.959.713-4.292 6.207-9.104 11.942-13.879 17.444-.393.461-.785.938-1.2 1.379z"/><path style="fill:#fff" d="M182.901 206.385c3.571-5.273 7.734-10.476 12.115-15.796 3.562-1.523 7.305-2.416 11.25-2.755 4.737-.396 9.76-.044 14.959.713-4.292 6.207-9.104 11.942-13.879 17.444-.393.462-.786.938-1.2 1.38-.559.682-1.152 1.344-1.731 2.012-3.539 4.027-6.963 7.979-10.094 11.913-.593.735-1.121 1.455-1.679 2.181-2.647-5.947-5.796-11.73-9.741-17.092m-1.13.463c.048.112.096.208.165.3 3.571 4.859 6.717 10.375 9.595 16.855.184.405.543.669.967.72.418.064.838-.119 1.098-.461l.452-.61c.4-.518.795-1.042 1.223-1.564 3.228-4.07 6.87-8.253 10.039-11.863l.486-.542c.439-.511.875-.997 1.24-1.445.412-.459.836-.941 1.22-1.408 4.652-5.371 9.568-11.212 13.965-17.565.238-.339.293-.804.143-1.192-.015-.01-.015-.018-.017-.028a1.227 1.227 0 0 0-.949-.749c-5.865-.844-10.854-1.077-15.227-.705-4.068.337-7.981 1.285-11.617 2.826-.191.085-.35.209-.462.361-3.922 4.774-8.42 10.331-12.182 15.896a1.232 1.232 0 0 0-.139 1.174z"/></g><g style="enable-background:new"><path style="fill:#4f9dca" d="m215.028 171.692.014-.033a63.287 63.287 0 0 1 4.1-.48c3.742-.272 7.63-.17 11.612.163-2.568 6.164-5.833 11.863-9.529 17.205-5.199-.757-10.222-1.109-14.959-.713-3.945.339-7.688 1.232-11.25 2.755 4.655-5.668 9.518-11.473 14.11-17.612.771-.217 1.534-.455 2.304-.637a42.894 42.894 0 0 1 3.598-.648z"/><path style="fill:#fff" d="M195.017 190.589c4.655-5.668 9.518-11.473 14.11-17.612.771-.217 1.534-.455 2.304-.637a43.203 43.203 0 0 1 3.597-.647l.014-.033a63.287 63.287 0 0 1 4.1-.48c3.742-.272 7.63-.17 11.612.163-2.568 6.164-5.833 11.863-9.529 17.205-5.199-.757-10.222-1.109-14.959-.713-3.945.338-7.688 1.231-11.249 2.754m-1.126.468c.033.092.078.179.133.258.336.476.931.657 1.447.427 3.402-1.439 7.066-2.338 10.898-2.657 4.194-.357 9.002-.125 14.694.694.444.061.895-.135 1.157-.517 4.022-5.813 7.182-11.525 9.652-17.433.122-.297.129-.649.008-.954-.026-.063-.051-.125-.083-.186a1.196 1.196 0 0 0-.953-.598c-4.385-.362-8.233-.414-11.786-.156-1.33.103-2.736.252-4.201.473-.069.018-.135.038-.218.059-1.348.222-2.431.417-3.476.654-.72.17-1.42.363-2.139.578l-.226.078a1.16 1.16 0 0 0-.634.439c-3.861 5.165-7.95 10.117-11.902 14.903l-2.173 2.654a1.248 1.248 0 0 0-.198 1.284z"/></g><g style="enable-background:new"><path style="fill:#4da9dc" d="M226.816 165.289a99.143 99.143 0 0 1 6.351-.667c-.094.345-.205.685-.318 1.018-1.918-.216-3.886-.365-6.033-.351z"/><path style="fill:#fff" d="M226.816 165.289a99.143 99.143 0 0 1 6.351-.667c-.094.345-.205.685-.318 1.018-1.918-.216-3.886-.365-6.033-.351m-1.119.452c.175.466.625.797 1.126.786 1.845.002 3.72.111 5.894.359a1.202 1.202 0 0 0 1.276-.843c.127-.35.225-.691.337-1.038a1.286 1.286 0 0 0-.028-.847 1.851 1.851 0 0 0-.164-.313 1.238 1.238 0 0 0-1.057-.474 99.652 99.652 0 0 0-6.42.669c-.634.078-1.09.657-1.051 1.32.016.137.041.278.087.381z"/></g><g style="enable-background:new"><path style="fill:#5595c2" d="M186.638 273.717a107.952 107.952 0 0 1-3.834-5.457c.345-.074.694-.15 1.043-.221a56.679 56.679 0 0 0 2.791 5.678z"/><path style="fill:#fff" d="M182.804 268.26c.345-.074.694-.15 1.043-.221a56.679 56.679 0 0 0 2.791 5.678 108.405 108.405 0 0 1-3.834-5.457m-1.119.469c.031.074.071.156.115.234a122.455 122.455 0 0 0 3.87 5.531c.392.514 1.115.645 1.642.275.485-.346.666-.971.444-1.5-.014-.07-.043-.123-.075-.189-.959-1.682-1.825-3.455-2.723-5.555a1.208 1.208 0 0 0-1.345-.721l-.848.184-.205.047c-.396.08-.73.359-.88.754-.119.303-.109.641.005.94z"/></g><g style="enable-background:new"><path style="fill:#58a7d1" d="m174.967 221.109.013-.027a59.901 59.901 0 0 1 1.646-3.91c1.731-3.651 3.871-7.232 6.274-10.788 3.945 5.362 7.094 11.146 9.741 17.091-3.406 4.455-6.364 8.936-8.497 13.539a39.628 39.628 0 0 0-3.146 10.126c-2.374-6.932-4.772-14.083-7.615-21.147.11-.441.218-.902.349-1.35.377-1.196.795-2.337 1.235-3.534z"/><path style="fill:#fff" d="M181 247.141c-2.126-6.199-4.268-12.582-6.729-18.923-.299-.747-.588-1.487-.887-2.224.11-.441.218-.902.349-1.35.376-1.196.793-2.338 1.234-3.534l.013-.027a59.901 59.901 0 0 1 1.646-3.91c1.731-3.651 3.871-7.232 6.274-10.788 3.945 5.362 7.094 11.146 9.741 17.091-3.406 4.455-6.364 8.936-8.497 13.539A39.69 39.69 0 0 0 181 247.141m-1.129.472c.199.506.693.826 1.224.777.552-.041 1.007-.479 1.095-1.033a38.695 38.695 0 0 1 3.055-9.797c1.901-4.114 4.554-8.348 8.352-13.298a1.3 1.3 0 0 0 .142-1.31c-2.958-6.644-6.191-12.313-9.868-17.318a1.178 1.178 0 0 0-.988-.498 1.204 1.204 0 0 0-.974.537c-2.66 3.917-4.743 7.49-6.379 10.961a66.434 66.434 0 0 0-1.689 3.992c-.009.041-.025.069-.033.11a58.688 58.688 0 0 0-1.226 3.545c-.101.292-.17.596-.249.903l-.119.482c-.065.259-.054.539.034.794.012.002.008.008.019.011.297.732.576 1.471.867 2.218 2.189 5.62 4.138 11.322 6.026 16.846l.693 2.025c.008.014.012.034.018.053z"/></g><g style="enable-background:new"><path style="fill:#4da9dc" d="M172.054 240.123a40.745 40.745 0 0 1 .417-9.904c.969 2.523 1.96 5.021 2.858 7.552l-3.275 2.352z"/><path style="fill:#fff" d="M172.054 240.123a40.745 40.745 0 0 1 .417-9.904c.969 2.523 1.96 5.021 2.858 7.552l-3.275 2.352m-1.137.464c.112.293.333.527.611.67.395.183.855.154 1.218-.098l3.274-2.357c.452-.328.643-.924.447-1.467-.663-1.862-1.396-3.759-2.1-5.581l-.767-1.985c-.004-.015-.004-.015 0-.016a1.216 1.216 0 0 0-1.255-.776 1.23 1.23 0 0 0-1.071 1.027 43.176 43.176 0 0 0-.434 10.217c.001.119.034.24.077.366z"/></g><g style="enable-background:new"><path style="fill:#6db1d7" d="m198.111 178.217-61.53-29.583c.014-5.66.987-11.135 2.563-16.547l70.133 36.795a229.284 229.284 0 0 1-4.122 5.482c-2.41 1.004-4.753 2.303-7.044 3.853z"/><path style="fill:#fff" d="M136.582 148.634c.014-5.66.987-11.135 2.563-16.547l70.133 36.795a229.284 229.284 0 0 1-4.122 5.482c-2.412 1.002-4.754 2.301-7.045 3.852l-61.529-29.582m-1.137.467c.115.291.339.528.615.658l61.548 29.602c.374.182.831.149 1.181-.093 2.256-1.545 4.548-2.797 6.836-3.741.185-.077.351-.215.498-.39a193.855 193.855 0 0 0 4.13-5.511c.223-.293.298-.666.205-1.037 0-.063-.028-.121-.052-.172a1.213 1.213 0 0 0-.578-.654l-70.131-36.8a1.217 1.217 0 0 0-1.025-.032 1.287 1.287 0 0 0-.687.792c-1.75 5.956-2.6 11.488-2.621 16.908-.011.156.027.307.081.47z"/></g><g style="enable-background:new"><path style="fill:#4f9dca" d="M198.111 178.217c2.291-1.55 4.633-2.849 7.045-3.852a383.448 383.448 0 0 1-4.149 5.253l-2.896-1.401z"/><path style="fill:#fff" d="M198.111 178.217c2.291-1.55 4.633-2.849 7.045-3.852a383.448 383.448 0 0 1-4.149 5.253l-2.896-1.401m-1.114.472c.106.287.321.527.611.671l2.88 1.386c.504.25 1.1.1 1.449-.328a416.73 416.73 0 0 0 4.182-5.273c.279-.36.341-.836.18-1.254a2.052 2.052 0 0 0-.156-.281c-.333-.457-.924-.634-1.431-.416-2.427 1.01-4.862 2.348-7.264 3.983a1.261 1.261 0 0 0-.541 1.137c.008.124.032.251.09.375z"/></g><g style="enable-background:new"><path style="fill:#6db1d7" d="M142.097 176.765c-68.569-52.209 22.915-106.158 31.777-141.627 13.41 44.993-63.853 85.413-31.777 141.627z"/><path style="fill:#fff" d="M119.567 149.493c-16.739-43.13 46.984-85.043 54.307-114.354 12.711 42.643-56.031 81.184-35.941 132.948a63.549 63.549 0 0 0 4.165 8.679c-11.931-9.074-19-18.204-22.531-27.273m-1.128.454.001.016c3.8 9.751 11.505 19.11 22.926 27.806.466.362 1.11.33 1.536-.077.374-.355.501-.913.319-1.393-.022-.059-.054-.119-.079-.169a62.589 62.589 0 0 1-4.086-8.506c-10.525-27.151 3.943-50.639 17.933-73.361 12.4-20.14 24.116-39.16 18.05-59.503-.008-.022-.022-.062-.039-.085a1.191 1.191 0 0 0-1.14-.789 1.217 1.217 0 0 0-1.159.937c-2.573 10.307-12.657 22.63-23.323 35.677-19.644 24.004-41.896 51.204-30.939 79.447z"/></g></svg>