<?xml version="1.0" encoding="utf-8"?>
<!-- Generator: Adobe Illustrator 16.0.0, SVG Export Plug-In . SVG Version: 6.00 Build 0)  -->
<!DOCTYPE svg PUBLIC "-//W3C//DTD SVG 1.1//EN" "http://www.w3.org/Graphics/SVG/1.1/DTD/svg11.dtd">
<svg version="1.1" id="图层_1" xmlns="http://www.w3.org/2000/svg" xmlns:xlink="http://www.w3.org/1999/xlink" x="0px" y="0px"
	 width="566.929px" height="566.929px" viewBox="0 0 566.929 566.929" enable-background="new 0 0 566.929 566.929"
	 xml:space="preserve">
<g>
	<g>
		<g>
			<g>
				<path fill="#FFFFFF" d="M251.765,395.17c-1.132-8.792-3.319-17.076-6.276-25.023L137.55,411.975
					c2.984,7.631,6.41,15.2,9.838,22.699L251.765,395.17z"/>
			</g>
			<g>
				<path fill="#FFFFFF" d="M152.153,445.111c5.803,12.836,11.087,25.351,13.856,37.628c90.362-20.353,84.949-70.117,84.949-70.117
					C215.777,456.418,166.538,448.583,152.153,445.111z"/>
			</g>
			<g>
				<path fill="#FFFFFF" d="M196.168,269.114l-0.026,0.031c0.459,1.863,0.99,3.754,1.601,5.625
					c14.443,43.854,67.966,85.178,56.478,151.629c30.333-57.726,7.35-96.765-15.435-130.501c-0.469-0.717-0.948-1.425-1.423-2.111
					c-0.667-1.033-1.371-2.053-2.084-3.061c-4.199-6.178-8.285-12.211-11.933-18.146c-4.85-7.835-8.881-15.577-11.352-23.351
					c-2.668-8.38-3.547-16.866-1.607-25.644c0.236-1.265,0.591-2.551,1.009-3.836l0.013-0.036
					c1.965-6.458,5.486-13.039,10.906-19.956c-7.682,7.546-13.523,14.736-17.88,21.666c-0.871,1.389-1.664,2.798-2.416,4.149
					c-0.012,0.041-0.012,0.041-0.012,0.041c-7.366,13.568-8.941,26.192-6.933,38.446C195.375,265.755,195.75,267.41,196.168,269.114
					z"/>
			</g>
			<g>
				<path fill="#FFFFFF" d="M128.772,360.351c-1.024,7.701-0.683,15.347,0.543,23.014l105.27-36.603
					c-3.058-5.49-6.297-10.886-9.603-16.182L128.772,360.351z"/>
			</g>
			<g>
				<path fill="#FFFFFF" d="M160.025,521.948c27.168-58.653-73.757-128.501-18.281-198.808
					C35.809,381.014,154.166,471.966,160.025,521.948z"/>
			</g>
		</g>
	</g>
	<g enable-background="new    ">
		<g>
			<path fill="#FFFFFF" d="M378.604,359.347c-8.164-3.399-16.465-5.598-24.834-6.975l-17.253,114.465
				c8.089,1.188,16.357,1.979,24.584,2.728L378.604,359.347z"/>
		</g>
		<g>
			<path fill="#FFFFFF" d="M372.529,470.609c14.017,1.335,27.494,2.961,39.539,6.646c27.174-88.549-18.702-108.556-18.702-108.556
				C413.908,420.992,382.672,459.849,372.529,470.609z"/>
		</g>
		<g>
			<path fill="#FFFFFF" d="M241.58,345.036l0.021,0.03c1.845,0.524,3.746,1.011,5.673,1.409
				c45.237,9.231,107.679-16.722,159.661,26.245c-35.029-54.992-80.343-54.416-120.937-51.379c-0.856,0.048-1.713,0.099-2.549,0.192
				c-1.229,0.049-2.458,0.155-3.691,0.259c-7.441,0.609-14.71,1.138-21.684,1.355c-9.2,0.331-17.911-0.021-25.904-1.723
				c-8.591-1.835-16.393-5.302-23.049-11.333c-0.974-0.837-1.924-1.788-2.824-2.79l-0.024-0.014
				c-4.63-4.91-8.602-11.23-11.912-19.377c2.73,10.425,6.073,19.051,9.938,26.267c0.777,1.449,1.593,2.843,2.4,4.167
				c0.023,0.026,0.023,0.026,0.023,0.026c8.12,13.133,18.294,20.761,29.929,25.096C238.276,344.063,239.908,344.55,241.58,345.036z"
				/>
		</g>
		<g>
			<path fill="#FFFFFF" d="M287.349,448.823c6.182,4.721,12.961,8.211,20.239,10.953l20.472-109.554
				c-6.29-0.058-12.57,0.07-18.819,0.314L287.349,448.823z"/>
		</g>
		<g>
			<path fill="#FFFFFF" d="M443.126,501.927c-37.419-52.715-148.147,0.225-181.656-82.842
				C259.114,539.789,396.833,482.19,443.126,501.927z"/>
		</g>
	</g>
	<g enable-background="new    ">
		<g>
			<g>
				<path fill="#FFFFFF" d="M410.543,231.861c-6.988,5.436-13.002,11.559-18.323,18.152l91.05,71.495
					c5.033-6.456,9.81-13.27,14.51-20.044L410.543,231.861z"/>
			</g>
			<g>
				<path fill="#FFFFFF" d="M504.323,292.033c8.072-11.541,16.147-22.458,25.292-31.115
					c-63.604-67.314-103.656-37.287-103.656-37.287C481.579,231.55,499.969,277.892,504.323,292.033z"/>
			</g>
			<g>
				<path fill="#FFFFFF" d="M330.496,343.985l0.041-0.005c1.366-1.341,2.722-2.759,4.017-4.236
					c30.349-34.797,38.582-101.912,101.599-125.93c-65.132,3.347-86.98,43.048-104.367,79.846c-0.371,0.772-0.743,1.55-1.085,2.307
					c-0.551,1.095-1.065,2.22-1.58,3.352c-3.16,6.766-6.27,13.368-9.512,19.525c-4.267,8.173-8.869,15.584-14.293,21.673
					c-5.836,6.578-12.691,11.658-21.225,14.466c-1.212,0.444-2.508,0.797-3.823,1.092h-0.03c-6.556,1.62-14.012,1.936-22.735,0.805
					c10.409,2.763,19.574,4.124,27.755,4.321c1.651,0.047,3.258,0.013,4.813-0.034c0.035-0.006,0.035-0.006,0.035-0.006
					c15.425-0.6,27.087-5.679,36.604-13.662C328.02,346.376,329.236,345.209,330.496,343.985z"/>
			</g>
			<g>
				<path fill="#FFFFFF" d="M443.354,355.391c7.142-3.048,13.55-7.238,19.514-12.211l-85.195-71.856
					c-3.161,5.434-6.144,10.968-9.018,16.522L443.354,355.391z"/>
			</g>
			<g>
				<path fill="#FFFFFF" d="M566.387,246.055c-64.307,6.567-72.88,129-161.664,117.17
					C508.553,424.805,526.389,276.608,566.387,246.055z"/>
			</g>
		</g>
	</g>
	<g enable-background="new    ">
		<g>
			<path fill="#FFFFFF" d="M317.07,138.352c1.146,8.778,3.395,17.061,6.381,24.993l107.757-42.277
				c-3.019-7.6-6.463-15.165-9.92-22.66L317.07,138.352z"/>
		</g>
		<g>
			<path fill="#FFFFFF" d="M416.476,87.988c-5.86-12.814-11.193-25.302-14.026-37.569c-90.262,20.738-84.65,70.478-84.65,70.478
				C352.803,76.956,402.072,84.578,416.476,87.988z"/>
		</g>
		<g>
			<path fill="#FFFFFF" d="M373.191,264.177l0.014-0.037c-0.463-1.86-0.993-3.754-1.614-5.62
				c-14.619-43.796-68.314-84.887-57.11-151.384c-30.094,57.834-6.933,96.787,15.984,130.431c0.475,0.708,0.949,1.43,1.438,2.105
				c0.652,1.034,1.366,2.054,2.08,3.056c4.23,6.152,8.327,12.169,12.014,18.1c4.884,7.807,8.945,15.529,11.454,23.311
				c2.706,8.352,3.608,16.834,1.713,25.616c-0.239,1.269-0.583,2.563-1,3.841l-0.01,0.041c-1.938,6.458-5.424,13.06-10.827,19.994
				c7.66-7.567,13.466-14.79,17.789-21.741c0.866-1.394,1.667-2.804,2.406-4.164c0.005-0.02,0.005-0.02,0.005-0.02
				c7.305-13.609,8.833-26.244,6.774-38.477C373.997,267.529,373.613,265.88,373.191,264.177z"/>
		</g>
		<g>
			<path fill="#FFFFFF" d="M440.199,172.644c0.988-7.714,0.633-15.34-0.631-22.999l-105.116,37.036
				c3.089,5.485,6.341,10.868,9.68,16.151L440.199,172.644z"/>
		</g>
		<g>
			<path fill="#FFFFFF" d="M408.29,11.186c-26.942,58.776,74.277,128.201,19.094,198.742
				C533.087,151.609,414.357,61.144,408.29,11.186z"/>
		</g>
	</g>
	<g>
		<g>
			<g>
				<path fill="#FFFFFF" d="M189.48,173.882c8.187,3.39,16.482,5.592,24.836,6.973l17.268-114.464
					c-8.1-1.188-16.371-1.987-24.587-2.737L189.48,173.882z"/>
			</g>
			<g>
				<path fill="#FFFFFF" d="M195.571,62.612c-14.029-1.331-27.514-2.966-39.557-6.644c-27.166,88.544,18.707,108.551,18.707,108.551
					C154.174,112.236,185.413,73.372,195.571,62.612z"/>
			</g>
			<g>
				<path fill="#FFFFFF" d="M326.515,188.183l-0.024-0.023c-1.852-0.53-3.762-1.006-5.679-1.404
					c-45.234-9.234-107.667,16.719-159.66-26.246c35.037,54.984,80.367,54.408,120.945,51.38c0.862-0.059,1.719-0.112,2.543-0.187
					c1.229-0.063,2.457-0.175,3.691-0.282c7.437-0.597,14.71-1.127,21.678-1.348c9.211-0.332,17.917,0.018,25.904,1.728
					c8.6,1.838,16.398,5.293,23.056,11.334c0.967,0.833,1.927,1.784,2.824,2.783l0.026,0.026c4.637,4.909,8.603,11.229,11.91,19.375
					c-2.732-10.414-6.069-19.059-9.934-26.271c-0.775-1.453-1.596-2.839-2.406-4.167c-0.026-0.028-0.026-0.028-0.026-0.028
					c-8.123-13.128-18.293-20.761-29.93-25.102C329.813,189.167,328.183,188.675,326.515,188.183z"/>
			</g>
			<g>
				<path fill="#FFFFFF" d="M280.747,84.398c-6.178-4.715-12.973-8.217-20.235-10.957L240.03,183.007
					c6.286,0.058,12.569-0.067,18.83-0.316L280.747,84.398z"/>
			</g>
			<g>
				<path fill="#FFFFFF" d="M124.957,31.302c37.432,52.713,148.165-0.24,181.664,82.83C308.975-6.565,171.26,51.031,124.957,31.302z
					"/>
			</g>
		</g>
	</g>
	<g>
		<g>
			<path fill="#FFFFFF" d="M156.218,302.141c7.047-5.358,13.128-11.419,18.518-17.952l-90.249-72.485
				c-5.114,6.392-9.95,13.154-14.73,19.867L156.218,302.141z"/>
		</g>
		<g>
			<path fill="#FFFFFF" d="M63.102,240.932c-8.194,11.446-16.39,22.281-25.626,30.843c62.857,68.004,103.229,38.422,103.229,38.422
				C85.183,301.658,67.307,255.11,63.102,240.932z"/>
		</g>
		<g>
			<path fill="#FFFFFF" d="M237.497,190.889l-0.03,0.016c-1.387,1.335-2.764,2.729-4.083,4.2
				c-30.728,34.455-39.696,101.468-102.971,124.793c65.151-2.634,87.445-42.078,105.233-78.695c0.387-0.757,0.775-1.524,1.112-2.289
				c0.576-1.089,1.09-2.215,1.625-3.324c3.227-6.733,6.418-13.289,9.731-19.423c4.353-8.125,9.021-15.483,14.522-21.521
				c5.918-6.515,12.819-11.512,21.388-14.219c1.208-0.433,2.502-0.777,3.828-1.047l0.035-0.011
				c6.581-1.541,14.028-1.794,22.734-0.553c-10.373-2.872-19.527-4.34-27.704-4.618c-1.642-0.063-3.251-0.061-4.812-0.018
				c-0.036,0-0.036,0-0.036,0c-15.429,0.419-27.148,5.373-36.746,13.251C240.01,188.539,238.766,189.691,237.497,190.889z"/>
		</g>
		<g>
			<path fill="#FFFFFF" d="M124.771,178.258c-7.177,2.966-13.619,7.083-19.642,11.981l84.395,72.799
				c3.227-5.393,6.26-10.895,9.196-16.423L124.771,178.258z"/>
		</g>
		<g>
			<path fill="#FFFFFF" d="M0.543,286.194c64.38-5.822,74.305-128.152,162.949-115.345C60.346,108.115,40.867,256.119,0.543,286.194
				z"/>
		</g>
	</g>
	<g>
		<g>
			<g>
				<path fill="#5F9BC8" d="M251.765,395.17c-1.132-8.792-3.319-17.076-6.276-25.023L137.55,411.975
					c2.984,7.631,6.41,15.2,9.838,22.699L251.765,395.17z"/>
			</g>
			<g>
				<path fill="#5F9BC8" d="M152.153,445.111c5.803,12.836,11.087,25.351,13.856,37.628c90.362-20.353,84.949-70.117,84.949-70.117
					C215.777,456.418,166.538,448.583,152.153,445.111z"/>
			</g>
			<g>
				<path fill="#5F9BC8" d="M196.168,269.114l-0.026,0.031c0.459,1.863,0.99,3.754,1.601,5.625
					c14.443,43.854,67.966,85.178,56.478,151.629c30.333-57.726,7.35-96.765-15.435-130.501c-0.469-0.717-0.948-1.425-1.423-2.111
					c-0.667-1.033-1.371-2.053-2.084-3.061c-4.199-6.178-8.285-12.211-11.933-18.146c-4.85-7.835-8.881-15.577-11.352-23.351
					c-2.668-8.38-3.547-16.866-1.607-25.644c0.236-1.265,0.591-2.551,1.009-3.836l0.013-0.036
					c1.965-6.458,5.486-13.039,10.906-19.956c-7.682,7.546-13.523,14.736-17.88,21.666c-0.871,1.389-1.664,2.798-2.416,4.149
					c-0.012,0.041-0.012,0.041-0.012,0.041c-7.366,13.568-8.941,26.192-6.933,38.446C195.375,265.755,195.75,267.41,196.168,269.114
					z"/>
			</g>
			<g>
				<path fill="#5F9BC8" d="M128.772,360.351c-1.024,7.701-0.683,15.347,0.543,23.014l105.27-36.603
					c-3.058-5.49-6.297-10.886-9.603-16.182L128.772,360.351z"/>
			</g>
			<g>
				<path fill="#5F9BC8" d="M160.025,521.948c27.168-58.653-73.757-128.501-18.281-198.808
					C35.809,381.014,154.166,471.966,160.025,521.948z"/>
			</g>
		</g>
	</g>
	<g opacity="0.8" enable-background="new    ">
		<g>
			<path fill="#107BA0" d="M378.604,359.347c-8.164-3.399-16.465-5.598-24.834-6.975l-17.253,114.465
				c8.089,1.188,16.357,1.979,24.584,2.728L378.604,359.347z"/>
		</g>
		<g>
			<path fill="#107BA0" d="M372.529,470.609c14.017,1.335,27.494,2.961,39.539,6.646c27.174-88.549-18.702-108.556-18.702-108.556
				C413.908,420.992,382.672,459.849,372.529,470.609z"/>
		</g>
		<g>
			<path fill="#107BA0" d="M241.58,345.036l0.021,0.03c1.845,0.524,3.746,1.011,5.673,1.409
				c45.237,9.231,107.679-16.722,159.661,26.245c-35.029-54.992-80.343-54.416-120.937-51.379c-0.856,0.048-1.713,0.099-2.549,0.192
				c-1.229,0.049-2.458,0.155-3.691,0.259c-7.441,0.609-14.71,1.138-21.684,1.355c-9.2,0.331-17.911-0.021-25.904-1.723
				c-8.591-1.835-16.393-5.302-23.049-11.333c-0.974-0.837-1.924-1.788-2.824-2.79l-0.024-0.014
				c-4.63-4.91-8.602-11.23-11.912-19.377c2.73,10.425,6.073,19.051,9.938,26.267c0.777,1.449,1.593,2.843,2.4,4.167
				c0.023,0.026,0.023,0.026,0.023,0.026c8.12,13.133,18.294,20.761,29.929,25.096C238.276,344.063,239.908,344.55,241.58,345.036z"
				/>
		</g>
		<g>
			<path fill="#107BA0" d="M287.349,448.823c6.182,4.721,12.961,8.211,20.239,10.953l20.472-109.554
				c-6.29-0.058-12.57,0.07-18.819,0.314L287.349,448.823z"/>
		</g>
		<g>
			<path fill="#107BA0" d="M443.126,501.927c-37.419-52.715-148.147,0.225-181.656-82.842
				C259.114,539.789,396.833,482.19,443.126,501.927z"/>
		</g>
	</g>
	<g opacity="0.8" enable-background="new    ">
		<g>
			<g>
				<path fill="#2E509A" d="M410.543,231.861c-6.988,5.436-13.002,11.559-18.323,18.152l91.05,71.495
					c5.033-6.456,9.81-13.27,14.51-20.044L410.543,231.861z"/>
			</g>
			<g>
				<path fill="#2E509A" d="M504.323,292.033c8.072-11.541,16.147-22.458,25.292-31.115
					c-63.604-67.314-103.656-37.287-103.656-37.287C481.579,231.55,499.969,277.892,504.323,292.033z"/>
			</g>
			<g>
				<path fill="#2E509A" d="M330.496,343.985l0.041-0.005c1.366-1.341,2.722-2.759,4.017-4.236
					c30.349-34.797,38.582-101.912,101.599-125.93c-65.132,3.347-86.98,43.048-104.367,79.846c-0.371,0.772-0.743,1.55-1.085,2.307
					c-0.551,1.095-1.065,2.22-1.58,3.352c-3.16,6.766-6.27,13.368-9.512,19.525c-4.267,8.173-8.869,15.584-14.293,21.673
					c-5.836,6.578-12.691,11.658-21.225,14.466c-1.212,0.444-2.508,0.797-3.823,1.092h-0.03c-6.556,1.62-14.012,1.936-22.735,0.805
					c10.409,2.763,19.574,4.124,27.755,4.321c1.651,0.047,3.258,0.013,4.813-0.034c0.035-0.006,0.035-0.006,0.035-0.006
					c15.425-0.6,27.087-5.679,36.604-13.662C328.02,346.376,329.236,345.209,330.496,343.985z"/>
			</g>
			<g>
				<path fill="#2E509A" d="M443.354,355.391c7.142-3.048,13.55-7.238,19.514-12.211l-85.195-71.856
					c-3.161,5.434-6.144,10.968-9.018,16.522L443.354,355.391z"/>
			</g>
			<g>
				<path fill="#2E509A" d="M566.387,246.055c-64.307,6.567-72.88,129-161.664,117.17
					C508.553,424.805,526.389,276.608,566.387,246.055z"/>
			</g>
		</g>
	</g>
	<g opacity="0.8" enable-background="new    ">
		<g>
			<path fill="#4F5F9C" d="M317.07,138.352c1.146,8.778,3.395,17.061,6.381,24.993l107.757-42.277
				c-3.019-7.6-6.463-15.165-9.92-22.66L317.07,138.352z"/>
		</g>
		<g>
			<path fill="#4F5F9C" d="M416.476,87.988c-5.86-12.814-11.193-25.302-14.026-37.569c-90.262,20.738-84.65,70.478-84.65,70.478
				C352.803,76.956,402.072,84.578,416.476,87.988z"/>
		</g>
		<g>
			<path fill="#4F5F9C" d="M373.191,264.177l0.014-0.037c-0.463-1.86-0.993-3.754-1.614-5.62
				c-14.619-43.796-68.314-84.887-57.11-151.384c-30.094,57.834-6.933,96.787,15.984,130.431c0.475,0.708,0.949,1.43,1.438,2.105
				c0.652,1.034,1.366,2.054,2.08,3.056c4.23,6.152,8.327,12.169,12.014,18.1c4.884,7.807,8.945,15.529,11.454,23.311
				c2.706,8.352,3.608,16.834,1.713,25.616c-0.239,1.269-0.583,2.563-1,3.841l-0.01,0.041c-1.938,6.458-5.424,13.06-10.827,19.994
				c7.66-7.567,13.466-14.79,17.789-21.741c0.866-1.394,1.667-2.804,2.406-4.164c0.005-0.02,0.005-0.02,0.005-0.02
				c7.305-13.609,8.833-26.244,6.774-38.477C373.997,267.529,373.613,265.88,373.191,264.177z"/>
		</g>
		<g>
			<path fill="#4F5F9C" d="M440.199,172.644c0.988-7.714,0.633-15.34-0.631-22.999l-105.116,37.036
				c3.089,5.485,6.341,10.868,9.68,16.151L440.199,172.644z"/>
		</g>
		<g>
			<path fill="#4F5F9C" d="M408.29,11.186c-26.942,58.776,74.277,128.201,19.094,198.742
				C533.087,151.609,414.357,61.144,408.29,11.186z"/>
		</g>
	</g>
	<g opacity="0.6">
		<g>
			<g>
				<path fill="#4DA9DC" d="M189.48,173.882c8.187,3.39,16.482,5.592,24.836,6.973l17.268-114.464
					c-8.1-1.188-16.371-1.987-24.587-2.737L189.48,173.882z"/>
			</g>
			<g>
				<path fill="#4DA9DC" d="M195.571,62.612c-14.029-1.331-27.514-2.966-39.557-6.644c-27.166,88.544,18.707,108.551,18.707,108.551
					C154.174,112.236,185.413,73.372,195.571,62.612z"/>
			</g>
			<g>
				<path fill="#4DA9DC" d="M326.515,188.183l-0.024-0.023c-1.852-0.53-3.762-1.006-5.679-1.404
					c-45.234-9.234-107.667,16.719-159.66-26.246c35.037,54.984,80.367,54.408,120.945,51.38c0.862-0.059,1.719-0.112,2.543-0.187
					c1.229-0.063,2.457-0.175,3.691-0.282c7.437-0.597,14.71-1.127,21.678-1.348c9.211-0.332,17.917,0.018,25.904,1.728
					c8.6,1.838,16.398,5.293,23.056,11.334c0.967,0.833,1.927,1.784,2.824,2.783l0.026,0.026c4.637,4.909,8.603,11.229,11.91,19.375
					c-2.732-10.414-6.069-19.059-9.934-26.271c-0.775-1.453-1.596-2.839-2.406-4.167c-0.026-0.028-0.026-0.028-0.026-0.028
					c-8.123-13.128-18.293-20.761-29.93-25.102C329.813,189.167,328.183,188.675,326.515,188.183z"/>
			</g>
			<g>
				<path fill="#4DA9DC" d="M280.747,84.398c-6.178-4.715-12.973-8.217-20.235-10.957L240.03,183.007
					c6.286,0.058,12.569-0.067,18.83-0.316L280.747,84.398z"/>
			</g>
			<g>
				<path fill="#4DA9DC" d="M124.957,31.302c37.432,52.713,148.165-0.24,181.664,82.83C308.975-6.565,171.26,51.031,124.957,31.302z
					"/>
			</g>
		</g>
	</g>
	<g opacity="0.8">
		<g>
			<path fill="#4DA9DC" d="M156.218,302.141c7.047-5.358,13.128-11.419,18.518-17.952l-90.249-72.485
				c-5.114,6.392-9.95,13.154-14.73,19.867L156.218,302.141z"/>
		</g>
		<g>
			<path fill="#4DA9DC" d="M63.102,240.932c-8.194,11.446-16.39,22.281-25.626,30.843c62.857,68.004,103.229,38.422,103.229,38.422
				C85.183,301.658,67.307,255.11,63.102,240.932z"/>
		</g>
		<g>
			<path fill="#4DA9DC" d="M237.497,190.889l-0.03,0.016c-1.387,1.335-2.764,2.729-4.083,4.2
				c-30.728,34.455-39.696,101.468-102.971,124.793c65.151-2.634,87.445-42.078,105.233-78.695c0.387-0.757,0.775-1.524,1.112-2.289
				c0.576-1.089,1.09-2.215,1.625-3.324c3.227-6.733,6.418-13.289,9.731-19.423c4.353-8.125,9.021-15.483,14.522-21.521
				c5.918-6.515,12.819-11.512,21.388-14.219c1.208-0.433,2.502-0.777,3.828-1.047l0.035-0.011
				c6.581-1.541,14.028-1.794,22.734-0.553c-10.373-2.872-19.527-4.34-27.704-4.618c-1.642-0.063-3.251-0.061-4.812-0.018
				c-0.036,0-0.036,0-0.036,0c-15.429,0.419-27.148,5.373-36.746,13.251C240.01,188.539,238.766,189.691,237.497,190.889z"/>
		</g>
		<g>
			<path fill="#4DA9DC" d="M124.771,178.258c-7.177,2.966-13.619,7.083-19.642,11.981l84.395,72.799
				c3.227-5.393,6.26-10.895,9.196-16.423L124.771,178.258z"/>
		</g>
		<g>
			<path fill="#4DA9DC" d="M0.543,286.194c64.38-5.822,74.305-128.152,162.949-115.345C60.346,108.115,40.867,256.119,0.543,286.194
				z"/>
		</g>
	</g>
</g>
</svg>
