<?xml version="1.0" encoding="iso-8859-1"?>
<!-- Generator: Adobe Illustrator 16.0.0, SVG Export Plug-In . SVG Version: 6.00 Build 0)  -->
<!DOCTYPE svg PUBLIC "-//W3C//DTD SVG 1.1//EN" "http://www.w3.org/Graphics/SVG/1.1/DTD/svg11.dtd" [
	<!ENTITY ns_extend "http://ns.adobe.com/Extensibility/1.0/">
	<!ENTITY ns_ai "http://ns.adobe.com/AdobeIllustrator/10.0/">
	<!ENTITY ns_graphs "http://ns.adobe.com/Graphs/1.0/">
	<!ENTITY ns_vars "http://ns.adobe.com/Variables/1.0/">
	<!ENTITY ns_imrep "http://ns.adobe.com/ImageReplacement/1.0/">
	<!ENTITY ns_sfw "http://ns.adobe.com/SaveForWeb/1.0/">
	<!ENTITY ns_custom "http://ns.adobe.com/GenericCustomNamespace/1.0/">
	<!ENTITY ns_adobe_xpath "http://ns.adobe.com/XPath/1.0/">
]>
<svg version="1.1" id="&#x56FE;&#x5C42;_1" xmlns:x="&ns_extend;" xmlns:i="&ns_ai;" xmlns:graph="&ns_graphs;"
	 xmlns="http://www.w3.org/2000/svg" xmlns:xlink="http://www.w3.org/1999/xlink" x="0px" y="0px" width="481.89px"
	 height="481.89px" viewBox="0 0 481.89 481.89" style="enable-background:new 0 0 481.89 481.89;" xml:space="preserve">
<metadata>
	<sfw  xmlns="&ns_sfw;">
		<slices></slices>
		<sliceSourceBounds  width="394.982" height="394.915" y="-428.799" x="39.399" bottomLeftOrigin="true"></sliceSourceBounds>
	</sfw>
</metadata>
<path style="fill:#FFFFFF;enable-background:new    ;" d="M183.18,266.385c-1.101-2.805-1.862-5.51-2.253-8.135l-0.013-0.033
	c-0.173-0.963-0.294-1.932-0.33-2.863c-0.236-2.826-0.032-5.545,0.417-8.213c1.556,4.557,3.102,8.996,4.755,13.26
	c0.904,2.35,1.848,4.627,2.844,6.836c-1.577,0.219-3.162,0.475-4.752,0.803C183.604,267.484,183.388,266.932,183.18,266.385
	 M182.038,266.854c0.218,0.559,0.45,1.117,0.692,1.695c0.226,0.525,0.788,0.834,1.354,0.719c1.521-0.305,3.078-0.572,4.657-0.777
	c0.391-0.061,0.727-0.293,0.913-0.646c0.181-0.324,0.206-0.73,0.071-1.064c-0.01-0.025-0.021-0.041-0.031-0.074
	c-0.918-2.064-1.845-4.289-2.807-6.77c-1.717-4.408-3.35-9.137-4.753-13.201c0.011-0.025-0.004-0.039-0.009-0.061
	c-0.2-0.506-0.706-0.832-1.228-0.775c-0.558,0.047-1.008,0.469-1.101,1.035c-0.504,3.029-0.649,5.814-0.437,8.471
	c0.042,0.938,0.164,1.957,0.354,3.045C180.132,261.098,180.909,263.938,182.038,266.854L182.038,266.854z"/>
<path style="fill:#FFFFFF;enable-background:new    ;" d="M180.199,202.947c2.087-2.919,4.283-5.391,6.633-7.36l0.016-0.034
	c0.721-0.628,1.471-1.216,2.232-1.735c1.902-1.357,3.899-2.368,5.936-3.229c-4.381,5.32-8.544,10.522-12.115,15.796
	C182.035,205.219,181.135,204.075,180.199,202.947 M179.072,203.417c0.048,0.123,0.116,0.245,0.205,0.354
	c0.978,1.164,1.84,2.261,2.66,3.377c0.227,0.32,0.601,0.498,0.989,0.494c0.381-0.017,0.746-0.199,0.978-0.538
	c3.7-5.473,8.164-10.974,12.043-15.703c0.282-0.363,0.358-0.856,0.191-1.279c-0.042-0.09-0.084-0.196-0.154-0.273
	c-0.323-0.464-0.915-0.633-1.43-0.434c-2.444,1.057-4.4,2.121-6.134,3.366c-0.763,0.504-1.537,1.1-2.354,1.826
	c-0.013,0.006-0.031,0.025-0.046,0.042c-2.382,2.001-4.604,4.478-6.804,7.564C178.96,202.557,178.916,203.025,179.072,203.417
	L179.072,203.417z"/>
<path style="fill:#FFFFFF;enable-background:new    ;" d="M277.484,274.252c4.88-5.789,9.597-11.432,13.636-17.127
	c0.986,1.326,2.017,2.637,3.115,3.914c-2.143,3.002-4.408,5.516-6.813,7.529l-0.024,0.021c-0.714,0.623-1.479,1.219-2.24,1.732
	C282.724,272.037,280.153,273.305,277.484,274.252 M276.36,274.709c0.025,0.086,0.066,0.176,0.117,0.24
	c0.301,0.475,0.881,0.668,1.393,0.49c2.96-1.045,5.57-2.383,7.962-4.061c0.773-0.537,1.547-1.127,2.288-1.775
	c0.026-0.018,0.044-0.031,0.074-0.049c2.439-2.039,4.793-4.646,7.023-7.775c0.246-0.365,0.301-0.816,0.141-1.203
	c-0.044-0.135-0.123-0.262-0.215-0.361c-1.025-1.201-2.023-2.471-3.057-3.846c-0.235-0.311-0.594-0.496-0.985-0.492
	c-0.38,0-0.732,0.191-0.958,0.514c-3.883,5.49-8.264,10.74-13.576,17.035C276.262,273.787,276.19,274.291,276.36,274.709
	L276.36,274.709z"/>
<path style="fill:#FFFFFF;enable-background:new    ;" d="M230.754,171.341c0.761-1.848,1.473-3.748,2.095-5.702
	c3.629,0.404,6.913,1.176,9.818,2.328l0.021,0.007c0.883,0.324,1.766,0.71,2.577,1.132c3.018,1.494,5.646,3.415,7.977,5.661
	C245.466,173.311,237.938,171.929,230.754,171.341 M229.616,171.8c0.029,0.066,0.052,0.134,0.095,0.185
	c0.208,0.349,0.557,0.572,0.954,0.605c6.946,0.575,14.231,1.888,22.359,3.408c0.521,0.108,1.045-0.171,1.292-0.671
	c0.16-0.325,0.173-0.705,0.046-1.015c-0.063-0.179-0.169-0.333-0.293-0.469c-2.574-2.466-5.28-4.393-8.263-5.853
	c-0.813-0.425-1.726-0.837-2.702-1.197c-2.955-1.176-6.361-1.979-10.118-2.402c-0.569-0.064-1.108,0.285-1.285,0.839
	c-0.626,1.924-1.321,3.811-2.065,5.621C229.504,171.158,229.506,171.488,229.616,171.8L229.616,171.8z"/>
<path style="fill:#FFFFFF;enable-background:new    ;" d="M207.789,267.053c-0.302-0.783-0.613-1.559-0.895-2.363
	c-1.722-4.758-3.315-9.795-4.915-14.979c-0.263-0.863-0.526-1.721-0.813-2.564c-0.16-0.572-0.359-1.172-0.551-1.771
	c-1.621-5.174-3.363-10.428-5.375-15.619c-0.817-2.105-1.679-4.204-2.598-6.28c0.558-0.726,1.086-1.446,1.679-2.181
	c3.131-3.934,6.555-7.886,10.094-11.913c0.58-0.668,1.173-1.33,1.731-2.012c0.414-0.441,0.807-0.918,1.2-1.38
	c4.775-5.502,9.587-11.237,13.879-17.444c1.114,0.159,2.206,0.312,3.336,0.504c4.852,0.814,9.892,1.905,15.035,3.034
	c0.86,0.207,1.698,0.39,2.564,0.564c0.578,0.121,1.166,0.248,1.763,0.378c7.226,1.545,14.688,3.009,22.29,3.712
	c0.223,0.589,0.453,1.154,0.663,1.755c1.724,4.765,3.323,9.807,4.916,14.987c0.259,0.854,0.518,1.72,0.825,2.563
	c0.159,0.59,0.358,1.178,0.547,1.773c1.629,5.172,3.354,10.428,5.363,15.613c0.875,2.251,1.81,4.483,2.793,6.708
	c-0.275,0.34-0.522,0.673-0.798,1.024c-3.161,3.882-6.636,7.796-10.223,11.787c-0.594,0.66-1.195,1.318-1.765,1.996
	c-0.398,0.434-0.81,0.896-1.211,1.365c-5.273,5.938-10.574,12.201-15.227,19.02c-0.809-0.133-1.6-0.242-2.429-0.389
	c-4.848-0.852-9.881-1.949-15.032-3.1c-0.85-0.211-1.702-0.402-2.553-0.559c-0.573-0.152-1.17-0.273-1.755-0.395
	C223.019,269.295,215.474,267.779,207.789,267.053 M206.658,267.521c0.159,0.439,0.558,0.74,1.021,0.789
	c7.72,0.727,15.328,2.264,22.403,3.816l0.232,0.047c0.495,0.096,0.988,0.199,1.557,0.334c0.824,0.156,1.659,0.357,2.51,0.551
	c4.857,1.096,10.026,2.238,15.081,3.121c0.569,0.1,1.113,0.178,1.675,0.266l0.773,0.125c0.454,0.068,0.911-0.133,1.186-0.525
	c4.773-7,10.32-13.477,15.137-18.895l0.17-0.203c0.338-0.375,0.671-0.766,1.063-1.184c0.546-0.66,1.131-1.307,1.738-1.955
	c3.408-3.811,6.991-7.857,10.247-11.854c0.152-0.188,0.316-0.383,0.47-0.585l0.339-0.433c0.282-0.359,0.357-0.844,0.198-1.268
	c-0.002-0.031-0.006-0.047-0.025-0.074c-0.945-2.101-1.854-4.26-2.766-6.629c-2.108-5.427-3.884-10.893-5.351-15.555
	c-0.188-0.584-0.374-1.14-0.563-1.793c-0.263-0.74-0.489-1.497-0.72-2.246l-0.083-0.257c-1.495-4.883-3.128-10.101-4.924-15.045
	c-0.13-0.356-0.274-0.701-0.401-1.055l-0.272-0.727c-0.004-0.004-0.008-0.008-0.017-0.014c-0.156-0.44-0.556-0.744-1.017-0.785
	c-7.642-0.706-15.169-2.199-22.165-3.699c-0.584-0.121-1.163-0.25-1.775-0.379c-0.841-0.164-1.667-0.35-2.533-0.556
	c-5.187-1.135-10.245-2.228-15.085-3.041c-0.966-0.169-1.909-0.308-2.85-0.445l-0.514-0.074c-0.442-0.066-0.893,0.128-1.16,0.515
	c-4.332,6.25-9.183,12.033-13.813,17.36c-0.376,0.456-0.763,0.914-1.204,1.39c-0.388,0.485-0.805,0.953-1.219,1.427l-0.488,0.549
	c-3.177,3.631-6.857,7.852-10.125,11.953c-0.428,0.536-0.839,1.077-1.24,1.617l-0.458,0.593c-0.274,0.352-0.34,0.831-0.176,1.25
	c0.016,0.027,0.019,0.035,0.019,0.054c0.879,1.952,1.744,4.049,2.584,6.224c2.098,5.421,3.885,10.897,5.349,15.549l0.052,0.184
	c0.175,0.523,0.349,1.039,0.518,1.59c0.277,0.83,0.527,1.676,0.785,2.539c1.767,5.723,3.284,10.463,4.933,15.035
	c0.189,0.545,0.39,1.064,0.601,1.598l0.303,0.783C206.652,267.498,206.656,267.512,206.658,267.521L206.658,267.521z"/>
<path style="fill:#FFFFFF;enable-background:new    ;" d="M293.514,218.194c-1.813-5.311-3.585-10.486-5.496-15.414
	c-0.822-2.14-1.682-4.224-2.581-6.259c2.132-0.281,4.253-0.674,6.387-1.172c0.042,0.099,0.083,0.189,0.114,0.293
	c1.167,3.014,1.985,5.903,2.373,8.714l0.009,0.013c0.168,0.972,0.276,1.944,0.315,2.88
	C294.893,211.055,294.443,214.68,293.514,218.194 M292.382,218.65c0.198,0.5,0.666,0.808,1.179,0.794
	c0.526-0.021,0.989-0.39,1.131-0.918c1.026-3.949,1.411-7.665,1.158-11.326c-0.037-0.924-0.142-1.915-0.321-3.034
	c-0.018-0.028-0.01-0.055-0.021-0.078c-0.409-2.822-1.213-5.742-2.439-8.913l-0.118-0.297c-0.22-0.568-0.813-0.892-1.39-0.751
	c-2.123,0.492-4.229,0.876-6.285,1.157c-0.376,0.042-0.713,0.276-0.9,0.624c-0.175,0.338-0.205,0.723-0.066,1.078
	c0.006,0.021,0.015,0.038,0.026,0.059c0.844,1.909,1.674,3.931,2.554,6.191c1.922,4.947,3.73,10.252,5.479,15.37
	C292.376,218.622,292.384,218.642,292.382,218.65L292.382,218.65z"/>
<path style="fill:#FFFFFF;enable-background:new    ;" d="M221.374,289.184c7.375,1.422,14.533,2.746,21.387,3.383
	c-0.635,1.637-1.219,3.303-1.767,4.996c-3.648-0.402-6.946-1.164-9.883-2.334l-0.023-0.008c-0.885-0.33-1.769-0.705-2.571-1.143
	C225.842,292.766,223.492,291.104,221.374,289.184 M220.239,289.656c0.08,0.184,0.182,0.336,0.336,0.475
	c2.353,2.113,4.77,3.781,7.372,5.068c0.815,0.43,1.736,0.834,2.736,1.205c2.985,1.189,6.327,1.982,10.182,2.41
	c0.575,0.059,1.109-0.301,1.283-0.857c0.574-1.795,1.135-3.393,1.743-4.914c0.118-0.309,0.104-0.641,0-0.939
	c-0.019-0.066-0.055-0.123-0.097-0.188c-0.196-0.332-0.547-0.563-0.923-0.596c-6.72-0.625-13.616-1.895-21.285-3.359
	c-0.53-0.109-1.076,0.172-1.305,0.68C220.124,288.969,220.128,289.33,220.239,289.656L220.239,289.656z"/>
<g style="enable-background:new    ;">
	<path style="fill:#5C94BE;" d="M292.69,92.777c5.782-0.095,11.643,0.129,17.465,0.367l2.092,81.232
		c-6.043,1.672-12.045,2.491-18.024,2.683L292.69,92.777z"/>
	<path style="fill:#FFFFFF;" d="M294.223,177.06l-1.532-84.283c5.782-0.095,11.643,0.129,17.465,0.367l2.092,81.232
		C306.204,176.049,300.202,176.868,294.223,177.06 M293.096,177.521c0.063,0.171,0.162,0.308,0.283,0.445
		c0.241,0.226,0.562,0.353,0.881,0.34c6.453-0.208,12.435-1.102,18.308-2.715c0.535-0.157,0.911-0.655,0.897-1.246l-2.102-81.233
		c0.004-0.153-0.028-0.299-0.078-0.434c-0.181-0.445-0.601-0.754-1.086-0.783c-5.907-0.253-11.691-0.47-17.528-0.368
		c-0.329,0-0.636,0.131-0.855,0.382c-0.23,0.23-0.349,0.555-0.341,0.888l1.534,84.282
		C293.012,177.23,293.038,177.381,293.096,177.521L293.096,177.521z"/>
</g>
<g style="enable-background:new    ;">
	<path style="fill:#5C94BE;" d="M318.244,93.484c9.933,0.361,19.526,0.478,28.294-1.048c10.858,66.51-23.107,76.591-23.107,76.591
		C342.642,133.237,324.357,102.206,318.244,93.484z"/>
	<path style="fill:#FFFFFF;" d="M323.431,169.027c12.533-23.35,9.111-44.681,3.512-59.11c-2.975-7.676-6.575-13.407-8.698-16.433
		c9.933,0.361,19.526,0.478,28.294-1.048C357.396,158.946,323.431,169.027,323.431,169.027 M322.308,169.487
		c0.04,0.109,0.104,0.207,0.175,0.324c0.313,0.392,0.812,0.563,1.281,0.412c0.361-0.111,8.997-2.777,16.297-13.848
		c6.637-10.073,13.346-29.379,7.678-64.146c-0.022-0.09-0.044-0.183-0.084-0.253c-0.203-0.542-0.748-0.869-1.319-0.775
		c-9.043,1.563-19.228,1.35-28.042,1.026c-0.47-0.012-0.898,0.247-1.131,0.664c-0.165,0.334-0.174,0.715-0.051,1.061
		c0.034,0.091,0.085,0.181,0.142,0.262c1.911,2.722,5.56,8.457,8.563,16.162c5.3,13.669,9.013,34.839-3.439,58.038
		C322.187,168.749,322.169,169.148,322.308,169.487L322.308,169.487z"/>
</g>
<g style="enable-background:new    ;">
	<path style="fill:#5F9BC8;" d="M292.992,195.066c-1.277-2.044-2.647-4.114-4.226-6.261c1.247,2.254,2.225,4.417,3.057,6.544
		c-2.134,0.498-4.255,0.891-6.387,1.172c-1.848-4.194-3.879-8.136-6.205-11.732c-0.773-1.19-1.603-2.33-2.438-3.43l-0.022-0.009
		c-0.768-1.002-1.518-1.959-2.341-2.902c-0.047-0.035-0.099-0.08-0.131-0.122c19.129,2.462,39.198,1.911,59-10.905
		C320.122,183.628,306.516,191.673,292.992,195.066z"/>
	<path style="fill:#FFFFFF;" d="M274.299,178.327c19.129,2.462,39.198,1.911,59-10.905c-13.177,16.207-26.783,24.251-40.307,27.644
		c-1.277-2.044-2.647-4.114-4.226-6.261c1.247,2.254,2.225,4.417,3.057,6.544c-2.134,0.498-4.255,0.891-6.387,1.172
		c-1.848-4.194-3.879-8.136-6.205-11.732c-0.773-1.19-1.603-2.33-2.438-3.43l-0.022-0.009c-0.768-1.002-1.518-1.959-2.341-2.902
		C274.383,178.414,274.331,178.368,274.299,178.327 M273.174,178.787c0.05,0.127,0.117,0.242,0.213,0.361
		c0.041,0.059,0.105,0.107,0.14,0.149c0.817,0.929,1.578,1.905,2.298,2.833c0.028,0.041,0.068,0.077,0.107,0.121
		c0.885,1.158,1.636,2.217,2.302,3.236c2.112,3.264,4.108,7.043,6.102,11.557c0.22,0.494,0.729,0.787,1.263,0.714
		c2.114-0.279,4.304-0.672,6.489-1.187c0.22-0.043,0.407-0.154,0.567-0.307c0.196,0.068,0.418,0.073,0.636,0.034
		c15.332-3.882,28.727-13.043,40.951-28.066c0.288-0.366,0.364-0.858,0.189-1.274c-0.053-0.121-0.117-0.253-0.208-0.366
		c-0.39-0.45-1.057-0.563-1.558-0.23c-20.838,13.456-42.048,12.806-58.217,10.716c-0.499-0.069-0.988,0.192-1.227,0.655
		C273.055,178.064,273.036,178.45,273.174,178.787L273.174,178.787z"/>
</g>
<g style="enable-background:new    ;">
	<path style="fill:#5F9BC8;" d="M189.081,193.818c-0.762,0.519-1.512,1.106-2.232,1.735l-0.016,0.034
		c-2.35,1.97-4.546,4.441-6.633,7.36c-0.247-0.297-0.478-0.591-0.719-0.876c2.091-4.435,4.28-8.321,6.607-11.661
		c0.668-0.97,1.381-1.892,2.06-2.779c0.012-0.015,0.012-0.015,0.012-0.015c3.131-3.955,6.469-7.005,9.953-9.399l2.896,1.402
		c1.401-1.741,2.787-3.498,4.149-5.253c1.31-0.545,2.642-0.985,3.971-1.389c-4.593,6.139-9.456,11.944-14.11,17.612
		C192.979,191.451,190.982,192.461,189.081,193.818z"/>
	<path style="fill:#FFFFFF;" d="M179.48,202.071c2.091-4.435,4.28-8.321,6.607-11.661c0.668-0.97,1.381-1.892,2.06-2.779
		c0.012-0.015,0.012-0.015,0.012-0.015c3.131-3.955,6.469-7.005,9.953-9.399l2.896,1.402c1.401-1.741,2.787-3.498,4.149-5.253
		c1.31-0.545,2.642-0.985,3.971-1.389c-4.593,6.139-9.456,11.944-14.11,17.612c-2.037,0.862-4.034,1.872-5.936,3.229
		c-0.762,0.519-1.512,1.106-2.232,1.735l-0.016,0.034c-2.35,1.97-4.546,4.441-6.633,7.36
		C179.952,202.65,179.721,202.356,179.48,202.071 M178.352,202.54c0.051,0.122,0.117,0.261,0.215,0.369
		c0.145,0.171,0.289,0.355,0.432,0.526l0.271,0.327c0.231,0.28,0.602,0.452,0.969,0.444c0.372-0.02,0.71-0.202,0.934-0.518
		c2.063-2.893,4.229-5.29,6.418-7.129c0.038-0.028,0.053-0.053,0.089-0.08c0.723-0.631,1.399-1.162,2.095-1.624
		c1.605-1.147,3.414-2.135,5.696-3.111c0.178-0.076,0.338-0.197,0.475-0.342l2.166-2.648c3.963-4.821,8.08-9.792,11.981-14.997
		c0.271-0.369,0.329-0.833,0.172-1.245c-0.039-0.094-0.079-0.161-0.129-0.237c-0.288-0.457-0.837-0.647-1.343-0.498
		c-1.604,0.479-2.908,0.931-4.082,1.418c-0.187,0.078-0.367,0.217-0.504,0.378c-1.166,1.517-2.343,3.007-3.535,4.492l-2.046-0.98
		c-0.381-0.187-0.829-0.146-1.181,0.092c-3.764,2.581-7.089,5.711-10.154,9.563c-0.03,0.037-0.068,0.072-0.103,0.113
		c-0.681,0.885-1.393,1.823-2.095,2.834c-2.337,3.359-4.596,7.346-6.703,11.842C178.233,201.841,178.225,202.223,178.352,202.54
		L178.352,202.54z"/>
</g>
<g style="enable-background:new    ;">
	<path style="fill:#5F9BC8;" d="M242.161,192.649c-0.866-0.174-1.705-0.357-2.564-0.564c-5.143-1.129-10.184-2.22-15.035-3.034
		c-1.13-0.193-2.222-0.345-3.336-0.504c3.695-5.342,6.96-11.041,9.529-17.205c7.184,0.587,14.711,1.97,22.487,3.427
		c2.083,2.007,3.938,4.261,5.583,6.749c2.94,4.45,5.295,9.631,7.39,15.223c-7.603-0.703-15.064-2.167-22.29-3.712
		C243.327,192.896,242.739,192.77,242.161,192.649z"/>
	<path style="fill:#FFFFFF;" d="M221.226,188.546c3.695-5.342,6.96-11.041,9.529-17.205c7.184,0.587,14.711,1.97,22.487,3.427
		c2.083,2.007,3.938,4.261,5.583,6.749c2.683,4.039,4.863,8.677,6.801,13.703c0.208,0.496,0.382,1.009,0.589,1.52
		c-7.603-0.703-15.064-2.167-22.29-3.712c-0.597-0.131-1.185-0.257-1.763-0.378c-0.866-0.174-1.705-0.357-2.564-0.564
		c-5.143-1.129-10.184-2.22-15.035-3.034C223.432,188.858,222.34,188.706,221.226,188.546 M220.1,189.009
		c0.001,0.002,0.008,0.01,0.019,0.016c0.154,0.4,0.519,0.694,0.949,0.746l0.503,0.088c0.918,0.125,1.844,0.271,2.789,0.425
		c4.79,0.817,9.827,1.895,14.971,3.026c0.869,0.204,1.74,0.394,2.581,0.566c0.572,0.12,1.17,0.259,1.764,0.375
		c7.055,1.517,14.657,3.016,22.427,3.74c0.423,0.038,0.836-0.151,1.085-0.493c0.249-0.348,0.325-0.802,0.166-1.21
		c-0.195-0.518-0.387-1.034-0.59-1.539c-2.18-5.623-4.447-10.173-6.935-13.94c-1.7-2.574-3.641-4.908-5.759-6.965
		c-0.18-0.159-0.383-0.264-0.62-0.304c-8.16-1.548-15.517-2.867-22.604-3.445c-0.519-0.046-1.004,0.254-1.209,0.759
		c-2.394,5.741-5.469,11.281-9.398,16.957C220,188.155,219.945,188.595,220.1,189.009L220.1,189.009z"/>
</g>
<g style="enable-background:new    ;">
	<path style="fill:#5C94BE;" d="M256.614,101.103c4.768-2.822,9.846-4.699,15.183-5.987l4.232,81.042
		c-1.543-0.19-3.061-0.471-4.586-0.706c-2.644-2.425-5.612-4.509-8.99-6.195L256.614,101.103z"/>
	<path style="fill:#FFFFFF;" d="M262.453,169.256l-5.839-68.154c4.768-2.822,9.846-4.699,15.183-5.987l4.232,81.042
		c-1.543-0.19-3.061-0.471-4.586-0.706C268.8,173.026,265.831,170.943,262.453,169.256 M261.338,169.712
		c0.112,0.289,0.329,0.527,0.598,0.663c3.167,1.592,6.096,3.616,8.698,6.017c0.183,0.164,0.398,0.273,0.634,0.31
		c0.627,0.089,1.238,0.178,1.859,0.292c0.922,0.136,1.839,0.287,2.765,0.406c0.353,0.045,0.706-0.069,0.969-0.318
		c0.264-0.259,0.409-0.624,0.381-0.995l-4.225-81.035c-0.007-0.141-0.043-0.275-0.104-0.4c-0.073-0.215-0.214-0.395-0.392-0.544
		c-0.285-0.214-0.652-0.292-0.996-0.202c-5.889,1.41-10.971,3.421-15.511,6.099c-0.419,0.25-0.654,0.72-0.614,1.206l5.858,68.159
		C261.267,169.481,261.29,169.606,261.338,169.712L261.338,169.712z"/>
</g>
<g style="enable-background:new    ;">
	<path style="fill:#5C94BE;" d="M235.768,120.11c9.489-87.365,100.562-32.685,134.77-42.511
		C339.496,112.08,266.881,63.32,235.768,120.11z"/>
	<path style="fill:#FFFFFF;" d="M235.768,120.11c9.489-87.365,100.562-32.685,134.77-42.511
		C339.496,112.08,266.881,63.32,235.768,120.11 M234.64,120.575c0.133,0.333,0.396,0.604,0.752,0.726
		c0.548,0.178,1.15-0.054,1.438-0.58c17.051-31.137,46.841-29.859,75.641-28.614c23.103,0.994,44.929,1.931,58.978-13.668
		c0.308-0.353,0.396-0.868,0.229-1.304c-0.021-0.072-0.048-0.137-0.096-0.193c-0.277-0.483-0.833-0.719-1.357-0.556
		c-9.947,2.86-25.332,0.024-41.622-2.97c-26.01-4.792-55.477-10.213-74.65,4.57c-10.898,8.378-17.232,22.119-19.395,41.991
		C234.539,120.174,234.569,120.384,234.64,120.575L234.64,120.575z"/>
</g>
<g style="enable-background:new    ;">
	<path style="fill:#458EAB;" d="M381.734,211.746c2.929,5.116,5.664,10.47,8.354,15.801l-67.342,42.199
		c-4.403-4.559-8.052-9.549-11.19-14.809L381.734,211.746z"/>
	<path style="fill:#FFFFFF;" d="M311.557,254.938l70.178-43.192c2.929,5.116,5.664,10.47,8.354,15.801l-67.342,42.199
		C318.344,265.188,314.695,260.197,311.557,254.938 M310.438,255.402c0.021,0.059,0.055,0.131,0.084,0.199
		c3.42,5.717,7.129,10.639,11.384,15.031c0.381,0.408,1.004,0.477,1.477,0.186l67.336-42.196c0.514-0.329,0.712-0.975,0.486-1.536
		c-0.001-0.04-0.021-0.074-0.037-0.124c-2.596-5.135-5.362-10.593-8.38-15.854c-0.177-0.299-0.446-0.507-0.759-0.585
		c-0.31-0.077-0.645-0.03-0.914,0.142l-70.179,43.194c-0.278,0.174-0.474,0.453-0.558,0.777
		C310.309,254.883,310.34,255.168,310.438,255.402L310.438,255.402z"/>
</g>
<g style="enable-background:new    ;">
	<path style="fill:#458EAB;" d="M332.816,277.121c39.66-0.586,56.686-32.357,61.014-42.163c4.615,9.083,9.28,17.719,14.911,24.817
		C358.161,302.512,332.816,277.121,332.816,277.121z"/>
	<path style="fill:#FFFFFF;" d="M332.816,277.121c39.66-0.586,56.686-32.357,61.014-42.163c4.615,9.083,9.28,17.719,14.911,24.817
		C358.161,302.512,332.816,277.121,332.816,277.121 M331.701,277.588c0.055,0.164,0.151,0.303,0.27,0.424
		c0.269,0.275,6.802,6.684,19.741,7.715c11.78,0.93,31.361-2.643,57.8-24.982c0.41-0.35,0.555-0.943,0.363-1.418
		c-0.053-0.133-0.114-0.24-0.192-0.344c-5.83-7.344-10.677-16.553-14.775-24.6c-0.217-0.423-0.654-0.69-1.1-0.683
		c-0.479,0.031-0.896,0.299-1.084,0.744c-4.219,9.575-21.019,40.854-59.919,41.428c-0.49,0.014-0.929,0.316-1.115,0.783
		C331.571,276.963,331.581,277.295,331.701,277.588L331.701,277.588z"/>
</g>
<g style="enable-background:new    ;">
	<path style="fill:#458EAB;" d="M293.514,218.194c-0.651,2.489-1.518,4.956-2.651,7.358c-2.358,4.976-5.684,9.779-9.541,14.586
		c-3.276-7.319-5.813-14.898-8.156-22.321c-0.188-0.595-0.388-1.183-0.547-1.773c-0.308-0.842-0.566-1.708-0.825-2.563
		c-1.593-5.181-3.192-10.223-4.916-14.987c-0.21-0.601-0.44-1.166-0.663-1.755c6.329,0.577,12.755,0.646,19.223-0.219
		C288.405,203.235,290.921,210.605,293.514,218.194z"/>
	<path style="fill:#FFFFFF;" d="M278.528,233.43c-2.009-5.185-3.734-10.44-5.363-15.613c-0.188-0.595-0.388-1.183-0.547-1.773
		c-0.308-0.842-0.566-1.708-0.825-2.563c-1.593-5.181-3.192-10.223-4.916-14.987c-0.21-0.601-0.44-1.166-0.663-1.755
		c6.329,0.577,12.755,0.646,19.223-0.219c0.899,2.036,1.759,4.122,2.581,6.259c1.911,4.928,3.684,10.103,5.496,15.414
		c-0.651,2.489-1.518,4.956-2.651,7.358c-2.358,4.976-5.684,9.779-9.541,14.586C280.338,237.916,279.403,235.681,278.528,233.43
		 M277.409,233.893c0.915,2.377,1.858,4.653,2.815,6.761c0.171,0.393,0.54,0.664,0.951,0.723c0.42,0.046,0.824-0.11,1.084-0.439
		c4.439-5.529,7.526-10.246,9.69-14.841c1.122-2.353,2.031-4.836,2.737-7.577c0.07-0.25,0.055-0.504-0.028-0.739
		c-1.759-5.152-3.576-10.476-5.512-15.473c-0.891-2.301-1.736-4.353-2.61-6.31c-0.217-0.5-0.718-0.793-1.253-0.713
		c-5.851,0.785-12.053,0.839-18.965,0.204c-0.407-0.027-0.823,0.149-1.065,0.499c-0.264,0.341-0.313,0.795-0.175,1.201l0.285,0.756
		c0.124,0.333,0.254,0.657,0.376,0.998c1.779,4.896,3.404,10.059,4.891,14.922l0.078,0.264c0.245,0.789,0.487,1.584,0.734,2.268
		c0.169,0.608,0.373,1.222,0.569,1.803C273.482,222.886,275.283,228.411,277.409,233.893L277.409,233.893z"/>
</g>
<g style="enable-background:new    ;">
	<path style="fill:#458EAB;" d="M294.235,261.039c-1.099-1.277-2.129-2.588-3.115-3.914c2.715-3.82,5.133-7.691,7.063-11.66
		c0.604-1.279,1.171-2.586,1.682-3.875l-0.012-0.021c0.397-1.013,0.749-2.007,1.11-3.011c7.386,18.059,17.803,35.366,38.113,46.592
		c-20.801-3.873-34.519-12.447-44.131-23.318c0.897-1.924,1.788-3.924,2.645-6.072C296.508,257.701,295.385,259.418,294.235,261.039
		z"/>
	<path style="fill:#FFFFFF;" d="M291.12,257.125c2.715-3.82,5.133-7.691,7.063-11.66c0.604-1.279,1.171-2.586,1.682-3.875
		l-0.012-0.021c0.397-1.013,0.749-2.007,1.11-3.011c7.386,18.059,17.803,35.366,38.113,46.592
		c-20.801-3.873-34.519-12.447-44.131-23.318c0.897-1.924,1.788-3.924,2.645-6.072c-1.083,1.941-2.206,3.658-3.355,5.279
		C293.137,259.762,292.106,258.451,291.12,257.125 M289.994,257.592c0.044,0.104,0.095,0.199,0.162,0.301
		c1.068,1.434,2.104,2.738,3.169,3.977c0.131,0.141,0.283,0.26,0.453,0.34c0.011,0.014,0.025,0.057,0.03,0.09
		c0.052,0.133,0.137,0.262,0.229,0.369c10.964,12.383,25.62,20.135,44.827,23.717c0.599,0.111,1.162-0.242,1.362-0.824
		c0.102-0.293,0.088-0.607-0.033-0.877c-0.097-0.258-0.287-0.492-0.54-0.641c-21.47-11.852-31.364-30.793-37.579-45.971
		c-0.2-0.482-0.654-0.779-1.16-0.766c-0.498,0.025-0.942,0.349-1.106,0.85c-0.331,0.973-0.688,1.946-1.073,2.929
		c-0.025,0.077-0.05,0.124-0.046,0.187c-0.515,1.278-1.055,2.497-1.592,3.635c-1.763,3.609-4.034,7.348-6.953,11.484
		C289.886,256.744,289.838,257.207,289.994,257.592L289.994,257.592z"/>
</g>
<g style="enable-background:new    ;">
	<path style="fill:#458EAB;" d="M245.265,169.107c-0.812-0.422-1.694-0.809-2.577-1.132l-0.021-0.007
		c-2.905-1.152-6.188-1.924-9.818-2.328c0.113-0.333,0.224-0.672,0.318-1.018c4.935-0.365,9.412-0.331,13.475,0.114
		c1.157,0.114,2.288,0.288,3.367,0.466c0.015,0.014,0.015,0.014,0.015,0.014c4.707,0.811,8.792,2.199,12.43,4.041l0.441,4.889
		c2.818,0.507,5.69,0.898,8.549,1.306c0.989,0.918,1.951,1.869,2.855,2.875c-7.183-0.927-14.199-2.273-21.058-3.559
		C250.91,172.522,248.282,170.602,245.265,169.107z"/>
	<path style="fill:#FFFFFF;" d="M232.849,165.64c0.113-0.333,0.224-0.672,0.318-1.018c4.935-0.365,9.412-0.331,13.475,0.114
		c1.157,0.114,2.288,0.288,3.367,0.466c0.015,0.014,0.015,0.014,0.015,0.014c4.707,0.811,8.792,2.199,12.43,4.041l0.441,4.889
		c2.818,0.507,5.69,0.898,8.549,1.306c0.989,0.918,1.951,1.869,2.855,2.875c-7.183-0.927-14.199-2.273-21.058-3.559
		c-2.331-2.246-4.959-4.167-7.977-5.661c-0.812-0.422-1.694-0.809-2.577-1.132l-0.021-0.007
		C239.762,166.815,236.479,166.044,232.849,165.64 M231.725,166.097c0.019,0.081,0.061,0.144,0.105,0.206
		c0.193,0.328,0.53,0.541,0.888,0.584c3.561,0.393,6.759,1.161,9.453,2.219c0.031,0.021,0.07,0.034,0.099,0.05
		c0.898,0.32,1.714,0.675,2.473,1.081c2.771,1.363,5.278,3.149,7.667,5.448c0.174,0.173,0.385,0.276,0.616,0.313l0.69,0.135
		c6.611,1.248,13.461,2.537,20.439,3.439c0.504,0.054,0.989-0.208,1.226-0.677c0.168-0.329,0.176-0.715,0.05-1.038
		c-0.06-0.15-0.139-0.275-0.239-0.387c-0.852-0.943-1.805-1.904-2.945-2.944c-0.17-0.176-0.4-0.271-0.639-0.314l-1.548-0.223
		c-1.985-0.281-4.032-0.581-6.046-0.921l-0.331-3.928c-0.015-0.127-0.048-0.246-0.089-0.354c-0.112-0.288-0.313-0.528-0.596-0.665
		c-3.939-1.977-8.089-3.337-12.695-4.131c-0.037-0.007-0.054-0.025-0.098-0.027c-1.23-0.203-2.352-0.359-3.432-0.477
		c-4.144-0.438-8.748-0.482-13.691-0.116c-0.488,0.036-0.918,0.377-1.064,0.862c-0.105,0.335-0.212,0.674-0.31,0.996
		C231.613,165.511,231.625,165.826,231.725,166.097L231.725,166.097z"/>
</g>
<g style="enable-background:new    ;">
	<path style="fill:#2E7B9F;" d="M276.771,181.35l0.022,0.009c0.836,1.101,1.665,2.24,2.438,3.43
		c2.326,3.596,4.357,7.538,6.205,11.732c-6.468,0.864-12.894,0.795-19.223,0.219c-2.095-5.592-4.449-10.772-7.39-15.223
		c-1.645-2.488-3.5-4.742-5.583-6.749c6.858,1.285,13.875,2.631,21.058,3.559c0.032,0.042,0.084,0.087,0.131,0.122
		C275.253,179.391,276.003,180.348,276.771,181.35z"/>
	<path style="fill:#FFFFFF;" d="M253.241,174.768c6.858,1.285,13.875,2.631,21.058,3.559c0.032,0.042,0.084,0.087,0.131,0.122
		c0.823,0.943,1.573,1.9,2.341,2.902l0.022,0.009c0.836,1.101,1.665,2.24,2.438,3.43c2.326,3.596,4.357,7.538,6.205,11.732
		c-6.468,0.864-12.894,0.795-19.223,0.219c-0.207-0.51-0.381-1.023-0.589-1.52c-1.938-5.026-4.118-9.665-6.801-13.703
		C257.18,179.029,255.324,176.775,253.241,174.768 M252.106,175.232c0.063,0.176,0.156,0.327,0.302,0.455
		c1.989,1.91,3.807,4.117,5.419,6.546c2.378,3.591,4.568,7.998,6.686,13.443c0.187,0.501,0.386,1.007,0.566,1.511
		c0.012,0.008,0,0.012,0.005,0.012c0.17,0.45,0.564,0.752,1.018,0.792c7.088,0.641,13.466,0.583,19.496-0.231
		c0.381-0.046,0.726-0.287,0.89-0.631c0.182-0.332,0.204-0.722,0.078-1.076c-0.011-0.019-0.019-0.024-0.028-0.055
		c-2.041-4.642-4.101-8.53-6.3-11.903c-0.715-1.104-1.521-2.263-2.496-3.515c-0.024-0.053-0.064-0.084-0.124-0.141
		c-0.692-0.915-1.469-1.884-2.306-2.854l-0.098-0.08c-0.2-0.246-0.469-0.387-0.766-0.426c-6.9-0.894-13.716-2.185-20.304-3.415
		l-0.695-0.125c-0.52-0.107-1.06,0.172-1.306,0.674C251.989,174.539,251.977,174.907,252.106,175.232L252.106,175.232z"/>
</g>
<g style="enable-background:new    ;">
	<path style="fill:#107BA0;" d="M262.453,169.256c3.378,1.687,6.347,3.77,8.99,6.195c-2.858-0.408-5.73-0.799-8.549-1.306
		L262.453,169.256z"/>
	<path style="fill:#FFFFFF;" d="M262.895,174.146l-0.441-4.889c3.378,1.687,6.347,3.77,8.99,6.195
		C268.585,175.044,265.713,174.652,262.895,174.146 M261.765,174.616c0.146,0.394,0.496,0.691,0.919,0.768
		c2.336,0.418,4.724,0.755,7.038,1.093l1.553,0.226c0.528,0.077,1.044-0.215,1.272-0.716c0.137-0.312,0.145-0.678,0.029-0.998
		c-0.069-0.173-0.18-0.337-0.331-0.461c-2.769-2.565-5.883-4.708-9.25-6.407c-0.392-0.209-0.856-0.167-1.226,0.096
		c-0.354,0.251-0.557,0.691-0.511,1.151l0.416,4.886C261.687,174.379,261.709,174.504,261.765,174.616L261.765,174.616z"/>
</g>
<g style="enable-background:new    ;">
	<path style="fill:#458EAB;" d="M356.829,183.568c4.721,2.851,8.812,6.472,12.56,10.614l-66.107,44.011
		c-0.446-1.104-0.832-2.238-1.27-3.367c0.934-4.037,1.287-8.225,0.958-12.642L356.829,183.568z"/>
	<path style="fill:#FFFFFF;" d="M303.077,237.704c-0.354-0.932-0.678-1.874-1.031-2.808c-0.012-0.023-0.016-0.041-0.034-0.07
		c0.934-4.037,1.287-8.225,0.958-12.642l53.859-38.616c4.721,2.851,8.812,6.472,12.56,10.614l-66.107,44.011
		C303.215,238.031,303.151,237.867,303.077,237.704 M301.958,238.167l0.203,0.51c0.134,0.348,0.419,0.61,0.756,0.711
		c0.354,0.117,0.719,0.063,1.025-0.137l66.095-44.01c0.305-0.198,0.509-0.533,0.545-0.896c0.039-0.225,0.009-0.424-0.067-0.63
		c-0.048-0.137-0.134-0.271-0.238-0.375c-4.105-4.559-8.306-8.118-12.837-10.855c-0.417-0.241-0.935-0.218-1.304,0.049
		l-53.858,38.623c-0.355,0.259-0.545,0.679-0.519,1.125c0.3,4.159-0.009,8.279-0.933,12.251c-0.055,0.262-0.012,0.592,0.084,0.842
		c0.17,0.455,0.349,0.906,0.512,1.373C301.6,237.213,301.775,237.695,301.958,238.167L301.958,238.167z"/>
</g>
<g style="enable-background:new    ;">
	<path style="fill:#458EAB;" d="M330.472,174.329c78.221-34.885,77.404,73.817,102.697,99.573
		C388.712,263.232,393.697,174.006,330.472,174.329z"/>
	<path style="fill:#FFFFFF;" d="M330.472,174.329c46.059-20.545,64.726,8.714,77.44,41.484c4.713,12.17,8.62,24.825,12.801,35.601
		c3.689,9.496,7.583,17.533,12.456,22.488C388.712,263.232,393.697,174.006,330.472,174.329 M329.337,174.799
		c0.184,0.475,0.629,0.788,1.128,0.792c34.686-0.189,48.382,27.114,61.646,53.513c10.626,21.183,20.682,41.197,40.787,46.015
		c0.52,0.129,1.074-0.121,1.33-0.619c0.182-0.326,0.196-0.725,0.068-1.053c-0.061-0.164-0.162-0.311-0.276-0.434
		c-4.135-4.213-7.894-11.023-12.173-22.063c-2.025-5.209-3.961-10.781-5.993-16.703c-2.166-6.202-4.386-12.617-6.823-18.912
		c-6.744-17.372-16.783-38.301-34.767-45.956c-12.326-5.228-26.804-3.994-44.282,3.795c-0.531,0.242-0.815,0.82-0.7,1.416
		C329.292,174.658,329.315,174.738,329.337,174.799L329.337,174.799z"/>
</g>
<g style="enable-background:new    ;">
	<path style="fill:#526EA6;" d="M254.971,309.074l71.055,41.643c-2.876,5.178-6.051,10.258-9.214,15.299l-68.805-39.586
		C249.69,320.221,252.087,314.479,254.971,309.074z"/>
	<path style="fill:#FFFFFF;" d="M248.007,326.43c1.684-6.209,4.08-11.951,6.964-17.355l71.055,41.643
		c-2.876,5.178-6.051,10.258-9.214,15.299L248.007,326.43 M246.883,326.898c0.093,0.26,0.279,0.48,0.537,0.633l68.805,39.598
		c0.552,0.311,1.256,0.125,1.596-0.424c3.245-5.162,6.404-10.211,9.252-15.365c0.165-0.283,0.204-0.633,0.121-0.953
		c-0.009-0.047-0.022-0.082-0.046-0.137c-0.096-0.254-0.287-0.479-0.526-0.617l-71.053-41.645c-0.276-0.168-0.621-0.207-0.931-0.119
		c-0.317,0.088-0.568,0.299-0.733,0.605c-3.128,5.863-5.44,11.631-7.076,17.607C246.767,326.363,246.787,326.656,246.883,326.898
		L246.883,326.898z"/>
</g>
<g style="enable-background:new    ;">
	<path style="fill:#526EA6;" d="M246.754,339.096c20.041,35.291,55.238,34.904,65.642,33.938
		c-5.366,8.627-10.349,17.076-13.573,25.627C237.852,374.359,246.754,339.096,246.754,339.096z"/>
	<path style="fill:#FFFFFF;" d="M248.953,357.473c-4.143-10.684-2.199-18.377-2.199-18.377
		c20.041,35.291,55.238,34.904,65.642,33.938c-5.366,8.627-10.349,17.076-13.573,25.627
		C266.323,385.711,253.682,369.646,248.953,357.473 M247.827,357.926c4.551,11.752,17.021,28.545,50.559,41.916
		c0.629,0.238,1.332-0.072,1.577-0.719c3.005-8.008,7.547-15.949,13.453-25.408c0.225-0.35,0.255-0.779,0.111-1.141
		c-0.026-0.064-0.055-0.129-0.093-0.184c-0.24-0.414-0.675-0.65-1.148-0.605c-10.144,0.945-44.804,1.324-64.485-33.322
		c-0.245-0.445-0.728-0.68-1.208-0.615c-0.492,0.076-0.895,0.443-1.018,0.926C245.49,339.113,243.584,346.996,247.827,357.926
		L247.827,357.926z"/>
</g>
<g style="enable-background:new    ;">
	<path style="fill:#526EA6;" d="M293.514,218.194c0.93-3.514,1.379-7.139,1.121-10.944c-0.039-0.937-0.147-1.908-0.315-2.88
		l-0.009-0.013c-0.403-2.894-1.263-5.891-2.487-9.007c0.398-0.079,0.782-0.177,1.169-0.283c2.476,3.916,4.487,7.67,6.015,11.264
		c0.477,1.102,0.876,2.195,1.263,3.244c0.02,0.032,0.02,0.032,0.02,0.032c1.553,4.414,2.388,8.576,2.681,12.578l-4.517,3.244
		c1.11,3.16,2.332,6.283,3.559,9.398c-0.257,1.07-0.537,2.149-0.871,3.213c-0.052,0.171-0.137,0.345-0.177,0.52
		C298.175,231.781,295.809,224.898,293.514,218.194z"/>
	<path style="fill:#FFFFFF;" d="M299.501,234.907c-2.169-5.591-4.1-11.208-5.987-16.713c0.93-3.514,1.379-7.139,1.121-10.944
		c-0.039-0.937-0.147-1.908-0.315-2.88l-0.009-0.013c-0.388-2.812-1.193-5.708-2.373-8.714c-0.031-0.104-0.072-0.194-0.114-0.293
		c0.398-0.079,0.782-0.177,1.169-0.283c2.476,3.916,4.487,7.67,6.015,11.264c0.216,0.502,0.416,1.001,0.604,1.484
		c0.234,0.594,0.459,1.187,0.659,1.759c0.02,0.032,0.02,0.032,0.02,0.032c1.553,4.414,2.388,8.576,2.681,12.578l-4.517,3.244
		c0.801,2.285,1.666,4.546,2.545,6.806c0.338,0.87,0.673,1.735,1.014,2.592c-0.257,1.07-0.537,2.149-0.871,3.213
		c-0.052,0.171-0.137,0.345-0.177,0.52C300.453,237.339,299.968,236.123,299.501,234.907 M298.369,235.375
		c0.476,1.237,0.967,2.457,1.465,3.675c0.188,0.472,0.651,0.774,1.156,0.759c0.498-0.016,0.939-0.348,1.116-0.828l0.069-0.226
		l0.123-0.341c0.333-1.126,0.649-2.215,0.898-3.287c0.056-0.254,0.047-0.523-0.056-0.762l0.004-0.006l-1.014-2.582
		c-0.635-1.634-1.442-3.723-2.202-5.87l3.741-2.684c0.35-0.25,0.545-0.69,0.514-1.129c-0.317-4.325-1.212-8.525-2.738-12.851
		c-0.001-0.044-0.021-0.073-0.036-0.115c-0.211-0.57-0.431-1.171-0.666-1.774c-0.197-0.504-0.407-1.025-0.619-1.526
		c-1.531-3.585-3.574-7.436-6.102-11.441c-0.29-0.449-0.814-0.66-1.318-0.537c-0.376,0.096-0.749,0.191-1.134,0.283
		c-0.353,0.071-0.655,0.302-0.825,0.638c-0.161,0.323-0.177,0.711-0.048,1.046c0.002,0,0,0.01,0,0.01l0.118,0.283
		c1.167,3.021,1.925,5.776,2.302,8.428c0.002,0.043,0.016,0.082,0.023,0.113c0.154,0.967,0.246,1.861,0.279,2.691
		c0.241,3.412-0.119,6.858-1.084,10.525c-0.056,0.245-0.05,0.5,0.031,0.738C294.135,223.782,296.146,229.641,298.369,235.375
		L298.369,235.375z"/>
</g>
<g style="enable-background:new    ;">
	<path style="fill:#526EA6;" d="M240.994,297.563c0.548-1.693,1.132-3.359,1.767-4.996c4.199,0.385,8.287,0.527,12.254,0.262
		c1.381-0.088,2.764-0.262,4.103-0.453l0.013-0.031c1.23-0.178,2.414-0.377,3.603-0.641c0.271-0.063,0.534-0.141,0.823-0.229
		c-11.582,15.557-21.061,33.438-20.49,57.191c-6.829-20.088-6.526-36.322-2.394-50.104c2.024-0.15,4.104-0.346,6.289-0.645
		C244.847,297.914,242.876,297.777,240.994,297.563z"/>
	<path style="fill:#FFFFFF;" d="M243.065,348.666c-6.829-20.088-6.526-36.322-2.394-50.104c2.024-0.15,4.104-0.346,6.289-0.645
		c-2.113-0.004-4.084-0.141-5.966-0.355c0.548-1.693,1.132-3.359,1.767-4.996c4.199,0.385,8.287,0.527,12.254,0.262
		c1.381-0.088,2.764-0.262,4.103-0.453l0.013-0.031c1.23-0.178,2.414-0.377,3.603-0.641c0.271-0.063,0.534-0.141,0.823-0.229
		C251.974,307.031,242.495,324.912,243.065,348.666 M241.936,349.141c0.213,0.545,0.775,0.869,1.348,0.758
		c0.584-0.1,1.014-0.637,0.996-1.266c-0.595-25.104,10.506-43.314,20.231-56.389c0.261-0.354,0.323-0.83,0.166-1.223
		c-0.029-0.086-0.071-0.156-0.117-0.227c-0.285-0.449-0.808-0.652-1.303-0.539l-0.382,0.113c-0.135,0.035-0.27,0.074-0.395,0.105
		c-1.244,0.281-2.484,0.484-3.523,0.631c-0.059,0.008-0.113,0.02-0.184,0.043c-1.344,0.193-2.637,0.348-3.843,0.43
		c-3.605,0.244-7.559,0.158-12.058-0.258c-0.53-0.041-1.032,0.268-1.229,0.77c-0.628,1.568-1.215,3.24-1.809,5.088
		c-0.048,0.164-0.061,0.336-0.051,0.514c-0.123,0.145-0.221,0.309-0.279,0.5c-4.695,15.672-3.899,32.311,2.41,50.891
		C241.924,349.098,241.936,349.123,241.936,349.141L241.936,349.141z"/>
</g>
<g style="enable-background:new    ;">
	<path style="fill:#526EA6;" d="M268.536,254.945c0.569-0.678,1.171-1.336,1.765-1.996c3.587-3.99,7.062-7.904,10.223-11.787
		c0.275-0.352,0.522-0.685,0.798-1.024c2.677,5.922,5.826,11.667,9.799,16.987c-4.039,5.695-8.756,11.338-13.636,17.127
		c-3.046,1.08-6.223,1.729-9.52,1.971c-5.017,0.402-10.335-0.027-15.866-0.893c4.652-6.818,9.953-13.082,15.227-19.02
		C267.727,255.842,268.138,255.379,268.536,254.945z"/>
	<path style="fill:#FFFFFF;" d="M252.099,275.33c4.652-6.818,9.953-13.082,15.227-19.02c0.401-0.469,0.813-0.932,1.211-1.365
		c0.569-0.678,1.171-1.336,1.765-1.996c3.587-3.99,7.062-7.904,10.223-11.787c0.275-0.352,0.522-0.685,0.798-1.024
		c2.677,5.922,5.826,11.667,9.799,16.987c-4.039,5.695-8.756,11.338-13.636,17.127c-3.046,1.08-6.223,1.729-9.52,1.971
		C262.948,276.625,257.63,276.195,252.099,275.33 M250.961,275.789c0.018,0.02,0.018,0.02,0.012,0.025
		c0.178,0.398,0.529,0.689,0.938,0.756c6.355,0.984,11.474,1.283,16.137,0.91c3.435-0.266,6.751-0.951,9.822-2.041
		c0.204-0.072,0.388-0.201,0.528-0.373c5.359-6.338,9.77-11.629,13.7-17.201c0.262-0.35,0.303-0.809,0.152-1.199
		c-0.054-0.111-0.094-0.215-0.164-0.297c-3.6-4.842-6.756-10.328-9.654-16.774c-0.17-0.383-0.528-0.653-0.953-0.71
		c-0.41-0.046-0.82,0.11-1.09,0.444c-0.123,0.148-0.248,0.322-0.374,0.475c-0.141,0.191-0.279,0.369-0.425,0.541
		c-3.212,3.95-6.789,7.987-10.175,11.756c-0.604,0.664-1.217,1.33-1.752,1.969c-0.357,0.4-0.715,0.799-1.072,1.201l-0.166,0.189
		c-4.855,5.48-10.466,12.023-15.319,19.146C250.866,274.949,250.812,275.402,250.961,275.789L250.961,275.789z"/>
</g>
<g style="enable-background:new    ;">
	<path style="fill:#2E509A;" d="M288.767,188.805c1.578,2.147,2.948,4.216,4.226,6.261c-0.387,0.106-0.771,0.204-1.169,0.283
		C290.991,193.223,290.014,191.059,288.767,188.805z"/>
	<path style="fill:#FFFFFF;" d="M288.767,188.805c1.578,2.147,2.948,4.216,4.226,6.261c-0.387,0.106-0.771,0.204-1.169,0.283
		C290.991,193.223,290.014,191.059,288.767,188.805 M287.642,189.27c0.012,0.061,0.046,0.11,0.077,0.16
		c1.106,2.018,2.079,4.11,2.979,6.398c0.223,0.553,0.804,0.889,1.393,0.752c0.403-0.095,0.808-0.194,1.197-0.292
		c0.388-0.097,0.713-0.384,0.844-0.761c0.121-0.296,0.109-0.635-0.002-0.931c-0.032-0.065-0.061-0.137-0.106-0.208
		c-1.534-2.416-2.888-4.419-4.291-6.332c-0.385-0.525-1.105-0.66-1.631-0.284C287.611,188.091,287.42,188.737,287.642,189.27
		L287.642,189.27z"/>
</g>
<g style="enable-background:new    ;">
	<path style="fill:#2E509A;" d="M299.865,241.589c-0.511,1.29-1.078,2.596-1.682,3.875c-1.931,3.969-4.349,7.84-7.063,11.66
		c-3.973-5.32-7.122-11.064-9.799-16.987c3.857-4.807,7.183-9.61,9.541-14.586c1.134-2.402,2-4.87,2.651-7.358
		c2.295,6.704,4.661,13.587,7.45,20.364c-0.361,1.004-0.713,1.998-1.11,3.011L299.865,241.589z"/>
	<path style="fill:#FFFFFF;" d="M281.321,240.138c3.857-4.807,7.183-9.61,9.541-14.586c1.134-2.402,2-4.87,2.651-7.358
		c1.888,5.505,3.818,11.122,5.987,16.713c0.467,1.216,0.952,2.433,1.463,3.651c-0.361,1.004-0.713,1.998-1.11,3.011l0.012,0.021
		c-0.511,1.29-1.078,2.596-1.682,3.875c-1.931,3.969-4.349,7.84-7.063,11.66C287.147,251.805,283.998,246.061,281.321,240.138
		 M280.199,240.587c0.01,0.024,0.027,0.047,0.025,0.066c2.972,6.612,6.228,12.252,9.936,17.237c0.229,0.313,0.592,0.496,0.983,0.494
		c0.378-0.012,0.73-0.199,0.955-0.52c3.006-4.234,5.346-8.113,7.166-11.842c0.594-1.248,1.18-2.574,1.731-3.967
		c0.022-0.061,0.04-0.118,0.05-0.188c0.389-0.976,0.722-1.924,1.061-2.896c0.085-0.279,0.085-0.589-0.025-0.875
		c-0.007-0.02-0.007-0.02-0.007-0.025c-0.498-1.208-0.981-2.408-1.45-3.623c-2.204-5.685-4.202-11.517-5.965-16.668
		c0.001-0.028-0.011-0.044-0.015-0.052c-0.188-0.485-0.664-0.809-1.173-0.79c-0.533,0.019-0.989,0.398-1.135,0.93
		c-0.683,2.59-1.51,4.912-2.574,7.132c-2.085,4.416-5.055,8.965-9.373,14.329C280.114,239.686,280.035,240.163,280.199,240.587
		L280.199,240.587z"/>
</g>
<g style="enable-background:new    ;">
	<path style="fill:#2E509A;" d="M302.97,222.184c0.329,4.417-0.024,8.605-0.958,12.642c-1.227-3.116-2.448-6.238-3.559-9.398
		L302.97,222.184z"/>
	<path style="fill:#FFFFFF;" d="M300.998,232.233c-0.869-2.26-1.744-4.521-2.545-6.806l4.517-3.244
		c0.329,4.417-0.024,8.605-0.958,12.642C301.671,233.968,301.336,233.103,300.998,232.233 M299.878,232.713l1.008,2.593
		c0.205,0.505,0.69,0.805,1.213,0.775c0.529-0.035,0.965-0.428,1.099-0.955c0.975-4.233,1.31-8.616,0.987-13.032
		c-0.015-0.131-0.042-0.263-0.081-0.373c-0.118-0.285-0.327-0.525-0.616-0.664c-0.381-0.201-0.844-0.162-1.21,0.098l-4.511,3.236
		c-0.463,0.336-0.643,0.936-0.457,1.46C298.194,228.345,299.141,230.826,299.878,232.713L299.878,232.713z"/>
</g>
<g style="enable-background:new    ;">
	<path style="fill:#526EA6;" d="M277.57,284.834l59.917,29.645c-0.086,5.646-1.103,11.127-2.751,16.51l-69.737-37.592
		c0.8-1.061,1.659-2.076,2.471-3.125C270.972,289.004,274.352,287.248,277.57,284.834z"/>
	<path style="fill:#FFFFFF;" d="M264.999,293.396c0.8-1.061,1.659-2.076,2.471-3.125c3.502-1.268,6.882-3.023,10.101-5.438
		l59.917,29.645c-0.086,5.646-1.103,11.127-2.751,16.51L264.999,293.396 M263.878,293.854c0.104,0.287,0.305,0.516,0.56,0.652
		l69.738,37.594c0.313,0.18,0.685,0.189,1.008,0.047c0.339-0.135,0.591-0.428,0.711-0.775c1.806-5.922,2.731-11.428,2.804-16.875
		c0.012-0.17-0.019-0.332-0.085-0.49c-0.102-0.281-0.311-0.523-0.605-0.668l-59.91-29.629c-0.409-0.207-0.883-0.162-1.244,0.113
		c-3.004,2.244-6.207,3.975-9.792,5.26c-0.217,0.088-0.403,0.221-0.548,0.404c-0.338,0.428-0.66,0.85-1.008,1.279
		c-0.495,0.611-0.991,1.234-1.472,1.867c-0.201,0.299-0.297,0.67-0.214,1.035C263.828,293.74,263.846,293.799,263.878,293.854
		L263.878,293.854z"/>
</g>
<g style="enable-background:new    ;">
	<path style="fill:#526EA6;" d="M332.279,286.281c67.991,52.992-24.07,105.879-33.323,141.266
		C286.041,382.381,363.743,342.846,332.279,286.281z"/>
	<path style="fill:#FFFFFF;" d="M298.956,427.547c-12.274-42.961,57.44-80.854,37.157-133.139c-1.032-2.674-2.307-5.377-3.834-8.127
		c11.617,9.061,18.577,18.121,22.051,27.088C371.213,356.852,306.632,398.217,298.956,427.547 M297.822,428.01
		c0.188,0.475,0.635,0.801,1.134,0.789c0.556-0.006,1.033-0.391,1.164-0.928c2.695-10.283,12.913-22.494,23.72-35.416
		c20.012-23.916,42.697-51.025,31.624-79.547c-3.737-9.641-11.301-18.934-22.464-27.633c-0.45-0.365-1.099-0.334-1.538,0.057
		c-0.381,0.352-0.5,0.928-0.318,1.408c0.019,0.059,0.056,0.111,0.084,0.164c1.467,2.635,2.733,5.32,3.761,7.973
		c10.671,27.516-4.159,51.008-18.502,73.734c-12.619,19.996-24.54,38.879-18.704,59.285
		C297.803,427.941,297.815,427.971,297.822,428.01L297.822,428.01z"/>
</g>
<g style="enable-background:new    ;">
	<path style="fill:#6E7BA8;" d="M179.959,286.631l1.2,84.287c-5.788,0.063-11.641-0.178-17.473-0.438l-1.765-81.252
		C167.965,287.58,173.973,286.809,179.959,286.631z"/>
	<path style="fill:#FFFFFF;" d="M163.687,370.48l-1.765-81.252c6.043-1.648,12.051-2.42,18.038-2.598l1.2,84.287
		C175.371,370.98,169.519,370.74,163.687,370.48 M162.566,370.943c0.164,0.449,0.585,0.762,1.072,0.791
		c5.635,0.244,11.641,0.492,17.518,0.439c0.324,0,0.634-0.141,0.86-0.373c0.225-0.238,0.354-0.564,0.355-0.906l-1.204-84.285
		c0.002-0.145-0.018-0.295-0.075-0.439c-0.077-0.168-0.169-0.314-0.294-0.438c-0.234-0.225-0.545-0.357-0.869-0.348
		c-6.534,0.189-12.522,1.053-18.315,2.637c-0.551,0.148-0.913,0.65-0.913,1.236l1.776,81.252
		C162.474,370.65,162.514,370.811,162.566,370.943L162.566,370.943z"/>
</g>
<g style="enable-background:new    ;">
	<path style="fill:#6E7BA8;" d="M155.595,370.119c-9.944-0.418-19.516-0.557-28.284,0.906
		c-10.583-66.549,23.401-76.488,23.401-76.488C131.367,330.246,149.52,361.35,155.595,370.119z"/>
	<path style="fill:#FFFFFF;" d="M127.311,371.025c-10.583-66.549,23.401-76.488,23.401-76.488
		c-12.72,23.465-9.227,44.951-3.619,59.4c2.928,7.547,6.42,13.168,8.502,16.182C145.651,369.701,136.079,369.563,127.311,371.025
		 M126.179,371.494c0.207,0.535,0.749,0.863,1.326,0.77c8.204-1.381,17.144-1.359,28.039-0.895c0.471,0.021,0.902-0.24,1.127-0.662
		c0.174-0.326,0.185-0.715,0.052-1.068c-0.028-0.08-0.071-0.174-0.13-0.254c-1.867-2.684-5.428-8.322-8.375-15.902
		c-5.339-13.766-9.054-35.057,3.56-58.332c0.181-0.34,0.197-0.732,0.062-1.074c-0.042-0.111-0.106-0.225-0.175-0.32
		c-0.299-0.395-0.809-0.566-1.283-0.426c-0.365,0.098-9.003,2.734-16.353,13.787c-6.664,10.041-13.445,29.32-7.921,64.111
		C126.116,371.32,126.148,371.406,126.179,371.494L126.179,371.494z"/>
</g>
<g style="enable-background:new    ;">
	<path style="fill:#6E7BA8;" d="M183.847,268.039c1.59-0.328,3.175-0.584,4.752-0.803c1.777,3.982,3.727,7.727,5.947,11.168
		c0.775,1.176,1.591,2.332,2.436,3.43l0.027,0.02c0.768,0.994,1.522,1.947,2.333,2.883c0.232,0.246,0.488,0.496,0.718,0.748
		c-19.168-2.576-39.285-2.148-59.228,10.619c13.761-16.775,27.939-24.723,41.971-27.844c1.184,1.785,2.433,3.602,3.834,5.457
		C185.534,271.768,184.64,269.889,183.847,268.039z"/>
	<path style="fill:#FFFFFF;" d="M140.833,296.104c13.761-16.775,27.939-24.723,41.971-27.844c1.184,1.785,2.433,3.602,3.834,5.457
		c-1.104-1.949-1.998-3.828-2.791-5.678c1.59-0.328,3.175-0.584,4.752-0.803c1.777,3.982,3.727,7.727,5.947,11.168
		c0.775,1.176,1.591,2.332,2.436,3.43l0.027,0.02c0.768,0.994,1.522,1.947,2.333,2.883c0.232,0.246,0.488,0.496,0.718,0.748
		C180.893,282.908,160.775,283.336,140.833,296.104 M139.707,296.559c0.054,0.135,0.12,0.25,0.215,0.355
		c0.388,0.471,1.059,0.57,1.553,0.242c20.928-13.395,42.213-12.611,58.421-10.438c0.518,0.07,1.023-0.197,1.251-0.678
		c0.155-0.328,0.165-0.705,0.047-1.025c-0.065-0.146-0.141-0.289-0.259-0.402c-0.116-0.125-0.22-0.238-0.334-0.35
		c-0.125-0.123-0.25-0.256-0.36-0.365c-0.812-0.949-1.578-1.916-2.292-2.824c-0.025-0.045-0.055-0.072-0.086-0.121
		c-0.833-1.07-1.601-2.18-2.303-3.254c-2.044-3.145-3.958-6.732-5.867-10.994c-0.217-0.498-0.73-0.781-1.264-0.705
		c-1.637,0.223-3.256,0.486-4.822,0.814c-0.182,0.025-0.351,0.121-0.499,0.225c-0.184-0.041-0.375-0.045-0.553-0.004
		c-16.009,3.551-29.96,12.785-42.644,28.25C139.607,295.645,139.55,296.146,139.707,296.559L139.707,296.559z"/>
</g>
<g style="enable-background:new    ;">
	<path style="fill:#6E7BA8;" d="M285.157,270.322c0.761-0.514,1.526-1.109,2.24-1.732l0.024-0.021
		c2.405-2.014,4.671-4.527,6.813-7.529c0.226,0.279,0.471,0.525,0.711,0.793c-2.149,4.547-4.413,8.521-6.806,11.91
		c-0.679,0.975-1.386,1.896-2.077,2.777c-0.012,0.002-0.012,0.002-0.012,0.002c-2.69,3.377-5.516,6.096-8.481,8.313l-4.199-2.078
		c-2.015,2.455-3.959,4.99-5.901,7.516c-1.291,0.469-2.604,0.873-3.914,1.203c4.475-6.025,9.27-11.693,13.929-17.223
		C280.153,273.305,282.724,272.037,285.157,270.322z"/>
	<path style="fill:#FFFFFF;" d="M263.556,291.475c4.475-6.025,9.27-11.693,13.929-17.223c2.669-0.947,5.239-2.215,7.673-3.93
		c0.761-0.514,1.526-1.109,2.24-1.732l0.024-0.021c2.405-2.014,4.671-4.527,6.813-7.529c0.226,0.279,0.471,0.525,0.711,0.793
		c-2.149,4.547-4.413,8.521-6.806,11.91c-0.679,0.975-1.386,1.896-2.077,2.777c-0.012,0.002-0.012,0.002-0.012,0.002
		c-2.69,3.377-5.516,6.096-8.481,8.313l-4.199-2.078c-2.015,2.455-3.959,4.99-5.901,7.516
		C266.179,290.74,264.866,291.145,263.556,291.475 M262.426,291.947c0.029,0.078,0.064,0.15,0.101,0.219
		c0.282,0.445,0.813,0.662,1.315,0.531c1.318-0.342,2.674-0.758,4.021-1.24c0.225-0.08,0.418-0.219,0.555-0.404l0.469-0.6
		c1.574-2.031,3.183-4.129,4.818-6.135l3.335,1.643c0.407,0.207,0.886,0.158,1.243-0.109c3.126-2.354,6.059-5.217,8.717-8.543
		c0.853-1.066,1.521-1.957,2.129-2.83c2.429-3.455,4.75-7.518,6.901-12.1c0.148-0.322,0.16-0.699,0.04-1.018
		c-0.062-0.141-0.139-0.264-0.237-0.379l-0.261-0.301c-0.146-0.162-0.291-0.314-0.428-0.467c-0.245-0.297-0.602-0.447-0.966-0.43
		c-0.367,0.02-0.708,0.201-0.92,0.51c-2.075,2.922-4.275,5.359-6.53,7.25c-0.032,0.031-0.073,0.053-0.119,0.084
		c-0.682,0.615-1.402,1.164-2.129,1.664c-2.242,1.563-4.648,2.805-7.388,3.773c-0.206,0.072-0.384,0.195-0.534,0.363l-0.137,0.174
		c-4.614,5.463-9.376,11.119-13.842,17.117C262.322,291.08,262.261,291.543,262.426,291.947L262.426,291.947z"/>
</g>
<g style="enable-background:new    ;">
	<path style="fill:#6E7BA8;" d="M232.085,271.283c0.851,0.156,1.703,0.348,2.553,0.559c5.15,1.15,10.184,2.248,15.032,3.1
		c0.829,0.146,1.62,0.256,2.429,0.389c-3.646,5.33-6.869,11.029-9.338,17.236c-6.854-0.637-14.012-1.961-21.387-3.383
		c-2.436-2.184-4.557-4.691-6.418-7.514c-2.842-4.289-5.134-9.25-7.167-14.617c7.685,0.727,15.229,2.242,22.541,3.836
		C230.915,271.01,231.512,271.131,232.085,271.283z"/>
	<path style="fill:#FFFFFF;" d="M208.155,267.986c-0.135-0.311-0.249-0.613-0.366-0.934c7.685,0.727,15.229,2.242,22.541,3.836
		c0.585,0.121,1.182,0.242,1.755,0.395c0.851,0.156,1.703,0.348,2.553,0.559c5.15,1.15,10.184,2.248,15.032,3.1
		c0.829,0.146,1.62,0.256,2.429,0.389c-3.646,5.33-6.869,11.029-9.338,17.236c-6.854-0.637-14.012-1.961-21.387-3.383
		c-2.436-2.184-4.557-4.691-6.418-7.514C212.282,277.627,210.093,273.006,208.155,267.986 M207.016,268.461
		c2.175,5.621,4.445,10.17,6.93,13.92c1.933,2.92,4.166,5.527,6.629,7.75c0.151,0.141,0.364,0.25,0.576,0.279
		c7.725,1.494,14.679,2.775,21.502,3.412c0.53,0.037,1.031-0.266,1.238-0.779c2.253-5.676,5.267-11.248,9.205-16.998
		c0.234-0.355,0.282-0.795,0.125-1.174c-0.001-0.021-0.005-0.039-0.014-0.039c-0.15-0.406-0.521-0.678-0.929-0.75l-0.788-0.119
		c-0.537-0.078-1.066-0.156-1.619-0.254c-5.003-0.885-10.138-1.996-14.952-3.094c-0.875-0.207-1.746-0.414-2.535-0.549
		c-0.521-0.133-1.066-0.248-1.591-0.35l-0.216-0.049c-7.136-1.566-14.829-3.109-22.68-3.871c-0.415-0.035-0.83,0.16-1.082,0.506
		c-0.257,0.34-0.308,0.803-0.163,1.195L207.016,268.461L207.016,268.461z"/>
</g>
<g style="enable-background:new    ;">
	<path style="fill:#4F5F9C;" d="M297.591,255.76c-0.856,2.148-1.747,4.148-2.645,6.072c-0.24-0.268-0.485-0.514-0.711-0.793
		C295.385,259.418,296.508,257.701,297.591,255.76z"/>
	<path style="fill:#FFFFFF;" d="M294.235,261.039c1.149-1.621,2.272-3.338,3.355-5.279c-0.856,2.148-1.747,4.148-2.645,6.072
		C294.706,261.564,294.461,261.318,294.235,261.039 M293.11,261.506c0.049,0.141,0.126,0.256,0.219,0.361
		c0.146,0.189,0.3,0.354,0.46,0.518l0.252,0.295c0.283,0.299,0.678,0.447,1.077,0.395c0.393-0.061,0.733-0.328,0.911-0.695
		c1.069-2.234,1.918-4.197,2.69-6.152c0.127-0.303,0.118-0.652,0.009-0.938c-0.106-0.279-0.323-0.52-0.598-0.658
		c-0.583-0.293-1.275-0.061-1.596,0.512c-0.941,1.691-1.985,3.342-3.277,5.152C293.004,260.648,292.961,261.107,293.11,261.506
		L293.11,261.506z"/>
</g>
<g style="enable-background:new    ;">
	<path style="fill:#4D5F98;" d="M259.13,292.344l-0.013,0.031c-1.339,0.191-2.722,0.365-4.103,0.453
		c-3.967,0.266-8.055,0.123-12.254-0.262c2.469-6.207,5.691-11.906,9.338-17.236c5.531,0.865,10.85,1.295,15.866,0.893
		c3.297-0.242,6.474-0.891,9.52-1.971c-4.659,5.529-9.454,11.197-13.929,17.223c-0.289,0.088-0.553,0.166-0.823,0.229
		C261.544,291.967,260.36,292.166,259.13,292.344z"/>
	<path style="fill:#FFFFFF;" d="M242.761,292.566c2.469-6.207,5.691-11.906,9.338-17.236c5.531,0.865,10.85,1.295,15.866,0.893
		c3.297-0.242,6.474-0.891,9.52-1.971c-4.659,5.529-9.454,11.197-13.929,17.223c-0.289,0.088-0.553,0.166-0.823,0.229
		c-1.188,0.264-2.372,0.463-3.603,0.641l-0.013,0.031c-1.339,0.191-2.722,0.365-4.103,0.453
		C251.048,293.094,246.96,292.951,242.761,292.566 M241.621,293.035c0.035,0.063,0.074,0.125,0.102,0.182
		c0.201,0.346,0.539,0.563,0.931,0.605c4.632,0.434,8.697,0.516,12.439,0.254c1.322-0.09,2.736-0.25,4.201-0.479
		c0.07-0.002,0.121-0.018,0.173-0.045c1.048-0.148,2.276-0.352,3.53-0.631c0.174-0.039,0.354-0.078,0.524-0.135l0.323-0.084
		c0.267-0.078,0.502-0.24,0.666-0.457c4.418-5.939,9.156-11.555,13.75-16.998l0.138-0.182c0.311-0.352,0.387-0.852,0.221-1.273
		c-0.042-0.094-0.071-0.168-0.125-0.244c-0.303-0.467-0.884-0.67-1.402-0.482c-2.898,1.018-6,1.67-9.215,1.918
		c-4.49,0.352-9.443,0.07-15.598-0.902c-0.458-0.066-0.909,0.131-1.168,0.518c-4.046,5.92-7.136,11.629-9.477,17.5
		C241.514,292.391,241.521,292.729,241.621,293.035L241.621,293.035z"/>
</g>
<g style="enable-background:new    ;">
	<path style="fill:#4F5F9C;" d="M277.57,284.834c-3.219,2.414-6.599,4.17-10.101,5.438c1.942-2.525,3.887-5.061,5.901-7.516
		L277.57,284.834z"/>
	<path style="fill:#FFFFFF;" d="M267.47,290.271c1.942-2.525,3.887-5.061,5.901-7.516l4.199,2.078
		C274.352,287.248,270.972,289.004,267.47,290.271 M266.336,290.734c0.034,0.096,0.093,0.178,0.138,0.26
		c0.313,0.465,0.886,0.643,1.396,0.449c3.801-1.367,7.212-3.203,10.413-5.592c0.344-0.268,0.541-0.695,0.506-1.133
		c-0.024-0.121-0.043-0.227-0.091-0.352c-0.118-0.291-0.322-0.529-0.6-0.658l-4.189-2.082c-0.5-0.24-1.1-0.105-1.45,0.324
		c-1.869,2.273-3.708,4.637-5.48,6.936l-0.456,0.6C266.241,289.836,266.176,290.328,266.336,290.734L266.336,290.734z"/>
</g>
<g style="enable-background:new    ;">
	<path style="fill:#6E7BA8;" d="M217.249,362.75c-4.767,2.803-9.852,4.658-15.195,5.912l-3.907-81.055
		c1.651,0.219,3.281,0.525,4.931,0.781c2.543,2.242,5.377,4.156,8.567,5.727L217.249,362.75z"/>
	<path style="fill:#FFFFFF;" d="M202.054,368.662l-3.907-81.055c1.651,0.219,3.281,0.525,4.931,0.781
		c2.543,2.242,5.377,4.156,8.567,5.727l5.604,68.635C212.481,365.553,207.396,367.408,202.054,368.662 M200.919,369.131
		c0.086,0.207,0.221,0.389,0.396,0.527c0.287,0.229,0.656,0.318,1.008,0.229c5.848-1.365,10.933-3.346,15.516-6.043
		c0.417-0.248,0.664-0.713,0.621-1.197l-5.603-68.648c-0.008-0.119-0.041-0.248-0.078-0.359c-0.115-0.273-0.335-0.518-0.619-0.66
		c-2.988-1.469-5.784-3.33-8.306-5.545c-0.162-0.148-0.378-0.25-0.601-0.287c-0.646-0.094-1.279-0.197-1.923-0.307
		c-1.003-0.174-2.025-0.34-3.039-0.473c-0.354-0.043-0.707,0.072-0.97,0.33c-0.267,0.244-0.407,0.596-0.388,0.982l3.9,81.049
		C200.844,368.869,200.873,368.998,200.919,369.131L200.919,369.131z"/>
</g>
<g style="enable-background:new    ;">
	<path style="fill:#6E7BA8;" d="M238.178,343.826c-9.836,87.326-100.687,32.26-134.946,41.953
		C134.425,351.406,206.848,400.467,238.178,343.826z"/>
	<path style="fill:#FFFFFF;" d="M103.231,385.779c31.194-34.373,103.616,14.688,134.946-41.953
		C228.341,431.152,137.491,376.086,103.231,385.779 M102.105,386.242c0.02,0.059,0.052,0.133,0.084,0.184
		c0.291,0.492,0.844,0.713,1.362,0.563c9.959-2.818,25.342,0.074,41.618,3.15c25.97,4.881,55.421,10.436,74.674-4.254
		c10.913-8.34,17.31-22.047,19.54-41.902c0.024-0.229,0.001-0.428-0.078-0.623c-0.125-0.342-0.404-0.6-0.754-0.73
		c-0.541-0.176-1.141,0.061-1.43,0.574c-17.173,31.066-46.956,29.656-75.737,28.297c-23.121-1.09-44.938-2.113-59.044,13.418
		C102.021,385.279,101.93,385.793,102.105,386.242L102.105,386.242z"/>
</g>
<g style="enable-background:new    ;">
	<path style="fill:#91C4E0;" d="M92.043,251.463c-2.944-5.127-5.675-10.481-8.358-15.812l67.34-42.208
		c4.399,4.581,8.048,9.555,11.191,14.817L92.043,251.463z"/>
	<path style="fill:#FFFFFF;" d="M83.685,235.651l67.34-42.208c4.399,4.581,8.048,9.555,11.191,14.817l-70.172,43.203
		C89.099,246.336,86.369,240.982,83.685,235.651 M82.564,236.111c0.012,0.035,0.03,0.088,0.046,0.121
		c2.607,5.155,5.391,10.627,8.4,15.872c0.155,0.287,0.428,0.49,0.739,0.584c0.316,0.068,0.646,0.029,0.923-0.158l70.171-43.198
		c0.276-0.168,0.468-0.458,0.546-0.771c0.068-0.258,0.043-0.523-0.051-0.774c-0.018-0.061-0.045-0.124-0.089-0.184
		c-3.402-5.709-7.119-10.622-11.361-15.036c-0.394-0.424-1.017-0.493-1.497-0.193l-67.334,42.202
		C82.545,234.898,82.345,235.548,82.564,236.111L82.564,236.111z"/>
</g>
<g style="enable-background:new    ;">
	<path style="fill:#91C4E0;" d="M65.036,203.41c50.587-42.716,75.924-17.332,75.924-17.332
		c-39.657,0.577-56.688,32.356-61.006,42.152C75.337,219.16,70.66,210.514,65.036,203.41z"/>
	<path style="fill:#FFFFFF;" d="M65.036,203.41c50.587-42.716,75.924-17.332,75.924-17.332
		c-39.657,0.577-56.688,32.356-61.006,42.152C75.337,219.16,70.66,210.514,65.036,203.41 M63.903,203.875
		c0.046,0.117,0.115,0.23,0.191,0.331c5.259,6.642,9.712,14.645,14.786,24.617c0.217,0.421,0.649,0.677,1.111,0.672
		c0.467-0.018,0.877-0.308,1.07-0.747c4.202-9.563,20.965-40.85,59.911-41.423c0.493,0.006,0.933-0.322,1.115-0.788
		c0.112-0.305,0.106-0.643-0.004-0.931c-0.063-0.152-0.16-0.31-0.281-0.425c-0.266-0.274-6.798-6.674-19.744-7.713
		c-11.764-0.936-31.357,2.64-57.783,24.978C63.845,202.79,63.715,203.382,63.903,203.875L63.903,203.875z"/>
</g>
<g style="enable-background:new    ;">
	<path style="fill:#91C4E0;" d="M228.517,294.078c0.802,0.438,1.686,0.813,2.571,1.143l0.023,0.008
		c2.937,1.17,6.235,1.932,9.883,2.334c-0.107,0.336-0.225,0.654-0.323,1c-4.95,0.373-9.458,0.338-13.534-0.098
		c-1.152-0.125-2.279-0.291-3.373-0.479c-0.016,0-0.016,0-0.016,0c-4.55-0.787-8.54-2.129-12.104-3.871l-0.357-4.434
		c-2.722-0.492-5.47-0.871-8.21-1.293c-1.055-0.924-2.063-1.891-3.017-2.904c7.27,0.965,14.382,2.367,21.313,3.699
		C223.492,291.104,225.842,292.766,228.517,294.078z"/>
	<path style="fill:#FFFFFF;" d="M200.061,285.484c7.27,0.965,14.382,2.367,21.313,3.699c2.118,1.92,4.468,3.582,7.143,4.895
		c0.802,0.438,1.686,0.813,2.571,1.143l0.023,0.008c2.937,1.17,6.235,1.932,9.883,2.334c-0.107,0.336-0.225,0.654-0.323,1
		c-4.95,0.373-9.458,0.338-13.534-0.098c-1.152-0.125-2.279-0.291-3.373-0.479c-0.016,0-0.016,0-0.016,0
		c-4.55-0.787-8.54-2.129-12.104-3.871l-0.357-4.434c-2.722-0.492-5.47-0.871-8.21-1.293
		C202.022,287.465,201.014,286.498,200.061,285.484 M198.936,285.941c0.054,0.148,0.137,0.291,0.258,0.416
		c0.958,1.018,2.012,2.031,3.092,2.98c0.17,0.162,0.377,0.25,0.612,0.291l2.018,0.303c1.726,0.258,3.506,0.521,5.249,0.824
		l0.267,3.455c0.02,0.127,0.051,0.25,0.082,0.367c0.12,0.289,0.327,0.531,0.612,0.664c3.837,1.893,7.876,3.182,12.348,3.965
		c0.041,0.01,0.068,0.018,0.104,0.027c0.934,0.145,2.169,0.342,3.439,0.477c4.149,0.432,8.768,0.479,13.744,0.104
		c0.492-0.039,0.917-0.391,1.075-0.895c0.042-0.156,0.105-0.318,0.16-0.488c0.055-0.162,0.111-0.314,0.16-0.49
		c0.086-0.275,0.083-0.58-0.031-0.842c-0.018-0.074-0.062-0.152-0.109-0.223c-0.196-0.307-0.525-0.518-0.875-0.564
		c-3.604-0.396-6.829-1.152-9.643-2.264c-0.894-0.346-1.71-0.703-2.463-1.102c-2.426-1.195-4.674-2.738-6.854-4.711
		c-0.168-0.146-0.373-0.244-0.592-0.275l-1.274-0.252c-6.508-1.252-13.237-2.551-20.092-3.477c-0.509-0.064-1.007,0.197-1.246,0.688
		C198.818,285.24,198.813,285.619,198.936,285.941L198.936,285.941z"/>
</g>
<g style="enable-background:new    ;">
	<path style="fill:#91C4E0;" d="M180.199,202.947c0.937,1.128,1.836,2.272,2.703,3.438c-2.403,3.556-4.543,7.136-6.274,10.788
		c-0.611,1.313-1.152,2.613-1.646,3.91l-0.013,0.027c-0.44,1.196-0.858,2.338-1.234,3.534c-0.13,0.448-0.239,0.909-0.349,1.35
		c-7.431-18.535-17.855-36.459-38.681-47.953c21.262,3.965,35.118,12.826,44.776,24.03c-0.956,2.031-1.879,4.105-2.772,6.364
		C177.826,206.415,178.999,204.62,180.199,202.947z"/>
	<path style="fill:#FFFFFF;" d="M134.704,178.041c21.262,3.965,35.118,12.826,44.776,24.03c-0.956,2.031-1.879,4.105-2.772,6.364
		c1.118-2.02,2.291-3.814,3.491-5.487c0.937,1.128,1.836,2.272,2.703,3.438c-2.403,3.556-4.543,7.136-6.274,10.788
		c-0.611,1.313-1.152,2.613-1.646,3.91l-0.013,0.027c-0.44,1.196-0.858,2.338-1.234,3.534c-0.13,0.448-0.239,0.909-0.349,1.35
		C165.954,207.459,155.529,189.534,134.704,178.041 M133.578,178.508c0.106,0.264,0.29,0.5,0.561,0.635
		c21.803,12.051,31.829,31.624,38.127,47.329c0.192,0.493,0.676,0.803,1.2,0.783c0.519-0.046,0.962-0.417,1.094-0.937l0.125-0.522
		c0.078-0.263,0.142-0.526,0.211-0.762c0.337-1.128,0.728-2.193,1.208-3.477c0.015-0.026,0.019-0.048,0.036-0.089
		c0.52-1.369,1.046-2.599,1.585-3.74c1.579-3.346,3.593-6.813,6.178-10.625c0.23-0.347,0.278-0.79,0.125-1.179
		c-0.039-0.098-0.094-0.196-0.153-0.299c-0.851-1.14-1.745-2.288-2.759-3.489c-0.121-0.149-0.282-0.276-0.456-0.344
		c-0.011-0.069-0.033-0.124-0.054-0.179c-0.05-0.141-0.133-0.26-0.219-0.365c-11.009-12.793-25.884-20.787-45.453-24.45
		c-0.597-0.106-1.177,0.257-1.369,0.831C133.458,177.911,133.476,178.235,133.578,178.508L133.578,178.508z"/>
</g>
<g style="enable-background:new    ;">
	<path style="fill:#91C4E0;" d="M200.615,245.375c0.192,0.6,0.392,1.199,0.551,1.771c0.288,0.844,0.551,1.701,0.813,2.564
		c1.6,5.184,3.192,10.221,4.915,14.979c0.282,0.805,0.593,1.58,0.895,2.363c-6.32-0.6-12.734-0.666-19.19,0.184
		c-2.788-6.24-5.188-13.051-7.599-20.096c0.583-3.475,1.631-6.854,3.146-10.126c2.132-4.603,5.091-9.083,8.497-13.539
		C195.833,230.66,198.332,238.106,200.615,245.375z"/>
	<path style="fill:#FFFFFF;" d="M185.755,260.4c-1.653-4.264-3.199-8.703-4.755-13.26c0.583-3.475,1.631-6.854,3.146-10.126
		c2.132-4.603,5.091-9.083,8.497-13.539c0.919,2.077,1.784,4.175,2.598,6.28c2.012,5.191,3.754,10.445,5.375,15.619
		c0.192,0.6,0.392,1.199,0.551,1.771c0.288,0.844,0.551,1.701,0.813,2.564c1.6,5.184,3.192,10.221,4.915,14.979
		c0.282,0.805,0.593,1.58,0.895,2.363c-6.32-0.6-12.734-0.666-19.19,0.184C187.603,265.027,186.659,262.75,185.755,260.4
		 M184.635,260.861c0.979,2.531,1.915,4.791,2.853,6.912c0.228,0.475,0.733,0.777,1.263,0.707c5.869-0.77,12.057-0.832,18.929-0.17
		c0.412,0.037,0.823-0.158,1.082-0.502c0.237-0.346,0.315-0.805,0.163-1.211l-0.326-0.809c-0.18-0.51-0.381-1.01-0.566-1.543
		c-1.631-4.521-3.142-9.232-4.9-14.91c-0.258-0.889-0.523-1.746-0.798-2.559c-0.146-0.523-0.331-1.066-0.506-1.609l-0.06-0.184
		c-1.476-4.676-3.261-10.202-5.394-15.697c-0.851-2.206-1.743-4.345-2.636-6.335c-0.172-0.387-0.541-0.67-0.953-0.718
		c-0.418-0.051-0.841,0.128-1.096,0.464c-3.918,5.122-6.662,9.488-8.643,13.783c-1.56,3.372-2.651,6.893-3.25,10.452
		c-0.038,0.209-0.024,0.426,0.057,0.627C181.26,251.67,182.901,256.42,184.635,260.861L184.635,260.861z"/>
</g>
<g style="enable-background:new    ;">
	<path style="fill:#4DA9DC;" d="M176.708,208.435c0.893-2.258,1.816-4.333,2.772-6.364c0.241,0.286,0.472,0.579,0.719,0.876
		C178.999,204.62,177.826,206.415,176.708,208.435z"/>
	<path style="fill:#FFFFFF;" d="M176.708,208.435c0.893-2.258,1.816-4.333,2.772-6.364c0.241,0.286,0.472,0.579,0.719,0.876
		C178.999,204.62,177.826,206.415,176.708,208.435 M175.575,208.899c0.117,0.276,0.328,0.52,0.602,0.664
		c0.573,0.295,1.266,0.069,1.586-0.506c0.99-1.8,2.078-3.497,3.409-5.369c0.255-0.349,0.309-0.817,0.151-1.206
		c-0.051-0.121-0.108-0.244-0.207-0.35l-0.251-0.317c-0.154-0.18-0.312-0.382-0.478-0.565c-0.267-0.317-0.675-0.47-1.078-0.42
		c-0.401,0.066-0.743,0.331-0.917,0.699c-1.112,2.355-2.005,4.385-2.815,6.425C175.455,208.274,175.464,208.603,175.575,208.899
		L175.575,208.899z"/>
</g>
<g style="enable-background:new    ;">
	<path style="fill:#3B65A0;" d="M246.96,297.918c-2.185,0.299-4.265,0.494-6.289,0.645c0.098-0.346,0.215-0.664,0.323-1
		C242.876,297.777,244.847,297.914,246.96,297.918z"/>
	<path style="fill:#FFFFFF;" d="M240.671,298.563c0.098-0.346,0.215-0.664,0.323-1c1.882,0.215,3.853,0.352,5.966,0.355
		C244.775,298.217,242.695,298.412,240.671,298.563 M239.546,299.031c0.034,0.115,0.095,0.215,0.171,0.316
		c0.248,0.318,0.637,0.494,1.041,0.467c2.289-0.164,4.357-0.391,6.354-0.658c0.634-0.084,1.103-0.662,1.06-1.316
		c-0.017-0.143-0.044-0.271-0.083-0.389c-0.188-0.463-0.62-0.799-1.13-0.799c-1.855,0.012-3.7-0.094-5.829-0.328
		c-0.588-0.068-1.119,0.295-1.295,0.854c-0.047,0.143-0.09,0.281-0.137,0.424c-0.069,0.191-0.135,0.398-0.193,0.59
		C239.424,298.48,239.439,298.766,239.546,299.031L239.546,299.031z"/>
</g>
<g style="enable-background:new    ;">
	<path style="fill:#3D699F;" d="M197.009,281.854l-0.027-0.02c-0.845-1.098-1.661-2.254-2.436-3.43
		c-2.221-3.441-4.17-7.186-5.947-11.168c6.457-0.85,12.871-0.783,19.19-0.184c2.033,5.367,4.324,10.328,7.167,14.617
		c1.861,2.822,3.982,5.33,6.418,7.514c-6.932-1.332-14.044-2.734-21.313-3.699c-0.23-0.252-0.486-0.502-0.718-0.748
		C198.531,283.801,197.777,282.848,197.009,281.854z"/>
	<path style="fill:#FFFFFF;" d="M188.599,267.236c6.457-0.85,12.871-0.783,19.19-0.184c0.117,0.32,0.231,0.623,0.366,0.934
		c1.938,5.02,4.126,9.641,6.8,13.684c1.861,2.822,3.982,5.33,6.418,7.514c-6.932-1.332-14.044-2.734-21.313-3.699
		c-0.23-0.252-0.486-0.502-0.718-0.748c-0.812-0.936-1.565-1.889-2.333-2.883l-0.027-0.02c-0.845-1.098-1.661-2.254-2.436-3.43
		C192.325,274.963,190.376,271.219,188.599,267.236 M187.464,267.703c0.009,0.025,0.012,0.043,0.023,0.07
		c1.965,4.363,3.938,8.07,6.048,11.324c0.769,1.172,1.605,2.346,2.489,3.529c0.039,0.033,0.066,0.061,0.118,0.1
		c0.701,0.916,1.474,1.891,2.307,2.861c0.141,0.156,0.301,0.311,0.459,0.467l0.285,0.303c0.177,0.193,0.433,0.326,0.703,0.361
		c6.786,0.908,13.496,2.209,19.972,3.453l1.284,0.238c0.532,0.109,1.083-0.17,1.313-0.676c0.15-0.34,0.165-0.691,0.032-1.016
		c-0.066-0.18-0.176-0.354-0.317-0.482c-2.319-2.078-4.41-4.521-6.219-7.275c-2.372-3.582-4.566-7.986-6.691-13.436l-0.345-0.928
		c-0.013-0.002-0.008-0.01-0.008-0.01c-0.174-0.432-0.558-0.742-1.019-0.791c-7.045-0.658-13.416-0.6-19.464,0.191
		c-0.373,0.057-0.716,0.295-0.895,0.641C187.354,266.961,187.328,267.361,187.464,267.703L187.464,267.703z"/>
</g>
<g style="enable-background:new    ;">
	<path style="fill:#3D699F;" d="M211.645,294.115c-3.19-1.57-6.024-3.484-8.567-5.727c2.74,0.422,5.488,0.801,8.21,1.293
		L211.645,294.115z"/>
	<path style="fill:#FFFFFF;" d="M203.077,288.389c2.74,0.422,5.488,0.801,8.21,1.293l0.357,4.434
		C208.455,292.545,205.62,290.631,203.077,288.389 M201.942,288.848c0.07,0.191,0.191,0.367,0.343,0.49
		c2.685,2.354,5.652,4.344,8.842,5.904c0.394,0.199,0.859,0.146,1.208-0.1c0.363-0.26,0.561-0.697,0.523-1.145l-0.356-4.416
		c-0.02-0.137-0.043-0.248-0.084-0.367c-0.151-0.387-0.493-0.691-0.921-0.764c-2.074-0.379-4.186-0.689-6.234-1.008l-2.008-0.297
		c-0.542-0.082-1.065,0.213-1.288,0.721C201.823,288.189,201.83,288.547,201.942,288.848L201.942,288.848z"/>
</g>
<g style="enable-background:new    ;">
	<path style="fill:#91C4E0;" d="M116.964,279.631c-4.733-2.863-8.843-6.479-12.57-10.621l66.105-44.019
		c0.705,1.733,1.307,3.491,1.971,5.228c-0.528,3.198-0.687,6.482-0.417,9.904L116.964,279.631z"/>
	<path style="fill:#FFFFFF;" d="M104.395,269.01l66.105-44.019c0.123,0.316,0.242,0.62,0.367,0.924
		c0.556,1.442,1.05,2.878,1.604,4.303c-0.528,3.198-0.687,6.482-0.417,9.904l-55.09,39.508
		C112.231,276.768,108.121,273.152,104.395,269.01 M103.259,269.482c0.06,0.146,0.136,0.268,0.247,0.389
		c4.093,4.545,8.298,8.088,12.846,10.844c0.403,0.254,0.911,0.23,1.303-0.053l55.087-39.508c0.353-0.266,0.556-0.684,0.516-1.125
		c-0.245-3.225-0.105-6.452,0.414-9.598c0.031-0.233,0.012-0.455-0.071-0.662c-0.244-0.651-0.48-1.292-0.713-1.931
		c-0.291-0.784-0.589-1.591-0.893-2.381c-0.118-0.323-0.247-0.634-0.372-0.945c-0.147-0.346-0.421-0.604-0.769-0.719
		c-0.345-0.102-0.717-0.063-1.011,0.148l-66.112,44.02c-0.298,0.209-0.503,0.531-0.539,0.9
		C103.163,269.078,103.197,269.287,103.259,269.482L103.259,269.482z"/>
</g>
<g style="enable-background:new    ;">
	<path style="fill:#91C4E0;" d="M143.304,288.877c-78.223,34.865-77.415-73.833-102.687-99.594
		C85.057,199.973,80.077,289.199,143.304,288.877z"/>
	<path style="fill:#FFFFFF;" d="M40.617,189.283c44.44,10.689,39.46,99.916,102.687,99.594
		c-46.048,20.518-64.715-8.709-77.429-41.477c-4.729-12.178-8.64-24.863-12.823-35.649C49.379,202.27,45.476,194.246,40.617,189.283
		 M39.492,189.756c0.059,0.151,0.15,0.295,0.273,0.422c4.126,4.213,7.884,11.013,12.155,22.044
		c2.028,5.198,3.955,10.782,6.009,16.705c2.152,6.213,4.374,12.643,6.82,18.942c6.733,17.371,16.774,38.297,34.773,45.943
		c12.31,5.236,26.795,4.006,44.27-3.783c0.523-0.242,0.811-0.838,0.693-1.42c-0.007-0.064-0.028-0.135-0.047-0.213
		c-0.19-0.463-0.643-0.783-1.14-0.783c-34.678,0.186-48.386-27.115-61.636-53.522c-10.633-21.178-20.669-41.201-40.765-46.021
		c-0.535-0.131-1.083,0.122-1.35,0.613C39.36,189.019,39.358,189.404,39.492,189.756L39.492,189.756z"/>
</g>
<g style="enable-background:new    ;">
	<path style="fill:#6DB1D7;" d="M225.931,135.645c-1.625,6.237-3.965,11.996-6.781,17.437l-71.494-40.824
		c2.81-5.216,5.928-10.34,9.047-15.402L225.931,135.645z"/>
	<path style="fill:#FFFFFF;" d="M147.655,112.258c2.81-5.216,5.928-10.34,9.047-15.402l69.228,38.789
		c-1.625,6.237-3.965,11.996-6.781,17.437L147.655,112.258 M146.538,112.721c0.093,0.267,0.283,0.493,0.529,0.625l71.491,40.832
		c0.287,0.165,0.615,0.207,0.926,0.115c0.316-0.101,0.578-0.312,0.732-0.618c3.069-5.906,5.321-11.698,6.889-17.697
		c0.06-0.256,0.04-0.542-0.044-0.797c-0.116-0.266-0.305-0.487-0.552-0.626l-69.231-38.801c-0.549-0.341-1.272-0.14-1.604,0.421
		c-3.337,5.446-6.332,10.367-9.077,15.471c-0.163,0.29-0.197,0.621-0.114,0.949C146.499,112.641,146.51,112.68,146.538,112.721
		L146.538,112.721z"/>
</g>
<g style="enable-background:new    ;">
	<path style="fill:#6DB1D7;" d="M227.039,122.978c-20.43-35.066-55.624-34.281-66.002-33.197c5.289-8.677,10.165-17.18,13.301-25.77
		C235.572,87.611,227.039,122.978,227.039,122.978z"/>
	<path style="fill:#FFFFFF;" d="M161.037,89.78c5.289-8.677,10.165-17.18,13.301-25.77c33.008,12.717,45.738,28.866,50.482,41.042
		c4.027,10.409,2.219,17.926,2.219,17.926C206.609,87.912,171.415,88.697,161.037,89.78 M159.91,90.243
		c0.028,0.076,0.054,0.129,0.095,0.201c0.236,0.396,0.692,0.635,1.157,0.589c10.137-1.061,44.793-1.804,64.833,32.591
		c0.25,0.425,0.734,0.662,1.216,0.599c0.492-0.086,0.89-0.455,1.005-0.947c0.079-0.31,1.859-8.028-2.278-18.686
		c-4.587-11.822-17.185-28.659-51.176-41.753c-0.632-0.25-1.331,0.076-1.571,0.725c-2.93,8.054-7.385,16.044-13.181,25.55
		C159.81,89.459,159.76,89.867,159.91,90.243L159.91,90.243z"/>
</g>
<g style="enable-background:new    ;">
	<path style="fill:#4DA9DC;" d="M181,247.141c-0.448,2.668-0.653,5.387-0.417,8.213c0.036,0.932,0.157,1.9,0.33,2.863l0.013,0.033
		c0.472,3.143,1.47,6.393,2.92,9.789c-0.349,0.07-0.698,0.146-1.043,0.221c-2.732-4.154-4.928-8.139-6.593-11.928
		c-0.482-1.09-0.907-2.182-1.301-3.238c-0.008-0.025-0.008-0.025-0.008-0.025c-1.656-4.537-2.545-8.832-2.848-12.946l3.275-2.352
		c-0.897-2.531-1.889-5.029-2.858-7.552c0.234-1.425,0.542-2.833,0.914-4.225C176.228,233.057,178.626,240.208,181,247.141z"/>
	<path style="fill:#FFFFFF;" d="M175.342,254.219c-0.148-0.381-0.283-0.758-0.432-1.125c-0.008-0.025-0.008-0.025-0.008-0.025
		c-1.656-4.537-2.545-8.832-2.848-12.946l3.275-2.352c-0.897-2.531-1.889-5.029-2.858-7.552c0.234-1.425,0.542-2.833,0.914-4.225
		c0.299,0.736,0.588,1.48,0.887,2.224c2.46,6.342,4.602,12.725,6.729,18.923c-0.448,2.668-0.653,5.387-0.417,8.213
		c0.036,0.932,0.157,1.9,0.33,2.863l0.013,0.033c0.391,2.625,1.161,5.33,2.253,8.135c0.208,0.555,0.424,1.1,0.667,1.654
		c-0.349,0.07-0.698,0.146-1.043,0.221c-2.732-4.154-4.928-8.139-6.593-11.928C175.899,255.613,175.612,254.92,175.342,254.219
		 M174.211,254.684c0.28,0.721,0.569,1.447,0.885,2.15c1.68,3.842,3.933,7.928,6.704,12.129c0.274,0.414,0.779,0.627,1.252,0.52
		l0.225-0.047l0.807-0.168c0.351-0.08,0.665-0.313,0.835-0.65c0.164-0.314,0.184-0.707,0.053-1.049
		c-0.011-0.014-0.012-0.021-0.015-0.043c-0.234-0.531-0.451-1.07-0.666-1.6c-1.058-2.754-1.797-5.4-2.175-7.805
		c0.009-0.047-0.004-0.092-0.004-0.135c-0.183-0.977-0.295-1.879-0.326-2.736c-0.2-2.494-0.066-5.074,0.401-7.893
		c0.035-0.219,0.019-0.438-0.055-0.623l-0.682-2.039c-1.894-5.538-3.852-11.265-6.052-16.94c-0.296-0.751-0.595-1.499-0.894-2.246
		c-0.195-0.489-0.674-0.805-1.196-0.759c-0.521,0.023-0.953,0.389-1.098,0.904c-0.377,1.443-0.692,2.896-0.937,4.349
		c-0.041,0.239-0.019,0.465,0.063,0.673l0.784,2.001c0.566,1.521,1.174,3.074,1.739,4.607l-2.511,1.809
		c-0.344,0.252-0.543,0.684-0.508,1.127c0.325,4.461,1.284,8.813,2.94,13.315C173.927,253.92,174.056,254.305,174.211,254.684
		L174.211,254.684z"/>
</g>
<g style="enable-background:new    ;">
	<path style="fill:#6DB1D7;" d="M232.849,165.64c-0.622,1.954-1.334,3.854-2.095,5.702c-3.982-0.333-7.87-0.436-11.612-0.163
		c-1.381,0.118-2.765,0.279-4.1,0.48l-0.014,0.033c-1.22,0.173-2.409,0.375-3.597,0.647c-0.77,0.183-1.533,0.42-2.304,0.637
		c12.139-16.183,22.352-34.754,21.494-59.613c7.246,20.598,6.873,37.166,2.546,51.259c-2.04,0.153-4.138,0.357-6.351,0.667
		C228.963,165.275,230.931,165.424,232.849,165.64z"/>
	<path style="fill:#FFFFFF;" d="M209.127,172.977c12.139-16.183,22.352-34.754,21.494-59.613
		c7.246,20.598,6.873,37.166,2.546,51.259c-2.04,0.153-4.138,0.357-6.351,0.667c2.147-0.014,4.115,0.136,6.033,0.351
		c-0.622,1.954-1.334,3.854-2.095,5.702c-3.982-0.333-7.87-0.436-11.612-0.163c-1.381,0.118-2.765,0.279-4.1,0.48l-0.014,0.033
		c-1.22,0.173-2.409,0.375-3.597,0.647C210.661,172.522,209.897,172.76,209.127,172.977 M208.005,173.441
		c0.034,0.095,0.07,0.164,0.119,0.236c0.303,0.458,0.838,0.65,1.344,0.505l0.24-0.062c0.664-0.2,1.314-0.386,1.978-0.55
		c1.036-0.238,2.115-0.434,3.518-0.642c0.064-0.018,0.146-0.035,0.21-0.055c1.328-0.195,2.618-0.346,3.808-0.434
		c3.435-0.252,7.18-0.199,11.444,0.151c0.506,0.041,0.988-0.267,1.203-0.757c0.777-1.864,1.491-3.818,2.135-5.795
		c0.055-0.18,0.078-0.376,0.062-0.55c0.109-0.137,0.209-0.305,0.264-0.488c4.932-16.088,4.103-33.111-2.562-52.069
		c-0.006-0.01-0.016-0.018-0.014-0.034c-0.218-0.557-0.791-0.879-1.357-0.764c-0.583,0.119-1.012,0.661-0.988,1.269
		c0.88,25.679-10.246,44.14-21.243,58.818C207.91,172.568,207.847,173.039,208.005,173.441L208.005,173.441z"/>
</g>
<g style="enable-background:new    ;">
	<path style="fill:#6DB1D7;" d="M206.146,207.37c-0.559,0.682-1.152,1.344-1.731,2.012c-3.539,4.027-6.963,7.979-10.094,11.913
		c-0.593,0.735-1.121,1.455-1.679,2.181c-2.647-5.945-5.796-11.729-9.741-17.091c3.571-5.273,7.734-10.476,12.115-15.796
		c3.562-1.523,7.305-2.416,11.25-2.755c4.737-0.396,9.76-0.044,14.959,0.713c-4.292,6.207-9.104,11.942-13.879,17.444
		C206.953,206.452,206.561,206.929,206.146,207.37z"/>
	<path style="fill:#FFFFFF;" d="M182.901,206.385c3.571-5.273,7.734-10.476,12.115-15.796c3.562-1.523,7.305-2.416,11.25-2.755
		c4.737-0.396,9.76-0.044,14.959,0.713c-4.292,6.207-9.104,11.942-13.879,17.444c-0.393,0.462-0.786,0.938-1.2,1.38
		c-0.559,0.682-1.152,1.344-1.731,2.012c-3.539,4.027-6.963,7.979-10.094,11.913c-0.593,0.735-1.121,1.455-1.679,2.181
		C189.995,217.53,186.846,211.747,182.901,206.385 M181.771,206.848c0.048,0.112,0.096,0.208,0.165,0.3
		c3.571,4.859,6.717,10.375,9.595,16.855c0.184,0.405,0.543,0.669,0.967,0.72c0.418,0.064,0.838-0.119,1.098-0.461l0.452-0.61
		c0.4-0.518,0.795-1.042,1.223-1.564c3.228-4.07,6.87-8.253,10.039-11.863l0.486-0.542c0.439-0.511,0.875-0.997,1.24-1.445
		c0.412-0.459,0.836-0.941,1.22-1.408c4.652-5.371,9.568-11.212,13.965-17.565c0.238-0.339,0.293-0.804,0.143-1.192
		c-0.015-0.01-0.015-0.018-0.017-0.028c-0.17-0.404-0.527-0.687-0.949-0.749c-5.865-0.844-10.854-1.077-15.227-0.705
		c-4.068,0.337-7.981,1.285-11.617,2.826c-0.191,0.085-0.35,0.209-0.462,0.361c-3.922,4.774-8.42,10.331-12.182,15.896
		C181.654,206.019,181.625,206.471,181.771,206.848L181.771,206.848z"/>
</g>
<g style="enable-background:new    ;">
	<path style="fill:#4F9DCA;" d="M215.028,171.692l0.014-0.033c1.335-0.202,2.719-0.363,4.1-0.48c3.742-0.272,7.63-0.17,11.612,0.163
		c-2.568,6.164-5.833,11.863-9.529,17.205c-5.199-0.757-10.222-1.109-14.959-0.713c-3.945,0.339-7.688,1.232-11.25,2.755
		c4.655-5.668,9.518-11.473,14.11-17.612c0.771-0.217,1.534-0.455,2.304-0.637C212.619,172.067,213.808,171.865,215.028,171.692z"/>
	<path style="fill:#FFFFFF;" d="M195.017,190.589c4.655-5.668,9.518-11.473,14.11-17.612c0.771-0.217,1.534-0.455,2.304-0.637
		c1.188-0.272,2.377-0.474,3.597-0.647l0.014-0.033c1.335-0.202,2.719-0.363,4.1-0.48c3.742-0.272,7.63-0.17,11.612,0.163
		c-2.568,6.164-5.833,11.863-9.529,17.205c-5.199-0.757-10.222-1.109-14.959-0.713C202.321,188.173,198.578,189.066,195.017,190.589
		 M193.891,191.057c0.033,0.092,0.078,0.179,0.133,0.258c0.336,0.476,0.931,0.657,1.447,0.427c3.402-1.439,7.066-2.338,10.898-2.657
		c4.194-0.357,9.002-0.125,14.694,0.694c0.444,0.061,0.895-0.135,1.157-0.517c4.022-5.813,7.182-11.525,9.652-17.433
		c0.122-0.297,0.129-0.649,0.008-0.954c-0.026-0.063-0.051-0.125-0.083-0.186c-0.202-0.348-0.556-0.57-0.953-0.598
		c-4.385-0.362-8.233-0.414-11.786-0.156c-1.33,0.103-2.736,0.252-4.201,0.473c-0.069,0.018-0.135,0.038-0.218,0.059
		c-1.348,0.222-2.431,0.417-3.476,0.654c-0.72,0.17-1.42,0.363-2.139,0.578l-0.226,0.078c-0.25,0.063-0.466,0.219-0.634,0.439
		c-3.861,5.165-7.95,10.117-11.902,14.903l-2.173,2.654C193.787,190.12,193.714,190.625,193.891,191.057L193.891,191.057z"/>
</g>
<g style="enable-background:new    ;">
	<path style="fill:#4DA9DC;" d="M226.816,165.289c2.213-0.309,4.311-0.514,6.351-0.667c-0.094,0.345-0.205,0.685-0.318,1.018
		C230.931,165.424,228.963,165.275,226.816,165.289z"/>
	<path style="fill:#FFFFFF;" d="M226.816,165.289c2.213-0.309,4.311-0.514,6.351-0.667c-0.094,0.345-0.205,0.685-0.318,1.018
		C230.931,165.424,228.963,165.275,226.816,165.289 M225.697,165.741c0.175,0.466,0.625,0.797,1.126,0.786
		c1.845,0.002,3.72,0.111,5.894,0.359c0.578,0.058,1.109-0.295,1.276-0.843c0.127-0.35,0.225-0.691,0.337-1.038
		c0.087-0.281,0.076-0.584-0.028-0.847c-0.044-0.113-0.104-0.218-0.164-0.313c-0.26-0.328-0.647-0.499-1.057-0.474
		c-2.348,0.171-4.398,0.392-6.42,0.669c-0.634,0.078-1.09,0.657-1.051,1.32C225.626,165.497,225.651,165.638,225.697,165.741
		L225.697,165.741z"/>
</g>
<g style="enable-background:new    ;">
	<path style="fill:#5595C2;" d="M186.638,273.717c-1.401-1.855-2.65-3.672-3.834-5.457c0.345-0.074,0.694-0.15,1.043-0.221
		C184.64,269.889,185.534,271.768,186.638,273.717z"/>
	<path style="fill:#FFFFFF;" d="M182.804,268.26c0.345-0.074,0.694-0.15,1.043-0.221c0.793,1.85,1.687,3.729,2.791,5.678
		C185.237,271.861,183.988,270.045,182.804,268.26 M181.685,268.729c0.031,0.074,0.071,0.156,0.115,0.234
		c1.371,2.066,2.599,3.824,3.87,5.531c0.392,0.514,1.115,0.645,1.642,0.275c0.485-0.346,0.666-0.971,0.444-1.5
		c-0.014-0.07-0.043-0.123-0.075-0.189c-0.959-1.682-1.825-3.455-2.723-5.555c-0.229-0.533-0.785-0.832-1.345-0.721l-0.848,0.184
		l-0.205,0.047c-0.396,0.08-0.73,0.359-0.88,0.754C181.561,268.092,181.571,268.43,181.685,268.729L181.685,268.729z"/>
</g>
<g style="enable-background:new    ;">
	<path style="fill:#58A7D1;" d="M174.967,221.109l0.013-0.027c0.495-1.297,1.036-2.598,1.646-3.91
		c1.731-3.651,3.871-7.232,6.274-10.788c3.945,5.362,7.094,11.146,9.741,17.091c-3.406,4.455-6.364,8.936-8.497,13.539
		c-1.515,3.272-2.563,6.652-3.146,10.126c-2.374-6.932-4.772-14.083-7.615-21.147c0.11-0.441,0.218-0.902,0.349-1.35
		C174.109,223.447,174.527,222.306,174.967,221.109z"/>
	<path style="fill:#FFFFFF;" d="M181,247.141c-2.126-6.199-4.268-12.582-6.729-18.923c-0.299-0.747-0.588-1.487-0.887-2.224
		c0.11-0.441,0.218-0.902,0.349-1.35c0.376-1.196,0.793-2.338,1.234-3.534l0.013-0.027c0.495-1.297,1.036-2.598,1.646-3.91
		c1.731-3.651,3.871-7.232,6.274-10.788c3.945,5.362,7.094,11.146,9.741,17.091c-3.406,4.455-6.364,8.936-8.497,13.539
		C182.631,240.287,181.583,243.666,181,247.141 M179.871,247.613c0.199,0.506,0.693,0.826,1.224,0.777
		c0.552-0.041,1.007-0.479,1.095-1.033c0.564-3.334,1.588-6.628,3.055-9.797c1.901-4.114,4.554-8.348,8.352-13.298
		c0.269-0.354,0.329-0.824,0.169-1.249c-0.005-0.015-0.011-0.031-0.027-0.061c-2.958-6.644-6.191-12.313-9.868-17.318
		c-0.238-0.326-0.601-0.509-0.988-0.498c-0.392,0.013-0.757,0.206-0.974,0.537c-2.66,3.917-4.743,7.49-6.379,10.961
		c-0.563,1.226-1.125,2.522-1.689,3.992c-0.009,0.041-0.025,0.069-0.033,0.11c-0.479,1.28-0.873,2.385-1.226,3.545
		c-0.101,0.292-0.17,0.596-0.249,0.903l-0.119,0.482c-0.065,0.259-0.054,0.539,0.034,0.794c0.012,0.002,0.008,0.008,0.019,0.011
		c0.297,0.732,0.576,1.471,0.867,2.218c2.189,5.62,4.138,11.322,6.026,16.846l0.693,2.025
		C179.861,247.574,179.865,247.594,179.871,247.613L179.871,247.613z"/>
</g>
<g style="enable-background:new    ;">
	<path style="fill:#4DA9DC;" d="M172.054,240.123c-0.27-3.422-0.111-6.706,0.417-9.904c0.969,2.523,1.96,5.021,2.858,7.552
		L172.054,240.123z"/>
	<path style="fill:#FFFFFF;" d="M172.054,240.123c-0.27-3.422-0.111-6.706,0.417-9.904c0.969,2.523,1.96,5.021,2.858,7.552
		L172.054,240.123 M170.917,240.587c0.112,0.293,0.333,0.527,0.611,0.67c0.395,0.183,0.855,0.154,1.218-0.098l3.274-2.357
		c0.452-0.328,0.643-0.924,0.447-1.467c-0.663-1.862-1.396-3.759-2.1-5.581l-0.767-1.985c-0.004-0.015-0.004-0.015,0-0.016
		c-0.208-0.518-0.714-0.834-1.255-0.776c-0.54,0.059-0.98,0.478-1.071,1.027c-0.546,3.359-0.696,6.789-0.434,10.217
		C170.841,240.34,170.874,240.461,170.917,240.587L170.917,240.587z"/>
</g>
<g style="enable-background:new    ;">
	<path style="fill:#6DB1D7;" d="M198.111,178.217l-61.53-29.583c0.014-5.66,0.987-11.135,2.563-16.547l70.133,36.795
		c-1.341,1.845-2.724,3.675-4.122,5.482C202.745,175.368,200.402,176.667,198.111,178.217z"/>
	<path style="fill:#FFFFFF;" d="M136.582,148.634c0.014-5.66,0.987-11.135,2.563-16.547l70.133,36.795
		c-1.341,1.845-2.724,3.675-4.122,5.482c-2.412,1.002-4.754,2.301-7.045,3.852L136.582,148.634 M135.445,149.101
		c0.115,0.291,0.339,0.528,0.615,0.658l61.548,29.602c0.374,0.182,0.831,0.149,1.181-0.093c2.256-1.545,4.548-2.797,6.836-3.741
		c0.185-0.077,0.351-0.215,0.498-0.39c1.501-1.934,2.847-3.732,4.13-5.511c0.223-0.293,0.298-0.666,0.205-1.037
		c0-0.063-0.028-0.121-0.052-0.172c-0.104-0.283-0.313-0.516-0.578-0.654l-70.131-36.8c-0.317-0.165-0.698-0.169-1.025-0.032
		c-0.325,0.149-0.578,0.438-0.687,0.792c-1.75,5.956-2.6,11.488-2.621,16.908C135.353,148.787,135.391,148.938,135.445,149.101
		L135.445,149.101z"/>
</g>
<g style="enable-background:new    ;">
	<path style="fill:#4F9DCA;" d="M198.111,178.217c2.291-1.55,4.633-2.849,7.045-3.852c-1.363,1.756-2.749,3.513-4.149,5.253
		L198.111,178.217z"/>
	<path style="fill:#FFFFFF;" d="M198.111,178.217c2.291-1.55,4.633-2.849,7.045-3.852c-1.363,1.756-2.749,3.513-4.149,5.253
		L198.111,178.217 M196.997,178.689c0.106,0.287,0.321,0.527,0.611,0.671l2.88,1.386c0.504,0.25,1.1,0.1,1.449-0.328
		c1.407-1.742,2.803-3.508,4.182-5.273c0.279-0.36,0.341-0.836,0.18-1.254c-0.044-0.095-0.095-0.19-0.156-0.281
		c-0.333-0.457-0.924-0.634-1.431-0.416c-2.427,1.01-4.862,2.348-7.264,3.983c-0.366,0.248-0.576,0.687-0.541,1.137
		C196.915,178.438,196.939,178.565,196.997,178.689L196.997,178.689z"/>
</g>
<g style="enable-background:new    ;">
	<path style="fill:#6DB1D7;" d="M142.097,176.765c-68.569-52.209,22.915-106.158,31.777-141.627
		C187.284,80.131,110.021,120.551,142.097,176.765z"/>
	<path style="fill:#FFFFFF;" d="M119.567,149.493c-16.739-43.13,46.984-85.043,54.307-114.354
		c12.711,42.643-56.031,81.184-35.941,132.948c1.105,2.852,2.482,5.747,4.165,8.679
		C130.167,167.692,123.098,158.562,119.567,149.493 M118.439,149.947c0,0.002,0.001,0.016,0.001,0.016
		c3.8,9.751,11.505,19.11,22.926,27.806c0.466,0.362,1.11,0.33,1.536-0.077c0.374-0.355,0.501-0.913,0.319-1.393
		c-0.022-0.059-0.054-0.119-0.079-0.169c-1.617-2.814-2.989-5.678-4.086-8.506c-10.525-27.151,3.943-50.639,17.933-73.361
		c12.4-20.14,24.116-39.16,18.05-59.503c-0.008-0.022-0.022-0.062-0.039-0.085c-0.185-0.492-0.644-0.803-1.14-0.789
		c-0.558,0.012-1.021,0.391-1.159,0.937c-2.573,10.307-12.657,22.63-23.323,35.677C129.734,94.504,107.482,121.704,118.439,149.947
		L118.439,149.947z"/>
</g>
</svg>
