<?xml version="1.0" encoding="utf-8"?>
<!-- Generator: Adobe Illustrator 16.0.0, SVG Export Plug-In . SVG Version: 6.00 Build 0)  -->
<!DOCTYPE svg PUBLIC "-//W3C//DTD SVG 1.1//EN" "http://www.w3.org/Graphics/SVG/1.1/DTD/svg11.dtd">
<svg version="1.1" id="图层_1" xmlns="http://www.w3.org/2000/svg" xmlns:xlink="http://www.w3.org/1999/xlink" x="0px" y="0px"
	 width="841.89px" height="595.28px" viewBox="0 0 841.89 595.28" enable-background="new 0 0 841.89 595.28" xml:space="preserve">
<symbol  id="新建符号" viewBox="-8.284 -8.273 16.568 16.546">
	<g>
		<polyline fill="#363C43" points="7.958,2.36 8.273,-0.917 6.107,-0.676 7.958,2.36 		"/>
		<polyline fill="#040000" points="7.958,2.36 7.952,2.36 8.262,-0.911 6.119,-0.665 7.97,2.352 7.958,2.36 7.952,2.36 7.958,2.36 
			7.952,2.36 6.096,-0.682 8.284,-0.922 7.97,2.38 7.952,2.36 7.958,2.36 		"/>
		<polyline fill-rule="evenodd" clip-rule="evenodd" fill="#CCD7E0" points="6.491,5.205 7.958,2.36 4.796,3.839 6.491,5.205 		"/>
		<polyline fill-rule="evenodd" clip-rule="evenodd" fill="#3B6263" points="3.81,7.268 6.491,5.205 4.796,3.839 3.81,7.268 		"/>
		<polyline fill-rule="evenodd" clip-rule="evenodd" fill="#9AB5C5" points="0.911,8.273 3.81,7.268 0.67,6.116 0.911,8.273 		"/>
		<polyline fill-rule="evenodd" clip-rule="evenodd" fill="#FFFFFF" points="4.796,3.839 2.154,3.927 0.67,6.116 3.81,7.268 
			4.796,3.839 		"/>
		<polyline fill-rule="evenodd" clip-rule="evenodd" fill="#898E96" points="6.107,-0.676 4.297,1.249 4.796,3.839 7.958,2.36 
			6.107,-0.676 		"/>
		<polyline fill-rule="evenodd" clip-rule="evenodd" fill="#9AB5C5" points="2.154,3.927 4.796,3.839 4.297,1.249 2.154,3.927 		"/>
		<polyline fill-rule="evenodd" clip-rule="evenodd" fill="#9AB5C5" points="0.67,6.116 -1.249,4.306 2.154,3.927 0.67,6.116 		"/>
		<polyline fill-rule="evenodd" clip-rule="evenodd" fill="#363C43" points="2.349,-7.964 -0.917,-8.273 -0.676,-6.107 
			2.349,-7.964 		"/>
		<polyline fill-rule="evenodd" clip-rule="evenodd" fill="#CCD7E0" points="5.202,-6.497 2.349,-7.964 3.839,-4.807 5.202,-6.497 
					"/>
		<polyline fill-rule="evenodd" clip-rule="evenodd" fill="#363C43" points="7.265,-3.818 5.202,-6.497 3.839,-4.807 7.265,-3.818 
					"/>
		<polyline fill-rule="evenodd" clip-rule="evenodd" fill="#FFFFFF" points="8.273,-0.917 7.265,-3.818 6.107,-0.676 8.273,-0.917 
					"/>
		<polyline fill-rule="evenodd" clip-rule="evenodd" fill="#7B8F9B" points="3.839,-4.807 3.919,-2.16 6.107,-0.676 7.265,-3.818 
			3.839,-4.807 		"/>
		<polyline fill-rule="evenodd" clip-rule="evenodd" fill="#FFFFFF" points="-0.676,-6.107 1.243,-4.3 3.839,-4.807 2.349,-7.964 
			-0.676,-6.107 		"/>
		<polyline fill-rule="evenodd" clip-rule="evenodd" fill="#363C43" points="3.919,-2.16 3.839,-4.807 1.243,-4.3 3.919,-2.16 		"/>
		<polyline fill-rule="evenodd" clip-rule="evenodd" fill="#9AB5C5" points="6.107,-0.676 4.297,1.249 3.919,-2.16 6.107,-0.676 		
			"/>
		<polyline fill-rule="evenodd" clip-rule="evenodd" fill="#3B6263" points="-7.976,-2.357 -8.284,0.919 -6.119,0.676 
			-7.976,-2.357 		"/>
		<polyline fill-rule="evenodd" clip-rule="evenodd" fill="#9AB5C5" points="-6.503,-5.202 -7.976,-2.357 -4.807,-3.847 
			-6.503,-5.202 		"/>
		<polyline fill-rule="evenodd" clip-rule="evenodd" fill="#7B8F9B" points="-3.821,-7.265 -6.503,-5.202 -4.807,-3.847 
			-3.821,-7.265 		"/>
		<polyline fill-rule="evenodd" clip-rule="evenodd" fill="#CCD7E0" points="-0.917,-8.273 -3.821,-7.265 -0.676,-6.113 
			-0.917,-8.273 		"/>
		<polyline fill-rule="evenodd" clip-rule="evenodd" fill="#363C43" points="-4.807,-3.847 -2.16,-3.925 -0.676,-6.113 
			-3.821,-7.265 -4.807,-3.847 		"/>
		<polyline fill-rule="evenodd" clip-rule="evenodd" fill="#FFFFFF" points="-6.119,0.676 -4.303,-1.252 -4.807,-3.847 
			-7.976,-2.357 -6.119,0.676 		"/>
		<polyline fill-rule="evenodd" clip-rule="evenodd" fill="#62728B" points="-2.16,-3.925 -4.807,-3.847 -4.303,-1.252 
			-2.16,-3.925 		"/>
		<polyline fill-rule="evenodd" clip-rule="evenodd" fill="#9AB5C5" points="-0.676,-6.113 1.243,-4.3 -2.16,-3.925 -0.676,-6.113 
					"/>
		<polyline fill-rule="evenodd" clip-rule="evenodd" fill="#62728B" points="-2.36,7.969 0.911,8.273 0.67,6.116 -2.36,7.969 		"/>
		<polyline fill-rule="evenodd" clip-rule="evenodd" fill="#9AB5C5" points="-5.208,6.5 -2.36,7.969 -3.85,4.798 -5.208,6.5 		"/>
		<polyline fill-rule="evenodd" clip-rule="evenodd" fill="#FFFFFF" points="-7.271,3.816 -5.208,6.5 -3.85,4.798 -7.271,3.816 		
			"/>
		<polyline fill-rule="evenodd" clip-rule="evenodd" fill="#9AB5C5" points="-8.284,0.914 -7.271,3.816 -6.119,0.676 -8.284,0.914 
					"/>
		<polyline fill-rule="evenodd" clip-rule="evenodd" fill="#7B8F9B" points="-3.85,4.798 -3.925,2.166 -6.119,0.676 -7.271,3.816 
			-3.85,4.798 		"/>
		<polyline fill-rule="evenodd" clip-rule="evenodd" fill="#FFFFFF" points="0.67,6.116 -1.249,4.306 -3.85,4.798 -2.36,7.969 
			0.67,6.116 		"/>
		<polyline fill-rule="evenodd" clip-rule="evenodd" fill="#62728B" points="-3.925,2.166 -3.85,4.798 -1.249,4.306 -3.925,2.166 		
			"/>
		<polyline fill-rule="evenodd" clip-rule="evenodd" fill="#9AB5C5" points="-6.119,0.676 -4.303,-1.252 -3.925,2.166 -6.119,0.676 
					"/>
		<polyline fill-rule="evenodd" clip-rule="evenodd" fill="#FFFFFF" points="1.243,-4.3 -2.16,-3.925 -4.303,-1.252 -3.925,2.166 
			-1.249,4.306 2.154,3.927 4.297,1.249 3.919,-2.16 1.243,-4.3 		"/>
		<polyline fill="#FFFFFF" points="-1.249,4.306 0.452,4.119 0.67,6.116 -1.249,4.306 		"/>
		<polyline fill="#FFFFFF" points="-0.034,6.543 0.67,6.116 0.911,8.273 0.911,8.273 -0.034,6.543 		"/>
		<polyline fill="#FFFFFF" points="-1.249,4.306 -1.249,4.306 0.67,6.116 0.67,6.116 -0.034,6.543 -1.249,4.306 		"/>
		<polyline fill="#FFFFFF" points="-1.249,4.306 0,0 0.452,4.119 -1.249,4.306 		"/>
		<polyline fill="#B0D4E4" points="0.67,6.116 1.443,6.399 0.911,8.273 0.67,6.116 		"/>
		<polyline fill="#FFFFFF" points="0.67,6.116 2.154,3.927 1.443,6.399 0.67,6.116 0.67,6.116 		"/>
		<polyline fill="#B0D4E4" points="0.67,6.116 0.67,6.116 0.67,6.116 0.67,6.116 0.452,4.119 2.154,3.927 2.154,3.927 0.67,6.116 
			0.67,6.116 0.67,6.116 		"/>
		<polyline fill="#85ADCA" points="0.911,8.273 0.67,6.116 0.67,6.116 0.67,6.116 0.67,6.116 0.911,8.273 0.911,8.273 0.911,8.273 
					"/>
		<polyline fill="#FFFFFF" points="0.67,6.116 0.67,6.116 0.67,6.116 0.67,6.116 		"/>
		<polyline fill="#FFFFFF" points="0.452,4.119 0,0 2.154,3.927 0.452,4.119 		"/>
		<polyline fill="#5F6D75" points="6.491,5.205 6.491,5.205 6.491,5.205 6.491,5.205 		"/>
		<polyline fill="#98B7CB" points="6.383,5.113 6.491,5.205 6.491,5.205 6.491,5.205 6.383,5.113 		"/>
		<polyline fill="#2D545B" points="4.566,4.632 4.796,3.844 6.383,5.113 6.491,5.205 4.566,4.632 		"/>
		<polyline fill="#BDD8E7" points="2.154,3.927 2.154,3.927 4.796,3.839 4.796,3.844 4.566,4.632 2.154,3.927 		"/>
		<polyline fill="#729AB3" points="2.154,3.927 3.226,2.584 4.796,3.839 2.154,3.927 		"/>
		<polyline fill="#BDD8E7" points="0,0 0,0 3.226,2.584 2.154,3.927 2.154,3.927 0,0 		"/>
		<polyline fill="#9AB5C5" points="6.491,5.205 6.491,5.205 6.491,5.205 		"/>
		<polyline fill="#D7E9F1" points="4.796,3.839 5.54,3.495 6.491,5.205 6.491,5.205 6.383,5.113 4.796,3.839 		"/>
		<polyline fill="#67A3B7" points="4.796,3.844 4.796,3.839 6.383,5.113 4.796,3.844 		"/>
		<polyline fill="#FFFFFF" points="4.796,3.839 4.796,3.839 4.796,3.844 4.796,3.839 		"/>
		<polyline fill="#A3BECF" points="4.303,1.255 4.303,1.255 5.54,3.495 4.796,3.839 4.303,1.255 		"/>
		<polyline fill="#B0D4E4" points="3.226,2.584 4.303,1.255 4.303,1.255 4.796,3.839 4.796,3.839 3.226,2.584 		"/>
		<polyline fill="#FFFFFF" points="0,0 4.303,1.255 3.226,2.584 0,0 		"/>
		<polyline fill="#FFFFFF" points="6.119,-0.665 8.25,-0.908 6.543,0.023 6.119,-0.665 		"/>
		<polyline fill="#FFFFFF" points="6.107,-0.67 6.107,-0.676 6.107,-0.676 6.107,-0.676 6.107,-0.676 6.107,-0.676 7.586,-0.839 
			8.273,-0.917 8.25,-0.908 6.119,-0.665 6.543,0.023 6.537,0.029 6.107,-0.67 		"/>
		<polyline fill="#FFFFFF" points="4.297,1.249 4.297,1.249 6.107,-0.67 6.537,0.029 4.303,1.255 4.297,1.249 		"/>
		<polyline fill="#FFFFFF" points="4.303,1.255 4.297,1.249 4.303,1.255 4.303,1.255 		"/>
		<polyline fill="#FFFFFF" points="6.107,-0.676 6.107,-0.676 7.586,-0.839 6.107,-0.676 		"/>
		<polyline fill="#FFFFFF" points="6.107,-0.676 6.107,-0.676 6.107,-0.676 6.107,-0.676 		"/>
		<polyline fill="#FFFFFF" points="4.297,1.249 4.107,-0.456 6.107,-0.676 6.107,-0.676 6.107,-0.67 4.297,1.249 		"/>
		<polyline fill="#FFFFFF" points="0,0 0,0 4.107,-0.456 4.297,1.249 4.303,1.255 0,0 		"/>
		<polyline fill="#040000" points="7.586,-0.839 8.273,-0.917 8.273,-0.917 7.586,-0.839 		"/>
		<polyline fill="#6D7884" points="6.107,-0.676 6.388,-1.45 8.273,-0.917 7.586,-0.839 6.107,-0.676 		"/>
		<polyline fill="#344452" points="3.919,-2.16 6.388,-1.45 6.107,-0.676 6.107,-0.676 3.919,-2.16 		"/>
		<polyline fill="#415768" points="4.107,-0.456 3.919,-2.16 3.919,-2.16 6.107,-0.676 4.107,-0.456 		"/>
		<polyline fill="#6D7884" points="0,0 0,0 3.919,-2.16 4.107,-0.456 0,0 		"/>
		<polyline fill="#475464" points="3.839,-4.807 5.202,-6.497 4.635,-4.572 3.839,-4.807 		"/>
		<polyline fill="#859DAC" points="3.919,-2.16 3.839,-4.801 3.839,-4.807 4.635,-4.572 3.919,-2.16 3.919,-2.16 		"/>
		<polyline fill="#475464" points="2.584,-3.223 3.839,-4.801 3.919,-2.16 2.584,-3.223 		"/>
		<polyline fill="#A3BECF" points="3.919,-2.16 3.919,-2.16 3.919,-2.16 3.919,-2.16 3.919,-2.16 		"/>
		<polyline fill="#FFFFFF" points="0,0 2.584,-3.223 3.919,-2.16 3.919,-2.16 0,0 		"/>
		<polyline fill="#60A4AC" points="3.495,-5.549 5.202,-6.497 3.839,-4.807 3.495,-5.549 		"/>
		<polyline fill="#182E34" points="3.839,-4.807 3.839,-4.807 5.202,-6.497 3.839,-4.807 3.839,-4.807 		"/>
		<polyline fill="#3A6F7A" points="3.839,-4.801 3.839,-4.807 3.839,-4.807 3.839,-4.801 		"/>
		<polyline fill="#77C0C1" points="1.243,-4.3 3.495,-5.549 3.839,-4.807 1.243,-4.3 		"/>
		<polyline fill="#182E34" points="1.243,-4.3 1.243,-4.3 3.839,-4.807 3.839,-4.801 2.584,-3.223 1.243,-4.3 		"/>
		<polyline fill="#77C0C1" points="0,0 0,0 1.243,-4.3 1.243,-4.3 2.584,-3.223 0,0 		"/>
		<polyline fill="#AFC3D2" points="-0.917,-8.273 -0.917,-8.273 0.022,-6.546 -0.676,-6.107 -0.676,-6.113 -0.676,-6.113 
			-0.676,-6.113 -0.882,-7.901 -0.917,-8.273 		"/>
		<polyline fill="#FFFFFF" points="-0.676,-6.107 0.022,-6.546 1.243,-4.3 -0.676,-6.107 		"/>
		<polyline fill="#EBF3F8" points="-0.882,-7.901 -0.676,-6.113 -0.676,-6.113 -0.682,-6.113 -0.882,-7.901 		"/>
		<polyline fill="#AFC3D2" points="-0.682,-6.113 -0.676,-6.113 -0.676,-6.113 -0.682,-6.107 -0.682,-6.113 		"/>
		<polyline fill="#D7E9F1" points="-0.682,-6.107 -0.676,-6.113 -0.676,-6.107 1.243,-4.3 1.243,-4.3 -0.458,-4.114 -0.682,-6.107 
					"/>
		<polyline fill="#FFFFFF" points="-0.458,-4.114 1.243,-4.3 0,0 -0.458,-4.114 		"/>
		<polyline fill="#D7E9F1" points="-1.455,-6.397 -0.917,-8.273 -0.882,-7.901 -0.682,-6.113 -1.455,-6.397 		"/>
		<polyline fill="#6290AA" points="-2.16,-3.925 -1.455,-6.397 -0.682,-6.113 -0.682,-6.107 -2.16,-3.925 		"/>
		<polyline fill="#B0D4E4" points="-2.16,-3.925 -2.16,-3.925 -2.16,-3.925 -0.682,-6.107 -0.458,-4.114 -2.16,-3.925 		"/>
		<polyline fill="#FFFFFF" points="-2.16,-3.925 -2.16,-3.925 -0.458,-4.114 0,0 -2.16,-3.925 		"/>
		<polyline fill="#344452" points="-6.503,-5.202 -6.503,-5.202 -4.578,-4.641 -4.807,-3.85 -6.503,-5.202 		"/>
		<polyline fill="#161C22" points="-4.807,-3.85 -4.578,-4.641 -2.16,-3.925 -2.16,-3.925 -4.807,-3.847 -4.807,-3.85 		"/>
		<polyline fill="#2A3649" points="-4.807,-3.847 -2.16,-3.925 -3.237,-2.59 -4.807,-3.847 		"/>
		<polyline fill="#415768" points="-2.16,-3.925 -2.16,-3.925 -2.16,-3.925 -2.16,-3.925 -2.16,-3.925 		"/>
		<polyline fill="#6D7884" points="-3.237,-2.59 -2.16,-3.925 -2.16,-3.925 0,0 -3.237,-2.59 		"/>
		<polyline fill="#96BFD1" points="-6.503,-5.202 -4.807,-3.847 -5.552,-3.495 -6.503,-5.202 		"/>
		<polyline fill="#779DB0" points="-6.503,-5.202 -6.503,-5.202 -4.807,-3.85 -4.807,-3.847 -6.503,-5.202 -6.503,-5.202 		"/>
		<polyline fill="#34586D" points="-4.807,-3.847 -4.807,-3.847 -4.807,-3.85 -4.807,-3.847 -4.807,-3.847 		"/>
		<polyline fill="#FBFDFE" points="-5.552,-3.495 -4.807,-3.847 -4.303,-1.252 -5.552,-3.495 		"/>
		<polyline fill="#6085A4" points="-4.807,-3.847 -4.807,-3.847 -4.807,-3.847 -3.237,-2.59 -4.303,-1.252 -4.303,-1.252 
			-4.807,-3.847 		"/>
		<polyline fill="#FBFDFE" points="-4.303,-1.252 -3.237,-2.59 0,0 -4.303,-1.252 -4.303,-1.252 		"/>
		<polyline fill="#67A3B7" points="-8.279,0.914 -6.549,-0.026 -6.119,0.676 -6.119,0.676 -8.279,0.914 		"/>
		<polyline fill="#FFFFFF" points="-6.549,-0.026 -4.303,-1.252 -6.119,0.676 -6.549,-0.026 		"/>
		<polyline fill="#B0D4E4" points="-8.284,0.919 -8.279,0.914 -6.119,0.676 -6.119,0.682 -8.284,0.919 		"/>
		<polyline fill="#99BFD1" points="-6.119,0.682 -6.119,0.676 -6.119,0.682 -6.119,0.682 		"/>
		<polyline fill="#B0D4E4" points="-6.119,0.676 -6.119,0.676 -6.119,0.676 -4.303,-1.252 -4.303,-1.252 -4.119,0.461 -6.119,0.682 
			-6.119,0.676 		"/>
		<polyline fill="#FFFFFF" points="-4.119,0.461 -4.303,-1.252 -4.303,-1.252 0,0 -4.119,0.461 		"/>
		<polyline fill="#FFFFFF" points="-8.284,0.919 -8.284,0.919 -6.119,0.682 -6.405,1.452 -8.284,0.919 		"/>
		<polyline fill="#FFFFFF" points="-6.405,1.452 -6.119,0.682 -6.119,0.682 -3.931,2.16 -6.405,1.452 		"/>
		<polyline fill="#FFFFFF" points="-6.119,0.682 -4.119,0.461 -3.925,2.16 -3.931,2.16 -6.119,0.682 		"/>
		<path fill="#FFFFFF" d="M0,0L0,0 M-3.925,2.16l-0.194-1.699L0,0L-3.925,2.16L-3.925,2.16"/>
		<path fill="#FBFDFE" d="M-5.208,6.5l0.567-1.928l0.791,0.227L-5.208,6.5 M-5.208,6.5L-5.208,6.5"/>
		<polyline fill="#779DB0" points="-4.641,4.572 -3.925,2.166 -3.85,4.795 -3.85,4.798 -4.641,4.572 		"/>
		<polyline fill="#6085A4" points="-3.85,4.795 -3.925,2.166 -3.925,2.166 -2.596,3.229 -3.85,4.795 		"/>
		<path fill="#FBFDFE" d="M0,0L0,0 M-3.925,2.166V2.16L0,0l-2.596,3.229L-3.925,2.166"/>
		<polyline fill="#498C9A" points="-5.208,6.5 -3.85,4.798 -3.501,5.546 -5.208,6.5 		"/>
		<polyline fill="#77C0C1" points="-5.208,6.5 -5.208,6.5 -3.85,4.798 -3.85,4.798 -5.208,6.5 		"/>
		<polyline fill="#3A6F7A" points="-3.85,4.798 -3.85,4.795 -3.85,4.798 -3.85,4.798 		"/>
		<polyline fill="#77C0C1" points="-3.85,4.798 -3.85,4.798 -1.249,4.306 -3.501,5.546 -3.85,4.798 		"/>
		<polyline fill="#2E586D" points="-3.85,4.798 -3.85,4.798 -3.85,4.795 -2.596,3.229 -1.249,4.306 -3.85,4.798 		"/>
		<polyline fill="#77C0C1" points="-2.596,3.229 0,0 -1.249,4.306 -2.596,3.229 		"/>
	</g>
</symbol>
<symbol  id="新建符号_1" viewBox="-65.446 -115.952 130.892 231.904">
	<polygon fill="#FFFFFF" points="17.563,-37.619 17.646,-37.482 65.446,-61.422 18.754,-36.554 42.677,-27.872 19.126,-34.505 
		42.669,12.677 16.22,-33.681 9.121,-10.094 15.626,-34.702 15.543,-34.838 -31.427,-10.099 14.432,-35.765 -8.657,-43.65 
		14.06,-37.818 -8.654,-84.198 16.966,-38.638 24.899,-61.427 	"/>
	<polygon fill="#FFFFFF" points="14.626,81.172 14.683,81.267 47.736,64.713 15.449,81.909 31.991,87.913 15.706,83.326 
		31.986,115.952 13.697,83.895 8.788,100.206 13.286,83.19 13.229,83.095 -19.25,100.202 12.461,82.455 -3.505,77.002 
		12.204,81.036 -3.503,48.963 14.213,80.467 19.698,64.709 	"/>
	<polygon fill="#FFFFFF" points="-41.076,57.037 -41.035,57.104 -17.254,45.195 -40.483,57.566 -28.583,61.885 -40.297,58.584 
		-28.585,82.057 -41.743,58.995 -45.275,70.729 -42.04,58.487 -42.081,58.419 -65.446,70.727 -42.632,57.958 -54.119,54.036 
		-42.818,56.938 -54.118,33.865 -41.372,56.53 -37.425,45.192 	"/>
	<polygon fill="#FFFFFF" points="-41.076,-92.78 -41.035,-92.713 -17.254,-104.622 -40.483,-92.251 -28.583,-87.932 
		-40.297,-91.232 -28.585,-67.76 -41.743,-90.822 -45.275,-79.088 -42.04,-91.33 -42.081,-91.397 -65.446,-79.09 -42.632,-91.858 
		-54.119,-95.781 -42.818,-92.879 -54.118,-115.952 -41.372,-93.287 -37.425,-104.625 	"/>
</symbol>
<g id="新建符号_9">
	<g id="新建符号_7">
		<g id="新建符号_12">
			<g id="新建符号_11">
			</g>
		</g>
	</g>
</g>
<g id="新建符号_11_1_">
	<g id="新建符号_7_1_">
		<g id="新建符号_3">
		</g>
	</g>
	<path fill="#FFFFFF" enable-background="new    " d="M443.883,199.655c0.906,0,1.825,0.016,2.756,0.048
		c0.473,2.514,1.029,4.997,1.652,7.438c-3.733-0.194-7.539-0.272-11.409-0.272c-7.046,0-14.301,0.263-21.702,0.567
		c3.535-2.178,7.294-4.023,11.457-5.303c1.355-0.474,2.808-0.845,4.286-1.136l0.044-0.013
		C434.948,200.08,439.251,199.655,443.883,199.655 M443.883,197.73c-4.825,0-9.313,0.461-13.341,1.376
		c-1.663,0.331-3.194,0.737-4.544,1.211c-3.916,1.202-7.811,3.003-11.828,5.479c-0.746,0.46-1.086,1.363-0.83,2.201
		c0.248,0.812,0.996,1.364,1.84,1.364c0.026,0,0.052,0,0.079-0.003c6.636-0.273,14.326-0.564,21.623-0.564
		c4.109,0,7.81,0.089,11.313,0.272c0.033,0,0.064,0,0.097,0c0.576,0,1.124-0.256,1.492-0.703c0.388-0.473,0.525-1.105,0.374-1.697
		c-0.628-2.463-1.179-4.924-1.628-7.318c-0.165-0.884-0.922-1.538-1.826-1.566C445.753,197.746,444.812,197.73,443.883,197.73
		L443.883,197.73z"/>
	<path fill="#FFFFFF" enable-background="new    " d="M351.721,231.468c2.159,0.742,4.318,1.417,6.499,2.015
		c-5.417,8.256-10.384,17.362-15.396,26.818c0.038-3.487,0.309-6.997,1.123-10.558c0.282-1.417,0.685-2.854,1.163-4.278l0.018-0.04
		C346.557,240.846,348.785,236.206,351.721,231.468 M351.721,229.543c-0.652,0-1.278,0.333-1.635,0.914
		c-3.097,4.994-5.31,9.673-6.767,14.299c-0.013,0.035-0.026,0.069-0.036,0.098c-0.542,1.622-0.945,3.098-1.225,4.512
		c-0.742,3.244-1.114,6.728-1.159,10.913c-0.009,0.888,0.59,1.667,1.451,1.887c0.158,0.041,0.315,0.06,0.473,0.06
		c0.701,0,1.361-0.383,1.701-1.023c4.455-8.404,9.678-18.086,15.304-26.661c0.338-0.517,0.41-1.162,0.192-1.737
		c-0.218-0.576-0.697-1.013-1.292-1.176c-2.054-0.562-4.142-1.208-6.384-1.979C352.14,229.578,351.929,229.543,351.721,229.543
		L351.721,229.543z"/>
	<path fill="#FFFFFF" enable-background="new    " d="M510.594,333.824c0.225,4.455-0.063,8.951-1.079,13.526
		c-0.286,1.413-0.678,2.86-1.153,4.282l-0.007,0.045c-1.45,4.687-3.714,9.445-6.737,14.309c-2.457-0.88-4.929-1.651-7.406-2.345
		C499.961,354.452,505.216,344.306,510.594,333.824 M510.594,331.899c-0.711,0-1.378,0.394-1.713,1.047
		c-5.851,11.401-10.765,20.828-16.299,29.674c-0.322,0.514-0.382,1.152-0.165,1.715c0.22,0.565,0.692,0.997,1.278,1.158
		c2.59,0.726,4.969,1.479,7.273,2.305c0.21,0.076,0.433,0.111,0.648,0.111c0.65,0,1.275-0.331,1.634-0.907
		c3.139-5.044,5.472-10.006,6.941-14.756c0.016-0.046,0.026-0.091,0.038-0.139c0.486-1.462,0.88-2.933,1.171-4.376
		c0.996-4.484,1.363-9.075,1.114-14.006c-0.045-0.867-0.667-1.601-1.519-1.783C510.863,331.914,510.727,331.899,510.594,331.899
		L510.594,331.899z"/>
	<path fill="#FFFFFF" enable-background="new    " d="M336.422,323.823c5.076,10.229,11.462,20.51,18.118,31.1
		c-4.57-2.149-8.857-4.903-12.76-8.49c-1.078-0.945-2.136-2.022-3.132-3.143l-0.024-0.025c-3.362-3.622-6.377-7.995-9.096-13.099
		C331.934,328.128,334.232,326.015,336.422,323.823 M336.422,321.9c-0.509,0-0.999,0.198-1.361,0.562
		c-2.128,2.13-4.407,4.228-6.777,6.237c-0.692,0.585-0.88,1.571-0.456,2.374c2.822,5.291,5.981,9.836,9.386,13.504
		c1.087,1.225,2.198,2.337,3.295,3.3c3.843,3.535,8.175,6.418,13.211,8.788c0.263,0.122,0.541,0.181,0.819,0.181
		c0.538,0,1.068-0.226,1.442-0.648c0.565-0.642,0.643-1.576,0.188-2.3c-6.95-11.055-13.103-21.015-18.025-30.928
		c-0.274-0.558-0.801-0.946-1.413-1.047C336.628,321.909,336.525,321.9,336.422,321.9L336.422,321.9z"/>
	<path fill="#FFFFFF" enable-background="new    " d="M459.323,235.462c5.563,10.884,12.153,21.119,18.734,30.945
		c0.519,0.794,1.04,1.604,1.59,2.365c0.723,1.16,1.505,2.305,2.298,3.437c4.674,6.908,9.202,13.674,13.268,20.332
		c0.692,1.118,1.316,2.233,1.972,3.349c-6.979,10.729-12.771,22.09-18.141,33.232c-0.42,0.857-0.847,1.724-1.23,2.566
		c-0.628,1.221-1.213,2.476-1.8,3.734c-3.586,7.536-7.126,14.885-10.8,21.743c-0.321,0.61-0.663,1.174-0.99,1.772
		c-3.737-0.2-7.469-0.286-11.188-0.286c-8.575,0-17.083,0.46-25.414,1.016c-0.958,0.044-1.915,0.103-2.851,0.193
		c-1.376,0.045-2.753,0.152-4.129,0.254c-8.317,0.619-16.448,1.148-24.248,1.331c-0.979,0.027-1.932,0.01-2.902,0.027
		c-5.478-10.775-11.951-20.912-18.421-30.655c-0.52-0.805-1.052-1.599-1.573-2.371c-0.739-1.157-1.517-2.304-2.303-3.442
		c-4.646-6.933-9.159-13.72-13.18-20.387c-0.938-1.539-1.804-3.067-2.686-4.601c6.322-9.857,11.673-20.209,16.707-30.365
		c0.438-0.842,0.871-1.7,1.261-2.548c0.65-1.21,1.235-2.466,1.843-3.703c3.666-7.503,7.283-14.796,11.045-21.629
		c0.694-1.273,1.414-2.482,2.125-3.722c3.5,0.174,6.996,0.25,10.479,0.25c8.58,0,17.09-0.457,25.419-1.015
		c0.965-0.057,1.92-0.11,2.842-0.187c1.377-0.06,2.755-0.172,4.134-0.286c8.316-0.599,16.451-1.128,24.238-1.318
		C456.745,235.456,458.028,235.472,459.323,235.462 M459.323,233.538c-0.005,0-0.01,0-0.018,0l-1.309,0.004
		c-0.868,0-1.74,0.002-2.627,0.027c-7.477,0.18-15.134,0.661-24.324,1.325c-1.384,0.11-2.73,0.222-4.079,0.282
		c-0.887,0.073-1.724,0.119-2.569,0.168l-0.302,0.019c-7.492,0.5-16.341,1.012-25.306,1.012c-3.597,0-7.09-0.083-10.383-0.249
		c-0.033-0.002-0.064-0.002-0.096-0.002c-0.685,0-1.323,0.366-1.668,0.964l-0.582,1.005c-0.528,0.909-1.055,1.816-1.565,2.758
		c-3.937,7.146-7.786,14.952-11.084,21.706l-0.505,1.034c-0.424,0.871-0.847,1.749-1.306,2.6c-0.43,0.93-0.848,1.759-1.271,2.574
		c-4.878,9.838-10.253,20.282-16.62,30.213c-0.387,0.605-0.406,1.375-0.048,1.997l0.404,0.706c0.753,1.311,1.504,2.62,2.307,3.938
		c4.008,6.643,8.542,13.468,13.224,20.456c0.788,1.141,1.552,2.269,2.28,3.405c0.542,0.804,1.066,1.589,1.578,2.383
		c6.263,9.43,12.804,19.631,18.323,30.48c0.329,0.646,0.992,1.054,1.715,1.054c0.01,0,0.019,0,0.031,0l1.192-0.012
		c0.573,0,1.147-0.002,1.732-0.017c8.107-0.188,16.489-0.751,24.337-1.334l0.42-0.031c1.208-0.089,2.418-0.179,3.626-0.217
		c1.036-0.1,1.957-0.154,2.882-0.198c7.51-0.499,16.358-1.012,25.323-1.012c3.904,0,7.531,0.093,11.086,0.288
		c0.034,0,0.07,0,0.103,0c0.704,0,1.354-0.385,1.692-1.007l0.426-0.763c0.193-0.336,0.388-0.676,0.574-1.029
		c3.769-7.042,7.423-14.64,10.838-21.816c0.583-1.256,1.154-2.485,1.768-3.681c0.365-0.794,0.721-1.52,1.075-2.239l0.176-0.36
		c4.895-10.156,10.858-22.012,18.026-33.033c0.397-0.611,0.415-1.396,0.044-2.022l-0.625-1.075c-0.442-0.771-0.89-1.538-1.366-2.309
		c-4.231-6.927-8.897-13.875-13.314-20.399c-0.788-1.128-1.551-2.242-2.257-3.374c-0.536-0.751-0.975-1.428-1.413-2.095
		l-0.199-0.308c-6.376-9.521-13.041-19.826-18.631-30.769C460.709,233.94,460.045,233.538,459.323,233.538L459.323,233.538z"/>
	<path fill="#FFFFFF" enable-background="new    " d="M440.13,389.369c-4.465,3.361-9.353,6.101-14.937,7.886
		c-1.353,0.486-2.806,0.871-4.277,1.189h-0.03c-4.24,1.01-8.852,1.473-13.829,1.473c-0.158,0-0.315,0-0.473,0
		c-0.548-3.418-1.241-6.773-2.092-10.059c3.417,0.158,6.894,0.226,10.423,0.226C423.072,390.084,431.508,389.73,440.13,389.369
		 M440.13,387.446c-0.025,0-0.052,0-0.081,0c-8.328,0.352-16.941,0.712-25.136,0.712c-3.732,0-7.111-0.076-10.332-0.222
		c-0.03-0.004-0.059-0.004-0.089-0.004c-0.58,0-1.128,0.262-1.494,0.711c-0.386,0.478-0.524,1.105-0.369,1.697
		c0.82,3.167,1.511,6.489,2.053,9.88c0.15,0.928,0.947,1.616,1.889,1.62h0.485c5.253,0,9.884-0.488,14.152-1.495
		c0.038-0.01,0.075-0.012,0.111-0.019c1.699-0.363,3.178-0.781,4.522-1.261c5.363-1.713,10.437-4.389,15.446-8.158
		c0.674-0.508,0.938-1.394,0.654-2.186C441.668,387.952,440.941,387.446,440.13,387.446L440.13,387.446z"/>
	<path fill="#FFFFFF" enable-background="new    " d="M498.859,242.81c3.977,2.031,7.732,4.532,11.178,7.712
		c1.085,0.936,2.146,2.007,3.145,3.132l0.025,0.028c3.391,3.644,6.414,8.054,9.143,13.2c-2.1,1.758-4.138,3.566-6.081,5.444
		C511.326,262.608,505.223,252.848,498.859,242.81 M498.859,240.886c-0.529,0-1.05,0.217-1.425,0.627
		c-0.583,0.643-0.667,1.593-0.201,2.326c6.608,10.428,12.476,19.835,17.321,29.359c0.274,0.545,0.793,0.924,1.397,1.027
		c0.104,0.016,0.213,0.025,0.316,0.025c0.494,0,0.977-0.191,1.338-0.542c1.809-1.745,3.766-3.497,5.979-5.351
		c0.697-0.584,0.89-1.576,0.466-2.379c-2.881-5.431-5.97-9.882-9.437-13.607c-1.111-1.252-2.23-2.368-3.323-3.307
		c-3.349-3.095-7.145-5.715-11.559-7.968C499.455,240.956,499.154,240.886,498.859,240.886L498.859,240.886z"/>
	<g enable-background="new    ">
		<path fill="#5C94BE" d="M260.895,459.701c3.274,8.55,7.034,17.045,10.806,25.456l117.01-43.258
			c-1.18-9.838-3.555-19.121-6.791-28.023L260.895,459.701z"/>
		<path fill="#FFFFFF" d="M381.92,413.876c3.236,8.902,5.611,18.186,6.791,28.023l-117.01,43.258
			c-3.772-8.411-7.532-16.906-10.806-25.456L381.92,413.876 M381.92,411.953c-0.231,0-0.461,0.04-0.682,0.123l-121.026,45.823
			c-0.477,0.181-0.864,0.546-1.073,1.011c-0.211,0.471-0.226,1.002-0.042,1.476c3.302,8.627,7.017,17.014,10.848,25.559
			c0.318,0.709,1.018,1.14,1.755,1.14c0.223,0,0.448-0.038,0.667-0.122l117.01-43.26c0.836-0.308,1.349-1.15,1.244-2.034
			c-1.144-9.534-3.4-18.843-6.894-28.449c-0.176-0.484-0.538-0.874-1.006-1.092C382.469,412.012,382.195,411.953,381.92,411.953
			L381.92,411.953z"/>
	</g>
	<g enable-background="new    ">
		<path fill="#5C94BE" d="M276.938,496.864c6.372,14.403,12.172,28.438,15.163,42.186c101.187-21.972,95.558-77.646,95.558-77.646
			C347.956,510.056,292.984,500.878,276.938,496.864z"/>
		<path fill="#FFFFFF" d="M387.658,461.403c0,0,5.629,55.675-95.558,77.646c-2.99-13.748-8.791-27.782-15.163-42.186
			c5.576,1.394,15.847,3.411,28.544,3.411C329.335,500.275,361.749,493.153,387.658,461.403 M387.658,459.478
			c-0.568,0-1.12,0.254-1.491,0.706c-25.74,31.543-58.084,38.167-80.685,38.167c-12.762,0-23.069-2.1-28.079-3.355
			c-0.155-0.037-0.311-0.057-0.466-0.057c-0.561,0-1.102,0.245-1.473,0.685c-0.473,0.564-0.586,1.347-0.288,2.019
			c5.659,12.792,11.955,27.627,15.041,41.819c0.198,0.899,0.994,1.516,1.88,1.516c0.136,0,0.272-0.016,0.409-0.045
			c52.894-11.488,76.457-32.372,86.911-47.868c11.498-17.046,10.215-31.259,10.155-31.856c-0.08-0.774-0.618-1.424-1.361-1.647
			C388.028,459.506,387.841,459.478,387.658,459.478L387.658,459.478z"/>
	</g>
	<g enable-background="new    ">
		<path fill="#5F9BC8" d="M406.873,401.803c-3.67-0.729-7.433-1.565-11.41-2.652c3.947,0.544,7.609,0.752,11.121,0.767
			c-0.548-3.418-1.241-6.773-2.092-10.059c-7.065-0.33-13.885-1.053-20.373-2.432c-2.15-0.462-4.271-1.02-6.328-1.62l-0.025-0.031
			c-1.868-0.563-3.682-1.123-5.499-1.796c-0.092-0.037-0.177-0.081-0.273-0.117c14.776,26.723,25.793,56.521,19.198,92.966
			C406.529,448.194,409.975,423.619,406.873,401.803z"/>
		<path fill="#FFFFFF" d="M371.995,383.862c0.096,0.036,0.181,0.08,0.273,0.117c1.817,0.673,3.631,1.232,5.499,1.796l0.025,0.031
			c2.058,0.601,4.178,1.158,6.328,1.62c6.487,1.379,13.308,2.102,20.373,2.432c0.852,3.285,1.544,6.641,2.092,10.059
			c-3.512-0.015-7.174-0.223-11.121-0.767c3.977,1.087,7.739,1.923,11.41,2.652c3.102,21.816-0.344,46.392-15.68,75.025
			C397.788,440.384,386.771,410.585,371.995,383.862 M371.995,381.938c-0.554,0-1.096,0.24-1.47,0.681
			c-0.515,0.609-0.601,1.477-0.213,2.177c12.481,22.57,25.918,53.389,18.987,91.691c-0.167,0.932,0.367,1.848,1.261,2.158
			c0.209,0.073,0.422,0.109,0.634,0.109c0.694,0,1.353-0.377,1.697-1.016c14.208-26.533,19.408-51.457,15.889-76.208
			c-0.05-0.345-0.189-0.665-0.398-0.923c0.121-0.316,0.158-0.657,0.104-0.996c-0.562-3.508-1.279-6.953-2.13-10.235
			c-0.209-0.818-0.929-1.402-1.772-1.44c-7.605-0.355-14.166-1.137-20.063-2.394c-1.839-0.39-3.79-0.889-5.956-1.515
			c-0.078-0.039-0.159-0.071-0.24-0.095c-1.74-0.526-3.589-1.093-5.386-1.757c-0.085-0.043-0.188-0.09-0.3-0.131
			C372.426,381.973,372.21,381.938,371.995,381.938L371.995,381.938z"/>
	</g>
	<g enable-background="new    ">
		<path fill="#5F9BC8" d="M343.945,249.743c0.282-1.417,0.685-2.854,1.163-4.278l0.018-0.04c1.431-4.579,3.659-9.219,6.594-13.957
			c-0.557-0.187-1.111-0.361-1.664-0.558c-5.099,5.605-9.346,11.056-12.742,16.368c-0.985,1.545-1.884,3.105-2.74,4.615
			c-0.011,0.043-0.011,0.043-0.011,0.043c-3.789,6.853-6.183,13.491-7.539,19.986l3.685,3.456c-1.648,3.047-3.328,6.088-5.04,9.111
			c-0.005,2.216,0.15,4.426,0.367,6.618c6.043-10.261,11.448-20.727,16.786-30.806C342.86,256.813,343.132,253.303,343.945,249.743z
			"/>
		<path fill="#FFFFFF" d="M350.057,230.91c0.553,0.197,1.107,0.371,1.664,0.558c-2.936,4.738-5.164,9.378-6.594,13.957l-0.018,0.04
			c-0.478,1.425-0.881,2.861-1.163,4.278c-0.813,3.561-1.085,7.07-1.123,10.558c-5.337,10.079-10.743,20.545-16.786,30.806
			c-0.217-2.192-0.372-4.402-0.367-6.618c1.712-3.022,3.392-6.063,5.04-9.111l-3.685-3.456c1.355-6.495,3.75-13.134,7.539-19.986
			c0,0,0,0,0.011-0.043c0.856-1.509,1.755-3.07,2.74-4.615C340.71,241.966,344.958,236.515,350.057,230.91 M350.057,228.985
			c-0.532,0-1.052,0.222-1.426,0.631c-5.162,5.677-9.516,11.272-12.938,16.626c-1.022,1.602-1.94,3.199-2.792,4.698
			c-0.038,0.066-0.073,0.135-0.101,0.206c-3.693,6.709-6.198,13.377-7.659,20.382c-0.137,0.657,0.078,1.34,0.567,1.796l2.602,2.441
			c-1.415,2.599-2.853,5.193-4.314,7.773c-0.164,0.287-0.25,0.614-0.25,0.943c-0.005,2.006,0.114,4.17,0.377,6.814
			c0.083,0.83,0.688,1.513,1.502,1.69c0.138,0.031,0.276,0.046,0.412,0.046c0.672,0,1.31-0.352,1.658-0.946
			c5.132-8.714,9.812-17.592,14.342-26.177l2.486-4.708c0.143-0.273,0.22-0.574,0.224-0.881c0.042-3.903,0.383-7.127,1.073-10.149
			c0.257-1.287,0.609-2.583,1.088-4.023c0.02-0.051,0.042-0.105,0.055-0.149c1.338-4.283,3.489-8.83,6.392-13.516
			c0.31-0.5,0.374-1.113,0.177-1.665c-0.199-0.551-0.64-0.984-1.196-1.173l-0.624-0.206c-0.338-0.111-0.673-0.222-1.01-0.34
			C350.493,229.021,350.273,228.985,350.057,228.985L350.057,228.985z"/>
	</g>
	<g enable-background="new    ">
		<path fill="#5F9BC8" d="M373.497,328.447c-0.739-1.157-1.517-2.304-2.303-3.442c-4.646-6.933-9.159-13.72-13.18-20.387
			c-0.938-1.539-1.804-3.067-2.686-4.601c-5.422,8.463-11.632,16.509-18.906,23.806c5.076,10.229,11.462,20.51,18.118,31.1
			c4.081,1.921,8.387,3.369,12.914,4.371c8.064,1.785,16.827,2.299,26.037,2.18c-5.478-10.775-11.951-20.912-18.421-30.655
			C374.55,330.014,374.018,329.22,373.497,328.447z"/>
		<path fill="#FFFFFF" d="M355.328,300.018c0.882,1.533,1.748,3.062,2.686,4.601c4.021,6.667,8.534,13.454,13.18,20.387
			c0.786,1.139,1.564,2.285,2.303,3.442c0.521,0.772,1.053,1.566,1.573,2.371c6.47,9.743,12.943,19.88,18.421,30.655
			c-0.844,0.009-1.683,0.014-2.522,0.014c-8.288,0-16.19-0.572-23.515-2.193c-4.527-1.002-8.833-2.45-12.914-4.371
			c-6.656-10.59-13.042-20.87-18.118-31.1C343.696,316.526,349.906,308.48,355.328,300.018 M355.328,298.093
			c-0.653,0-1.266,0.333-1.62,0.886c-5.771,9.005-11.872,16.687-18.649,23.486c-0.583,0.584-0.727,1.475-0.362,2.215
			c5,10.077,11.208,20.124,18.214,31.267c0.195,0.313,0.478,0.562,0.81,0.717c4.153,1.957,8.634,3.475,13.318,4.511
			c6.811,1.507,14.638,2.24,23.93,2.24c0.846,0,1.695-0.007,2.548-0.017c0.664-0.012,1.278-0.362,1.621-0.93
			c0.345-0.57,0.371-1.276,0.069-1.867c-5.605-11.026-12.222-21.341-18.534-30.848c-0.516-0.795-1.055-1.604-1.582-2.384
			c-0.724-1.133-1.513-2.299-2.313-3.457c-4.64-6.928-9.148-13.708-13.116-20.289c-0.79-1.294-1.522-2.574-2.26-3.854l-0.405-0.71
			c-0.334-0.582-0.952-0.949-1.622-0.966C355.359,298.093,355.345,298.093,355.328,298.093L355.328,298.093z"/>
	</g>
	<g enable-background="new    ">
		<path fill="#5C94BE" d="M251.535,401.915c-1.214,8.604-0.898,17.148,0.406,25.732l117.997-40.004
			c-1.18-2.154-2.483-4.222-3.701-6.351c-5.02-2.493-9.739-5.671-14.131-9.648L251.535,401.915z"/>
		<path fill="#FFFFFF" d="M352.105,371.645c4.392,3.978,9.112,7.155,14.131,9.648c1.218,2.129,2.521,4.196,3.701,6.351
			l-117.997,40.004c-1.304-8.584-1.62-17.129-0.406-25.732L352.105,371.645 M352.105,369.72c-0.186,0-0.371,0.024-0.555,0.079
			l-100.569,30.274c-0.72,0.217-1.246,0.83-1.352,1.574c-1.161,8.23-1.028,16.83,0.41,26.291c0.084,0.564,0.416,1.06,0.902,1.353
			c0.305,0.189,0.65,0.281,1,0.281c0.209,0,0.417-0.031,0.618-0.102l117.997-40.001c0.538-0.186,0.967-0.597,1.175-1.126
			c0.207-0.53,0.167-1.123-0.105-1.625c-0.709-1.293-1.458-2.552-2.21-3.813c-0.508-0.855-1.016-1.702-1.508-2.566
			c-0.189-0.328-0.473-0.594-0.813-0.767c-4.955-2.465-9.563-5.611-13.698-9.354C353.04,369.892,352.577,369.72,352.105,369.72
			L352.105,369.72z"/>
	</g>
	<g enable-background="new    ">
		<path fill="#5C94BE" d="M266.357,360.431c-118.921,63.779,12.597,166.475,18.715,222.398
			C315.954,517.491,203.734,438.549,266.357,360.431z"/>
		<path fill="#FFFFFF" d="M266.357,360.431c-62.623,78.118,49.597,157.061,18.715,222.398
			C278.954,526.905,147.436,424.21,266.357,360.431 M266.354,358.504c-0.308,0-0.62,0.077-0.908,0.229
			c-27.05,14.508-42.892,31.659-48.434,52.44c-9.771,36.638,15.301,76.872,37.42,112.366c13.856,22.236,26.947,43.241,28.725,59.503
			c0.094,0.854,0.744,1.544,1.595,1.688c0.106,0.019,0.212,0.024,0.318,0.024c0.735,0,1.418-0.422,1.74-1.102
			c13.961-29.538-0.22-61.093-15.232-94.489c-18.714-41.64-38.064-84.688-3.722-127.531c0.572-0.714,0.562-1.733-0.022-2.436
			C267.459,358.747,266.912,358.504,266.354,358.504L266.354,358.504z"/>
	</g>
	<g enable-background="new    ">
		<path fill="#458EAB" d="M482.84,522.747c9.027,1.392,18.266,2.357,27.452,3.257l20.517-123.055
			c-9.097-3.868-18.355-6.401-27.689-8.013L482.84,522.747z"/>
		<path fill="#FFFFFF" d="M503.119,394.937c9.334,1.611,18.593,4.145,27.689,8.013l-20.517,123.055
			c-9.187-0.899-18.425-1.865-27.452-3.257L503.119,394.937 M503.119,393.011c-0.397,0-0.792,0.126-1.121,0.361
			c-0.419,0.298-0.697,0.752-0.78,1.266l-20.278,127.807c-0.08,0.504,0.044,1.023,0.347,1.438c0.299,0.413,0.755,0.686,1.26,0.764
			c9.283,1.438,18.703,2.403,27.559,3.276c0.063,0.002,0.128,0.006,0.19,0.006c0.931,0,1.74-0.671,1.896-1.606l20.516-123.055
			c0.147-0.879-0.325-1.743-1.144-2.088c-8.751-3.722-17.944-6.383-28.117-8.142C503.336,393.02,503.228,393.011,503.119,393.011
			L503.119,393.011z"/>
	</g>
	<g enable-background="new    ">
		<path fill="#458EAB" d="M547.242,413.541c22.504,58.625-12.756,101.793-24.186,113.737c15.663,1.609,30.71,3.541,44.144,7.771
			C598.342,436.3,547.242,413.541,547.242,413.541z"/>
		<path fill="#FFFFFF" d="M547.242,413.541c0,0,51.1,22.759,19.958,121.509c-13.434-4.23-28.48-6.162-44.144-7.771
			C534.486,515.334,569.746,472.166,547.242,413.541 M547.242,411.617c-0.484,0-0.961,0.182-1.326,0.529
			c-0.564,0.534-0.75,1.356-0.471,2.083c22.081,57.521-12.618,100.058-23.779,111.719c-0.508,0.531-0.668,1.305-0.415,1.996
			c0.255,0.689,0.876,1.174,1.609,1.249c13.884,1.428,29.856,3.314,43.763,7.688c0.191,0.061,0.388,0.093,0.577,0.093
			c0.817,0,1.576-0.526,1.836-1.348c16.278-51.62,9.849-82.44,1.588-99.212c-9.083-18.445-22.052-24.389-22.6-24.634
			C547.774,411.675,547.506,411.617,547.242,411.617L547.242,411.617z"/>
	</g>
	<g enable-background="new    ">
		<path fill="#458EAB" d="M440.13,389.369c3.182-2.392,6.178-5.056,8.924-8.102c5.709-6.305,10.607-13.943,15.17-22.329
			c-12.355-0.664-24.656-0.069-36.603,0.729c-0.958,0.044-1.915,0.103-2.851,0.193c-1.376,0.045-2.753,0.152-4.129,0.254
			c-8.317,0.619-16.448,1.148-24.248,1.331c-0.979,0.027-1.932,0.01-2.902,0.027c4.555,8.969,8.426,18.381,11.001,28.385
			C415.81,390.385,427.779,389.889,440.13,389.369z"/>
		<path fill="#FFFFFF" d="M453.035,358.652c3.72,0,7.454,0.086,11.188,0.286c-4.563,8.386-9.461,16.024-15.17,22.329
			c-2.746,3.046-5.742,5.71-8.924,8.102c-8.622,0.361-17.058,0.715-25.215,0.715c-3.528,0-7.006-0.067-10.423-0.226
			c-2.575-10.004-6.446-19.416-11.001-28.385c0.97-0.018,1.923,0,2.902-0.027c7.799-0.183,15.93-0.712,24.248-1.331
			c1.376-0.102,2.753-0.209,4.129-0.254c0.936-0.091,1.893-0.149,2.851-0.193C435.954,359.112,444.46,358.652,453.035,358.652
			 M453.035,356.729c-9.08,0-18.007,0.515-25.541,1.018c-0.955,0.046-1.946,0.103-2.915,0.199c-1.134,0.032-2.399,0.127-3.661,0.221
			l-0.418,0.031c-7.799,0.577-16.122,1.137-24.151,1.322c-0.559,0.016-1.099,0.02-1.644,0.02l-1.243,0.008
			c-0.664,0.011-1.274,0.363-1.618,0.93c-0.342,0.571-0.369,1.274-0.067,1.867c4.975,9.794,8.524,18.949,10.851,27.997
			c0.211,0.813,0.93,1.401,1.774,1.439c3.281,0.151,6.721,0.228,10.513,0.228c8.274,0,16.928-0.364,25.297-0.714
			c0.389-0.02,0.765-0.152,1.075-0.386c3.484-2.617,6.492-5.35,9.196-8.35c5.267-5.818,10.171-13.032,15.431-22.697
			c0.316-0.581,0.313-1.28-0.01-1.858c-0.32-0.577-0.916-0.95-1.576-0.985C460.753,356.826,456.954,356.729,453.035,356.729
			L453.035,356.729z"/>
	</g>
	<g enable-background="new    ">
		<path fill="#458EAB" d="M501.617,365.986c-2.457-0.88-4.929-1.651-7.406-2.345c-3.858,6.169-7.948,11.917-12.466,17.021
			c-1.463,1.641-2.99,3.211-4.534,4.699l-0.042,0.004c-1.205,1.157-2.401,2.244-3.633,3.318c30.086,0.579,60.895,6.012,88.835,29.47
			c-17.768-28.372-38.064-43.641-59.211-51.583c-2.204,2.424-4.525,4.876-7.09,7.366
			C498.205,371.241,499.991,368.604,501.617,365.986z"/>
		<path fill="#FFFFFF" d="M494.211,363.642c2.478,0.693,4.949,1.465,7.406,2.345c-1.626,2.617-3.412,5.255-5.547,7.951
			c2.564-2.49,4.886-4.942,7.09-7.366c21.146,7.942,41.443,23.211,59.211,51.583c-27.94-23.458-58.749-28.891-88.835-29.47
			c1.231-1.074,2.428-2.161,3.633-3.318l0.042-0.004c1.544-1.488,3.071-3.059,4.534-4.699
			C486.263,375.559,490.353,369.811,494.211,363.642 M494.211,361.715c-0.65,0-1.272,0.331-1.629,0.905
			c-4.157,6.645-8.175,12.131-12.28,16.77c-1.292,1.449-2.719,2.932-4.237,4.407c-0.08,0.05-0.156,0.115-0.227,0.183
			c-1.184,1.136-2.356,2.198-3.566,3.256c-0.601,0.521-0.817,1.359-0.544,2.107c0.271,0.747,0.975,1.252,1.771,1.266
			c25.292,0.487,58.104,4.228,87.637,29.02c0.355,0.3,0.796,0.451,1.236,0.451c0.451,0,0.901-0.157,1.262-0.474
			c0.715-0.62,0.87-1.669,0.367-2.475c-16.397-26.187-36.077-43.313-60.163-52.361c-0.221-0.083-0.45-0.121-0.677-0.121
			c-0.051,0-0.104,0-0.153,0.004c-0.203-0.213-0.458-0.376-0.742-0.479c-2.392-0.854-4.854-1.637-7.534-2.387
			C494.559,361.739,494.386,361.715,494.211,361.715L494.211,361.715z"/>
	</g>
	<g enable-background="new    ">
		<path fill="#458EAB" d="M341.781,346.433c-1.078-0.945-2.136-2.022-3.132-3.143l-0.024-0.025
			c-3.362-3.622-6.377-7.995-9.096-13.099c-0.412,0.354-0.829,0.701-1.252,1.051c2.378,7.448,5.073,14.009,8.082,19.738
			c0.856,1.627,1.755,3.194,2.652,4.676c0.024,0.027,0.024,0.027,0.024,0.027c3.92,6.456,8.313,11.673,13.071,15.986l7.231-2.18
			c2.379,3.875,4.625,7.866,6.9,11.828c1.884,0.938,3.798,1.814,5.759,2.569c-5.533-10.017-11.584-19.603-17.455-28.939
			C349.971,352.773,345.684,350.02,341.781,346.433z"/>
		<path fill="#FFFFFF" d="M329.528,330.166c2.719,5.104,5.734,9.477,9.096,13.099l0.024,0.025c0.996,1.12,2.054,2.197,3.132,3.143
			c3.903,3.587,8.19,6.341,12.76,8.49c5.87,9.337,11.921,18.923,17.455,28.939c-1.961-0.755-3.875-1.631-5.759-2.569
			c-2.275-3.962-4.521-7.953-6.9-11.828l-7.231,2.18c-4.757-4.313-9.151-9.53-13.071-15.986c0,0,0,0-0.024-0.027
			c-0.897-1.481-1.796-3.049-2.652-4.676c-3.009-5.729-5.704-12.29-8.082-19.738C328.7,330.867,329.116,330.521,329.528,330.166
			 M329.528,328.241c-0.455,0-0.898,0.163-1.25,0.46c-0.404,0.346-0.814,0.688-1.229,1.034c-0.606,0.498-0.847,1.319-0.608,2.067
			c2.386,7.467,5.148,14.214,8.21,20.049c0.801,1.522,1.689,3.084,2.712,4.776c0.025,0.044,0.056,0.087,0.088,0.134
			c3.847,6.313,8.219,11.647,13.36,16.309c0.359,0.324,0.822,0.497,1.292,0.497c0.186,0,0.373-0.025,0.555-0.082l5.806-1.746
			c1.665,2.756,3.29,5.602,4.872,8.364l1.23,2.15c0.19,0.331,0.472,0.596,0.813,0.763c2.151,1.071,4.089,1.938,5.923,2.645
			c0.226,0.085,0.458,0.127,0.691,0.127c0.546,0,1.078-0.233,1.452-0.664c0.531-0.609,0.624-1.482,0.233-2.192
			c-5.372-9.728-11.242-19.063-16.915-28.089l-0.594-0.945c-0.195-0.313-0.477-0.562-0.81-0.717
			c-4.68-2.202-8.696-4.871-12.277-8.164c-1.01-0.886-2.006-1.89-2.994-3.006c-0.042-0.046-0.087-0.093-0.135-0.139
			c-3.099-3.34-6.062-7.613-8.726-12.613c-0.275-0.514-0.77-0.875-1.342-0.981C329.767,328.253,329.647,328.241,329.528,328.241
			L329.528,328.241z"/>
	</g>
	<g enable-background="new    ">
		<path fill="#2E7B9F" d="M377.767,385.775l0.025,0.031c2.058,0.601,4.178,1.158,6.328,1.62c6.487,1.379,13.308,2.102,20.373,2.432
			c-2.575-10.004-6.446-19.416-11.001-28.385c-9.209,0.119-17.972-0.395-26.037-2.18c-4.527-1.002-8.833-2.45-12.914-4.371
			c5.87,9.337,11.921,18.923,17.455,28.939c0.096,0.036,0.181,0.08,0.273,0.117C374.085,384.652,375.899,385.212,377.767,385.775z"
			/>
		<path fill="#FFFFFF" d="M354.541,354.923c4.081,1.921,8.387,3.369,12.914,4.371c7.326,1.621,15.227,2.193,23.515,2.193
			c0.837,0,1.679-0.005,2.522-0.014c4.555,8.969,8.426,18.381,11.001,28.385c-7.065-0.33-13.885-1.053-20.373-2.432
			c-2.15-0.462-4.271-1.02-6.328-1.62l-0.025-0.031c-1.868-0.563-3.682-1.123-5.499-1.796c-0.092-0.037-0.177-0.081-0.273-0.117
			C366.462,373.846,360.411,364.26,354.541,354.923 M354.541,352.997c-0.537,0-1.065,0.226-1.439,0.648
			c-0.568,0.639-0.645,1.578-0.19,2.301l0.595,0.944c5.645,8.981,11.484,18.271,16.805,27.905c0.228,0.409,0.599,0.725,1.042,0.883
			l0.187,0.084c1.875,0.692,3.709,1.262,5.439,1.786c0.089,0.043,0.18,0.077,0.271,0.104c2.349,0.687,4.465,1.229,6.465,1.656
			c6.104,1.298,12.868,2.107,20.685,2.472c0.03,0.002,0.06,0.002,0.09,0.002c0.577,0,1.125-0.259,1.492-0.71
			c0.385-0.474,0.524-1.103,0.373-1.695c-2.399-9.314-6.047-18.729-11.149-28.776c-0.328-0.646-0.992-1.054-1.716-1.054
			c-0.007,0-0.017,0-0.026,0c-0.834,0.011-1.667,0.018-2.496,0.018c-9.007,0-16.563-0.704-23.099-2.149
			c-4.405-0.973-8.611-2.397-12.508-4.232C355.099,353.058,354.819,352.997,354.541,352.997L354.541,352.997z"/>
	</g>
	<g enable-background="new    ">
		<path fill="#107BA0" d="M352.105,371.645c4.392,3.978,9.112,7.155,14.131,9.648c-2.275-3.962-4.521-7.953-6.9-11.828
			L352.105,371.645z"/>
		<path fill="#FFFFFF" d="M359.336,369.465c2.379,3.875,4.625,7.866,6.9,11.828c-5.02-2.493-9.739-5.671-14.131-9.648
			L359.336,369.465 M359.336,367.542c-0.185,0-0.373,0.027-0.555,0.081l-7.23,2.176c-0.666,0.201-1.17,0.743-1.322,1.421
			c-0.153,0.677,0.071,1.385,0.586,1.851c4.394,3.981,9.296,7.328,14.566,9.946c0.271,0.141,0.565,0.203,0.856,0.203
			c0.52,0,1.029-0.21,1.4-0.604c0.583-0.618,0.691-1.543,0.269-2.278l-1.228-2.146c-1.836-3.21-3.737-6.532-5.701-9.73
			C360.62,367.879,359.992,367.542,359.336,367.542L359.336,367.542z"/>
	</g>
	<g enable-background="new    ">
		<path fill="#458EAB" d="M428.031,502.19c6.863,5.322,14.418,9.283,22.528,12.415l23.83-122.29
			c-1.855-0.029-3.696,0.058-5.547,0.056c-5.202,3.674-10.979,6.581-17.449,8.621L428.031,502.19z"/>
		<path fill="#FFFFFF" d="M473.563,392.309c0.273,0,0.55,0.005,0.826,0.007l-23.83,122.29c-8.11-3.132-15.665-7.093-22.528-12.415
			l23.362-101.198c6.47-2.04,12.247-4.947,17.449-8.621c0.041,0,0.08,0,0.12,0C470.495,392.371,472.027,392.309,473.563,392.309
			 M473.563,390.385c-0.782,0-1.562,0.016-2.341,0.029c-0.752,0.016-1.507,0.03-2.26,0.03c-0.398,0-0.904,0.123-1.229,0.352
			c-5.127,3.625-10.822,6.437-16.922,8.36c-0.649,0.205-1.142,0.736-1.296,1.401l-23.36,101.199c-0.17,0.73,0.102,1.492,0.694,1.955
			c6.575,5.097,14.104,9.244,23.014,12.688c0.226,0.089,0.46,0.129,0.695,0.129c0.322,0,0.643-0.078,0.93-0.237
			c0.5-0.276,0.851-0.757,0.96-1.317l23.828-122.29c0.109-0.558-0.037-1.139-0.393-1.577c-0.358-0.443-0.896-0.706-1.464-0.715
			L473.563,390.385L473.563,390.385z"/>
	</g>
	<g enable-background="new    ">
		<path fill="#458EAB" d="M399.361,468.717c-3.684,134.904,150.767,71.71,202.345,94.181
			C560.331,503.636,436.093,561.862,399.361,468.717z"/>
		<path fill="#FFFFFF" d="M399.361,468.717c36.731,93.146,160.97,34.919,202.345,94.181c-9.935-4.328-23.675-5.477-39.38-5.477
			c-17.819,0-38.164,1.481-58.279,1.481C449.848,558.902,397.192,548.147,399.361,468.717 M399.363,466.793
			c-0.111,0-0.224,0.009-0.334,0.029c-0.902,0.158-1.565,0.93-1.591,1.842c-0.822,30.131,5.931,52.128,20.645,67.249
			c21.489,22.083,57.225,24.913,85.964,24.913c10.398,0,20.855-0.392,30.966-0.773c9.622-0.364,18.711-0.708,27.313-0.708
			c18.262,0,30.171,1.639,38.612,5.313c0.247,0.112,0.509,0.162,0.768,0.162c0.563,0,1.115-0.246,1.488-0.705
			c0.546-0.664,0.583-1.612,0.09-2.317c-18.707-26.793-53.135-30.15-89.584-33.702c-45.431-4.428-92.405-9.003-112.548-60.084
			C400.857,467.267,400.141,466.793,399.363,466.793L399.363,466.793z"/>
	</g>
	<g enable-background="new    ">
		<path fill="#526EA6" d="M546.979,280.852l101.162,80.708c5.682-7.174,11.071-14.746,16.386-22.277l-96.91-78.56
			C559.756,266.743,552.984,273.531,546.979,280.852z"/>
		<path fill="#FFFFFF" d="M567.616,260.723l96.91,78.56c-5.314,7.531-10.704,15.104-16.386,22.277l-101.162-80.708
			C552.984,273.531,559.756,266.743,567.616,260.723 M567.616,258.797c-0.412,0-0.825,0.133-1.171,0.397
			c-7.584,5.81-14.439,12.495-20.955,20.439c-0.328,0.397-0.48,0.909-0.425,1.421c0.052,0.512,0.309,0.983,0.712,1.301
			l101.161,80.708c0.345,0.271,0.768,0.42,1.202,0.42c0.073,0,0.145-0.003,0.219-0.013c0.508-0.057,0.974-0.314,1.29-0.716
			c5.656-7.147,11.009-14.657,16.45-22.36c0.587-0.83,0.427-1.97-0.36-2.605l-96.91-78.561
			C568.475,258.94,568.047,258.797,567.616,258.797L567.616,258.797z"/>
	</g>
	<g enable-background="new    ">
		<path fill="#526EA6" d="M584.927,251.657c62.1,9.332,82.256,61.293,87.001,77.141c9.13-12.829,18.24-24.964,28.544-34.569
			C629.951,218.437,584.927,251.657,584.927,251.657z"/>
		<path fill="#FFFFFF" d="M612.412,244.41c20.146,0,50.484,9.436,88.06,49.818c-10.304,9.605-19.414,21.74-28.544,34.569
			c-4.745-15.848-24.901-67.809-87.001-77.141C584.927,251.657,594.751,244.41,612.412,244.41 M612.412,242.485
			c-18.087,0-28.207,7.313-28.626,7.625c-0.629,0.463-0.914,1.255-0.728,2.014c0.188,0.754,0.813,1.322,1.583,1.439
			c60.96,9.16,80.812,60.323,85.445,75.788c0.21,0.704,0.805,1.228,1.528,1.346c0.106,0.018,0.212,0.026,0.313,0.026
			c0.619,0,1.205-0.297,1.569-0.809c10.017-14.086,18.664-25.304,28.285-34.279c0.781-0.726,0.822-1.94,0.099-2.717
			C663.097,251.233,631.819,242.485,612.412,242.485L612.412,242.485z"/>
	</g>
	<g enable-background="new    ">
		<path fill="#526EA6" d="M440.13,389.369c-4.465,3.361-9.353,6.101-14.937,7.886c-1.353,0.486-2.806,0.871-4.277,1.189h-0.03
			c-4.374,1.043-9.145,1.502-14.301,1.473c0.104,0.629,0.202,1.257,0.289,1.886c7.032,1.399,13.568,2.219,19.58,2.411
			c1.842,0.07,3.637,0.039,5.376,0.01c0.043-0.006,0.043-0.006,0.043-0.006c7.2-0.227,13.642-1.375,19.521-3.226l1.955-8.487
			c5.15-0.162,10.326-0.152,15.494-0.134c1.39-0.987,2.742-2.023,4.063-3.107c0.216-0.189,0.416-0.391,0.631-0.579
			C462.232,388.466,451.037,388.919,440.13,389.369z"/>
		<path fill="#FFFFFF" d="M467.48,388.628c2.014,0,4.032,0.02,6.056,0.057c-0.215,0.188-0.415,0.39-0.631,0.579
			c-1.32,1.084-2.673,2.12-4.063,3.107c-1.429-0.006-2.859-0.01-4.289-0.01c-3.737,0-7.479,0.027-11.205,0.144l-1.955,8.487
			c-5.88,1.851-12.321,2.999-19.521,3.226c0,0,0,0-0.043,0.006c-0.948,0.016-1.911,0.034-2.889,0.034
			c-0.819,0-1.65-0.013-2.487-0.044c-6.012-0.192-12.548-1.012-19.58-2.411c-0.087-0.629-0.185-1.257-0.289-1.886
			c0.157,0,0.314,0,0.473,0c4.975,0,9.588-0.463,13.829-1.473h0.03c1.472-0.318,2.925-0.703,4.277-1.189
			c5.584-1.785,10.472-4.524,14.937-7.886C449.084,388.997,458.235,388.628,467.48,388.628 M467.48,386.705
			c-9.48,0-19.017,0.396-27.429,0.741c-0.391,0.019-0.767,0.147-1.078,0.385c-4.659,3.509-9.36,5.988-14.367,7.59
			c-1.199,0.43-2.522,0.801-3.989,1.116c-0.063,0.011-0.124,0.02-0.178,0.032c-4.006,0.961-8.383,1.423-13.382,1.423h-0.462
			c-0.004,0-0.007,0-0.01,0c-0.565,0-1.1,0.248-1.467,0.677c-0.369,0.432-0.526,1.006-0.432,1.566
			c0.101,0.608,0.197,1.218,0.279,1.827c0.113,0.817,0.729,1.471,1.533,1.628c7.2,1.433,13.892,2.255,19.893,2.446
			c0.85,0.034,1.706,0.047,2.55,0.047c0.989,0,1.965-0.02,2.924-0.035c0.06,0,0.119-0.002,0.181-0.012
			c7.061-0.23,13.579-1.314,19.925-3.313c0.65-0.202,1.145-0.734,1.296-1.4l1.626-7.037c3.521-0.089,6.964-0.102,9.662-0.102
			l4.285,0.009c0.001,0,0.002,0,0.004,0c0.399,0,0.789-0.124,1.113-0.354c1.379-0.979,2.781-2.051,4.169-3.188l0.412-0.376
			l0.268-0.243c0.596-0.522,0.811-1.361,0.539-2.109c-0.272-0.743-0.977-1.248-1.771-1.262
			C471.538,386.724,469.506,386.705,467.48,386.705L467.48,386.705z"/>
	</g>
	<g enable-background="new    ">
		<path fill="#526EA6" d="M522.35,266.883c-2.1,1.758-4.138,3.566-6.081,5.444c3.031,5.951,5.634,11.883,7.574,17.859
			c0.683,2.093,1.262,4.214,1.761,6.298l-0.017,0.04c0.459,1.907,0.874,3.752,1.197,5.652c0.071,0.442,0.106,0.89,0.166,1.33
			c15.349-25.884,35.266-50.011,69.451-62.739c-32.66,1.423-55.608,11.13-72.818,25.06c0.977,3.063,1.911,6.232,2.773,9.616
			C525.12,272.333,523.767,269.541,522.35,266.883z"/>
		<path fill="#FFFFFF" d="M596.401,240.767c-34.186,12.728-54.103,36.854-69.451,62.739c-0.06-0.44-0.095-0.888-0.166-1.33
			c-0.323-1.9-0.738-3.745-1.197-5.652l0.017-0.04c-0.499-2.084-1.078-4.205-1.761-6.298c-1.94-5.976-4.543-11.908-7.574-17.859
			c1.943-1.877,3.981-3.686,6.081-5.444c1.417,2.658,2.771,5.45,4.007,8.56c-0.862-3.383-1.797-6.553-2.773-9.616
			C540.793,251.897,563.741,242.19,596.401,240.767 M596.403,238.842c-0.031,0-0.056,0-0.087,0.003
			c-30.195,1.315-54.382,9.65-73.942,25.485c-0.236,0.193-0.42,0.431-0.542,0.698c-0.26,0.072-0.503,0.199-0.716,0.376
			c-2.286,1.916-4.31,3.726-6.186,5.54c-0.607,0.584-0.762,1.502-0.375,2.256c3.247,6.377,5.688,12.128,7.456,17.579
			c0.597,1.826,1.154,3.811,1.66,5.897c0.006,0.103,0.021,0.202,0.044,0.296c0.39,1.625,0.835,3.55,1.173,5.529
			c0.031,0.199,0.055,0.425,0.08,0.65l0.073,0.612c0.11,0.813,0.722,1.465,1.526,1.627c0.128,0.025,0.256,0.037,0.382,0.037
			c0.67,0,1.303-0.352,1.655-0.941c12.904-21.765,32.349-48.47,68.465-61.916c0.891-0.33,1.406-1.256,1.218-2.185
			C598.105,239.483,597.312,238.842,596.403,238.842L596.403,238.842z"/>
	</g>
	<g enable-background="new    ">
		<path fill="#526EA6" d="M477.813,331.688c-0.628,1.221-1.213,2.476-1.8,3.734c-3.586,7.536-7.126,14.885-10.8,21.743
			c-0.321,0.61-0.663,1.174-0.99,1.772c10.023,0.538,20.072,1.915,29.987,4.703c5.75-9.189,11.005-19.336,16.383-29.817
			c-0.257-5.093-1.199-10.129-2.777-15.13c-2.389-7.599-6.145-15.174-10.632-22.805c-6.979,10.729-12.771,22.09-18.141,33.232
			C478.624,329.979,478.197,330.846,477.813,331.688z"/>
		<path fill="#FFFFFF" d="M497.185,295.89c4.487,7.631,8.243,15.206,10.632,22.805c1.578,5.001,2.521,10.037,2.777,15.13
			c-5.378,10.481-10.633,20.628-16.383,29.817c-9.915-2.788-19.964-4.165-29.987-4.703c0.327-0.599,0.669-1.162,0.99-1.772
			c3.674-6.858,7.214-14.207,10.8-21.743c0.587-1.259,1.172-2.514,1.8-3.734c0.384-0.843,0.811-1.709,1.23-2.566
			C484.414,317.979,490.205,306.619,497.185,295.89 M497.185,293.963c-0.649,0-1.257,0.329-1.611,0.877
			c-7.284,11.197-13.319,23.191-18.263,33.446l-0.169,0.351c-0.371,0.753-0.745,1.514-1.08,2.256
			c-0.599,1.155-1.192,2.432-1.787,3.71c-3.392,7.13-7.02,14.68-10.757,21.656c-0.172,0.324-0.346,0.63-0.521,0.934
			c-0.155,0.273-0.31,0.548-0.462,0.83c-0.317,0.581-0.311,1.281,0.01,1.857c0.322,0.578,0.917,0.946,1.576,0.985
			c10.884,0.581,20.554,2.093,29.57,4.628c0.174,0.051,0.35,0.072,0.52,0.072c0.651,0,1.275-0.332,1.633-0.904
			c5.615-8.972,10.569-18.475,16.462-29.961c0.153-0.3,0.229-0.635,0.21-0.975c-0.26-5.166-1.225-10.42-2.867-15.61
			c-2.22-7.064-5.652-14.437-10.804-23.201c-0.338-0.575-0.95-0.937-1.615-0.951C497.213,293.963,497.201,293.963,497.185,293.963
			L497.185,293.963z"/>
	</g>
	<g enable-background="new    ">
		<path fill="#2E509A" d="M395.463,399.15c3.977,1.087,7.739,1.923,11.41,2.652c-0.087-0.629-0.185-1.257-0.289-1.886
			C403.073,399.902,399.41,399.694,395.463,399.15z"/>
		<path fill="#FFFFFF" d="M395.463,399.15c3.947,0.544,7.609,0.752,11.121,0.767c0.104,0.629,0.202,1.257,0.289,1.886
			C403.203,401.073,399.44,400.237,395.463,399.15 M395.461,397.225c-0.9,0-1.697,0.633-1.883,1.538
			c-0.205,0.992,0.398,1.975,1.375,2.244c3.545,0.969,7.213,1.823,11.544,2.684c0.124,0.025,0.251,0.036,0.375,0.036
			c0.484,0,0.959-0.183,1.319-0.521c0.453-0.428,0.671-1.047,0.587-1.662c-0.089-0.652-0.188-1.301-0.298-1.947
			c-0.156-0.921-0.953-1.601-1.891-1.604c-3.779-0.014-7.333-0.258-10.864-0.749C395.637,397.232,395.55,397.225,395.461,397.225
			L395.461,397.225z"/>
	</g>
	<g enable-background="new    ">
		<path fill="#2E509A" d="M477.211,385.362c1.544-1.488,3.071-3.059,4.534-4.699c4.518-5.104,8.607-10.853,12.466-17.021
			c-9.915-2.788-19.964-4.165-29.987-4.703c-4.563,8.386-9.461,16.024-15.17,22.329c-2.746,3.046-5.742,5.71-8.924,8.102
			c10.907-0.45,22.103-0.903,33.406-0.685c1.231-1.074,2.428-2.161,3.633-3.318L477.211,385.362z"/>
		<path fill="#FFFFFF" d="M464.224,358.938c10.023,0.538,20.072,1.915,29.987,4.703c-3.858,6.169-7.948,11.917-12.466,17.021
			c-1.463,1.641-2.99,3.211-4.534,4.699l-0.042,0.004c-1.205,1.157-2.401,2.244-3.633,3.318c-2.023-0.037-4.042-0.057-6.056-0.057
			c-9.245,0-18.396,0.369-27.351,0.741c3.182-2.392,6.178-5.056,8.924-8.102C454.763,374.963,459.661,367.324,464.224,358.938
			 M464.224,357.016c-0.702,0-1.354,0.383-1.688,1.004c-5.111,9.392-9.849,16.367-14.909,21.955
			c-2.538,2.819-5.368,5.388-8.65,7.856c-0.675,0.506-0.94,1.392-0.656,2.186c0.274,0.771,1.002,1.277,1.811,1.277
			c0.027,0,0.054,0,0.08,0c8.377-0.35,17.871-0.742,27.271-0.742c2,0,4.008,0.019,6.018,0.057c0.013,0,0.023,0,0.038,0
			c0.463,0,0.913-0.166,1.265-0.472c1.19-1.039,2.345-2.086,3.508-3.196c0.086-0.06,0.167-0.122,0.239-0.196
			c1.659-1.597,3.217-3.211,4.633-4.8c4.252-4.803,8.391-10.457,12.663-17.283c0.32-0.512,0.38-1.148,0.163-1.715
			c-0.218-0.565-0.692-0.995-1.274-1.159c-9.293-2.61-19.238-4.17-30.404-4.77C464.293,357.018,464.259,357.016,464.224,357.016
			L464.224,357.016z"/>
	</g>
	<g enable-background="new    ">
		<path fill="#2E509A" d="M451.394,400.992c6.47-2.04,12.247-4.947,17.449-8.621c-5.168-0.019-10.344-0.028-15.494,0.134
			L451.394,400.992z"/>
		<path fill="#FFFFFF" d="M464.551,392.361c1.43,0,2.863,0.004,4.292,0.01c-5.202,3.674-10.979,6.581-17.449,8.621l1.955-8.487
			C457.075,392.389,460.813,392.361,464.551,392.361 M464.551,390.437c-3.103,0-7.187,0.014-11.26,0.143
			c-0.873,0.029-1.619,0.638-1.815,1.491l-1.959,8.487c-0.153,0.673,0.063,1.376,0.57,1.846c0.359,0.338,0.827,0.512,1.307,0.512
			c0.192,0,0.388-0.029,0.576-0.091c6.481-2.041,12.533-5.031,17.985-8.884c0.683-0.481,0.979-1.354,0.723-2.152
			c-0.252-0.798-0.99-1.34-1.827-1.344L464.551,390.437L464.551,390.437z"/>
	</g>
	<g enable-background="new    ">
		<path fill="#526EA6" d="M525.726,327.913l77.504,71.186c8.007-3.355,15.206-7.979,21.919-13.483l-94.612-81.063
			c-1.054,1.779-1.987,3.61-3.009,5.405C527.782,315.834,527.262,321.802,525.726,327.913z"/>
		<path fill="#FFFFFF" d="M530.536,304.552l94.612,81.063c-6.713,5.505-13.912,10.128-21.919,13.483l-77.504-71.186
			c1.536-6.111,2.057-12.079,1.802-17.956C528.549,308.162,529.482,306.331,530.536,304.552 M530.536,302.627
			c-0.105,0-0.211,0.009-0.314,0.027c-0.562,0.092-1.052,0.428-1.343,0.918c-0.628,1.062-1.215,2.141-1.802,3.221
			c-0.403,0.739-0.806,1.481-1.224,2.214c-0.176,0.314-0.264,0.672-0.247,1.033c0.26,6.002-0.313,11.695-1.747,17.403
			c-0.172,0.687,0.045,1.412,0.563,1.886l77.505,71.185c0.364,0.335,0.83,0.508,1.302,0.508c0.253,0,0.505-0.049,0.745-0.15
			c7.713-3.229,15.037-7.732,22.394-13.769c0.44-0.361,0.697-0.897,0.704-1.471c0.007-0.566-0.24-1.106-0.673-1.48l-94.612-81.061
			C531.436,302.789,530.992,302.627,530.536,302.627L530.536,302.627z"/>
	</g>
	<g enable-background="new    ">
		<path fill="#526EA6" d="M559.977,407.517c115.532,69.739,136.753-95.775,181.729-129.579
			C669.758,284.72,659.114,421.51,559.977,407.517z"/>
		<path fill="#FFFFFF" d="M741.705,277.938c-37.283,28.022-58.239,146.553-130.133,146.553c-14.833,0-31.838-5.049-51.596-16.975
			c4.822,0.68,9.425,1.004,13.847,1.004C660.284,408.521,673.257,284.39,741.705,277.938 M741.705,276.014
			c-0.06,0-0.119,0.001-0.18,0.009c-32.526,3.066-52.428,31.359-73.499,61.315c-23.95,34.049-48.714,69.259-94.203,69.259
			c-4.379,0-8.947-0.331-13.579-0.986c-0.088-0.011-0.18-0.019-0.271-0.019c-0.801,0-1.533,0.505-1.812,1.278
			c-0.305,0.864,0.036,1.825,0.819,2.292c18.963,11.45,36.659,17.255,52.591,17.255c47.175,0,72.462-48.811,94.774-91.874
			c12.055-23.263,23.439-45.24,36.515-55.065c0.689-0.518,0.95-1.432,0.64-2.235C743.213,276.496,742.496,276.014,741.705,276.014
			L741.705,276.014z"/>
	</g>
	<g enable-background="new    ">
		<path fill="#6E7BA8" d="M470.856,183.377l120.824-46.327c-3.313-8.522-7.097-17.005-10.899-25.418l-116.843,43.752
			C465.144,165.208,467.586,174.484,470.856,183.377z"/>
		<path fill="#FFFFFF" d="M580.781,111.632c3.803,8.413,7.586,16.896,10.899,25.418l-120.824,46.327
			c-3.271-8.893-5.713-18.168-6.918-27.993L580.781,111.632 M580.781,109.708c-0.227,0-0.453,0.039-0.674,0.122l-116.845,43.752
			c-0.83,0.313-1.342,1.154-1.232,2.038c1.155,9.417,3.449,18.711,7.021,28.419c0.18,0.485,0.542,0.875,1.011,1.088
			c0.253,0.116,0.521,0.174,0.795,0.174c0.233,0,0.467-0.044,0.69-0.128l120.823-46.326c0.479-0.182,0.862-0.548,1.07-1.017
			c0.208-0.468,0.221-0.999,0.034-1.476c-3.373-8.682-7.255-17.365-10.939-25.516C582.216,110.132,581.516,109.708,580.781,109.708
			L580.781,109.708z"/>
	</g>
	<g enable-background="new    ">
		<path fill="#6E7BA8" d="M575.496,99.948c-6.442-14.38-12.284-28.385-15.353-42.12c-101.074,22.403-95.237,78.048-95.237,78.048
			C504.408,87.063,559.426,96.01,575.496,99.948z"/>
		<path fill="#FFFFFF" d="M560.144,57.829c3.068,13.734,8.91,27.74,15.353,42.12c-5.509-1.35-15.585-3.287-28.05-3.287
			c-23.906,0-56.575,7.13-82.54,39.216C464.906,135.877,459.069,80.231,560.144,57.829 M560.144,55.904
			c-0.138,0-0.277,0.016-0.419,0.045c-52.835,11.711-76.313,32.695-86.702,48.234c-11.431,17.093-10.095,31.298-10.032,31.894
			c0.083,0.774,0.622,1.423,1.368,1.645c0.18,0.052,0.363,0.079,0.548,0.079c0.57,0,1.122-0.255,1.494-0.714
			c25.753-31.82,58.286-38.501,81.046-38.501c12.53,0,22.664,2.024,27.592,3.233c0.151,0.035,0.306,0.054,0.458,0.054
			c0.563,0,1.107-0.248,1.479-0.692c0.469-0.566,0.577-1.349,0.275-2.021c-7.063-15.771-12.358-28.905-15.231-41.75
			C561.819,56.514,561.024,55.904,560.144,55.904L560.144,55.904z"/>
	</g>
	<g enable-background="new    ">
		<path fill="#6E7BA8" d="M446.639,199.703c0.473,2.514,1.029,4.997,1.652,7.438c6.729,0.349,13.217,1.069,19.415,2.385
			c2.142,0.459,4.271,1.011,6.331,1.619l0.032,0.026c1.856,0.563,3.676,1.131,5.484,1.794c0.502,0.194,0.985,0.43,1.484,0.632
			c-14.946-26.719-26.177-56.54-19.722-93.131c-15.803,29.798-18.8,55.172-14.974,77.588c3.246,0.713,6.563,1.519,10.04,2.511
			C452.947,200.044,449.746,199.812,446.639,199.703z"/>
		<path fill="#FFFFFF" d="M461.316,120.466c-6.455,36.591,4.775,66.412,19.722,93.131c-0.499-0.203-0.982-0.438-1.484-0.632
			c-1.809-0.663-3.628-1.231-5.484-1.794l-0.032-0.026c-2.061-0.608-4.189-1.16-6.331-1.619c-6.198-1.316-12.687-2.036-19.415-2.385
			c-0.623-2.441-1.18-4.923-1.652-7.438c3.107,0.109,6.309,0.342,9.744,0.862c-3.477-0.993-6.794-1.798-10.04-2.511
			C442.517,175.638,445.514,150.264,461.316,120.466 M461.316,118.542c-0.694,0-1.357,0.379-1.7,1.022
			c-14.571,27.477-19.534,53.256-15.169,78.813c0.051,0.298,0.167,0.572,0.338,0.807c-0.079,0.282-0.094,0.579-0.037,0.874
			c0.465,2.477,1.03,5.021,1.68,7.562c0.209,0.815,0.926,1.4,1.767,1.446c7.181,0.369,13.43,1.135,19.111,2.343
			c1.951,0.418,3.973,0.934,6.002,1.528c0.067,0.028,0.137,0.057,0.206,0.076c1.719,0.52,3.561,1.093,5.381,1.759
			c0.229,0.089,0.476,0.2,0.726,0.311c0.23,0.102,0.46,0.203,0.691,0.296c0.234,0.096,0.481,0.143,0.727,0.143
			c0.538,0,1.067-0.226,1.442-0.649c0.539-0.613,0.637-1.501,0.238-2.214c-12.642-22.597-26.281-53.456-19.507-91.857
			c0.166-0.932-0.374-1.848-1.269-2.155C461.735,118.574,461.527,118.542,461.316,118.542L461.316,118.542z"/>
	</g>
	<g enable-background="new    ">
		<path fill="#6E7BA8" d="M509.515,347.351c-0.286,1.413-0.678,2.86-1.153,4.282l-0.007,0.045c-1.45,4.687-3.714,9.445-6.737,14.309
			c0.517,0.187,1.03,0.392,1.543,0.585c5.229-5.756,9.549-11.345,12.986-16.786c0.98-1.548,1.885-3.122,2.724-4.635
			c0.01-0.021,0.01-0.021,0.01-0.021c3.22-5.885,5.434-11.607,6.846-17.216l-5.418-4.975c2.306-4.364,4.771-8.668,7.22-12.981
			c-0.096-2.162-0.282-4.314-0.577-6.451c-5.952,10.029-11.224,20.317-16.356,30.318
			C510.818,338.279,510.53,342.775,509.515,347.351z"/>
		<path fill="#FFFFFF" d="M526.95,303.506c0.295,2.137,0.481,4.289,0.577,6.451c-2.449,4.313-4.914,8.617-7.22,12.981l5.418,4.975
			c-1.412,5.608-3.626,11.331-6.846,17.216c0,0,0,0-0.01,0.021c-0.839,1.513-1.743,3.087-2.724,4.635
			c-3.438,5.441-7.757,11.03-12.986,16.786c-0.513-0.193-1.026-0.398-1.543-0.585c3.023-4.863,5.287-9.622,6.737-14.309l0.007-0.045
			c0.476-1.422,0.867-2.869,1.153-4.282c1.016-4.575,1.304-9.071,1.079-13.526C515.727,323.823,520.998,313.535,526.95,303.506
			 M526.95,301.581c-0.672,0-1.304,0.352-1.657,0.941c-5.92,9.979-11.173,20.212-16.254,30.11l-0.158,0.312
			c-0.155,0.302-0.228,0.64-0.211,0.977c0.234,4.577-0.105,8.831-1.033,13.012c-0.277,1.366-0.645,2.729-1.101,4.086
			c-0.023,0.069-0.043,0.141-0.058,0.212c-1.374,4.398-3.559,9.021-6.497,13.738c-0.307,0.495-0.374,1.103-0.181,1.649
			c0.188,0.548,0.618,0.982,1.164,1.179c0.312,0.11,0.616,0.23,0.928,0.35l0.589,0.228c0.221,0.081,0.453,0.122,0.679,0.122
			c0.531,0,1.053-0.222,1.425-0.628c5.26-5.792,9.697-11.53,13.19-17.055c0.874-1.386,1.759-2.89,2.777-4.731
			c3.18-5.813,5.541-11.76,7.039-17.699c0.173-0.682-0.042-1.409-0.563-1.888l-4.324-3.968c1.915-3.559,3.943-7.129,5.915-10.599
			l0.581-1.02c0.178-0.318,0.268-0.676,0.249-1.039c-0.1-2.265-0.3-4.497-0.595-6.628c-0.11-0.81-0.723-1.462-1.525-1.623
			C527.205,301.594,527.076,301.581,526.95,301.581L526.95,301.581z"/>
	</g>
	<g enable-background="new    ">
		<path fill="#6E7BA8" d="M479.647,268.772c0.723,1.16,1.505,2.305,2.298,3.437c4.674,6.908,9.202,13.674,13.268,20.332
			c0.692,1.118,1.316,2.233,1.972,3.349c5.463-8.401,11.696-16.388,19.084-23.563c-4.942-9.718-11.046-19.479-17.409-29.517
			c-4.544-2.32-9.368-4.024-14.488-5.157c-7.775-1.727-16.199-2.264-25.048-2.19c5.563,10.884,12.153,21.119,18.734,30.945
			C478.576,267.201,479.098,268.011,479.647,268.772z"/>
		<path fill="#FFFFFF" d="M460.868,235.456c8.282,0,16.182,0.571,23.503,2.197c5.12,1.133,9.944,2.837,14.488,5.157
			c6.363,10.038,12.467,19.798,17.409,29.517c-7.388,7.175-13.621,15.162-19.084,23.563c-0.655-1.115-1.279-2.23-1.972-3.349
			c-4.065-6.658-8.594-13.424-13.268-20.332c-0.793-1.132-1.575-2.276-2.298-3.437c-0.55-0.761-1.071-1.571-1.59-2.365
			c-6.581-9.826-13.171-20.061-18.734-30.945C459.839,235.458,460.354,235.456,460.868,235.456 M460.868,233.531l-1.561,0.007
			c-0.667,0.004-1.285,0.356-1.631,0.926c-0.346,0.571-0.371,1.281-0.067,1.874c5.683,11.12,12.417,21.538,18.848,31.142
			l0.188,0.285c0.471,0.72,0.942,1.449,1.441,2.137c0.665,1.078,1.467,2.253,2.28,3.412c4.375,6.462,9.012,13.367,13.204,20.233
			c0.463,0.749,0.891,1.484,1.317,2.222l0.638,1.095c0.339,0.576,0.951,0.936,1.617,0.95c0.013,0,0.027,0,0.041,0
			c0.65,0,1.259-0.329,1.614-0.876c5.889-9.057,12.04-16.655,18.812-23.229c0.604-0.588,0.757-1.501,0.373-2.252
			c-4.918-9.677-10.835-19.163-17.499-29.673c-0.186-0.292-0.444-0.526-0.751-0.685c-4.612-2.357-9.641-4.146-14.945-5.323
			C477.99,234.264,470.167,233.531,460.868,233.531L460.868,233.531z"/>
	</g>
	<g enable-background="new    ">
		<path fill="#4F5F9C" d="M496.07,373.938c2.564-2.49,4.886-4.942,7.09-7.366c-0.513-0.193-1.026-0.398-1.543-0.585
			C499.991,368.604,498.205,371.241,496.07,373.938z"/>
		<path fill="#FFFFFF" d="M501.617,365.986c0.517,0.187,1.03,0.392,1.543,0.585c-2.204,2.424-4.525,4.876-7.09,7.366
			C498.205,371.241,499.991,368.604,501.617,365.986 M501.617,364.061c-0.648,0-1.276,0.33-1.636,0.91
			c-1.824,2.937-3.547,5.409-5.419,7.771c-0.631,0.799-0.535,1.945,0.216,2.625c0.37,0.332,0.833,0.496,1.292,0.496
			c0.485,0,0.97-0.185,1.34-0.544c2.32-2.253,4.602-4.62,7.175-7.45c0.429-0.473,0.596-1.125,0.447-1.747
			c-0.15-0.619-0.597-1.123-1.193-1.349l-0.559-0.215c-0.337-0.131-0.674-0.262-1.012-0.382
			C502.055,364.099,501.835,364.061,501.617,364.061L501.617,364.061z"/>
	</g>
	<g enable-background="new    ">
		<path fill="#4D5F98" d="M525.587,296.523l0.017-0.04c-0.499-2.084-1.078-4.205-1.761-6.298c-1.94-5.976-4.543-11.908-7.574-17.859
			c-7.388,7.175-13.621,15.162-19.084,23.563c4.487,7.631,8.243,15.206,10.632,22.805c1.578,5.001,2.521,10.037,2.777,15.13
			c5.133-10.001,10.404-20.289,16.356-30.318c-0.06-0.44-0.095-0.888-0.166-1.33C526.461,300.275,526.046,298.431,525.587,296.523z"
			/>
		<path fill="#FFFFFF" d="M516.269,272.327c3.031,5.951,5.634,11.883,7.574,17.859c0.683,2.093,1.262,4.214,1.761,6.298l-0.017,0.04
			c0.459,1.907,0.874,3.752,1.197,5.652c0.071,0.442,0.106,0.89,0.166,1.33c-5.952,10.029-11.224,20.317-16.356,30.318
			c-0.257-5.093-1.199-10.129-2.777-15.13c-2.389-7.599-6.145-15.174-10.632-22.805
			C502.647,287.488,508.881,279.501,516.269,272.327 M516.269,270.401c-0.497,0-0.979,0.192-1.34,0.543
			c-6.979,6.778-13.312,14.598-19.357,23.896c-0.396,0.608-0.415,1.395-0.045,2.022c4.999,8.508,8.321,15.627,10.454,22.41
			c1.54,4.882,2.446,9.811,2.689,14.648c0.047,0.867,0.668,1.601,1.52,1.783c0.135,0.03,0.271,0.045,0.404,0.045
			c0.71,0,1.378-0.396,1.712-1.045l0.157-0.312c5.055-9.847,10.28-20.029,16.143-29.904c0.223-0.373,0.311-0.812,0.251-1.242
			l-0.061-0.518c-0.033-0.282-0.063-0.569-0.108-0.85c-0.344-2.014-0.776-3.918-1.169-5.552c-0.006-0.098-0.021-0.2-0.042-0.291
			c-0.545-2.283-1.152-4.452-1.805-6.447c-1.832-5.643-4.347-11.578-7.688-18.137c-0.276-0.544-0.799-0.922-1.397-1.025
			C516.479,270.412,516.373,270.401,516.269,270.401L516.269,270.401z"/>
	</g>
	<g enable-background="new    ">
		<path fill="#4F5F9C" d="M525.726,327.913c1.536-6.111,2.057-12.079,1.802-17.956c-2.449,4.313-4.914,8.617-7.22,12.981
			L525.726,327.913z"/>
		<path fill="#FFFFFF" d="M527.527,309.957c0.255,5.877-0.266,11.845-1.802,17.956l-5.418-4.975
			C522.613,318.574,525.078,314.271,527.527,309.957 M527.527,308.034c-0.678,0-1.324,0.359-1.671,0.973l-0.58,1.021
			c-2.229,3.916-4.532,7.968-6.669,12.014c-0.412,0.771-0.245,1.723,0.397,2.313l5.418,4.975c0.361,0.33,0.828,0.508,1.303,0.508
			c0.185,0,0.371-0.025,0.553-0.081c0.65-0.194,1.146-0.715,1.313-1.373c1.526-6.077,2.136-12.128,1.858-18.507
			c-0.037-0.858-0.636-1.587-1.472-1.789C527.828,308.048,527.68,308.034,527.527,308.034L527.527,308.034z"/>
	</g>
	<g enable-background="new    ">
		<path fill="#6E7BA8" d="M601.277,194.781c1.182-8.614,0.846-17.14-0.509-25.715L482.951,209.56
			c1.274,2.311,2.684,4.527,4.007,6.804c4.672,2.467,9.083,5.539,13.197,9.341L601.277,194.781z"/>
		<path fill="#FFFFFF" d="M600.769,169.066c1.354,8.575,1.69,17.101,0.509,25.715l-101.122,30.923
			c-4.114-3.802-8.525-6.874-13.197-9.341c-1.323-2.277-2.732-4.493-4.007-6.804L600.769,169.066 M600.769,167.143
			c-0.21,0-0.424,0.033-0.626,0.105l-117.817,40.494c-0.539,0.184-0.966,0.598-1.17,1.127c-0.203,0.529-0.165,1.123,0.11,1.623
			c0.784,1.421,1.62,2.811,2.458,4.2c0.525,0.876,1.055,1.753,1.567,2.64c0.183,0.311,0.446,0.567,0.766,0.735
			c4.634,2.445,8.938,5.488,12.793,9.052c0.361,0.333,0.831,0.511,1.306,0.511c0.188,0,0.379-0.028,0.563-0.085l101.121-30.921
			c0.718-0.218,1.241-0.834,1.342-1.577c1.141-8.291,0.971-16.887-0.513-26.28c-0.088-0.563-0.421-1.055-0.908-1.348
			C601.458,167.236,601.115,167.143,600.769,167.143L600.769,167.143z"/>
	</g>
	<g enable-background="new    ">
		<path fill="#6E7BA8" d="M586.628,236.35C705.3,172.071,573.354,69.921,567.011,14.022
			C536.376,79.49,648.922,157.973,586.628,236.35z"/>
		<path fill="#FFFFFF" d="M567.011,14.022c6.344,55.899,138.289,158.049,19.617,222.328
			C648.922,157.973,536.376,79.49,567.011,14.022 M567.011,12.098c-0.739,0-1.423,0.424-1.742,1.108
			c-13.853,29.603,0.459,61.097,15.609,94.444c18.881,41.554,38.405,84.524,4.242,127.503c-0.567,0.716-0.555,1.733,0.031,2.434
			c0.378,0.45,0.924,0.688,1.478,0.688c0.312,0,0.627-0.074,0.916-0.231c26.995-14.623,42.768-31.844,48.225-52.648
			c9.622-36.68-15.615-76.808-37.879-112.209c-13.948-22.18-27.123-43.129-28.969-59.379c-0.095-0.857-0.751-1.543-1.603-1.685
			C567.218,12.105,567.114,12.098,567.011,12.098L567.011,12.098z"/>
	</g>
	<g enable-background="new    ">
		<path fill="#91C4E0" d="M369.001,74.205c-9.042-1.398-18.277-2.363-27.459-3.271l-20.533,123.064
			c9.121,3.858,18.374,6.396,27.699,8.009L369.001,74.205z"/>
		<path fill="#FFFFFF" d="M341.542,70.934c9.182,0.907,18.418,1.872,27.459,3.271l-20.293,127.802
			c-9.325-1.613-18.578-4.15-27.699-8.009L341.542,70.934 M341.54,69.009c-0.93,0-1.741,0.673-1.896,1.607l-20.532,123.066
			c-0.147,0.877,0.329,1.743,1.148,2.088c8.796,3.722,17.994,6.381,28.122,8.133c0.108,0.019,0.218,0.028,0.327,0.028
			c0.398,0,0.792-0.124,1.12-0.357c0.419-0.301,0.7-0.758,0.78-1.266l20.294-127.802c0.08-0.505-0.043-1.022-0.346-1.436
			c-0.3-0.414-0.754-0.69-1.26-0.769c-9.239-1.429-18.683-2.405-27.565-3.283C341.667,69.013,341.604,69.009,341.54,69.009
			L341.54,69.009z"/>
	</g>
	<g enable-background="new    ">
		<path fill="#91C4E0" d="M284.616,61.899c-31.13,98.741,19.971,121.506,19.971,121.506
			c-22.511-58.624,12.742-101.794,24.194-113.734C313.106,68.061,298.047,66.113,284.616,61.899z"/>
		<path fill="#FFFFFF" d="M284.616,61.899c13.431,4.213,28.49,6.162,44.165,7.772c-11.452,11.939-46.706,55.11-24.194,113.734
			C304.587,183.405,253.486,160.641,284.616,61.899 M284.616,59.975c-0.817,0-1.576,0.525-1.836,1.346
			c-16.271,51.615-9.84,82.439-1.578,99.209c9.086,18.446,22.054,24.39,22.601,24.632c0.252,0.112,0.519,0.168,0.784,0.168
			c0.483,0,0.961-0.184,1.326-0.529c0.563-0.536,0.75-1.358,0.471-2.086c-22.113-57.586,12.614-100.065,23.785-111.71
			c0.51-0.532,0.671-1.307,0.417-1.996c-0.254-0.69-0.878-1.177-1.608-1.252c-17.194-1.766-31.221-3.75-43.785-7.691
			C285.001,60.003,284.806,59.975,284.616,59.975L284.616,59.975z"/>
	</g>
	<g enable-background="new    ">
		<path fill="#91C4E0" d="M510.037,250.522c1.085,0.936,2.146,2.007,3.145,3.132l0.025,0.028c3.391,3.644,6.414,8.054,9.143,13.2
			c0.42-0.348,0.808-0.713,1.233-1.056c-2.388-7.489-5.089-14.087-8.11-19.837c-0.853-1.625-1.759-3.185-2.654-4.68
			c-0.021-0.028-0.021-0.028-0.021-0.028c-3.804-6.249-8.045-11.343-12.642-15.578l-6.521,1.994
			c-2.302-3.709-4.468-7.537-6.677-11.334c-1.931-1.018-3.904-1.943-5.92-2.767c5.662,10.116,11.844,19.789,17.821,29.213
			C502.836,244.841,506.592,247.342,510.037,250.522z"/>
		<path fill="#FFFFFF" d="M481.038,213.597c2.016,0.823,3.989,1.749,5.92,2.767c2.209,3.797,4.375,7.625,6.677,11.334l6.521-1.994
			c4.597,4.235,8.838,9.329,12.642,15.578c0,0,0,0,0.021,0.028c0.896,1.495,1.802,3.055,2.654,4.68
			c3.021,5.75,5.723,12.348,8.11,19.837c-0.426,0.342-0.813,0.708-1.233,1.056c-2.729-5.146-5.752-9.556-9.143-13.2l-0.025-0.028
			c-0.999-1.125-2.06-2.197-3.145-3.132c-3.445-3.18-7.201-5.682-11.178-7.712C492.882,233.386,486.7,223.712,481.038,213.597
			 M481.038,211.672c-0.539,0-1.069,0.227-1.441,0.65c-0.54,0.614-0.638,1.502-0.239,2.215c5.343,9.543,11.154,18.706,16.774,27.568
			l1.102,1.734c0.184,0.292,0.443,0.529,0.749,0.685c4.099,2.093,7.611,4.517,10.748,7.412c1.012,0.871,2.007,1.866,3.011,2.998
			c3.247,3.491,6.228,7.793,8.908,12.85c0.273,0.512,0.759,0.872,1.326,0.985c0.124,0.026,0.248,0.039,0.374,0.039
			c0.443,0,0.879-0.156,1.228-0.441c0.204-0.169,0.399-0.342,0.599-0.515c0.2-0.175,0.399-0.353,0.612-0.521
			c0.62-0.498,0.87-1.329,0.631-2.086c-2.4-7.53-5.174-14.309-8.241-20.148c-0.938-1.783-1.939-3.485-2.705-4.772
			c-0.029-0.047-0.06-0.097-0.094-0.143c-3.741-6.129-7.968-11.329-12.917-15.89c-0.361-0.333-0.826-0.511-1.307-0.511
			c-0.187,0-0.377,0.028-0.56,0.085l-5.103,1.557c-1.452-2.387-2.87-4.842-4.252-7.227l-1.623-2.801
			c-0.18-0.312-0.447-0.565-0.765-0.733c-1.999-1.056-4.051-2.013-6.089-2.846C481.528,211.718,481.28,211.672,481.038,211.672
			L481.038,211.672z"/>
	</g>
	<g enable-background="new    ">
		<path fill="#91C4E0" d="M351.721,231.468c2.159,0.742,4.318,1.417,6.499,2.015c3.645-5.56,7.485-10.743,11.688-15.379
			c1.483-1.63,3.034-3.183,4.594-4.661l0.03-0.018c1.431-1.328,2.832-2.604,4.316-3.834c0.553-0.447,1.144-0.85,1.713-1.278
			c-30.8-0.356-62.461-5.464-91.104-29.508c18.156,28.986,38.951,44.311,60.601,52.104c2.311-2.537,4.738-5.095,7.433-7.702
			C355.263,226.012,353.402,228.752,351.721,231.468z"/>
		<path fill="#FFFFFF" d="M289.456,178.805c28.643,24.044,60.304,29.151,91.104,29.508c-0.57,0.428-1.16,0.831-1.713,1.278
			c-1.484,1.23-2.885,2.506-4.316,3.834l-0.03,0.018c-1.56,1.478-3.11,3.03-4.594,4.661c-4.202,4.636-8.043,9.819-11.688,15.379
			c-2.181-0.598-4.339-1.273-6.499-2.015c1.681-2.716,3.542-5.456,5.769-8.26c-2.695,2.606-5.122,5.165-7.433,7.702
			C328.406,223.116,307.612,207.792,289.456,178.805 M289.456,176.881c-0.451,0-0.902,0.158-1.263,0.472
			c-0.714,0.622-0.87,1.673-0.369,2.475c16.723,26.695,36.865,43.996,61.581,52.894c0.213,0.074,0.434,0.113,0.652,0.113
			c0.096,0,0.192-0.006,0.288-0.021c0.207,0.212,0.463,0.376,0.752,0.476c2.318,0.793,4.481,1.466,6.614,2.05
			c0.168,0.045,0.339,0.068,0.508,0.068c0.636,0,1.249-0.317,1.609-0.871c3.906-5.959,7.669-10.911,11.506-15.139
			c1.308-1.439,2.745-2.902,4.393-4.467c0.041-0.032,0.079-0.063,0.11-0.092c1.54-1.43,2.848-2.616,4.237-3.764
			c0.304-0.247,0.638-0.488,0.973-0.73l0.67-0.497c0.659-0.496,0.927-1.356,0.669-2.137c-0.255-0.783-0.983-1.313-1.805-1.322
			c-26.093-0.301-59.894-3.878-89.89-29.056C290.335,177.031,289.896,176.881,289.456,176.881L289.456,176.881z"/>
	</g>
	<g enable-background="new    ">
		<path fill="#91C4E0" d="M424.209,237.285c0.965-0.057,1.92-0.11,2.842-0.187c1.377-0.06,2.755-0.172,4.134-0.286
			c8.316-0.599,16.451-1.128,24.238-1.318c1.322-0.039,2.605-0.022,3.9-0.032c-4.57-8.949-8.438-18.342-11.032-28.322
			c-10.533-0.545-21.644-0.178-33.111,0.295c-4.614,2.841-8.797,6.313-12.572,10.407c-5.328,5.759-9.965,12.655-14.298,20.208
			C400.429,238.657,412.496,238.068,424.209,237.285z"/>
		<path fill="#FFFFFF" d="M436.882,206.868c3.87,0,7.677,0.079,11.409,0.272c2.595,9.98,6.462,19.374,11.032,28.322
			c-1.295,0.01-2.578-0.006-3.9,0.032c-7.787,0.19-15.922,0.719-24.238,1.318c-1.379,0.113-2.757,0.226-4.134,0.286
			c-0.922,0.076-1.877,0.13-2.842,0.187c-8.33,0.558-16.839,1.015-25.419,1.015c-3.483,0-6.98-0.076-10.479-0.25
			c4.333-7.552,8.971-14.448,14.298-20.208c3.774-4.095,7.958-7.566,12.572-10.407C422.584,207.13,429.836,206.868,436.882,206.868
			 M436.882,204.943c-7.366,0-15.105,0.295-21.781,0.569c-0.329,0.012-0.651,0.109-0.931,0.283
			c-4.723,2.909-9.089,6.523-12.977,10.743c-4.953,5.352-9.577,11.882-14.552,20.555c-0.333,0.58-0.341,1.292-0.021,1.88
			c0.321,0.586,0.925,0.967,1.594,1c3.356,0.166,6.914,0.252,10.575,0.252c9.078,0,18.008-0.516,25.546-1.02l0.284-0.017
			c0.879-0.051,1.75-0.101,2.593-0.171c1.317-0.056,2.715-0.171,4.113-0.286c9.133-0.656,16.734-1.131,24.144-1.312
			c0.861-0.026,1.7-0.027,2.533-0.027l1.337-0.005c0.667-0.006,1.284-0.358,1.631-0.927c0.345-0.573,0.368-1.279,0.066-1.875
			c-4.967-9.722-8.524-18.857-10.88-27.927c-0.213-0.815-0.926-1.395-1.764-1.439C444.824,205.035,441.056,204.943,436.882,204.943
			L436.882,204.943z"/>
	</g>
	<g enable-background="new    ">
		<path fill="#4DA9DC" d="M357.489,223.208c-2.695,2.606-5.122,5.165-7.433,7.702c0.553,0.197,1.107,0.371,1.664,0.558
			C353.402,228.752,355.263,226.012,357.489,223.208z"/>
		<path fill="#FFFFFF" d="M357.489,223.208c-2.226,2.804-4.087,5.544-5.769,8.26c-0.557-0.187-1.111-0.361-1.664-0.558
			C352.367,228.373,354.794,225.814,357.489,223.208 M357.489,221.284c-0.482,0-0.965,0.182-1.338,0.542
			c-2.437,2.355-4.826,4.832-7.517,7.79c-0.435,0.475-0.6,1.135-0.445,1.759c0.155,0.625,0.614,1.129,1.22,1.346
			c0.365,0.131,0.733,0.252,1.1,0.373l0.593,0.197c0.204,0.069,0.413,0.101,0.617,0.101c0.652,0,1.278-0.333,1.636-0.91
			c1.875-3.028,3.667-5.594,5.64-8.078c0.63-0.794,0.539-1.941-0.213-2.622C358.417,221.449,357.953,221.284,357.489,221.284
			L357.489,221.284z"/>
	</g>
	<g enable-background="new    ">
		<path fill="#3B65A0" d="M526.356,275.443c-0.862-3.383-1.797-6.553-2.773-9.616c-0.426,0.342-0.813,0.708-1.233,1.056
			C523.767,269.541,525.12,272.333,526.356,275.443z"/>
		<path fill="#FFFFFF" d="M523.583,265.827c0.977,3.063,1.911,6.232,2.773,9.616c-1.236-3.11-2.59-5.902-4.007-8.56
			C522.77,266.535,523.157,266.169,523.583,265.827 M523.583,263.902c-0.432,0-0.856,0.146-1.205,0.423
			c-0.255,0.205-0.499,0.42-0.741,0.632c-0.169,0.147-0.337,0.295-0.51,0.439c-0.706,0.582-0.904,1.581-0.476,2.389
			c1.592,2.99,2.837,5.649,3.917,8.369c0.299,0.751,1.02,1.212,1.788,1.212c0.197,0,0.397-0.029,0.595-0.092
			c0.967-0.313,1.522-1.325,1.271-2.308c-0.791-3.092-1.706-6.274-2.804-9.725c-0.194-0.604-0.673-1.074-1.279-1.258
			C523.957,263.929,523.771,263.902,523.583,263.902L523.583,263.902z"/>
	</g>
	<g enable-background="new    ">
		<path fill="#3D699F" d="M474.069,211.17l-0.032-0.026c-2.061-0.608-4.189-1.16-6.331-1.619
			c-6.198-1.316-12.687-2.036-19.415-2.385c2.595,9.98,6.462,19.374,11.032,28.322c8.849-0.073,17.272,0.463,25.048,2.19
			c5.12,1.133,9.944,2.837,14.488,5.157c-5.978-9.424-12.159-19.098-17.821-29.213c-0.499-0.203-0.982-0.438-1.484-0.632
			C477.745,212.302,475.926,211.733,474.069,211.17z"/>
		<path fill="#FFFFFF" d="M448.291,207.14c6.729,0.349,13.217,1.069,19.415,2.385c2.142,0.459,4.271,1.011,6.331,1.619l0.032,0.026
			c1.856,0.563,3.676,1.131,5.484,1.794c0.502,0.194,0.985,0.43,1.484,0.632c5.662,10.116,11.844,19.789,17.821,29.213
			c-4.544-2.32-9.368-4.024-14.488-5.157c-7.323-1.626-15.217-2.197-23.502-2.197c-0.515,0-1.03,0.002-1.546,0.006
			C454.753,226.514,450.886,217.121,448.291,207.14 M448.291,205.216c-0.575,0-1.124,0.26-1.491,0.71
			c-0.386,0.475-0.523,1.107-0.368,1.7c2.426,9.345,6.082,18.736,11.178,28.712c0.328,0.644,0.992,1.049,1.714,1.049
			c0.005,0,0.012,0,0.015,0l1.531-0.006c9.014,0,16.567,0.704,23.086,2.152c4.985,1.104,9.705,2.783,14.027,4.99
			c0.277,0.142,0.578,0.211,0.877,0.211c0.526,0,1.048-0.218,1.422-0.627c0.585-0.642,0.667-1.594,0.203-2.326l-1.104-1.741
			c-5.59-8.817-11.373-17.934-16.661-27.383c-0.214-0.381-0.553-0.679-0.955-0.843l-0.585-0.252
			c-0.309-0.139-0.619-0.273-0.937-0.395c-1.87-0.685-3.712-1.262-5.435-1.784c-0.076-0.033-0.15-0.063-0.226-0.084
			c-2.186-0.646-4.362-1.203-6.473-1.657c-5.883-1.249-12.331-2.043-19.716-2.423C448.358,205.216,448.324,205.216,448.291,205.216
			L448.291,205.216z"/>
	</g>
	<g enable-background="new    ">
		<path fill="#3D699F" d="M500.155,225.704c-4.114-3.802-8.525-6.874-13.197-9.341c2.209,3.797,4.375,7.625,6.677,11.334
			L500.155,225.704z"/>
		<path fill="#FFFFFF" d="M486.958,216.363c4.672,2.467,9.083,5.539,13.197,9.341l-6.521,1.994
			C491.333,223.988,489.167,220.161,486.958,216.363 M486.958,214.438c-0.513,0-1.018,0.207-1.391,0.594
			c-0.595,0.62-0.706,1.56-0.274,2.302l1.617,2.785c1.638,2.836,3.333,5.767,5.088,8.594c0.359,0.577,0.983,0.91,1.637,0.91
			c0.187,0,0.374-0.028,0.561-0.086l6.523-1.993c0.659-0.201,1.163-0.738,1.314-1.412c0.153-0.669-0.063-1.373-0.571-1.842
			c-4.102-3.789-8.682-7.03-13.608-9.629C487.571,214.512,487.26,214.438,486.958,214.438L486.958,214.438z"/>
	</g>
	<g enable-background="new    ">
		<path fill="#91C4E0" d="M423.805,94.759c-6.87-5.324-14.435-9.297-22.527-12.423l-23.842,122.296
			c2.875,0.049,5.742-0.062,8.614-0.08c4.239-2.59,8.837-4.702,13.858-6.271L423.805,94.759z"/>
		<path fill="#FFFFFF" d="M401.278,82.336c8.092,3.125,15.657,7.099,22.527,12.423l-23.896,103.523
			c-5.021,1.569-9.62,3.681-13.858,6.271c-2.361,0.013-4.716,0.092-7.077,0.092c-0.512,0-1.023-0.003-1.537-0.013L401.278,82.336
			 M401.278,80.411c-0.321,0-0.643,0.081-0.93,0.241c-0.499,0.274-0.849,0.757-0.959,1.316l-23.842,122.296
			c-0.109,0.558,0.036,1.136,0.394,1.578c0.358,0.445,0.895,0.705,1.463,0.714c0.522,0.009,1.045,0.013,1.569,0.013
			c1.309,0,2.614-0.024,3.924-0.047c1.053-0.02,2.108-0.039,3.164-0.045c0.35-0.001,0.694-0.098,0.993-0.282
			c4.18-2.554,8.698-4.598,13.431-6.078c0.649-0.203,1.146-0.735,1.3-1.404L425.68,95.191c0.17-0.73-0.103-1.494-0.697-1.952
			c-6.59-5.109-14.116-9.262-23.012-12.697C401.748,80.456,401.513,80.411,401.278,80.411L401.278,80.411z"/>
	</g>
	<g enable-background="new    ">
		<path fill="#91C4E0" d="M452.471,128.22c3.675-134.901-150.766-71.709-202.356-94.162
			C291.504,93.308,415.736,35.073,452.471,128.22z"/>
		<path fill="#FFFFFF" d="M250.114,34.058c9.929,4.32,23.655,5.469,39.341,5.469c17.84,0,38.207-1.488,58.354-1.487
			c54.188,0,106.825,10.766,104.662,90.18C415.736,35.073,291.504,93.308,250.114,34.058 M250.114,32.133
			c-0.563,0-1.114,0.249-1.49,0.708c-0.544,0.665-0.581,1.613-0.086,2.318c18.712,26.789,53.14,30.14,89.588,33.688
			c45.431,4.421,92.408,8.995,112.554,60.079c0.295,0.744,1.011,1.217,1.789,1.217c0.109,0,0.225-0.009,0.336-0.03
			c0.901-0.158,1.566-0.929,1.592-1.842c0.819-30.126-5.936-52.123-20.649-67.243c-21.488-22.081-57.214-24.914-85.938-24.914
			c-10.417-0.001-20.887,0.396-31.014,0.779c-9.631,0.364-18.727,0.708-27.339,0.708c-18.239,0-30.136-1.636-38.573-5.309
			C250.635,32.186,250.374,32.133,250.114,32.133L250.114,32.133z"/>
	</g>
	<g enable-background="new    ">
		<path fill="#6DB1D7" d="M282.72,337.085c7.924-5.933,14.769-12.652,20.854-19.909l-100.256-81.805
			c-5.774,7.097-11.242,14.613-16.638,22.08L282.72,337.085z"/>
		<path fill="#FFFFFF" d="M203.318,235.371l100.256,81.805c-6.085,7.257-12.93,13.977-20.854,19.909l-96.04-79.635
			C192.076,249.983,197.544,242.467,203.318,235.371 M203.318,233.446c-0.066,0-0.13,0.003-0.196,0.01
			c-0.509,0.05-0.975,0.304-1.297,0.701c-5.654,6.951-10.912,14.153-16.705,22.167c-0.595,0.821-0.45,1.961,0.33,2.607
			l96.041,79.635c0.357,0.296,0.792,0.442,1.229,0.442c0.407,0,0.811-0.126,1.154-0.383c7.634-5.714,14.56-12.326,21.175-20.21
			c0.332-0.395,0.489-0.906,0.44-1.418c-0.047-0.512-0.299-0.984-0.699-1.311L204.534,233.88
			C204.19,233.599,203.759,233.446,203.318,233.446L203.318,233.446z"/>
	</g>
	<g enable-background="new    ">
		<path fill="#6DB1D7" d="M265.306,345.954c-61.988-10.026-81.569-62.209-86.149-78.098c-9.256,12.724-18.512,24.761-28.912,34.257
			C219.922,378.674,265.306,345.954,265.306,345.954z"/>
		<path fill="#FFFFFF" d="M179.156,267.856c4.58,15.889,24.162,68.072,86.149,78.098c0,0-9.638,6.948-26.853,6.948
			c-20.138,0-50.644-9.512-88.209-50.789C160.644,292.617,169.9,280.58,179.156,267.856 M179.156,265.931
			c-0.609,0-1.19,0.289-1.557,0.793c-10.146,13.948-18.901,25.063-28.653,33.967c-0.785,0.717-0.842,1.929-0.125,2.716
			c38.675,42.5,70.09,51.42,89.632,51.42c17.634,0,27.565-7.016,27.978-7.311c0.631-0.457,0.927-1.249,0.747-2.008
			c-0.18-0.757-0.798-1.332-1.564-1.456c-60.819-9.835-80.138-61.216-84.609-76.73c-0.203-0.708-0.791-1.235-1.516-1.363
			C179.378,265.941,179.267,265.931,179.156,265.931L179.156,265.931z"/>
	</g>
	<g enable-background="new    ">
		<path fill="#4DA9DC" d="M415.18,207.435c3.535-2.178,7.294-4.023,11.457-5.303c1.355-0.474,2.808-0.845,4.286-1.136l0.044-0.013
			c4.759-1.079,9.983-1.477,15.672-1.28c-0.103-0.546-0.197-1.101-0.296-1.649c-7.54-1.662-14.499-2.628-20.895-2.895
			c-1.825-0.087-3.628-0.095-5.369-0.06c-0.042,0-0.042,0-0.042,0c-7.443,0.144-14.083,1.284-20.128,3.183l-1.425,6.16
			c-4.136,0.133-8.286,0.091-12.433,0.111c-1.896,1.164-3.726,2.417-5.49,3.76C392.298,208.446,403.905,207.898,415.18,207.435z"/>
		<path fill="#FFFFFF" d="M421.942,195.08c1.151,0,2.325,0.021,3.506,0.079c6.396,0.267,13.354,1.233,20.895,2.895
			c0.099,0.548,0.193,1.103,0.296,1.649c-0.932-0.032-1.85-0.048-2.756-0.048c-4.63,0-8.936,0.425-12.916,1.328l-0.044,0.013
			c-1.479,0.292-2.931,0.662-4.286,1.136c-4.162,1.28-7.922,3.125-11.457,5.303c-10.093,0.413-20.452,0.897-30.933,0.897
			c-1.227,0-2.457-0.006-3.687-0.019c1.764-1.343,3.593-2.596,5.49-3.76c4.147-0.02,8.297,0.022,12.433-0.111l1.425-6.16
			c6.045-1.899,12.686-3.039,20.128-3.183c0,0,0,0,0.042,0C420.691,195.086,421.314,195.08,421.942,195.08 M421.942,193.155
			c-0.641,0-1.274,0.007-1.901,0.019c-7.393,0.143-14.154,1.215-20.71,3.272c-0.649,0.205-1.145,0.739-1.299,1.401l-1.088,4.712
			c-2.534,0.058-5.098,0.06-7.59,0.063l-3.313,0.006c-0.352,0.003-0.698,0.1-0.995,0.284c-1.933,1.184-3.833,2.487-5.65,3.868
			c-0.654,0.498-0.918,1.355-0.662,2.136c0.257,0.782,0.983,1.313,1.804,1.322c1.239,0.013,2.475,0.019,3.71,0.019
			c9.383,0,18.702-0.387,27.713-0.762l3.298-0.138c0.329-0.013,0.65-0.111,0.93-0.282c3.737-2.304,7.338-3.973,11.013-5.102
			c1.249-0.436,2.599-0.796,4.093-1.087c0.065-0.015,0.127-0.029,0.188-0.048c3.658-0.829,7.86-1.259,12.399-1.259
			c0.885,0,1.78,0.016,2.69,0.046c0.02,0.001,0.044,0.001,0.065,0.001c0.561,0,1.094-0.244,1.461-0.67
			c0.381-0.442,0.538-1.035,0.43-1.611l-0.231-1.285l-0.061-0.344c-0.136-0.766-0.721-1.375-1.483-1.543
			c-7.629-1.68-14.771-2.67-21.225-2.937C424.327,193.18,423.124,193.155,421.942,193.155L421.942,193.155z"/>
	</g>
	<g enable-background="new    ">
		<path fill="#6DB1D7" d="M329.528,330.166c2.405-2.038,4.704-4.151,6.894-6.343c-2.809-5.654-5.23-11.302-7.05-16.979
			c-0.667-2.093-1.243-4.217-1.741-6.3l0.026-0.036c-0.449-1.901-0.852-3.755-1.175-5.655c-0.195-1.243-0.316-2.491-0.446-3.746
			c-15.938,27.076-36.38,52.671-72.318,65.603c33.619-1.097,57.025-11.1,74.558-25.492c-0.986-3.089-1.933-6.287-2.802-9.709
			C326.726,324.658,328.102,327.481,329.528,330.166z"/>
		<path fill="#FFFFFF" d="M326.037,291.106c0.13,1.255,0.251,2.503,0.446,3.746c0.323,1.9,0.726,3.754,1.175,5.655l-0.026,0.036
			c0.498,2.083,1.073,4.207,1.741,6.3c1.819,5.678,4.241,11.325,7.05,16.979c-2.19,2.191-4.489,4.305-6.894,6.343
			c-1.426-2.685-2.802-5.508-4.054-8.658c0.869,3.422,1.816,6.62,2.802,9.709c-17.532,14.393-40.938,24.396-74.558,25.492
			C289.657,343.777,310.099,318.183,326.037,291.106 M326.037,289.183c-0.67,0-1.307,0.354-1.656,0.946
			c-14.444,24.538-34.211,51.416-71.313,64.772c-0.891,0.318-1.416,1.241-1.239,2.173c0.175,0.907,0.97,1.561,1.89,1.561
			c0.021,0,0.042,0,0.063,0c30.929-1.011,55.695-9.493,75.718-25.933c0.227-0.186,0.405-0.417,0.524-0.674
			c0.272-0.073,0.529-0.206,0.75-0.394c2.451-2.076,4.81-4.248,7.01-6.45c0.584-0.586,0.731-1.477,0.362-2.215
			c-3.008-6.064-5.279-11.528-6.94-16.713c-0.576-1.813-1.126-3.783-1.628-5.854c-0.005-0.115-0.021-0.228-0.046-0.337
			c-0.516-2.186-0.872-3.892-1.149-5.535c-0.167-1.056-0.276-2.141-0.389-3.225l-0.039-0.396c-0.087-0.826-0.693-1.505-1.506-1.685
			C326.31,289.197,326.173,289.183,326.037,289.183L326.037,289.183z"/>
	</g>
	<g enable-background="new    ">
		<path fill="#6DB1D7" d="M373.296,267.104c0.65-1.21,1.235-2.466,1.843-3.703c3.666-7.503,7.283-14.796,11.045-21.629
			c0.694-1.273,1.414-2.482,2.125-3.722c-10.047-0.501-20.134-1.83-30.091-4.567c-5.417,8.256-10.384,17.362-15.396,26.818
			c-0.063,6.11,0.85,12.139,2.704,18.117c2.219,7.19,5.667,14.368,9.801,21.601c6.322-9.857,11.673-20.209,16.707-30.365
			C372.473,268.81,372.906,267.952,373.296,267.104z"/>
		<path fill="#FFFFFF" d="M358.219,233.482c9.957,2.737,20.044,4.066,30.091,4.567c-0.712,1.24-1.431,2.449-2.125,3.722
			c-3.762,6.833-7.38,14.126-11.045,21.629c-0.608,1.236-1.193,2.492-1.843,3.703c-0.39,0.848-0.823,1.706-1.261,2.548
			c-5.034,10.156-10.385,20.508-16.707,30.365c-4.134-7.232-7.583-14.41-9.801-21.601c-1.854-5.978-2.767-12.007-2.704-18.117
			C347.835,250.844,352.803,241.739,358.219,233.482 M358.219,231.558c-0.637,0-1.248,0.319-1.608,0.869
			c-5.717,8.714-10.993,18.492-15.489,26.971c-0.144,0.272-0.22,0.576-0.224,0.881c-0.064,6.237,0.874,12.53,2.791,18.709
			c2.05,6.649,5.311,13.839,9.968,21.984c0.335,0.585,0.95,0.954,1.623,0.971c0.016,0,0.031,0,0.048,0
			c0.655,0,1.265-0.333,1.62-0.887c6.469-10.089,11.903-20.645,16.813-30.549c0.433-0.837,0.883-1.724,1.285-2.604
			c0.428-0.789,0.875-1.712,1.323-2.631l0.497-1.021c3.282-6.717,7.105-14.47,11.005-21.549c0.5-0.92,1.008-1.794,1.518-2.675
			l0.59-1.017c0.333-0.579,0.343-1.294,0.021-1.881c-0.32-0.589-0.924-0.969-1.593-1.002c-10.946-0.547-20.653-2.018-29.676-4.499
			C358.562,231.582,358.389,231.558,358.219,231.558L358.219,231.558z"/>
	</g>
	<g enable-background="new    ">
		<path fill="#4F9DCA" d="M327.658,300.508l-0.026,0.036c0.498,2.083,1.073,4.207,1.741,6.3c1.819,5.678,4.241,11.325,7.05,16.979
			c7.273-7.297,13.483-15.343,18.906-23.806c-4.134-7.232-7.583-14.41-9.801-21.601c-1.854-5.978-2.767-12.007-2.704-18.117
			c-5.337,10.079-10.743,20.545-16.786,30.806c0.13,1.255,0.251,2.503,0.446,3.746C326.807,296.753,327.209,298.606,327.658,300.508
			z"/>
		<path fill="#FFFFFF" d="M342.823,260.3c-0.063,6.11,0.85,12.139,2.704,18.117c2.219,7.19,5.667,14.368,9.801,21.601
			c-5.422,8.463-11.632,16.509-18.906,23.806c-2.809-5.654-5.23-11.302-7.05-16.979c-0.667-2.093-1.243-4.217-1.741-6.3l0.026-0.036
			c-0.449-1.901-0.852-3.755-1.175-5.655c-0.195-1.243-0.316-2.491-0.446-3.746C332.08,280.846,337.485,270.379,342.823,260.3
			 M342.823,258.376c-0.701,0-1.36,0.383-1.701,1.024l-2.488,4.711c-4.509,8.548-9.169,17.387-14.253,26.018
			c-0.209,0.355-0.299,0.767-0.258,1.177l0.041,0.391c0.119,1.154,0.237,2.307,0.418,3.455c0.286,1.671,0.635,3.369,1.131,5.49
			c0.004,0.12,0.021,0.239,0.047,0.35c0.545,2.276,1.143,4.444,1.779,6.44c1.72,5.37,4.063,11.011,7.159,17.248
			c0.278,0.556,0.803,0.942,1.414,1.045c0.103,0.016,0.207,0.024,0.311,0.024c0.507,0,1-0.202,1.363-0.566
			c6.974-6.996,13.241-14.886,19.163-24.127c0.387-0.604,0.406-1.371,0.051-1.991c-4.514-7.899-7.667-14.839-9.634-21.215
			c-1.799-5.797-2.681-11.696-2.618-17.53c0.009-0.888-0.59-1.667-1.451-1.883C343.139,258.396,342.979,258.376,342.823,258.376
			L342.823,258.376z"/>
	</g>
	<g enable-background="new    ">
		<path fill="#4DA9DC" d="M325.474,321.508c0.869,3.422,1.816,6.62,2.802,9.709c0.423-0.35,0.84-0.696,1.252-1.051
			C328.102,327.481,326.726,324.658,325.474,321.508z"/>
		<path fill="#FFFFFF" d="M325.474,321.508c1.252,3.15,2.628,5.974,4.054,8.658c-0.412,0.354-0.829,0.701-1.252,1.051
			C327.291,328.128,326.343,324.93,325.474,321.508 M325.474,319.583c-0.197,0-0.396,0.031-0.594,0.096
			c-0.964,0.311-1.52,1.319-1.272,2.303c0.797,3.141,1.697,6.26,2.836,9.821c0.194,0.608,0.676,1.08,1.291,1.263
			c0.177,0.05,0.361,0.075,0.542,0.075c0.442,0,0.878-0.152,1.225-0.44c0.433-0.356,0.858-0.714,1.276-1.067
			c0.687-0.589,0.875-1.57,0.45-2.368c-1.628-3.064-2.888-5.755-3.964-8.467C326.964,320.045,326.243,319.583,325.474,319.583
			L325.474,319.583z"/>
	</g>
	<g enable-background="new    ">
		<path fill="#5595C2" d="M456.383,200.565c-3.477-0.993-6.794-1.798-10.04-2.511c0.099,0.548,0.193,1.103,0.296,1.649
			C449.746,199.812,452.947,200.044,456.383,200.565z"/>
		<path fill="#FFFFFF" d="M446.343,198.054c3.246,0.713,6.563,1.519,10.04,2.511c-3.436-0.521-6.637-0.753-9.744-0.862
			C446.536,199.157,446.441,198.602,446.343,198.054 M446.343,196.129c-0.492,0-0.971,0.187-1.333,0.536
			c-0.465,0.444-0.675,1.091-0.562,1.726l0.06,0.339l0.24,1.332c0.167,0.885,0.925,1.535,1.822,1.564
			c3.52,0.125,6.548,0.392,9.526,0.842c0.097,0.012,0.194,0.022,0.291,0.022c0.89,0,1.684-0.621,1.878-1.519
			c0.213-0.989-0.379-1.979-1.354-2.257c-3.185-0.909-6.413-1.718-10.158-2.541C446.618,196.143,446.479,196.129,446.343,196.129
			L446.343,196.129z"/>
	</g>
	<g enable-background="new    ">
		<path fill="#58A7D1" d="M374.531,213.425l-0.03,0.018c-1.56,1.478-3.11,3.03-4.594,4.661c-4.202,4.636-8.043,9.819-11.688,15.379
			c9.957,2.737,20.044,4.066,30.091,4.567c4.333-7.552,8.971-14.448,14.298-20.208c3.774-4.095,7.958-7.566,12.572-10.407
			c-11.275,0.463-22.882,1.011-34.62,0.878c-0.57,0.428-1.16,0.831-1.713,1.278C377.362,210.821,375.962,212.097,374.531,213.425z"
			/>
		<path fill="#FFFFFF" d="M415.18,207.435c-4.614,2.841-8.797,6.313-12.572,10.407c-5.328,5.759-9.965,12.655-14.298,20.208
			c-10.047-0.501-20.134-1.83-30.091-4.567c3.645-5.56,7.485-10.743,11.688-15.379c1.483-1.63,3.034-3.183,4.594-4.661l0.03-0.018
			c1.431-1.328,2.832-2.604,4.316-3.834c0.553-0.447,1.144-0.85,1.713-1.278c1.23,0.013,2.458,0.019,3.687,0.019
			C394.728,208.332,405.087,207.848,415.18,207.435 M415.18,205.51c-0.027,0-0.052,0-0.079,0.002l-3.299,0.138
			c-8.974,0.371-18.253,0.758-27.555,0.758c-1.222,0-2.442-0.007-3.665-0.019c-0.008,0-0.015,0-0.022,0
			c-0.419,0-0.826,0.137-1.16,0.387l-0.616,0.453c-0.388,0.283-0.774,0.566-1.147,0.867c-1.446,1.197-2.777,2.4-4.324,3.835
			c-0.047,0.036-0.093,0.076-0.134,0.114c-1.76,1.668-3.295,3.224-4.695,4.764c-3.971,4.38-7.856,9.489-11.872,15.62
			c-0.338,0.514-0.41,1.157-0.192,1.734c0.218,0.576,0.697,1.015,1.289,1.177c9.299,2.556,19.278,4.071,30.507,4.633
			c0.032,0.001,0.063,0.001,0.096,0.001c0.687,0,1.325-0.366,1.669-0.967c4.829-8.411,9.29-14.722,14.043-19.858
			c3.651-3.962,7.744-7.353,12.167-10.074c0.746-0.46,1.087-1.367,0.831-2.202C416.771,206.061,416.025,205.51,415.18,205.51
			L415.18,205.51z"/>
	</g>
	<g enable-background="new    ">
		<path fill="#4DA9DC" d="M399.908,198.282c-5.021,1.569-9.62,3.681-13.858,6.271c4.147-0.02,8.297,0.022,12.433-0.111
			L399.908,198.282z"/>
		<path fill="#FFFFFF" d="M399.908,198.282l-1.425,6.16c-4.136,0.133-8.286,0.091-12.433,0.111
			C390.289,201.963,394.887,199.851,399.908,198.282 M399.908,196.356c-0.191,0-0.385,0.03-0.575,0.089
			c-5.032,1.572-9.836,3.748-14.288,6.465c-0.736,0.45-1.084,1.337-0.847,2.168c0.234,0.828,0.989,1.398,1.851,1.398
			c0.003,0,0.005,0,0.009,0l3.297-0.006c3.01-0.003,6.123-0.006,9.191-0.106c0.871-0.027,1.616-0.639,1.813-1.489l1.424-6.16
			c0.154-0.672-0.062-1.376-0.567-1.846C400.855,196.534,400.386,196.356,399.908,196.356L399.908,196.356z"/>
	</g>
	<g enable-background="new    ">
		<path fill="#6DB1D7" d="M327.025,271.922l-78.389-73.591c-8.047,3.253-15.284,7.799-22.062,13.22l93.708,82.113
			c1.844-3.031,3.636-6.098,5.388-9.176C325.676,280.354,326.147,276.166,327.025,271.922z"/>
		<path fill="#FFFFFF" d="M248.636,198.331l78.389,73.591c-0.877,4.244-1.349,8.432-1.355,12.566
			c-1.751,3.078-3.544,6.145-5.388,9.176l-93.708-82.113C233.352,206.13,240.588,201.584,248.636,198.331 M248.636,196.406
			c-0.243,0-0.489,0.045-0.722,0.142c-7.7,3.111-15.072,7.528-22.542,13.5c-0.445,0.354-0.71,0.89-0.724,1.458
			c-0.013,0.571,0.227,1.116,0.656,1.492l93.708,82.111c0.354,0.313,0.805,0.479,1.27,0.479c0.097,0,0.194-0.01,0.291-0.024
			c0.563-0.087,1.058-0.415,1.353-0.901c1.764-2.896,3.534-5.913,5.417-9.223c0.166-0.29,0.252-0.619,0.252-0.952
			c0.005-3.885,0.447-7.983,1.314-12.178c0.136-0.653-0.078-1.335-0.566-1.792l-78.39-73.591
			C249.588,196.585,249.117,196.406,248.636,196.406L248.636,196.406z"/>
	</g>
	<g enable-background="new    ">
		<path fill="#4F9DCA" d="M327.025,271.922c-0.877,4.244-1.349,8.432-1.355,12.566c1.712-3.022,3.392-6.063,5.04-9.111
			L327.025,271.922z"/>
		<path fill="#FFFFFF" d="M327.025,271.922l3.685,3.456c-1.648,3.047-3.328,6.088-5.04,9.111
			C325.676,280.354,326.147,276.166,327.025,271.922 M327.025,269.998c-0.195,0-0.391,0.03-0.581,0.09
			c-0.663,0.209-1.163,0.763-1.304,1.445c-0.918,4.446-1.389,8.805-1.395,12.953c-0.002,0.875,0.585,1.639,1.431,1.863
			c0.165,0.042,0.33,0.065,0.493,0.065c0.68,0,1.327-0.365,1.674-0.977c1.718-3.035,3.403-6.084,5.059-9.144
			c0.415-0.768,0.261-1.722-0.376-2.318l-3.687-3.456C327.98,270.179,327.506,269.998,327.025,269.998L327.025,269.998z"/>
	</g>
	<g enable-background="new    ">
		<path fill="#6DB1D7" d="M291.981,190.38c-114.755-71.017-137.81,94.26-183.15,127.533
			C180.853,311.955,193.003,175.299,291.981,190.38z"/>
		<path fill="#FFFFFF" d="M239.855,172.832c15.001,0.003,32.186,5.209,52.126,17.548c-5.171-0.786-10.104-1.161-14.821-1.161
			c-85.588,0-100.07,123.048-168.33,128.693C146.293,290.424,168.528,172.818,239.855,172.832 M239.842,170.907
			c-46.705,0-72.377,48.242-95.032,90.807c-12.31,23.13-23.936,44.975-37.118,54.646c-0.694,0.512-0.967,1.418-0.664,2.228
			c0.283,0.754,1.006,1.249,1.803,1.249c0.052,0,0.105-0.001,0.157-0.006c32.564-2.695,52.777-30.764,74.178-60.48
			c24.145-33.533,49.115-68.207,93.994-68.207c4.68,0,9.568,0.382,14.532,1.138c0.098,0.016,0.193,0.022,0.291,0.022
			c0.795,0,1.523-0.494,1.805-1.259c0.315-0.86-0.015-1.821-0.793-2.301c-19.121-11.833-37-17.834-53.139-17.838
			C239.854,170.907,239.846,170.907,239.842,170.907L239.842,170.907z"/>
	</g>
</g>
</svg>
