<?xml version="1.0" encoding="iso-8859-1"?>
<!-- Generator: Adobe Illustrator 16.0.0, SVG Export Plug-In . SVG Version: 6.00 Build 0)  -->
<!DOCTYPE svg PUBLIC "-//W3C//DTD SVG 1.1//EN" "http://www.w3.org/Graphics/SVG/1.1/DTD/svg11.dtd" [
	<!ENTITY ns_extend "http://ns.adobe.com/Extensibility/1.0/">
	<!ENTITY ns_ai "http://ns.adobe.com/AdobeIllustrator/10.0/">
	<!ENTITY ns_graphs "http://ns.adobe.com/Graphs/1.0/">
	<!ENTITY ns_vars "http://ns.adobe.com/Variables/1.0/">
	<!ENTITY ns_imrep "http://ns.adobe.com/ImageReplacement/1.0/">
	<!ENTITY ns_sfw "http://ns.adobe.com/SaveForWeb/1.0/">
	<!ENTITY ns_custom "http://ns.adobe.com/GenericCustomNamespace/1.0/">
	<!ENTITY ns_adobe_xpath "http://ns.adobe.com/XPath/1.0/">
]>
<svg version="1.1" id="&#x56FE;&#x5C42;_1" xmlns:x="&ns_extend;" xmlns:i="&ns_ai;" xmlns:graph="&ns_graphs;"
	 xmlns="http://www.w3.org/2000/svg" xmlns:xlink="http://www.w3.org/1999/xlink" x="0px" y="0px" width="481.89px"
	 height="481.89px" viewBox="0 0 481.89 481.89" style="enable-background:new 0 0 481.89 481.89;" xml:space="preserve">
<metadata>
	<sfw  xmlns="&ns_sfw;">
		<slices></slices>
		<sliceSourceBounds  height="426.597" width="446.085" x="16.074" y="-448.876" bottomLeftOrigin="true"></sliceSourceBounds>
	</sfw>
</metadata>
<g>
	<path style="fill:none;enable-background:new    ;" d="M184.142,275.178c-1.797,0.246-3.6,0.551-5.402,0.917
		c-1.643-3.687-2.764-7.227-3.308-10.641l-0.002-0.033c-0.199-1.051-0.337-2.104-0.379-3.12c-0.251-3.079-0.021-6.049,0.495-8.959
		C178.274,261.004,180.979,268.401,184.142,275.178z"/>
	<path style="fill:none;enable-background:new    ;" d="M174.723,205.167c2.379-3.204,4.884-5.92,7.559-8.094l0.021-0.02
		c0.823-0.696,1.674-1.353,2.545-1.918c2.157-1.495,4.427-2.62,6.743-3.584c-4.973,5.843-9.728,11.561-13.798,17.344
		C176.815,207.623,175.79,206.387,174.723,205.167z"/>
	<path style="fill:none;enable-background:new    ;" d="M304.247,267.396c-2.441,3.298-5.013,6.065-7.755,8.282l-0.03,0.018
		c-0.819,0.694-1.681,1.343-2.548,1.913c-2.78,1.901-5.701,3.302-8.736,4.355c5.565-6.355,10.938-12.547,15.538-18.801
		C301.837,264.604,303.012,266.018,304.247,267.396z"/>
	<path style="fill:none;enable-background:new    ;" d="M234.664,163.985c4.119,0.413,7.842,1.211,11.146,2.444l0.022,0.009
		c1.02,0.351,2.009,0.757,2.935,1.212c3.426,1.596,6.4,3.672,9.046,6.094c-8.827-1.519-17.379-2.945-25.552-3.521
		C233.142,168.192,233.942,166.114,234.664,163.985z"/>
	<path style="fill:none;enable-background:new    ;" d="M278.832,215.775c0.295,0.932,0.591,1.864,0.926,2.781
		c0.188,0.64,0.403,1.285,0.627,1.927c2.642,8.063,5.509,16.306,9.231,24.243c-0.312,0.376-0.598,0.756-0.919,1.129
		c-3.602,4.262-7.561,8.569-11.634,12.955c-0.684,0.726-1.367,1.447-2.015,2.19c-0.459,0.478-0.921,0.996-1.383,1.498
		c-6.009,6.535-12.044,13.401-17.349,20.88c-0.924-0.132-1.831-0.241-2.756-0.394c-5.525-0.877-11.239-2.028-17.084-3.238
		c-0.966-0.212-1.937-0.423-2.904-0.584c-0.655-0.152-1.333-0.278-2-0.404c-8.302-1.677-16.878-3.247-25.615-3.966
		c-0.338-0.856-0.688-1.693-1.015-2.573c-1.94-5.167-3.747-10.657-5.556-16.28c-0.291-0.936-0.581-1.873-0.907-2.791
		c-0.193-0.631-0.411-1.271-0.632-1.919c-2.584-7.906-5.397-15.997-9.021-23.794c0.636-0.802,1.253-1.601,1.919-2.4
		c3.558-4.313,7.462-8.656,11.49-13.086c0.665-0.733,1.348-1.456,1.982-2.209c0.461-0.484,0.919-1.001,1.369-1.516
		c5.436-6.045,10.918-12.352,15.812-19.159c1.259,0.164,2.508,0.322,3.784,0.521c5.514,0.845,11.24,1.982,17.098,3.165
		c0.967,0.209,1.939,0.414,2.907,0.585c0.655,0.133,1.323,0.27,2.001,0.395c8.211,1.625,16.696,3.147,25.335,3.842
		c0.246,0.642,0.51,1.264,0.755,1.915C275.229,204.658,277.032,210.143,278.832,215.775z"/>
	<path style="fill:none;enable-background:new    ;" d="M304.46,205.604l0.006,0.021c0.182,1.052,0.307,2.108,0.344,3.13
		c0.292,4.151-0.241,8.099-1.291,11.938c-2.938-8.255-5.782-16.253-9.14-23.545c2.42-0.328,4.842-0.777,7.263-1.339
		C303.031,199.191,303.993,202.448,304.46,205.604z"/>
	<path style="fill:none;enable-background:new    ;" d="M243.65,307.736c-4.156-0.408-7.901-1.209-11.23-2.457l-0.025-0.007
		c-1.017-0.353-2.014-0.761-2.924-1.221c-3.038-1.402-5.703-3.203-8.113-5.264c8.384,1.475,16.516,2.852,24.311,3.483
		C244.932,304.052,244.267,305.875,243.65,307.736z"/>
	<g style="enable-background:new    ;">
		<path style="fill:#5C94BE;" d="M302.831,83.974c6.573-0.154,13.242,0.026,19.854,0.237l2.214,88.54
			c-6.875,1.875-13.697,2.817-20.496,3.092L302.831,83.974z"/>
	</g>
	<g style="enable-background:new    ;">
		<path style="fill:#5C94BE;" d="M331.879,84.496c11.3,0.305,22.205,0.333,32.166-1.409c12.214,72.407-26.413,83.714-26.413,83.714
			C359.538,127.602,338.821,93.958,331.879,84.496z"/>
	</g>
	<g style="enable-background:new    ;">
		<path style="fill:#5F9BC8;" d="M302.978,195.492c-1.459-2.214-3.016-4.462-4.799-6.781c1.412,2.445,2.522,4.796,3.463,7.098
			c-2.421,0.563-4.843,1.012-7.263,1.339c-2.094-4.553-4.387-8.841-7.03-12.73c-0.878-1.29-1.811-2.531-2.765-3.722l-0.022-0.009
			c-0.873-1.076-1.727-2.116-2.658-3.13c-0.052-0.048-0.103-0.09-0.153-0.146c21.748,2.504,44.547,1.712,67.105-12.445
			C333.83,182.762,318.354,191.649,302.978,195.492z"/>
	</g>
	<g style="enable-background:new    ;">
		<path style="fill:#5F9BC8;" d="M184.847,195.135c-0.871,0.565-1.722,1.222-2.545,1.918l-0.021,0.02
			c-2.675,2.174-5.18,4.89-7.559,8.094c-0.273-0.313-0.535-0.632-0.812-0.941c2.384-4.86,4.889-9.121,7.531-12.784
			c0.77-1.063,1.573-2.073,2.35-3.044c0.026-0.018,0.026-0.018,0.026-0.018c3.567-4.336,7.354-7.698,11.331-10.341l3.282,1.492
			c1.594-1.905,3.175-3.83,4.738-5.769c1.476-0.6,2.991-1.094,4.512-1.542c-5.241,6.734-10.786,13.107-16.092,19.331
			C189.274,192.515,187.004,193.641,184.847,195.135z"/>
	</g>
	<g style="enable-background:new    ;">
		<path style="fill:#5F9BC8;" d="M245.189,193.335c-0.968-0.171-1.94-0.375-2.907-0.585c-5.858-1.183-11.584-2.32-17.098-3.165
			c-1.276-0.199-2.525-0.357-3.784-0.521c4.206-5.848,7.927-12.098,10.861-18.842c8.173,0.577,16.725,2.002,25.552,3.521
			c2.363,2.166,4.477,4.601,6.346,7.308c3.333,4.815,6.005,10.435,8.366,16.519c-8.639-0.694-17.124-2.216-25.335-3.842
			C246.513,193.604,245.845,193.468,245.189,193.335z"/>
	</g>
	<g style="enable-background:new    ;">
		<path style="fill:#5C94BE;" d="M261.81,93.401c5.414-3.116,11.195-5.213,17.271-6.672l4.647,88.313
			c-1.749-0.194-3.476-0.493-5.217-0.722c-2.998-2.625-6.369-4.868-10.19-6.682L261.81,93.401z"/>
	</g>
	<g style="enable-background:new    ;">
		<path style="fill:#5C94BE;" d="M238.072,114.321c10.965-95.328,114.38-36.598,153.309-47.652
			C356.002,104.569,273.55,52.119,238.072,114.321z"/>
	</g>
	<g style="enable-background:new    ;">
		<path style="fill:#458EAB;" d="M403.817,212.804c3.326,5.557,6.425,11.367,9.459,17.159l-76.626,46.649
			c-4.996-4.933-9.14-10.334-12.694-16.031L403.817,212.804z"/>
	</g>
	<g style="enable-background:new    ;">
		<path style="fill:#458EAB;" d="M348.081,284.556c45.076-1.014,64.509-35.822,69.439-46.549
			c5.232,9.857,10.516,19.222,16.902,26.909C376.829,311.992,348.081,284.556,348.081,284.556z"/>
	</g>
	<g style="enable-background:new    ;">
		<path style="fill:#458EAB;" d="M303.519,220.694c-0.753,2.733-1.731,5.422-3.034,8.048c-2.694,5.447-6.486,10.729-10.868,15.984
			c-3.723-7.938-6.59-16.18-9.231-24.243c-0.224-0.643-0.438-1.287-0.627-1.927c-0.335-0.917-0.631-1.849-0.926-2.781
			c-1.8-5.632-3.603-11.117-5.552-16.289c-0.245-0.651-0.509-1.273-0.755-1.915c7.194,0.575,14.5,0.58,21.854-0.423
			C297.736,204.44,300.581,212.439,303.519,220.694z"/>
	</g>
	<g style="enable-background:new    ;">
		<path style="fill:#458EAB;" d="M304.247,267.396c-1.235-1.378-2.41-2.792-3.531-4.232c3.09-4.196,5.84-8.436,8.043-12.781
			c0.708-1.402,1.351-2.826,1.933-4.24l-0.009-0.03c0.451-1.104,0.854-2.185,1.246-3.284c8.374,19.612,20.179,38.389,43.241,50.423
			c-23.638-4.021-39.211-13.246-50.121-24.997c1.028-2.104,2.045-4.294,3.028-6.642
			C306.847,263.738,305.559,265.626,304.247,267.396z"/>
	</g>
	<g style="enable-background:new    ;">
		<path style="fill:#458EAB;" d="M248.768,167.65c-0.926-0.455-1.915-0.861-2.935-1.212l-0.022-0.009
			c-3.305-1.233-7.028-2.032-11.146-2.444c0.124-0.366,0.245-0.735,0.365-1.107c5.6-0.444,10.693-0.444,15.313-0.012
			c1.312,0.124,2.598,0.296,3.819,0.483c0.028,0.007,0.028,0.007,0.028,0.007c5.343,0.838,9.99,2.317,14.132,4.281l0.467,5.336
			c3.216,0.521,6.471,0.919,9.724,1.346c1.123,0.986,2.216,2.008,3.238,3.092c-8.147-0.933-16.146-2.326-23.937-3.667
			C255.168,171.323,252.193,169.247,248.768,167.65z"/>
	</g>
	<g style="enable-background:new    ;">
		<path style="fill:#2E7B9F;" d="M284.562,180.688l0.022,0.009c0.954,1.19,1.887,2.432,2.765,3.722
			c2.644,3.889,4.937,8.177,7.03,12.73c-7.354,1.002-14.659,0.998-21.854,0.423c-2.361-6.084-5.033-11.704-8.366-16.519
			c-1.869-2.707-3.982-5.143-6.346-7.308c7.79,1.341,15.789,2.734,23.937,3.667c0.051,0.056,0.102,0.098,0.153,0.146
			C282.835,178.572,283.688,179.611,284.562,180.688z"/>
	</g>
	<g style="enable-background:new    ;">
		<path style="fill:#107BA0;" d="M268.321,167.637c3.821,1.814,7.192,4.058,10.19,6.682c-3.253-0.427-6.508-0.825-9.724-1.346
			L268.321,167.637z"/>
	</g>
	<g style="enable-background:new    ;">
		<path style="fill:#458EAB;" d="M375.551,182.337c5.379,3.072,10.021,6.967,14.265,11.452l-75.237,48.62
			c-0.51-1.21-0.944-2.446-1.437-3.657c1.07-4.41,1.476-8.989,1.118-13.791L375.551,182.337z"/>
	</g>
	<g style="enable-background:new    ;">
		<path style="fill:#458EAB;" d="M345.614,172.519c89.003-38.783,87.86,79.73,116.545,107.56
			C411.647,268.869,417.498,171.546,345.614,172.519z"/>
	</g>
	<g style="enable-background:new    ;">
		<path style="fill:#526EA6;" d="M259.506,320.146l80.698,44.713c-3.28,5.669-6.897,11.25-10.506,16.771l-78.14-42.499
			C253.491,332.347,256.219,326.065,259.506,320.146z"/>
	</g>
	<g style="enable-background:new    ;">
		<path style="fill:#526EA6;" d="M250.112,352.952c22.71,38.282,62.721,37.521,74.557,36.366
			c-6.139,9.456-11.813,18.715-15.482,28.076C239.909,391.483,250.112,352.952,250.112,352.952z"/>
	</g>
	<g style="enable-background:new    ;">
		<path style="fill:#526EA6;" d="M303.519,220.694c1.05-3.839,1.583-7.787,1.291-11.938c-0.037-1.022-0.162-2.079-0.344-3.13
			l-0.006-0.021c-0.467-3.156-1.429-6.413-2.818-9.795c0.447-0.099,0.896-0.204,1.336-0.317c2.804,4.242,5.086,8.317,6.811,12.215
			c0.535,1.193,0.987,2.378,1.438,3.532c0.004,0.03,0.004,0.03,0.004,0.03c1.755,4.789,2.7,9.331,3.029,13.692l-5.142,3.574
			c1.264,3.429,2.642,6.824,4.023,10.217c-0.288,1.178-0.624,2.346-0.993,3.507c-0.067,0.186-0.148,0.376-0.22,0.567
			C308.786,235.459,306.11,227.985,303.519,220.694z"/>
	</g>
	<g style="enable-background:new    ;">
		<path style="fill:#526EA6;" d="M243.65,307.736c0.616-1.861,1.281-3.685,2.018-5.465c4.77,0.388,9.421,0.499,13.925,0.16
			c1.574-0.114,3.147-0.306,4.665-0.54l0.023-0.023c1.394-0.211,2.737-0.436,4.086-0.732c0.312-0.074,0.62-0.171,0.934-0.251
			c-13.19,17.058-23.993,36.647-23.408,62.542c-7.718-21.843-7.342-39.535-2.617-54.597c2.301-0.184,4.666-0.428,7.151-0.774
			C248.022,308.084,245.801,307.943,243.65,307.736z"/>
	</g>
	<g style="enable-background:new    ;">
		<path style="fill:#526EA6;" d="M275.049,261.001c0.647-0.743,1.331-1.465,2.015-2.19c4.073-4.386,8.032-8.693,11.634-12.955
			c0.321-0.373,0.607-0.753,0.919-1.129c3.023,6.44,6.611,12.672,11.1,18.437c-4.601,6.254-9.973,12.445-15.538,18.801
			c-3.463,1.202-7.071,1.941-10.827,2.25c-5.701,0.484-11.757,0.056-18.033-0.835c5.305-7.479,11.34-14.345,17.349-20.88
			C274.128,261.997,274.59,261.479,275.049,261.001z"/>
	</g>
	<g style="enable-background:new    ;">
		<path style="fill:#2E509A;" d="M298.179,188.711c1.783,2.318,3.34,4.567,4.799,6.781c-0.44,0.113-0.889,0.219-1.336,0.317
			C300.701,193.507,299.591,191.156,298.179,188.711z"/>
	</g>
	<g style="enable-background:new    ;">
		<path style="fill:#2E509A;" d="M310.691,246.142c-0.582,1.414-1.225,2.838-1.933,4.24c-2.203,4.346-4.953,8.585-8.043,12.781
			c-4.488-5.765-8.076-11.996-11.1-18.437c4.382-5.255,8.174-10.538,10.868-15.984c1.303-2.626,2.281-5.315,3.034-8.048
			c2.592,7.291,5.268,14.766,8.41,22.133c-0.392,1.1-0.795,2.18-1.246,3.284L310.691,246.142z"/>
	</g>
	<g style="enable-background:new    ;">
		<path style="fill:#2E509A;" d="M314.26,224.961c0.357,4.802-0.048,9.381-1.118,13.791c-1.382-3.394-2.76-6.788-4.023-10.217
			L314.26,224.961z"/>
	</g>
	<g style="enable-background:new    ;">
		<path style="fill:#526EA6;" d="M285.254,293.498l68.06,31.739c-0.112,6.16-1.285,12.142-3.174,18.03l-79.191-40.309
			c0.907-1.173,1.885-2.287,2.807-3.438C277.736,298.107,281.585,296.153,285.254,293.498z"/>
	</g>
	<g style="enable-background:new    ;">
		<path style="fill:#526EA6;" d="M347.441,294.545c77.191,57.106-27.566,115.666-38.172,154.331
			C294.688,399.772,383.102,355.912,347.441,294.545z"/>
	</g>
	<g style="enable-background:new    ;">
		<path style="fill:#6E7BA8;" d="M174.282,296.406l1.182,91.876c-6.563,0.119-13.226-0.083-19.849-0.314l-1.843-88.558
			C160.648,297.555,167.481,296.656,174.282,296.406z"/>
	</g>
	<g style="enable-background:new    ;">
		<path style="fill:#6E7BA8;" d="M146.421,387.648c-11.304-0.36-22.194-0.422-32.171,1.266
			c-11.895-72.452,26.769-83.613,26.769-83.613C118.948,344.409,139.527,378.151,146.421,387.648z"/>
	</g>
	<g style="enable-background:new    ;">
		<path style="fill:#6E7BA8;" d="M178.74,276.095c1.802-0.366,3.605-0.671,5.402-0.917c2.017,4.327,4.219,8.396,6.743,12.114
			c0.875,1.282,1.809,2.533,2.761,3.718l0.026,0.019c0.868,1.067,1.732,2.107,2.653,3.117c0.262,0.282,0.546,0.531,0.814,0.806
			c-21.79-2.621-44.659-1.955-67.353,12.145c15.68-18.418,31.806-27.226,47.771-30.751c1.339,1.942,2.758,3.904,4.342,5.921
			C180.644,280.147,179.637,278.107,178.74,276.095z"/>
	</g>
	<g style="enable-background:new    ;">
		<path style="fill:#6E7BA8;" d="M293.914,277.608c0.867-0.57,1.729-1.219,2.548-1.913l0.03-0.018
			c2.742-2.217,5.313-4.984,7.755-8.282c0.259,0.293,0.538,0.571,0.802,0.857c-2.451,4.986-5.034,9.334-7.749,13.055
			c-0.772,1.065-1.585,2.083-2.37,3.038c-0.012,0.013-0.012,0.013-0.012,0.013c-3.072,3.703-6.299,6.702-9.664,9.14l-4.758-2.217
			c-2.296,2.693-4.515,5.472-6.741,8.24c-1.465,0.522-2.95,0.979-4.454,1.363c5.108-6.616,10.571-12.853,15.877-18.921
			C288.213,280.91,291.134,279.51,293.914,277.608z"/>
	</g>
	<g style="enable-background:new    ;">
		<path style="fill:#6E7BA8;" d="M233.573,279.163c0.967,0.161,1.938,0.372,2.904,0.584c5.845,1.21,11.559,2.361,17.084,3.238
			c0.925,0.152,1.832,0.262,2.756,0.394c-4.156,5.854-7.827,12.102-10.649,18.893c-7.795-0.632-15.927-2.009-24.311-3.483
			c-2.755-2.362-5.172-5.074-7.285-8.132c-3.218-4.64-5.812-10.033-8.113-15.863c8.737,0.719,17.313,2.289,25.615,3.966
			C232.24,278.885,232.918,279.011,233.573,279.163z"/>
	</g>
	<g style="enable-background:new    ;">
		<path style="fill:#4F5F9C;" d="M308.077,261.611c-0.983,2.348-2,4.538-3.028,6.642c-0.264-0.286-0.543-0.564-0.802-0.857
			C305.559,265.626,306.847,263.738,308.077,261.611z"/>
	</g>
	<g style="enable-background:new    ;">
		<path style="fill:#4D5F98;" d="M264.281,301.868l-0.023,0.023c-1.518,0.234-3.091,0.426-4.665,0.54
			c-4.504,0.339-9.155,0.228-13.925-0.16c2.822-6.791,6.493-13.038,10.649-18.893c6.276,0.891,12.332,1.319,18.033,0.835
			c3.756-0.309,7.364-1.048,10.827-2.25c-5.306,6.068-10.769,12.305-15.877,18.921c-0.313,0.08-0.622,0.177-0.934,0.251
			C267.019,301.433,265.675,301.657,264.281,301.868z"/>
	</g>
	<g style="enable-background:new    ;">
		<path style="fill:#4F5F9C;" d="M285.254,293.498c-3.669,2.655-7.518,4.609-11.499,6.023c2.227-2.769,4.445-5.547,6.741-8.24
			L285.254,293.498z"/>
	</g>
	<g style="enable-background:new    ;">
		<path style="fill:#6E7BA8;" d="M216.519,379.026c-5.434,3.097-11.207,5.175-17.286,6.595l-4.275-88.326
			c1.877,0.22,3.733,0.548,5.599,0.8c2.887,2.404,6.106,4.475,9.737,6.154L216.519,379.026z"/>
	</g>
	<g style="enable-background:new    ;">
		<path style="fill:#6E7BA8;" d="M240.352,358.193c-11.361,95.301-114.529,36.142-153.496,47.043
			C122.389,367.458,204.618,420.252,240.352,358.193z"/>
	</g>
	<g style="enable-background:new    ;">
		<path style="fill:#91C4E0;" d="M74.418,258.914c-3.332-5.566-6.429-11.373-9.471-17.16l76.631-46.661
			c4.995,4.948,9.144,10.347,12.695,16.038L74.418,258.914z"/>
	</g>
	<g style="enable-background:new    ;">
		<path style="fill:#91C4E0;" d="M43.805,206.786c57.594-47.069,86.347-19.629,86.347-19.629
			c-45.08,1.009-64.513,35.811-69.437,46.552C55.48,223.846,50.183,214.476,43.805,206.786z"/>
	</g>
	<g style="enable-background:new    ;">
		<path style="fill:#91C4E0;" d="M229.47,304.052c0.911,0.46,1.908,0.868,2.924,1.221l0.025,0.007
			c3.329,1.248,7.074,2.049,11.23,2.457c-0.118,0.366-0.26,0.717-0.375,1.094c-5.628,0.449-10.749,0.453-15.386,0.014
			c-1.313-0.125-2.59-0.296-3.826-0.478c-0.024-0.013-0.024-0.013-0.024-0.013c-5.18-0.814-9.702-2.229-13.747-4.104l-0.402-4.824
			c-3.086-0.512-6.212-0.899-9.334-1.33c-1.19-0.992-2.33-2.04-3.417-3.144c8.254,0.994,16.347,2.445,24.218,3.837
			C223.768,300.849,226.432,302.649,229.47,304.052z"/>
	</g>
	<g style="enable-background:new    ;">
		<path style="fill:#91C4E0;" d="M174.723,205.167c1.067,1.22,2.092,2.456,3.069,3.728c-2.739,3.893-5.178,7.814-7.154,11.825
			c-0.694,1.415-1.317,2.85-1.888,4.276l-0.005,0.024c-0.503,1.299-0.984,2.563-1.409,3.871c-0.152,0.481-0.265,0.978-0.399,1.469
			c-8.414-20.142-20.229-39.567-43.87-51.904c24.154,4.116,39.895,13.645,50.845,25.77c-1.082,2.202-2.142,4.488-3.164,6.961
			C172.023,208.969,173.357,207.006,174.723,205.167z"/>
	</g>
	<g style="enable-background:new    ;">
		<path style="fill:#91C4E0;" d="M197.849,251.229c0.221,0.648,0.439,1.288,0.632,1.919c0.326,0.918,0.616,1.855,0.907,2.791
			c1.809,5.623,3.616,11.113,5.556,16.28c0.326,0.88,0.677,1.717,1.015,2.573c-7.182-0.594-14.472-0.605-21.816,0.385
			c-3.163-6.776-5.868-14.174-8.597-21.836c0.668-3.8,1.873-7.48,3.603-11.063c2.426-5.055,5.796-9.959,9.681-14.843
			C192.452,235.232,195.265,243.323,197.849,251.229z"/>
	</g>
	<g style="enable-background:new    ;">
		<path style="fill:#4DA9DC;" d="M170.748,211.187c1.022-2.473,2.082-4.76,3.164-6.961c0.277,0.31,0.539,0.629,0.812,0.941
			C173.357,207.006,172.023,208.969,170.748,211.187z"/>
	</g>
	<g style="enable-background:new    ;">
		<path style="fill:#3B65A0;" d="M250.427,308.056c-2.485,0.347-4.851,0.591-7.151,0.774c0.115-0.377,0.257-0.728,0.375-1.094
			C245.801,307.943,248.022,308.084,250.427,308.056z"/>
	</g>
	<g style="enable-background:new    ;">
		<path style="fill:#3D699F;" d="M193.672,291.028l-0.026-0.019c-0.952-1.185-1.885-2.436-2.761-3.718
			c-2.523-3.718-4.726-7.787-6.743-12.114c7.344-0.99,14.634-0.979,21.816-0.385c2.301,5.83,4.896,11.224,8.113,15.863
			c2.113,3.058,4.53,5.77,7.285,8.132c-7.871-1.392-15.964-2.843-24.218-3.837c-0.268-0.274-0.552-0.523-0.814-0.806
			C195.404,293.136,194.54,292.096,193.672,291.028z"/>
	</g>
	<g style="enable-background:new    ;">
		<path style="fill:#3D699F;" d="M210.293,304.249c-3.63-1.68-6.85-3.75-9.737-6.154c3.122,0.431,6.249,0.818,9.334,1.33
			L210.293,304.249z"/>
	</g>
	<g style="enable-background:new    ;">
		<path style="fill:#91C4E0;" d="M102.682,289.381c-5.377-3.08-10.036-6.979-14.268-11.454l75.239-48.629
			c0.795,1.876,1.482,3.788,2.234,5.681c-0.602,3.482-0.791,7.075-0.504,10.795L102.682,289.381z"/>
	</g>
	<g style="enable-background:new    ;">
		<path style="fill:#91C4E0;" d="M132.609,299.193c-89,38.777-87.859-79.726-116.535-107.572
			C66.585,202.846,60.73,300.165,132.609,299.193z"/>
	</g>
	<g style="enable-background:new    ;">
		<path style="fill:#6DB1D7;" d="M226.848,131.366c-1.853,6.803-4.519,13.112-7.741,19.065l-81.186-43.819
			c3.202-5.707,6.762-11.326,10.31-16.884L226.848,131.366z"/>
	</g>
	<g style="enable-background:new    ;">
		<path style="fill:#6DB1D7;" d="M228.14,117.531c-23.15-38.024-63.153-36.825-74.968-35.551c6.031-9.511,11.6-18.837,15.174-28.231
			C237.913,78.893,228.14,117.531,228.14,117.531z"/>
	</g>
	<g style="enable-background:new    ;">
		<path style="fill:#4DA9DC;" d="M175.545,253.342c-0.516,2.91-0.746,5.88-0.495,8.959c0.042,1.016,0.181,2.069,0.379,3.12
			l0.002,0.033c0.544,3.414,1.665,6.954,3.308,10.641c-0.392,0.079-0.787,0.165-1.182,0.25c-3.106-4.503-5.599-8.815-7.477-12.945
			c-0.541-1.177-1.024-2.362-1.464-3.513c-0.012-0.03-0.012-0.03-0.012-0.03c-1.881-4.928-2.882-9.599-3.223-14.082l3.731-2.596
			c-1.009-2.755-2.139-5.468-3.227-8.2c0.271-1.56,0.623-3.099,1.049-4.62C170.143,238.036,172.858,245.81,175.545,253.342z"/>
	</g>
	<g style="enable-background:new    ;">
		<path style="fill:#6DB1D7;" d="M234.664,163.985c-0.722,2.129-1.522,4.208-2.403,6.238c-4.515-0.322-8.928-0.391-13.195-0.055
			c-1.574,0.126-3.145,0.322-4.667,0.554l-0.017,0.027c-1.387,0.22-2.73,0.455-4.084,0.756c-0.881,0.203-1.746,0.463-2.617,0.715
			c13.828-17.772,25.47-38.102,24.558-65.2c8.189,22.386,7.735,40.459,2.79,55.858c-2.321,0.185-4.708,0.426-7.218,0.777
			C230.244,163.628,232.493,163.77,234.664,163.985z"/>
	</g>
	<g style="enable-background:new    ;">
		<path style="fill:#6DB1D7;" d="M204.22,209.739c-0.634,0.754-1.317,1.477-1.982,2.209c-4.028,4.43-7.932,8.772-11.49,13.086
			c-0.666,0.799-1.283,1.598-1.919,2.4c-3.002-6.467-6.565-12.735-11.037-18.54c4.07-5.783,8.825-11.501,13.798-17.344
			c4.061-1.688,8.325-2.713,12.803-3.107c5.386-0.479,11.089-0.148,17.007,0.621c-4.894,6.808-10.376,13.114-15.812,19.159
			C205.139,208.738,204.681,209.255,204.22,209.739z"/>
	</g>
	<g style="enable-background:new    ;">
		<path style="fill:#4F9DCA;" d="M214.383,170.749l0.017-0.027c1.522-0.231,3.093-0.428,4.667-0.554
			c4.268-0.336,8.68-0.267,13.195,0.055c-2.934,6.744-6.655,12.994-10.861,18.842c-5.918-0.769-11.622-1.1-17.007-0.621
			c-4.478,0.394-8.743,1.419-12.803,3.107c5.306-6.224,10.851-12.597,16.092-19.331c0.872-0.252,1.736-0.512,2.617-0.715
			C211.652,171.203,212.996,170.969,214.383,170.749z"/>
	</g>
	<g style="enable-background:new    ;">
		<path style="fill:#4DA9DC;" d="M227.811,163.655c2.51-0.351,4.897-0.592,7.218-0.777c-0.12,0.372-0.241,0.741-0.365,1.107
			C232.493,163.77,230.244,163.628,227.811,163.655z"/>
	</g>
	<g style="enable-background:new    ;">
		<path style="fill:#5595C2;" d="M181.9,282.266c-1.584-2.017-3.003-3.979-4.342-5.921c0.395-0.085,0.79-0.171,1.182-0.25
			C179.637,278.107,180.644,280.147,181.9,282.266z"/>
	</g>
	<g style="enable-background:new    ;">
		<path style="fill:#58A7D1;" d="M168.745,225.02l0.005-0.024c0.571-1.426,1.194-2.861,1.888-4.276
			c1.976-4.011,4.415-7.932,7.154-11.825c4.472,5.805,8.035,12.073,11.037,18.54c-3.885,4.884-7.255,9.789-9.681,14.843
			c-1.73,3.583-2.935,7.264-3.603,11.063c-2.687-7.532-5.402-15.306-8.609-22.982c0.135-0.491,0.248-0.987,0.399-1.469
			C167.76,227.583,168.241,226.319,168.745,225.02z"/>
	</g>
	<g style="enable-background:new    ;">
		<path style="fill:#4DA9DC;" d="M165.383,245.774c-0.286-3.721-0.098-7.313,0.504-10.795c1.088,2.731,2.218,5.445,3.227,8.2
			L165.383,245.774z"/>
	</g>
	<g style="enable-background:new    ;">
		<path style="fill:#6DB1D7;" d="M195.149,178.038l-69.9-31.666c0.032-6.164,1.144-12.145,2.958-18.06l79.65,39.436
			c-1.531,2.028-3.098,4.033-4.688,6.014C200.414,174.879,197.745,176.318,195.149,178.038z"/>
	</g>
	<g style="enable-background:new    ;">
		<path style="fill:#4F9DCA;" d="M195.149,178.038c2.596-1.72,5.265-3.159,8.021-4.277c-1.563,1.939-3.144,3.864-4.738,5.769
			L195.149,178.038z"/>
	</g>
	<g style="enable-background:new    ;">
		<path style="fill:#6DB1D7;" d="M131.456,176.995c-77.838-56.256,26.28-115.956,36.433-154.716
			C183.034,71.208,95.115,116.026,131.456,176.995z"/>
	</g>
</g>
</svg>
