<?xml version="1.0" standalone="no"?>
<!DOCTYPE svg PUBLIC "-//W3C//DTD SVG 20010904//EN"
 "http://www.w3.org/TR/2001/REC-SVG-20010904/DTD/svg10.dtd">
<svg version="1.0" xmlns="http://www.w3.org/2000/svg"
 width="700.000000pt" height="700.000000pt" viewBox="0 0 700.000000 700.000000"
 preserveAspectRatio="xMidYMid meet">
<metadata>
Created by potrace 1.14, written by Peter Selinger 2001-2017
</metadata>
<g transform="translate(0.000000,700.000000) scale(0.100000,-0.100000)"
fill="#000000" stroke="none">
<path d="M2421 6632 c-37 -106 -128 -236 -350 -501 -400 -475 -521 -669 -567
-909 -27 -141 -10 -278 52 -407 41 -88 138 -209 232 -292 124 -107 128 -108
82 -11 -82 172 -106 366 -66 543 42 187 116 336 359 723 213 339 283 496 302
674 7 65 -9 203 -24 212 -4 3 -13 -12 -20 -32z"/>
<path d="M2406 6136 c-21 -47 -69 -137 -107 -200 -38 -64 -69 -118 -69 -120 0
-2 71 -6 158 -9 234 -8 394 -52 564 -153 100 -60 250 -201 315 -296 l48 -70 3
68 c5 94 -12 163 -64 269 -107 218 -348 411 -684 548 -136 55 -121 59 -164
-37z"/>
<path d="M4159 6140 c-376 -48 -609 -277 -684 -673 -25 -133 -22 -139 35 -54
27 40 83 105 123 144 112 106 219 164 381 207 172 46 293 53 836 48 180 -2
336 1 380 8 175 25 320 84 408 167 l47 44 -45 -7 c-121 -20 -324 -3 -655 52
-380 64 -660 86 -826 64z"/>
<path d="M5230 5788 c-30 -5 -135 -10 -232 -11 -98 -1 -178 -3 -178 -4 0 -2
16 -28 37 -60 59 -92 122 -235 150 -340 24 -88 27 -116 27 -268 0 -194 -13
-264 -84 -428 -22 -50 -38 -93 -36 -95 7 -7 82 36 133 76 198 157 303 496 273
883 -9 123 -25 249 -32 253 -2 1 -28 -2 -58 -6z"/>
<path d="M4404 5283 c3 -274 9 -576 13 -671 l6 -172 51 5 c128 14 238 38 243
52 6 14 -11 817 -23 1126 l-7 157 -145 0 -145 0 7 -497z"/>
<path d="M3970 5719 c-67 -23 -170 -71 -170 -78 0 -3 20 -235 45 -516 25 -280
45 -519 45 -531 l0 -22 -52 20 c-83 31 -190 48 -310 48 -100 0 -109 2 -104 18
29 95 39 170 40 302 1 158 -15 261 -62 404 l-26 81 -7 -105 c-19 -274 -105
-496 -296 -762 -36 -50 -65 -80 -85 -87 l-29 -10 32 40 c17 22 29 42 27 44 -3
3 -263 133 -579 289 -375 185 -576 280 -581 272 -12 -21 -38 -165 -38 -211 0
-38 4 -47 23 -55 12 -6 239 -108 504 -228 l482 -219 -46 -34 c-62 -46 -148
-150 -209 -253 l-51 -85 -34 35 c-95 99 -285 215 -441 268 -82 28 -248 70
-254 64 -2 -2 25 -20 59 -40 211 -123 383 -321 513 -593 47 -96 54 -120 48
-147 l-7 -33 -12 35 c-7 19 -18 34 -24 32 -21 -4 -1081 -693 -1081 -702 0 -20
175 -160 199 -160 6 0 212 140 458 310 245 171 447 309 448 308 1 -2 9 -34 18
-73 21 -97 49 -166 102 -260 26 -44 47 -84 48 -88 1 -4 -36 -21 -83 -36 -107
-35 -223 -94 -320 -162 -72 -51 -270 -234 -270 -250 0 -4 44 15 98 41 110 55
221 93 337 116 174 33 517 27 554 -11 14 -13 12 -15 -17 -15 -26 0 -32 -4 -32
-21 0 -71 61 -1254 65 -1258 8 -7 116 26 189 58 l67 31 -6 52 c-15 135 -85
1021 -81 1026 3 2 23 -2 44 -11 72 -29 190 -47 305 -47 l114 0 -19 -77 c-28
-118 -34 -277 -14 -409 16 -112 60 -281 77 -299 5 -5 9 22 9 72 0 222 83 464
240 695 89 132 91 134 118 142 21 7 22 6 11 -13 -8 -11 -11 -23 -7 -26 3 -3
262 -136 574 -295 389 -197 571 -285 575 -277 10 17 37 154 42 208 l4 46 -488
228 c-269 125 -489 230 -489 232 0 3 22 25 50 49 58 53 125 141 181 236 l40
68 65 -55 c163 -138 314 -215 533 -270 132 -34 146 -32 73 13 -223 135 -377
307 -509 570 -50 100 -66 162 -43 162 6 0 10 -7 10 -15 0 -8 4 -15 9 -15 8 0
299 186 935 599 82 53 151 101 153 108 5 13 -120 121 -171 148 l-34 18 -438
-305 c-430 -299 -439 -305 -446 -279 -4 14 -14 58 -24 96 -9 39 -43 120 -74
182 l-58 112 77 26 c168 56 306 144 463 294 59 57 108 107 108 112 0 4 -44
-14 -97 -41 -209 -104 -351 -134 -633 -135 -198 0 -206 1 -240 23 l-35 23 33
-4 32 -4 0 56 c0 31 -14 308 -30 616 -16 308 -30 572 -30 588 0 33 -12 33 -90
6z m-402 -1141 c50 -19 162 -82 162 -91 0 -2 -24 0 -52 5 -29 4 -107 15 -173
24 -66 9 -121 17 -123 18 -1 2 5 20 14 41 l15 37 50 -6 c28 -4 76 -16 107 -28z
m-38 -383 c124 -24 271 -49 327 -56 l103 -13 76 -230 c43 -127 97 -280 121
-340 39 -99 42 -111 29 -130 -8 -12 -85 -97 -171 -191 -85 -93 -186 -209 -223
-257 -37 -48 -74 -87 -83 -87 -9 -1 -131 21 -270 48 -140 27 -298 55 -351 62
-95 12 -97 13 -108 43 -6 17 -49 141 -95 276 -45 135 -95 271 -109 304 -14 32
-26 63 -26 69 0 12 54 76 208 247 62 69 145 166 185 217 l72 92 45 -6 c25 -3
146 -25 270 -48z m-785 -17 c-14 -18 -57 -72 -94 -120 l-69 -87 -22 24 -22 24
53 57 c44 46 159 134 176 134 3 0 -7 -15 -22 -32z m1653 -73 c17 -48 28 -245
15 -269 -7 -13 -19 10 -53 101 -23 65 -51 135 -62 156 -20 40 -19 42 32 50 44
8 53 3 68 -38z m-1767 -1005 c21 -52 37 -95 36 -96 -1 -1 -18 -4 -37 -6 -33
-3 -35 -1 -51 43 -22 58 -38 172 -31 224 l5 40 20 -55 c11 -30 37 -98 58 -150z
m1779 15 c0 -34 -218 -211 -236 -192 -3 3 33 51 81 107 47 57 92 111 98 121
11 18 12 18 34 -3 13 -12 23 -27 23 -33z m-980 -491 c69 -10 127 -19 128 -20
2 -1 -2 -18 -9 -38 -10 -28 -17 -35 -33 -31 -102 20 -139 31 -193 57 -35 17
-68 37 -75 46 -11 13 -8 14 22 9 19 -3 91 -13 160 -23z"/>
<path d="M2098 5613 c-30 -49 -64 -104 -76 -125 l-23 -36 118 -65 c410 -224
1052 -567 1062 -567 14 0 62 102 97 203 l23 67 -22 14 c-16 10 -983 522 -1109
587 -14 7 -26 -7 -70 -78z"/>
<path d="M5335 4596 c-84 -16 -225 -59 -280 -85 l-40 -19 51 -1 c83 -1 220
-29 304 -62 143 -55 268 -153 391 -306 78 -98 150 -217 285 -470 180 -337 245
-436 359 -548 39 -38 96 -85 126 -103 59 -34 168 -76 176 -68 3 3 -8 21 -25
40 -74 84 -148 242 -267 570 -213 586 -345 811 -562 956 -139 93 -339 130
-518 96z"/>
<path d="M1377 4385 c-202 -39 -419 -144 -654 -319 -45 -34 -82 -64 -83 -68 0
-4 22 -38 49 -75 49 -67 181 -290 181 -305 0 -23 19 -1 53 63 55 99 143 213
230 296 179 170 387 266 641 295 110 12 110 14 16 63 -113 58 -286 78 -433 50z"/>
<path d="M240 4215 c0 -3 17 -27 38 -54 75 -95 124 -204 267 -591 182 -495
279 -677 452 -840 173 -164 367 -219 619 -175 95 17 262 69 291 91 16 12 10
13 -44 14 -221 1 -443 103 -607 280 -114 123 -184 233 -348 539 -138 257 -148
276 -222 386 -68 104 -199 239 -270 280 -50 29 -176 79 -176 70z"/>
<path d="M1500 3830 c-312 -191 -554 -345 -552 -352 5 -19 113 -212 126 -226
10 -10 121 52 582 328 313 188 573 345 578 350 10 10 -61 112 -131 187 l-48
52 -555 -339z"/>
<path d="M5290 3569 c-311 -187 -571 -343 -578 -348 -10 -6 2 -28 46 -87 33
-43 75 -97 94 -118 l35 -40 556 339 c307 186 557 343 557 349 0 17 -126 240
-136 242 -5 1 -263 -151 -574 -337z"/>
<path d="M6022 3468 c-119 -216 -293 -384 -506 -488 -115 -56 -217 -85 -358
-102 -108 -13 -112 -20 -34 -60 84 -43 150 -60 257 -65 166 -9 314 25 504 117
153 74 430 262 421 286 -3 6 -27 42 -54 80 -28 38 -80 122 -117 187 -37 64
-68 117 -70 117 -2 0 -21 -33 -43 -72z"/>
<path d="M5050 2715 c0 -3 13 -31 29 -63 40 -79 68 -175 82 -278 31 -232 -58
-494 -290 -854 -277 -428 -329 -524 -376 -685 -33 -113 -36 -260 -8 -345 3 -9
14 9 29 44 36 89 138 234 284 406 271 319 344 407 400 486 190 267 270 476
257 674 -12 175 -84 319 -241 476 -93 92 -166 154 -166 139z"/>
<path d="M2450 2693 c-67 -6 -210 -36 -215 -44 -6 -9 13 -1058 21 -1196 l6
-93 145 0 145 0 -7 663 c-4 364 -9 665 -12 670 -4 7 -15 7 -83 0z"/>
<path d="M2004 2550 c-268 -134 -411 -503 -374 -965 6 -82 15 -168 19 -190 6
-38 8 -40 41 -38 19 1 126 5 237 9 l202 7 -28 41 c-43 62 -100 181 -132 273
-93 268 -75 564 50 812 18 34 31 65 29 67 -2 2 -22 -5 -44 -16z"/>
<path d="M3727 2273 c-42 -89 -79 -194 -72 -201 2 -3 259 -143 570 -312 l565
-308 54 83 c72 110 102 163 96 168 -9 9 -1163 647 -1170 647 -4 0 -23 -35 -43
-77z"/>
<path d="M3626 1855 c-10 -27 -7 -96 9 -169 52 -245 265 -471 602 -640 114
-57 228 -106 248 -106 7 0 24 28 39 63 22 53 69 135 179 315 l20 34 -64 -7
c-84 -9 -255 10 -374 40 -104 26 -233 83 -322 142 -80 53 -203 172 -265 257
-68 93 -64 90 -72 71z"/>
<path d="M3451 1738 c-19 -29 -75 -93 -125 -143 -132 -131 -250 -191 -471
-242 -71 -16 -134 -18 -590 -19 -610 -1 -663 -8 -846 -99 -63 -32 -185 -133
-144 -120 43 14 216 17 319 6 60 -7 242 -34 405 -61 163 -26 357 -54 431 -61
483 -44 789 79 944 380 59 114 128 359 114 401 -2 7 -19 -12 -37 -42z"/>
</g>
</svg>
